<svg width="575" height="532" viewBox="0 0 575 532" fill="none" xmlns="http://www.w3.org/2000/svg">
<path d="M287.305 226V1C411.553 1 512.275 101.736 512.275 226C512.275 350.264 411.553 451 287.305 451C189.843 451 103.464 388.234 73.3466 295.529L287.305 226Z" fill="#61B3FF" stroke="white"/>
<path d="M287.305 226L73.3466 295.529C34.952 177.347 99.6198 50.412 217.786 12.0123C240.238 4.71623 263.698 1 287.305 1V226Z" fill="#FEF0A9" stroke="white"/>
<path d="M172.978 155.484C172.978 156.505 172.78 157.391 172.384 158.141C171.989 158.891 171.436 159.505 170.728 159.984C170.02 160.453 169.186 160.781 168.228 160.969V161.094C170.041 161.323 171.4 161.906 172.306 162.844C173.223 163.781 173.681 165.01 173.681 166.531C173.681 167.854 173.369 169.026 172.744 170.047C172.129 171.068 171.181 171.87 169.9 172.453C168.629 173.026 166.999 173.312 165.009 173.312C163.801 173.312 162.681 173.214 161.65 173.016C160.629 172.828 159.65 172.51 158.713 172.062V169.625C159.66 170.094 160.692 170.464 161.806 170.734C162.921 170.995 163.999 171.125 165.041 171.125C167.124 171.125 168.629 170.714 169.556 169.891C170.483 169.057 170.947 167.922 170.947 166.484C170.947 165.495 170.686 164.698 170.166 164.094C169.655 163.479 168.916 163.031 167.947 162.75C166.989 162.458 165.832 162.312 164.478 162.312H162.197V160.094H164.494C165.733 160.094 166.785 159.911 167.65 159.547C168.515 159.182 169.171 158.672 169.619 158.016C170.077 157.349 170.306 156.562 170.306 155.656C170.306 154.5 169.921 153.609 169.15 152.984C168.379 152.349 167.332 152.031 166.009 152.031C165.197 152.031 164.457 152.115 163.791 152.281C163.124 152.448 162.499 152.677 161.916 152.969C161.332 153.26 160.749 153.599 160.166 153.984L158.853 152.203C159.686 151.557 160.702 151 161.9 150.531C163.098 150.062 164.457 149.828 165.978 149.828C168.311 149.828 170.061 150.359 171.228 151.422C172.395 152.484 172.978 153.839 172.978 155.484ZM192.259 161.547C192.259 163.401 192.119 165.057 191.838 166.516C191.556 167.974 191.114 169.208 190.509 170.219C189.905 171.229 189.124 172 188.166 172.531C187.207 173.052 186.056 173.312 184.713 173.312C183.015 173.312 181.608 172.849 180.494 171.922C179.39 170.995 178.561 169.656 178.009 167.906C177.468 166.146 177.197 164.026 177.197 161.547C177.197 159.109 177.442 157.016 177.931 155.266C178.431 153.505 179.233 152.156 180.338 151.219C181.442 150.271 182.9 149.797 184.713 149.797C186.431 149.797 187.848 150.266 188.963 151.203C190.077 152.13 190.905 153.474 191.447 155.234C191.989 156.984 192.259 159.089 192.259 161.547ZM179.806 161.547C179.806 163.672 179.968 165.443 180.291 166.859C180.614 168.276 181.134 169.339 181.853 170.047C182.582 170.745 183.535 171.094 184.713 171.094C185.89 171.094 186.838 170.745 187.556 170.047C188.285 169.349 188.811 168.292 189.134 166.875C189.468 165.458 189.634 163.682 189.634 161.547C189.634 159.453 189.473 157.703 189.15 156.297C188.827 154.88 188.306 153.818 187.588 153.109C186.869 152.391 185.91 152.031 184.713 152.031C183.515 152.031 182.556 152.391 181.838 153.109C181.119 153.818 180.598 154.88 180.275 156.297C179.963 157.703 179.806 159.453 179.806 161.547ZM200.134 149.828C201.697 149.828 202.879 150.453 203.681 151.703C204.494 152.943 204.9 154.698 204.9 156.969C204.9 159.24 204.509 161.01 203.728 162.281C202.947 163.542 201.749 164.172 200.134 164.172C198.634 164.172 197.483 163.542 196.681 162.281C195.89 161.01 195.494 159.24 195.494 156.969C195.494 154.698 195.874 152.943 196.634 151.703C197.395 150.453 198.561 149.828 200.134 149.828ZM200.134 151.688C199.291 151.688 198.671 152.13 198.275 153.016C197.879 153.891 197.681 155.208 197.681 156.969C197.681 158.729 197.879 160.057 198.275 160.953C198.671 161.849 199.291 162.297 200.134 162.297C201.009 162.297 201.66 161.849 202.088 160.953C202.515 160.057 202.728 158.729 202.728 156.969C202.728 155.219 202.515 153.901 202.088 153.016C201.671 152.13 201.02 151.688 200.134 151.688ZM214.603 150.156L201.931 173H199.65L212.322 150.156H214.603ZM213.994 158.984C215.546 158.984 216.728 159.609 217.541 160.859C218.353 162.099 218.759 163.854 218.759 166.125C218.759 168.385 218.369 170.151 217.588 171.422C216.806 172.682 215.608 173.312 213.994 173.312C212.483 173.312 211.332 172.682 210.541 171.422C209.749 170.151 209.353 168.385 209.353 166.125C209.353 163.854 209.728 162.099 210.478 160.859C211.239 159.609 212.41 158.984 213.994 158.984ZM213.994 160.859C213.15 160.859 212.53 161.297 212.134 162.172C211.739 163.047 211.541 164.365 211.541 166.125C211.541 167.885 211.739 169.214 212.134 170.109C212.53 170.995 213.15 171.438 213.994 171.438C214.869 171.438 215.52 171 215.947 170.125C216.374 169.24 216.588 167.906 216.588 166.125C216.588 164.375 216.374 163.062 215.947 162.188C215.53 161.302 214.879 160.859 213.994 160.859Z" fill="#2395FF"/>
<path d="M353.806 286L363.181 265.531H350.728V263.156H365.963V265.156L356.65 286H353.806ZM384.259 274.547C384.259 276.401 384.119 278.057 383.838 279.516C383.556 280.974 383.114 282.208 382.509 283.219C381.905 284.229 381.124 285 380.166 285.531C379.207 286.052 378.056 286.312 376.713 286.312C375.015 286.312 373.608 285.849 372.494 284.922C371.39 283.995 370.561 282.656 370.009 280.906C369.468 279.146 369.197 277.026 369.197 274.547C369.197 272.109 369.442 270.016 369.931 268.266C370.431 266.505 371.233 265.156 372.338 264.219C373.442 263.271 374.9 262.797 376.713 262.797C378.431 262.797 379.848 263.266 380.963 264.203C382.077 265.13 382.905 266.474 383.447 268.234C383.989 269.984 384.259 272.089 384.259 274.547ZM371.806 274.547C371.806 276.672 371.968 278.443 372.291 279.859C372.614 281.276 373.134 282.339 373.853 283.047C374.582 283.745 375.535 284.094 376.713 284.094C377.89 284.094 378.838 283.745 379.556 283.047C380.285 282.349 380.811 281.292 381.134 279.875C381.468 278.458 381.634 276.682 381.634 274.547C381.634 272.453 381.473 270.703 381.15 269.297C380.827 267.88 380.306 266.818 379.588 266.109C378.869 265.391 377.91 265.031 376.713 265.031C375.515 265.031 374.556 265.391 373.838 266.109C373.119 266.818 372.598 267.88 372.275 269.297C371.963 270.703 371.806 272.453 371.806 274.547ZM392.134 262.828C393.697 262.828 394.879 263.453 395.681 264.703C396.494 265.943 396.9 267.698 396.9 269.969C396.9 272.24 396.509 274.01 395.728 275.281C394.947 276.542 393.749 277.172 392.134 277.172C390.634 277.172 389.483 276.542 388.681 275.281C387.89 274.01 387.494 272.24 387.494 269.969C387.494 267.698 387.874 265.943 388.634 264.703C389.395 263.453 390.561 262.828 392.134 262.828ZM392.134 264.688C391.291 264.688 390.671 265.13 390.275 266.016C389.879 266.891 389.681 268.208 389.681 269.969C389.681 271.729 389.879 273.057 390.275 273.953C390.671 274.849 391.291 275.297 392.134 275.297C393.009 275.297 393.66 274.849 394.088 273.953C394.515 273.057 394.728 271.729 394.728 269.969C394.728 268.219 394.515 266.901 394.088 266.016C393.671 265.13 393.02 264.688 392.134 264.688ZM406.603 263.156L393.931 286H391.65L404.322 263.156H406.603ZM405.994 271.984C407.546 271.984 408.728 272.609 409.541 273.859C410.353 275.099 410.759 276.854 410.759 279.125C410.759 281.385 410.369 283.151 409.588 284.422C408.806 285.682 407.608 286.312 405.994 286.312C404.483 286.312 403.332 285.682 402.541 284.422C401.749 283.151 401.353 281.385 401.353 279.125C401.353 276.854 401.728 275.099 402.478 273.859C403.239 272.609 404.41 271.984 405.994 271.984ZM405.994 273.859C405.15 273.859 404.53 274.297 404.134 275.172C403.739 276.047 403.541 277.365 403.541 279.125C403.541 280.885 403.739 282.214 404.134 283.109C404.53 283.995 405.15 284.438 405.994 284.438C406.869 284.438 407.52 284 407.947 283.125C408.374 282.24 408.588 280.906 408.588 279.125C408.588 277.375 408.374 276.062 407.947 275.188C407.53 274.302 406.879 273.859 405.994 273.859Z" fill="white"/>
<rect x="165.093" y="505.932" width="21.1364" height="21.1364" rx="3.52273" fill="#FEF0A9"/>
<path d="M208.059 525H205.902L197.128 511.482H197.04C197.062 511.841 197.088 512.252 197.117 512.714C197.146 513.17 197.168 513.658 197.183 514.179C197.205 514.692 197.216 515.217 197.216 515.753V525H195.477V508.906H197.623L206.364 522.38H206.441C206.426 522.123 206.408 521.76 206.386 521.29C206.364 520.813 206.342 520.303 206.32 519.76C206.305 519.21 206.298 518.699 206.298 518.23V508.906H208.059V525ZM222.58 518.945C222.58 519.936 222.451 520.82 222.194 521.598C221.937 522.376 221.567 523.033 221.082 523.569C220.598 524.105 220.011 524.516 219.321 524.802C218.639 525.081 217.864 525.22 216.998 525.22C216.191 525.22 215.45 525.081 214.775 524.802C214.107 524.516 213.527 524.105 213.035 523.569C212.551 523.033 212.173 522.376 211.901 521.598C211.637 520.82 211.505 519.936 211.505 518.945C211.505 517.624 211.729 516.501 212.177 515.577C212.624 514.645 213.263 513.936 214.092 513.452C214.929 512.96 215.923 512.714 217.075 512.714C218.176 512.714 219.138 512.96 219.96 513.452C220.789 513.944 221.431 514.656 221.886 515.588C222.348 516.512 222.58 517.632 222.58 518.945ZM213.398 518.945C213.398 519.914 213.527 520.754 213.784 521.466C214.041 522.178 214.437 522.729 214.973 523.118C215.508 523.507 216.198 523.701 217.042 523.701C217.879 523.701 218.565 523.507 219.101 523.118C219.644 522.729 220.044 522.178 220.301 521.466C220.558 520.754 220.686 519.914 220.686 518.945C220.686 517.984 220.558 517.155 220.301 516.457C220.044 515.753 219.648 515.21 219.112 514.828C218.576 514.446 217.883 514.256 217.031 514.256C215.776 514.256 214.855 514.67 214.268 515.5C213.688 516.329 213.398 517.478 213.398 518.945ZM240.733 512.659C240.733 513.379 240.593 514.002 240.314 514.531C240.035 515.059 239.646 515.492 239.147 515.83C238.648 516.16 238.061 516.391 237.386 516.523V516.612C238.663 516.773 239.621 517.184 240.259 517.844C240.905 518.505 241.228 519.371 241.228 520.442C241.228 521.375 241.008 522.2 240.568 522.919C240.135 523.639 239.467 524.204 238.564 524.615C237.669 525.018 236.52 525.22 235.118 525.22C234.267 525.22 233.478 525.15 232.751 525.011C232.032 524.879 231.342 524.655 230.682 524.339V522.622C231.35 522.952 232.076 523.213 232.862 523.404C233.647 523.587 234.406 523.679 235.14 523.679C236.608 523.679 237.669 523.389 238.322 522.809C238.975 522.222 239.302 521.422 239.302 520.409C239.302 519.712 239.118 519.151 238.751 518.725C238.391 518.292 237.87 517.977 237.188 517.778C236.513 517.573 235.698 517.47 234.744 517.47H233.137V515.907H234.755C235.628 515.907 236.37 515.779 236.979 515.522C237.588 515.265 238.05 514.905 238.366 514.443C238.689 513.973 238.85 513.419 238.85 512.781C238.85 511.966 238.579 511.338 238.036 510.898C237.492 510.45 236.755 510.227 235.823 510.227C235.25 510.227 234.729 510.285 234.26 510.403C233.79 510.52 233.35 510.682 232.939 510.887C232.528 511.093 232.117 511.331 231.706 511.603L230.781 510.348C231.368 509.893 232.084 509.5 232.928 509.17C233.772 508.839 234.729 508.674 235.801 508.674C237.445 508.674 238.678 509.049 239.5 509.797C240.322 510.546 240.733 511.5 240.733 512.659ZM254.317 516.931C254.317 518.237 254.218 519.404 254.02 520.431C253.822 521.459 253.51 522.329 253.084 523.04C252.659 523.752 252.108 524.295 251.433 524.67C250.758 525.037 249.947 525.22 249 525.22C247.804 525.22 246.813 524.894 246.028 524.24C245.25 523.587 244.666 522.644 244.277 521.411C243.896 520.171 243.705 518.677 243.705 516.931C243.705 515.213 243.877 513.738 244.222 512.505C244.575 511.265 245.14 510.315 245.918 509.654C246.696 508.986 247.723 508.652 249 508.652C250.211 508.652 251.209 508.983 251.994 509.643C252.78 510.296 253.363 511.243 253.745 512.483C254.126 513.716 254.317 515.199 254.317 516.931ZM245.543 516.931C245.543 518.428 245.657 519.676 245.885 520.674C246.112 521.672 246.479 522.42 246.985 522.919C247.499 523.411 248.171 523.657 249 523.657C249.829 523.657 250.497 523.411 251.004 522.919C251.517 522.428 251.888 521.683 252.115 520.685C252.35 519.687 252.468 518.435 252.468 516.931C252.468 515.456 252.354 514.223 252.126 513.232C251.899 512.234 251.532 511.485 251.026 510.986C250.519 510.48 249.844 510.227 249 510.227C248.156 510.227 247.481 510.48 246.974 510.986C246.468 511.485 246.101 512.234 245.874 513.232C245.653 514.223 245.543 515.456 245.543 516.931ZM259.865 508.674C260.966 508.674 261.799 509.115 262.364 509.995C262.937 510.869 263.223 512.105 263.223 513.705C263.223 515.305 262.948 516.553 262.397 517.448C261.847 518.336 261.003 518.78 259.865 518.78C258.809 518.78 257.998 518.336 257.433 517.448C256.875 516.553 256.596 515.305 256.596 513.705C256.596 512.105 256.864 510.869 257.4 509.995C257.935 509.115 258.757 508.674 259.865 508.674ZM259.865 509.984C259.271 509.984 258.834 510.296 258.555 510.92C258.277 511.537 258.137 512.465 258.137 513.705C258.137 514.946 258.277 515.881 258.555 516.512C258.834 517.144 259.271 517.459 259.865 517.459C260.482 517.459 260.941 517.144 261.242 516.512C261.542 515.881 261.693 514.946 261.693 513.705C261.693 512.472 261.542 511.544 261.242 510.92C260.948 510.296 260.489 509.984 259.865 509.984ZM270.059 508.906L261.131 525H259.524L268.452 508.906H270.059ZM269.63 515.125C270.724 515.125 271.557 515.566 272.129 516.446C272.701 517.32 272.988 518.556 272.988 520.156C272.988 521.749 272.712 522.993 272.162 523.888C271.612 524.776 270.768 525.22 269.63 525.22C268.566 525.22 267.755 524.776 267.197 523.888C266.639 522.993 266.36 521.749 266.36 520.156C266.36 518.556 266.625 517.32 267.153 516.446C267.689 515.566 268.514 515.125 269.63 515.125ZM269.63 516.446C269.036 516.446 268.599 516.755 268.32 517.371C268.041 517.988 267.902 518.916 267.902 520.156C267.902 521.397 268.041 522.332 268.32 522.963C268.599 523.587 269.036 523.899 269.63 523.899C270.246 523.899 270.705 523.591 271.006 522.974C271.307 522.351 271.457 521.411 271.457 520.156C271.457 518.923 271.307 517.999 271.006 517.382C270.713 516.758 270.254 516.446 269.63 516.446Z" fill="black"/>
<rect x="294.275" y="505.932" width="21.1364" height="21.1364" rx="3.52273" fill="#61B3FF"/>
<path d="M328.765 516.975L333.047 508.906H335.061L329.7 518.758V525H327.829V518.846L322.457 508.906H324.504L328.765 516.975ZM341.645 512.714C342.672 512.714 343.553 512.942 344.287 513.397C345.02 513.852 345.582 514.491 345.971 515.313C346.36 516.127 346.554 517.081 346.554 518.175V519.309H338.221C338.243 520.725 338.595 521.804 339.278 522.545C339.96 523.286 340.922 523.657 342.162 523.657C342.925 523.657 343.6 523.587 344.187 523.448C344.775 523.308 345.384 523.103 346.015 522.831V524.439C345.406 524.71 344.8 524.908 344.198 525.033C343.604 525.158 342.899 525.22 342.085 525.22C340.925 525.22 339.913 524.985 339.047 524.516C338.188 524.039 337.52 523.341 337.043 522.424C336.566 521.507 336.327 520.384 336.327 519.055C336.327 517.756 336.544 516.634 336.977 515.687C337.417 514.733 338.034 513.999 338.826 513.485C339.626 512.971 340.566 512.714 341.645 512.714ZM341.623 514.212C340.646 514.212 339.868 514.531 339.289 515.169C338.709 515.808 338.364 516.7 338.254 517.844H344.639C344.631 517.125 344.518 516.494 344.298 515.951C344.085 515.401 343.758 514.975 343.318 514.674C342.877 514.366 342.312 514.212 341.623 514.212ZM357.464 521.697C357.464 522.468 357.269 523.118 356.88 523.646C356.499 524.167 355.948 524.56 355.229 524.824C354.517 525.088 353.666 525.22 352.675 525.22C351.831 525.22 351.101 525.154 350.484 525.022C349.868 524.89 349.328 524.703 348.866 524.461V522.776C349.358 523.018 349.945 523.239 350.627 523.437C351.31 523.635 352.007 523.734 352.719 523.734C353.761 523.734 354.517 523.565 354.987 523.228C355.457 522.89 355.691 522.431 355.691 521.852C355.691 521.521 355.596 521.231 355.405 520.982C355.222 520.725 354.91 520.479 354.469 520.244C354.029 520.002 353.42 519.738 352.642 519.452C351.871 519.158 351.204 518.868 350.638 518.582C350.081 518.288 349.648 517.933 349.339 517.514C349.039 517.096 348.888 516.553 348.888 515.885C348.888 514.865 349.299 514.083 350.121 513.54C350.95 512.99 352.037 512.714 353.38 512.714C354.106 512.714 354.785 512.788 355.416 512.935C356.055 513.074 356.649 513.265 357.2 513.507L356.583 514.971C356.084 514.758 355.552 514.579 354.987 514.432C354.422 514.285 353.846 514.212 353.259 514.212C352.415 514.212 351.765 514.351 351.31 514.63C350.862 514.909 350.638 515.29 350.638 515.775C350.638 516.149 350.741 516.457 350.947 516.7C351.16 516.942 351.497 517.169 351.96 517.382C352.422 517.595 353.031 517.844 353.787 518.131C354.543 518.41 355.196 518.699 355.746 519C356.297 519.294 356.719 519.654 357.012 520.079C357.313 520.498 357.464 521.037 357.464 521.697ZM367.526 525L374.131 510.579H365.357V508.906H376.09V510.315L369.529 525H367.526ZM388.981 516.931C388.981 518.237 388.882 519.404 388.684 520.431C388.486 521.459 388.174 522.329 387.748 523.04C387.323 523.752 386.772 524.295 386.097 524.67C385.422 525.037 384.611 525.22 383.664 525.22C382.468 525.22 381.477 524.894 380.692 524.24C379.914 523.587 379.33 522.644 378.941 521.411C378.56 520.171 378.369 518.677 378.369 516.931C378.369 515.213 378.541 513.738 378.886 512.505C379.239 511.265 379.804 510.315 380.582 509.654C381.36 508.986 382.387 508.652 383.664 508.652C384.875 508.652 385.873 508.983 386.658 509.643C387.444 510.296 388.027 511.243 388.409 512.483C388.79 513.716 388.981 515.199 388.981 516.931ZM380.207 516.931C380.207 518.428 380.321 519.676 380.549 520.674C380.776 521.672 381.143 522.42 381.649 522.919C382.163 523.411 382.835 523.657 383.664 523.657C384.493 523.657 385.161 523.411 385.668 522.919C386.181 522.428 386.552 521.683 386.779 520.685C387.014 519.687 387.132 518.435 387.132 516.931C387.132 515.456 387.018 514.223 386.79 513.232C386.563 512.234 386.196 511.485 385.69 510.986C385.183 510.48 384.508 510.227 383.664 510.227C382.82 510.227 382.145 510.48 381.638 510.986C381.132 511.485 380.765 512.234 380.538 513.232C380.317 514.223 380.207 515.456 380.207 516.931ZM394.529 508.674C395.63 508.674 396.463 509.115 397.028 509.995C397.601 510.869 397.887 512.105 397.887 513.705C397.887 515.305 397.612 516.553 397.061 517.448C396.511 518.336 395.667 518.78 394.529 518.78C393.473 518.78 392.662 518.336 392.097 517.448C391.539 516.553 391.26 515.305 391.26 513.705C391.26 512.105 391.528 510.869 392.064 509.995C392.599 509.115 393.421 508.674 394.529 508.674ZM394.529 509.984C393.935 509.984 393.498 510.296 393.219 510.92C392.941 511.537 392.801 512.465 392.801 513.705C392.801 514.946 392.941 515.881 393.219 516.512C393.498 517.144 393.935 517.459 394.529 517.459C395.146 517.459 395.605 517.144 395.906 516.512C396.206 515.881 396.357 514.946 396.357 513.705C396.357 512.472 396.206 511.544 395.906 510.92C395.612 510.296 395.153 509.984 394.529 509.984ZM404.723 508.906L395.795 525H394.188L403.116 508.906H404.723ZM404.294 515.125C405.388 515.125 406.221 515.566 406.793 516.446C407.365 517.32 407.652 518.556 407.652 520.156C407.652 521.749 407.376 522.993 406.826 523.888C406.276 524.776 405.432 525.22 404.294 525.22C403.23 525.22 402.419 524.776 401.861 523.888C401.303 522.993 401.024 521.749 401.024 520.156C401.024 518.556 401.289 517.32 401.817 516.446C402.353 515.566 403.178 515.125 404.294 515.125ZM404.294 516.446C403.7 516.446 403.263 516.755 402.984 517.371C402.705 517.988 402.566 518.916 402.566 520.156C402.566 521.397 402.705 522.332 402.984 522.963C403.263 523.587 403.7 523.899 404.294 523.899C404.91 523.899 405.369 523.591 405.67 522.974C405.971 522.351 406.121 521.411 406.121 520.156C406.121 518.923 405.971 517.999 405.67 517.382C405.377 516.758 404.918 516.446 404.294 516.446Z" fill="black"/>
</svg>
