<svg width="575" height="583" viewBox="0 0 575 583" fill="none" xmlns="http://www.w3.org/2000/svg">
<path d="M287.25 226L287.25 1C384.709 1 471.085 63.7661 501.202 156.471L287.25 226Z" fill="#E0ECFF" stroke="white"/>
<path d="M287.25 226L501.202 156.471C539.595 274.653 474.929 401.588 356.767 439.988C334.316 447.284 310.857 451 287.25 451L287.25 226Z" fill="#FEF0A9" stroke="white"/>
<path d="M287.25 226V451C189.791 451 103.415 388.234 73.2985 295.529L287.25 226Z" fill="#D6ECC1" stroke="white"/>
<path d="M287.25 226L73.2985 295.529C43.1819 202.824 76.1744 101.266 155.021 43.9712L287.25 226Z" fill="#FFC0CB" stroke="white"/>
<path d="M287.25 226L155.021 43.9712C193.455 16.0424 239.743 1 287.25 1V226Z" fill="#61B3FF" stroke="white"/>
<path d="M382.976 294.484C382.976 295.505 382.778 296.391 382.382 297.141C381.986 297.891 381.434 298.505 380.726 298.984C380.017 299.453 379.184 299.781 378.226 299.969V300.094C380.038 300.323 381.398 300.906 382.304 301.844C383.221 302.781 383.679 304.01 383.679 305.531C383.679 306.854 383.366 308.026 382.741 309.047C382.127 310.068 381.179 310.87 379.898 311.453C378.627 312.026 376.997 312.312 375.007 312.312C373.799 312.312 372.679 312.214 371.648 312.016C370.627 311.828 369.648 311.51 368.71 311.062V308.625C369.658 309.094 370.689 309.464 371.804 309.734C372.919 309.995 373.997 310.125 375.038 310.125C377.122 310.125 378.627 309.714 379.554 308.891C380.481 308.057 380.945 306.922 380.945 305.484C380.945 304.495 380.684 303.698 380.163 303.094C379.653 302.479 378.913 302.031 377.945 301.75C376.986 301.458 375.83 301.312 374.476 301.312H372.195V299.094H374.491C375.731 299.094 376.783 298.911 377.648 298.547C378.512 298.182 379.169 297.672 379.616 297.016C380.075 296.349 380.304 295.562 380.304 294.656C380.304 293.5 379.919 292.609 379.148 291.984C378.377 291.349 377.33 291.031 376.007 291.031C375.195 291.031 374.455 291.115 373.788 291.281C373.122 291.448 372.497 291.677 371.913 291.969C371.33 292.26 370.747 292.599 370.163 292.984L368.851 291.203C369.684 290.557 370.7 290 371.898 289.531C373.096 289.062 374.455 288.828 375.976 288.828C378.309 288.828 380.059 289.359 381.226 290.422C382.392 291.484 382.976 292.839 382.976 294.484ZM402.257 300.547C402.257 302.401 402.116 304.057 401.835 305.516C401.554 306.974 401.111 308.208 400.507 309.219C399.903 310.229 399.122 311 398.163 311.531C397.205 312.052 396.054 312.312 394.71 312.312C393.012 312.312 391.606 311.849 390.491 310.922C389.387 309.995 388.559 308.656 388.007 306.906C387.465 305.146 387.195 303.026 387.195 300.547C387.195 298.109 387.439 296.016 387.929 294.266C388.429 292.505 389.231 291.156 390.335 290.219C391.439 289.271 392.898 288.797 394.71 288.797C396.429 288.797 397.846 289.266 398.96 290.203C400.075 291.13 400.903 292.474 401.445 294.234C401.986 295.984 402.257 298.089 402.257 300.547ZM389.804 300.547C389.804 302.672 389.965 304.443 390.288 305.859C390.611 307.276 391.132 308.339 391.851 309.047C392.58 309.745 393.533 310.094 394.71 310.094C395.887 310.094 396.835 309.745 397.554 309.047C398.283 308.349 398.809 307.292 399.132 305.875C399.465 304.458 399.632 302.682 399.632 300.547C399.632 298.453 399.471 296.703 399.148 295.297C398.825 293.88 398.304 292.818 397.585 292.109C396.866 291.391 395.908 291.031 394.71 291.031C393.512 291.031 392.554 291.391 391.835 292.109C391.116 292.818 390.596 293.88 390.273 295.297C389.96 296.703 389.804 298.453 389.804 300.547ZM410.132 288.828C411.695 288.828 412.877 289.453 413.679 290.703C414.491 291.943 414.898 293.698 414.898 295.969C414.898 298.24 414.507 300.01 413.726 301.281C412.945 302.542 411.747 303.172 410.132 303.172C408.632 303.172 407.481 302.542 406.679 301.281C405.887 300.01 405.491 298.24 405.491 295.969C405.491 293.698 405.872 291.943 406.632 290.703C407.392 289.453 408.559 288.828 410.132 288.828ZM410.132 290.688C409.288 290.688 408.669 291.13 408.273 292.016C407.877 292.891 407.679 294.208 407.679 295.969C407.679 297.729 407.877 299.057 408.273 299.953C408.669 300.849 409.288 301.297 410.132 301.297C411.007 301.297 411.658 300.849 412.085 299.953C412.512 299.057 412.726 297.729 412.726 295.969C412.726 294.219 412.512 292.901 412.085 292.016C411.669 291.13 411.017 290.688 410.132 290.688ZM424.601 289.156L411.929 312H409.648L422.32 289.156H424.601ZM423.991 297.984C425.544 297.984 426.726 298.609 427.538 299.859C428.351 301.099 428.757 302.854 428.757 305.125C428.757 307.385 428.366 309.151 427.585 310.422C426.804 311.682 425.606 312.312 423.991 312.312C422.481 312.312 421.33 311.682 420.538 310.422C419.747 309.151 419.351 307.385 419.351 305.125C419.351 302.854 419.726 301.099 420.476 299.859C421.236 298.609 422.408 297.984 423.991 297.984ZM423.991 299.859C423.148 299.859 422.528 300.297 422.132 301.172C421.736 302.047 421.538 303.365 421.538 305.125C421.538 306.885 421.736 308.214 422.132 309.109C422.528 309.995 423.148 310.438 423.991 310.438C424.866 310.438 425.517 310 425.945 309.125C426.372 308.24 426.585 306.906 426.585 305.125C426.585 303.375 426.372 302.062 425.945 301.188C425.528 300.302 424.877 299.859 423.991 299.859Z" fill="#2395FF"/>
<path d="M196.82 334H181.851V331.828L187.96 325.625C189.096 324.479 190.049 323.458 190.82 322.562C191.601 321.667 192.195 320.786 192.601 319.922C193.007 319.047 193.21 318.089 193.21 317.047C193.21 315.755 192.825 314.771 192.054 314.094C191.294 313.406 190.288 313.062 189.038 313.062C187.945 313.062 186.976 313.25 186.132 313.625C185.288 314 184.424 314.531 183.538 315.219L182.148 313.469C182.752 312.958 183.408 312.505 184.116 312.109C184.835 311.714 185.601 311.401 186.413 311.172C187.236 310.943 188.111 310.828 189.038 310.828C190.445 310.828 191.658 311.073 192.679 311.562C193.7 312.052 194.486 312.75 195.038 313.656C195.601 314.562 195.882 315.641 195.882 316.891C195.882 318.099 195.642 319.224 195.163 320.266C194.684 321.297 194.012 322.323 193.148 323.344C192.283 324.354 191.273 325.427 190.116 326.562L185.148 331.516V331.625H196.82V334ZM215.257 322.547C215.257 324.401 215.116 326.057 214.835 327.516C214.554 328.974 214.111 330.208 213.507 331.219C212.903 332.229 212.122 333 211.163 333.531C210.205 334.052 209.054 334.312 207.71 334.312C206.012 334.312 204.606 333.849 203.491 332.922C202.387 331.995 201.559 330.656 201.007 328.906C200.465 327.146 200.195 325.026 200.195 322.547C200.195 320.109 200.439 318.016 200.929 316.266C201.429 314.505 202.231 313.156 203.335 312.219C204.439 311.271 205.898 310.797 207.71 310.797C209.429 310.797 210.846 311.266 211.96 312.203C213.075 313.13 213.903 314.474 214.445 316.234C214.986 317.984 215.257 320.089 215.257 322.547ZM202.804 322.547C202.804 324.672 202.965 326.443 203.288 327.859C203.611 329.276 204.132 330.339 204.851 331.047C205.58 331.745 206.533 332.094 207.71 332.094C208.887 332.094 209.835 331.745 210.554 331.047C211.283 330.349 211.809 329.292 212.132 327.875C212.465 326.458 212.632 324.682 212.632 322.547C212.632 320.453 212.471 318.703 212.148 317.297C211.825 315.88 211.304 314.818 210.585 314.109C209.866 313.391 208.908 313.031 207.71 313.031C206.512 313.031 205.554 313.391 204.835 314.109C204.116 314.818 203.596 315.88 203.273 317.297C202.96 318.703 202.804 320.453 202.804 322.547ZM223.132 310.828C224.695 310.828 225.877 311.453 226.679 312.703C227.491 313.943 227.898 315.698 227.898 317.969C227.898 320.24 227.507 322.01 226.726 323.281C225.945 324.542 224.747 325.172 223.132 325.172C221.632 325.172 220.481 324.542 219.679 323.281C218.887 322.01 218.491 320.24 218.491 317.969C218.491 315.698 218.872 313.943 219.632 312.703C220.392 311.453 221.559 310.828 223.132 310.828ZM223.132 312.688C222.288 312.688 221.669 313.13 221.273 314.016C220.877 314.891 220.679 316.208 220.679 317.969C220.679 319.729 220.877 321.057 221.273 321.953C221.669 322.849 222.288 323.297 223.132 323.297C224.007 323.297 224.658 322.849 225.085 321.953C225.512 321.057 225.726 319.729 225.726 317.969C225.726 316.219 225.512 314.901 225.085 314.016C224.669 313.13 224.017 312.688 223.132 312.688ZM237.601 311.156L224.929 334H222.648L235.32 311.156H237.601ZM236.991 319.984C238.544 319.984 239.726 320.609 240.538 321.859C241.351 323.099 241.757 324.854 241.757 327.125C241.757 329.385 241.366 331.151 240.585 332.422C239.804 333.682 238.606 334.312 236.991 334.312C235.481 334.312 234.33 333.682 233.538 332.422C232.747 331.151 232.351 329.385 232.351 327.125C232.351 324.854 232.726 323.099 233.476 321.859C234.236 320.609 235.408 319.984 236.991 319.984ZM236.991 321.859C236.148 321.859 235.528 322.297 235.132 323.172C234.736 324.047 234.538 325.365 234.538 327.125C234.538 328.885 234.736 330.214 235.132 331.109C235.528 331.995 236.148 332.438 236.991 332.438C237.866 332.438 238.517 332 238.945 331.125C239.372 330.24 239.585 328.906 239.585 327.125C239.585 325.375 239.372 324.062 238.945 323.188C238.528 322.302 237.877 321.859 236.991 321.859Z" fill="#2395FF"/>
<path d="M352.82 126H337.851V123.828L343.96 117.625C345.096 116.479 346.049 115.458 346.82 114.562C347.601 113.667 348.195 112.786 348.601 111.922C349.007 111.047 349.21 110.089 349.21 109.047C349.21 107.755 348.825 106.771 348.054 106.094C347.294 105.406 346.288 105.062 345.038 105.062C343.945 105.062 342.976 105.25 342.132 105.625C341.288 106 340.424 106.531 339.538 107.219L338.148 105.469C338.752 104.958 339.408 104.505 340.116 104.109C340.835 103.714 341.601 103.401 342.413 103.172C343.236 102.943 344.111 102.828 345.038 102.828C346.445 102.828 347.658 103.073 348.679 103.562C349.7 104.052 350.486 104.75 351.038 105.656C351.601 106.562 351.882 107.641 351.882 108.891C351.882 110.099 351.642 111.224 351.163 112.266C350.684 113.297 350.012 114.323 349.148 115.344C348.283 116.354 347.273 117.427 346.116 118.562L341.148 123.516V123.625H352.82V126ZM371.257 114.547C371.257 116.401 371.116 118.057 370.835 119.516C370.554 120.974 370.111 122.208 369.507 123.219C368.903 124.229 368.122 125 367.163 125.531C366.205 126.052 365.054 126.312 363.71 126.312C362.012 126.312 360.606 125.849 359.491 124.922C358.387 123.995 357.559 122.656 357.007 120.906C356.465 119.146 356.195 117.026 356.195 114.547C356.195 112.109 356.439 110.016 356.929 108.266C357.429 106.505 358.231 105.156 359.335 104.219C360.439 103.271 361.898 102.797 363.71 102.797C365.429 102.797 366.846 103.266 367.96 104.203C369.075 105.13 369.903 106.474 370.445 108.234C370.986 109.984 371.257 112.089 371.257 114.547ZM358.804 114.547C358.804 116.672 358.965 118.443 359.288 119.859C359.611 121.276 360.132 122.339 360.851 123.047C361.58 123.745 362.533 124.094 363.71 124.094C364.887 124.094 365.835 123.745 366.554 123.047C367.283 122.349 367.809 121.292 368.132 119.875C368.465 118.458 368.632 116.682 368.632 114.547C368.632 112.453 368.471 110.703 368.148 109.297C367.825 107.88 367.304 106.818 366.585 106.109C365.866 105.391 364.908 105.031 363.71 105.031C362.512 105.031 361.554 105.391 360.835 106.109C360.116 106.818 359.596 107.88 359.273 109.297C358.96 110.703 358.804 112.453 358.804 114.547ZM379.132 102.828C380.695 102.828 381.877 103.453 382.679 104.703C383.491 105.943 383.898 107.698 383.898 109.969C383.898 112.24 383.507 114.01 382.726 115.281C381.945 116.542 380.747 117.172 379.132 117.172C377.632 117.172 376.481 116.542 375.679 115.281C374.887 114.01 374.491 112.24 374.491 109.969C374.491 107.698 374.872 105.943 375.632 104.703C376.392 103.453 377.559 102.828 379.132 102.828ZM379.132 104.688C378.288 104.688 377.669 105.13 377.273 106.016C376.877 106.891 376.679 108.208 376.679 109.969C376.679 111.729 376.877 113.057 377.273 113.953C377.669 114.849 378.288 115.297 379.132 115.297C380.007 115.297 380.658 114.849 381.085 113.953C381.512 113.057 381.726 111.729 381.726 109.969C381.726 108.219 381.512 106.901 381.085 106.016C380.669 105.13 380.017 104.688 379.132 104.688ZM393.601 103.156L380.929 126H378.648L391.32 103.156H393.601ZM392.991 111.984C394.544 111.984 395.726 112.609 396.538 113.859C397.351 115.099 397.757 116.854 397.757 119.125C397.757 121.385 397.366 123.151 396.585 124.422C395.804 125.682 394.606 126.312 392.991 126.312C391.481 126.312 390.33 125.682 389.538 124.422C388.747 123.151 388.351 121.385 388.351 119.125C388.351 116.854 388.726 115.099 389.476 113.859C390.236 112.609 391.408 111.984 392.991 111.984ZM392.991 113.859C392.148 113.859 391.528 114.297 391.132 115.172C390.736 116.047 390.538 117.365 390.538 119.125C390.538 120.885 390.736 122.214 391.132 123.109C391.528 123.995 392.148 124.438 392.991 124.438C393.866 124.438 394.517 124 394.945 123.125C395.372 122.24 395.585 120.906 395.585 119.125C395.585 117.375 395.372 116.062 394.945 115.188C394.528 114.302 393.877 113.859 392.991 113.859Z" fill="#2395FF"/>
<path d="M139.82 190H124.851V187.828L130.96 181.625C132.096 180.479 133.049 179.458 133.82 178.562C134.601 177.667 135.195 176.786 135.601 175.922C136.007 175.047 136.21 174.089 136.21 173.047C136.21 171.755 135.825 170.771 135.054 170.094C134.294 169.406 133.288 169.062 132.038 169.062C130.945 169.062 129.976 169.25 129.132 169.625C128.288 170 127.424 170.531 126.538 171.219L125.148 169.469C125.752 168.958 126.408 168.505 127.116 168.109C127.835 167.714 128.601 167.401 129.413 167.172C130.236 166.943 131.111 166.828 132.038 166.828C133.445 166.828 134.658 167.073 135.679 167.562C136.7 168.052 137.486 168.75 138.038 169.656C138.601 170.562 138.882 171.641 138.882 172.891C138.882 174.099 138.642 175.224 138.163 176.266C137.684 177.297 137.012 178.323 136.148 179.344C135.283 180.354 134.273 181.427 133.116 182.562L128.148 187.516V187.625H139.82V190ZM158.257 178.547C158.257 180.401 158.116 182.057 157.835 183.516C157.554 184.974 157.111 186.208 156.507 187.219C155.903 188.229 155.122 189 154.163 189.531C153.205 190.052 152.054 190.312 150.71 190.312C149.012 190.312 147.606 189.849 146.491 188.922C145.387 187.995 144.559 186.656 144.007 184.906C143.465 183.146 143.195 181.026 143.195 178.547C143.195 176.109 143.439 174.016 143.929 172.266C144.429 170.505 145.231 169.156 146.335 168.219C147.439 167.271 148.898 166.797 150.71 166.797C152.429 166.797 153.846 167.266 154.96 168.203C156.075 169.13 156.903 170.474 157.445 172.234C157.986 173.984 158.257 176.089 158.257 178.547ZM145.804 178.547C145.804 180.672 145.965 182.443 146.288 183.859C146.611 185.276 147.132 186.339 147.851 187.047C148.58 187.745 149.533 188.094 150.71 188.094C151.887 188.094 152.835 187.745 153.554 187.047C154.283 186.349 154.809 185.292 155.132 183.875C155.465 182.458 155.632 180.682 155.632 178.547C155.632 176.453 155.471 174.703 155.148 173.297C154.825 171.88 154.304 170.818 153.585 170.109C152.866 169.391 151.908 169.031 150.71 169.031C149.512 169.031 148.554 169.391 147.835 170.109C147.116 170.818 146.596 171.88 146.273 173.297C145.96 174.703 145.804 176.453 145.804 178.547ZM166.132 166.828C167.695 166.828 168.877 167.453 169.679 168.703C170.491 169.943 170.898 171.698 170.898 173.969C170.898 176.24 170.507 178.01 169.726 179.281C168.945 180.542 167.747 181.172 166.132 181.172C164.632 181.172 163.481 180.542 162.679 179.281C161.887 178.01 161.491 176.24 161.491 173.969C161.491 171.698 161.872 169.943 162.632 168.703C163.392 167.453 164.559 166.828 166.132 166.828ZM166.132 168.688C165.288 168.688 164.669 169.13 164.273 170.016C163.877 170.891 163.679 172.208 163.679 173.969C163.679 175.729 163.877 177.057 164.273 177.953C164.669 178.849 165.288 179.297 166.132 179.297C167.007 179.297 167.658 178.849 168.085 177.953C168.512 177.057 168.726 175.729 168.726 173.969C168.726 172.219 168.512 170.901 168.085 170.016C167.669 169.13 167.017 168.688 166.132 168.688ZM180.601 167.156L167.929 190H165.648L178.32 167.156H180.601ZM179.991 175.984C181.544 175.984 182.726 176.609 183.538 177.859C184.351 179.099 184.757 180.854 184.757 183.125C184.757 185.385 184.366 187.151 183.585 188.422C182.804 189.682 181.606 190.312 179.991 190.312C178.481 190.312 177.33 189.682 176.538 188.422C175.747 187.151 175.351 185.385 175.351 183.125C175.351 180.854 175.726 179.099 176.476 177.859C177.236 176.609 178.408 175.984 179.991 175.984ZM179.991 177.859C179.148 177.859 178.528 178.297 178.132 179.172C177.736 180.047 177.538 181.365 177.538 183.125C177.538 184.885 177.736 186.214 178.132 187.109C178.528 187.995 179.148 188.438 179.991 188.438C180.866 188.438 181.517 188 181.945 187.125C182.372 186.24 182.585 184.906 182.585 183.125C182.585 181.375 182.372 180.062 181.945 179.188C181.528 178.302 180.877 177.859 179.991 177.859Z" fill="white"/>
<path d="M222.507 92H219.976V75.8125C219.976 75.1979 219.976 74.6719 219.976 74.2344C219.986 73.7865 219.997 73.3802 220.007 73.0156C220.028 72.6406 220.054 72.2604 220.085 71.875C219.762 72.2083 219.46 72.4948 219.179 72.7344C218.898 72.9635 218.549 73.25 218.132 73.5938L215.523 75.6875L214.163 73.9219L220.351 69.1562H222.507V92ZM246.257 80.5469C246.257 82.401 246.116 84.0573 245.835 85.5156C245.554 86.974 245.111 88.2083 244.507 89.2188C243.903 90.2292 243.122 91 242.163 91.5312C241.205 92.0521 240.054 92.3125 238.71 92.3125C237.012 92.3125 235.606 91.849 234.491 90.9219C233.387 89.9948 232.559 88.6562 232.007 86.9062C231.465 85.1458 231.195 83.026 231.195 80.5469C231.195 78.1094 231.439 76.0156 231.929 74.2656C232.429 72.5052 233.231 71.1562 234.335 70.2188C235.439 69.2708 236.898 68.7969 238.71 68.7969C240.429 68.7969 241.846 69.2656 242.96 70.2031C244.075 71.1302 244.903 72.474 245.445 74.2344C245.986 75.9844 246.257 78.0885 246.257 80.5469ZM233.804 80.5469C233.804 82.6719 233.965 84.4427 234.288 85.8594C234.611 87.276 235.132 88.3385 235.851 89.0469C236.58 89.7448 237.533 90.0938 238.71 90.0938C239.887 90.0938 240.835 89.7448 241.554 89.0469C242.283 88.349 242.809 87.2917 243.132 85.875C243.465 84.4583 243.632 82.6823 243.632 80.5469C243.632 78.4531 243.471 76.7031 243.148 75.2969C242.825 73.8802 242.304 72.8177 241.585 72.1094C240.866 71.3906 239.908 71.0312 238.71 71.0312C237.512 71.0312 236.554 71.3906 235.835 72.1094C235.116 72.8177 234.596 73.8802 234.273 75.2969C233.96 76.7031 233.804 78.4531 233.804 80.5469ZM254.132 68.8281C255.695 68.8281 256.877 69.4531 257.679 70.7031C258.491 71.9427 258.898 73.6979 258.898 75.9688C258.898 78.2396 258.507 80.0104 257.726 81.2812C256.945 82.5417 255.747 83.1719 254.132 83.1719C252.632 83.1719 251.481 82.5417 250.679 81.2812C249.887 80.0104 249.491 78.2396 249.491 75.9688C249.491 73.6979 249.872 71.9427 250.632 70.7031C251.392 69.4531 252.559 68.8281 254.132 68.8281ZM254.132 70.6875C253.288 70.6875 252.669 71.1302 252.273 72.0156C251.877 72.8906 251.679 74.2083 251.679 75.9688C251.679 77.7292 251.877 79.0573 252.273 79.9531C252.669 80.849 253.288 81.2969 254.132 81.2969C255.007 81.2969 255.658 80.849 256.085 79.9531C256.512 79.0573 256.726 77.7292 256.726 75.9688C256.726 74.2188 256.512 72.901 256.085 72.0156C255.669 71.1302 255.017 70.6875 254.132 70.6875ZM268.601 69.1562L255.929 92H253.648L266.32 69.1562H268.601ZM267.991 77.9844C269.544 77.9844 270.726 78.6094 271.538 79.8594C272.351 81.099 272.757 82.8542 272.757 85.125C272.757 87.3854 272.366 89.151 271.585 90.4219C270.804 91.6823 269.606 92.3125 267.991 92.3125C266.481 92.3125 265.33 91.6823 264.538 90.4219C263.747 89.151 263.351 87.3854 263.351 85.125C263.351 82.8542 263.726 81.099 264.476 79.8594C265.236 78.6094 266.408 77.9844 267.991 77.9844ZM267.991 79.8594C267.148 79.8594 266.528 80.2969 266.132 81.1719C265.736 82.0469 265.538 83.3646 265.538 85.125C265.538 86.8854 265.736 88.2135 266.132 89.1094C266.528 89.9948 267.148 90.4375 267.991 90.4375C268.866 90.4375 269.517 90 269.945 89.125C270.372 88.2396 270.585 86.9062 270.585 85.125C270.585 83.375 270.372 82.0625 269.945 81.1875C269.528 80.3021 268.877 79.8594 267.991 79.8594Z" fill="white"/>
<rect y="505.932" width="21.1364" height="21.1364" rx="3.52273" fill="#E0ECFF"/>
<path d="M41.6232 508.906L35.8437 525H33.9612L28.1818 508.906H30.1413L33.9062 519.507C34.0603 519.932 34.1961 520.34 34.3135 520.729C34.4383 521.118 34.5484 521.492 34.6438 521.852C34.7392 522.211 34.8236 522.56 34.897 522.897C34.9704 522.56 35.0548 522.211 35.1502 521.852C35.2456 521.485 35.3556 521.107 35.4804 520.718C35.6052 520.321 35.7446 519.907 35.8987 519.474L39.6416 508.906H41.6232ZM48.2063 512.714C49.2337 512.714 50.1144 512.942 50.8483 513.397C51.5822 513.852 52.1436 514.491 52.5326 515.313C52.9216 516.127 53.1161 517.081 53.1161 518.175V519.309H44.7826C44.8046 520.725 45.1569 521.804 45.8394 522.545C46.522 523.286 47.4834 523.657 48.7237 523.657C49.4869 523.657 50.1621 523.587 50.7492 523.448C51.3364 523.308 51.9455 523.103 52.5766 522.831V524.439C51.9675 524.71 51.362 524.908 50.7602 525.033C50.1658 525.158 49.4612 525.22 48.6466 525.22C47.487 525.22 46.4743 524.985 45.6083 524.516C44.7496 524.039 44.0817 523.341 43.6047 522.424C43.1277 521.507 42.8891 520.384 42.8891 519.055C42.8891 517.756 43.1056 516.634 43.5387 515.687C43.979 514.733 44.5955 513.999 45.3881 513.485C46.188 512.971 47.1274 512.714 48.2063 512.714ZM48.1842 514.212C47.2082 514.212 46.4302 514.531 45.8504 515.169C45.2707 515.808 44.9257 516.7 44.8156 517.844H51.2006C51.1932 517.125 51.0795 516.494 50.8593 515.951C50.6465 515.401 50.3199 514.975 49.8796 514.674C49.4392 514.366 48.8741 514.212 48.1842 514.212ZM61.7027 512.714C61.9449 512.714 62.1981 512.729 62.4623 512.759C62.7265 512.781 62.9614 512.814 63.1668 512.858L62.9357 514.553C62.7375 514.502 62.5173 514.461 62.2752 514.432C62.033 514.402 61.8055 514.388 61.5926 514.388C61.1083 514.388 60.6496 514.487 60.2166 514.685C59.7909 514.876 59.4166 515.155 59.0937 515.522C58.7708 515.881 58.5176 516.318 58.3341 516.832C58.1506 517.338 58.0589 517.903 58.0589 518.527V525H56.2205V512.935H57.7396L57.9378 515.158H58.0149C58.2644 514.711 58.5653 514.303 58.9176 513.936C59.2698 513.562 59.6771 513.265 60.1395 513.045C60.6092 512.825 61.1303 512.714 61.7027 512.714ZM63.5411 512.935H65.5007L68.1647 519.936C68.3188 520.347 68.4619 520.743 68.594 521.125C68.7262 521.499 68.8436 521.859 68.9463 522.204C69.0491 522.549 69.1298 522.883 69.1885 523.206H69.2656C69.3683 522.839 69.5151 522.358 69.7059 521.763C69.8967 521.162 70.1022 520.549 70.3224 519.925L72.8433 512.935H74.8139L69.5628 526.772C69.2839 527.514 68.9573 528.159 68.583 528.71C68.2161 529.26 67.7684 529.682 67.24 529.976C66.7116 530.277 66.0731 530.427 65.3245 530.427C64.9796 530.427 64.675 530.405 64.4108 530.361C64.1466 530.324 63.9191 530.28 63.7283 530.229V528.765C63.8897 528.802 64.0842 528.835 64.3117 528.864C64.5466 528.893 64.7888 528.908 65.0383 528.908C65.4933 528.908 65.886 528.82 66.2162 528.644C66.5538 528.475 66.8437 528.225 67.0859 527.895C67.3281 527.565 67.5372 527.172 67.7134 526.717L68.3739 525.022L63.5411 512.935ZM95.0475 508.906V519.32C95.0475 520.457 94.8164 521.47 94.354 522.358C93.899 523.246 93.2091 523.947 92.2844 524.461C91.3597 524.967 90.2001 525.22 88.8057 525.22C86.8168 525.22 85.3013 524.681 84.2592 523.602C83.2244 522.523 82.707 521.081 82.707 519.276V508.906H84.5894V519.331C84.5894 520.696 84.949 521.749 85.6683 522.49C86.3948 523.231 87.4773 523.602 88.9158 523.602C89.8992 523.602 90.7028 523.426 91.3266 523.074C91.9578 522.714 92.4238 522.215 92.7247 521.576C93.033 520.931 93.1871 520.186 93.1871 519.342V508.906H95.0475ZM104.757 512.714C106.188 512.714 107.271 513.067 108.005 513.771C108.738 514.469 109.105 515.591 109.105 517.14V525H107.3V517.261C107.3 516.256 107.069 515.503 106.606 515.004C106.151 514.505 105.451 514.256 104.504 514.256C103.168 514.256 102.229 514.634 101.686 515.39C101.143 516.145 100.871 517.243 100.871 518.681V525H99.0436V512.935H100.519L100.794 514.674H100.893C101.15 514.248 101.477 513.892 101.873 513.606C102.269 513.313 102.713 513.092 103.205 512.946C103.697 512.792 104.214 512.714 104.757 512.714ZM117.703 525.22C116.617 525.22 115.659 524.996 114.83 524.549C114.001 524.101 113.355 523.418 112.892 522.501C112.43 521.584 112.199 520.428 112.199 519.033C112.199 517.573 112.441 516.38 112.925 515.456C113.417 514.524 114.092 513.834 114.951 513.386C115.81 512.938 116.786 512.714 117.879 512.714C118.481 512.714 119.061 512.777 119.619 512.902C120.184 513.019 120.646 513.17 121.006 513.353L120.455 514.883C120.088 514.736 119.663 514.604 119.178 514.487C118.701 514.369 118.253 514.311 117.835 514.311C116.999 514.311 116.301 514.491 115.744 514.85C115.193 515.21 114.778 515.738 114.5 516.435C114.228 517.133 114.092 517.991 114.092 519.011C114.092 519.987 114.224 520.82 114.489 521.51C114.76 522.2 115.16 522.729 115.689 523.096C116.224 523.455 116.892 523.635 117.692 523.635C118.331 523.635 118.907 523.569 119.42 523.437C119.934 523.297 120.4 523.136 120.818 522.952V524.582C120.415 524.787 119.963 524.945 119.464 525.055C118.973 525.165 118.386 525.22 117.703 525.22ZM134.084 518.945C134.084 519.936 133.955 520.82 133.698 521.598C133.442 522.376 133.071 523.033 132.587 523.569C132.102 524.105 131.515 524.516 130.825 524.802C130.143 525.081 129.368 525.22 128.502 525.22C127.695 525.22 126.954 525.081 126.279 524.802C125.611 524.516 125.031 524.105 124.539 523.569C124.055 523.033 123.677 522.376 123.405 521.598C123.141 520.82 123.009 519.936 123.009 518.945C123.009 517.624 123.233 516.501 123.681 515.577C124.128 514.645 124.767 513.936 125.596 513.452C126.433 512.96 127.427 512.714 128.579 512.714C129.68 512.714 130.642 512.96 131.464 513.452C132.293 513.944 132.935 514.656 133.39 515.588C133.853 516.512 134.084 517.632 134.084 518.945ZM124.903 518.945C124.903 519.914 125.031 520.754 125.288 521.466C125.545 522.178 125.941 522.729 126.477 523.118C127.013 523.507 127.702 523.701 128.546 523.701C129.383 523.701 130.069 523.507 130.605 523.118C131.148 522.729 131.548 522.178 131.805 521.466C132.062 520.754 132.19 519.914 132.19 518.945C132.19 517.984 132.062 517.155 131.805 516.457C131.548 515.753 131.152 515.21 130.616 514.828C130.08 514.446 129.387 514.256 128.535 514.256C127.28 514.256 126.359 514.67 125.772 515.5C125.193 516.329 124.903 517.478 124.903 518.945ZM150.343 512.714C151.672 512.714 152.673 513.063 153.349 513.76C154.024 514.45 154.361 515.562 154.361 517.096V525H152.556V517.184C152.556 516.208 152.343 515.478 151.918 514.993C151.499 514.502 150.875 514.256 150.046 514.256C148.879 514.256 148.032 514.593 147.503 515.268C146.975 515.944 146.711 516.938 146.711 518.252V525H144.894V517.184C144.894 516.531 144.799 515.988 144.608 515.555C144.424 515.122 144.146 514.799 143.771 514.586C143.404 514.366 142.938 514.256 142.373 514.256C141.573 514.256 140.931 514.421 140.447 514.751C139.962 515.081 139.61 515.573 139.39 516.226C139.177 516.872 139.071 517.668 139.071 518.615V525H137.243V512.935H138.718L138.994 514.641H139.093C139.335 514.223 139.639 513.87 140.006 513.584C140.373 513.298 140.784 513.081 141.239 512.935C141.694 512.788 142.179 512.714 142.692 512.714C143.61 512.714 144.377 512.887 144.993 513.232C145.617 513.569 146.068 514.087 146.347 514.784H146.446C146.843 514.087 147.386 513.569 148.076 513.232C148.765 512.887 149.521 512.714 150.343 512.714ZM163.488 514.366H160.482V525H158.655V514.366H156.519V513.485L158.655 512.88V512.076C158.655 511.063 158.805 510.241 159.106 509.61C159.407 508.972 159.844 508.502 160.416 508.201C160.989 507.9 161.686 507.75 162.508 507.75C162.97 507.75 163.392 507.79 163.774 507.871C164.163 507.951 164.504 508.043 164.798 508.146L164.324 509.588C164.075 509.507 163.792 509.434 163.476 509.368C163.168 509.295 162.853 509.258 162.53 509.258C161.833 509.258 161.315 509.485 160.978 509.94C160.647 510.388 160.482 511.093 160.482 512.054V512.935H163.488V514.366ZM176.114 518.945C176.114 519.936 175.986 520.82 175.729 521.598C175.472 522.376 175.102 523.033 174.617 523.569C174.133 524.105 173.546 524.516 172.856 524.802C172.173 525.081 171.399 525.22 170.533 525.22C169.726 525.22 168.984 525.081 168.309 524.802C167.641 524.516 167.062 524.105 166.57 523.569C166.086 523.033 165.708 522.376 165.436 521.598C165.172 520.82 165.04 519.936 165.04 518.945C165.04 517.624 165.264 516.501 165.711 515.577C166.159 514.645 166.797 513.936 167.627 513.452C168.463 512.96 169.458 512.714 170.61 512.714C171.711 512.714 172.672 512.96 173.494 513.452C174.324 513.944 174.966 514.656 175.421 515.588C175.883 516.512 176.114 517.632 176.114 518.945ZM166.933 518.945C166.933 519.914 167.062 520.754 167.318 521.466C167.575 522.178 167.972 522.729 168.507 523.118C169.043 523.507 169.733 523.701 170.577 523.701C171.414 523.701 172.1 523.507 172.636 523.118C173.179 522.729 173.579 522.178 173.836 521.466C174.092 520.754 174.221 519.914 174.221 518.945C174.221 517.984 174.092 517.155 173.836 516.457C173.579 515.753 173.182 515.21 172.647 514.828C172.111 514.446 171.417 514.256 170.566 514.256C169.311 514.256 168.39 514.67 167.803 515.5C167.223 516.329 166.933 517.478 166.933 518.945ZM184.756 512.714C184.998 512.714 185.251 512.729 185.516 512.759C185.78 512.781 186.015 512.814 186.22 512.858L185.989 514.553C185.791 514.502 185.571 514.461 185.328 514.432C185.086 514.402 184.859 514.388 184.646 514.388C184.162 514.388 183.703 514.487 183.27 514.685C182.844 514.876 182.47 515.155 182.147 515.522C181.824 515.881 181.571 516.318 181.387 516.832C181.204 517.338 181.112 517.903 181.112 518.527V525H179.274V512.935H180.793L180.991 515.158H181.068C181.318 514.711 181.619 514.303 181.971 513.936C182.323 513.562 182.73 513.265 183.193 513.045C183.662 512.825 184.184 512.714 184.756 512.714ZM192.396 523.723C192.697 523.723 193.005 523.697 193.321 523.646C193.636 523.595 193.893 523.532 194.091 523.459V524.879C193.878 524.974 193.581 525.055 193.2 525.121C192.825 525.187 192.458 525.22 192.099 525.22C191.46 525.22 190.88 525.11 190.359 524.89C189.838 524.662 189.42 524.281 189.104 523.745C188.796 523.209 188.642 522.468 188.642 521.521V514.366H186.925V513.474L188.653 512.759L189.38 510.138H190.48V512.935H194.014V514.366H190.48V521.466C190.48 522.222 190.653 522.787 190.998 523.162C191.35 523.536 191.816 523.723 192.396 523.723ZM201.049 512.737C202.487 512.737 203.555 513.059 204.252 513.705C204.949 514.351 205.298 515.382 205.298 516.799V525H203.966L203.614 523.217H203.526C203.188 523.657 202.836 524.028 202.469 524.328C202.102 524.622 201.676 524.846 201.192 525C200.715 525.147 200.128 525.22 199.43 525.22C198.696 525.22 198.043 525.092 197.471 524.835C196.906 524.578 196.458 524.189 196.128 523.668C195.805 523.147 195.643 522.486 195.643 521.686C195.643 520.483 196.12 519.558 197.075 518.912C198.029 518.266 199.482 517.914 201.434 517.855L203.515 517.767V517.03C203.515 515.988 203.291 515.257 202.843 514.839C202.395 514.421 201.764 514.212 200.95 514.212C200.318 514.212 199.717 514.303 199.144 514.487C198.572 514.67 198.029 514.887 197.515 515.136L196.953 513.749C197.497 513.47 198.12 513.232 198.825 513.034C199.529 512.836 200.271 512.737 201.049 512.737ZM203.492 519.055L201.654 519.132C200.15 519.191 199.089 519.437 198.473 519.87C197.856 520.303 197.548 520.916 197.548 521.708C197.548 522.398 197.757 522.908 198.175 523.239C198.594 523.569 199.148 523.734 199.838 523.734C200.909 523.734 201.786 523.437 202.469 522.842C203.151 522.248 203.492 521.356 203.492 520.167V519.055ZM210.89 507.871V512.153C210.89 512.645 210.876 513.122 210.846 513.584C210.824 514.047 210.806 514.406 210.791 514.663H210.89C211.22 514.12 211.698 513.661 212.321 513.287C212.945 512.913 213.741 512.725 214.71 512.725C216.222 512.725 217.426 513.25 218.321 514.3C219.224 515.342 219.675 516.894 219.675 518.956C219.675 520.314 219.47 521.459 219.059 522.391C218.648 523.323 218.068 524.028 217.319 524.505C216.571 524.982 215.686 525.22 214.666 525.22C213.712 525.22 212.927 525.044 212.31 524.692C211.701 524.332 211.231 523.895 210.901 523.382H210.758L210.384 525H209.063V507.871H210.89ZM214.413 514.256C213.54 514.256 212.846 514.428 212.332 514.773C211.819 515.111 211.448 515.624 211.22 516.314C211 516.997 210.89 517.863 210.89 518.912V519.011C210.89 520.531 211.143 521.694 211.65 522.501C212.156 523.301 213.077 523.701 214.413 523.701C215.536 523.701 216.376 523.29 216.934 522.468C217.499 521.646 217.782 520.472 217.782 518.945C217.782 517.389 217.503 516.219 216.945 515.434C216.394 514.648 215.55 514.256 214.413 514.256ZM224.706 525H222.867V507.871H224.706V525ZM233.215 512.714C234.243 512.714 235.124 512.942 235.858 513.397C236.591 513.852 237.153 514.491 237.542 515.313C237.931 516.127 238.125 517.081 238.125 518.175V519.309H229.792C229.814 520.725 230.166 521.804 230.849 522.545C231.531 523.286 232.493 523.657 233.733 523.657C234.496 523.657 235.171 523.587 235.758 523.448C236.346 523.308 236.955 523.103 237.586 522.831V524.439C236.977 524.71 236.371 524.908 235.769 525.033C235.175 525.158 234.47 525.22 233.656 525.22C232.496 525.22 231.483 524.985 230.617 524.516C229.759 524.039 229.091 523.341 228.614 522.424C228.137 521.507 227.898 520.384 227.898 519.055C227.898 517.756 228.115 516.634 228.548 515.687C228.988 514.733 229.605 513.999 230.397 513.485C231.197 512.971 232.137 512.714 233.215 512.714ZM233.193 514.212C232.217 514.212 231.439 514.531 230.86 515.169C230.28 515.808 229.935 516.7 229.825 517.844H236.21C236.202 517.125 236.089 516.494 235.869 515.951C235.656 515.401 235.329 514.975 234.889 514.674C234.448 514.366 233.883 514.212 233.193 514.212Z" fill="black"/>
<rect x="260.182" y="505.932" width="21.1364" height="21.1364" rx="3.52273" fill="#FEF0A9"/>
<path d="M302.741 508.906V519.32C302.741 520.457 302.51 521.47 302.047 522.358C301.592 523.246 300.902 523.947 299.978 524.461C299.053 524.967 297.893 525.22 296.499 525.22C294.51 525.22 292.995 524.681 291.952 523.602C290.918 522.523 290.4 521.081 290.4 519.276V508.906H292.283V519.331C292.283 520.696 292.642 521.749 293.362 522.49C294.088 523.231 295.171 523.602 296.609 523.602C297.592 523.602 298.396 523.426 299.02 523.074C299.651 522.714 300.117 522.215 300.418 521.576C300.726 520.931 300.88 520.186 300.88 519.342V508.906H302.741ZM312.45 512.714C313.881 512.714 314.964 513.067 315.698 513.771C316.432 514.469 316.799 515.591 316.799 517.14V525H314.993V517.261C314.993 516.256 314.762 515.503 314.3 515.004C313.845 514.505 313.144 514.256 312.197 514.256C310.861 514.256 309.922 514.634 309.379 515.39C308.836 516.145 308.564 517.243 308.564 518.681V525H306.737V512.935H308.212L308.487 514.674H308.586C308.843 514.248 309.17 513.892 309.566 513.606C309.962 513.313 310.406 513.092 310.898 512.946C311.39 512.792 311.907 512.714 312.45 512.714ZM325.396 525.22C324.31 525.22 323.352 524.996 322.523 524.549C321.694 524.101 321.048 523.418 320.586 522.501C320.123 521.584 319.892 520.428 319.892 519.033C319.892 517.573 320.134 516.38 320.619 515.456C321.11 514.524 321.786 513.834 322.644 513.386C323.503 512.938 324.479 512.714 325.572 512.714C326.174 512.714 326.754 512.777 327.312 512.902C327.877 513.019 328.339 513.17 328.699 513.353L328.148 514.883C327.781 514.736 327.356 514.604 326.871 514.487C326.394 514.369 325.947 514.311 325.528 514.311C324.692 514.311 323.995 514.491 323.437 514.85C322.886 515.21 322.472 515.738 322.193 516.435C321.921 517.133 321.786 517.991 321.786 519.011C321.786 519.987 321.918 520.82 322.182 521.51C322.453 522.2 322.853 522.729 323.382 523.096C323.918 523.455 324.585 523.635 325.385 523.635C326.024 523.635 326.6 523.569 327.114 523.437C327.627 523.297 328.093 523.136 328.512 522.952V524.582C328.108 524.787 327.657 524.945 327.158 525.055C326.666 525.165 326.079 525.22 325.396 525.22ZM341.777 518.945C341.777 519.936 341.649 520.82 341.392 521.598C341.135 522.376 340.764 523.033 340.28 523.569C339.795 524.105 339.208 524.516 338.518 524.802C337.836 525.081 337.062 525.22 336.196 525.22C335.388 525.22 334.647 525.081 333.972 524.802C333.304 524.516 332.724 524.105 332.233 523.569C331.748 523.033 331.37 522.376 331.099 521.598C330.835 520.82 330.702 519.936 330.702 518.945C330.702 517.624 330.926 516.501 331.374 515.577C331.822 514.645 332.46 513.936 333.289 513.452C334.126 512.96 335.121 512.714 336.273 512.714C337.374 512.714 338.335 512.96 339.157 513.452C339.986 513.944 340.628 514.656 341.083 515.588C341.546 516.512 341.777 517.632 341.777 518.945ZM332.596 518.945C332.596 519.914 332.724 520.754 332.981 521.466C333.238 522.178 333.634 522.729 334.17 523.118C334.706 523.507 335.396 523.701 336.24 523.701C337.076 523.701 337.763 523.507 338.298 523.118C338.841 522.729 339.241 522.178 339.498 521.466C339.755 520.754 339.884 519.914 339.884 518.945C339.884 517.984 339.755 517.155 339.498 516.457C339.241 515.753 338.845 515.21 338.309 514.828C337.774 514.446 337.08 514.256 336.229 514.256C334.974 514.256 334.053 514.67 333.466 515.5C332.886 516.329 332.596 517.478 332.596 518.945ZM358.037 512.714C359.365 512.714 360.367 513.063 361.042 513.76C361.717 514.45 362.055 515.562 362.055 517.096V525H360.249V517.184C360.249 516.208 360.036 515.478 359.611 514.993C359.192 514.502 358.569 514.256 357.739 514.256C356.572 514.256 355.725 514.593 355.196 515.268C354.668 515.944 354.404 516.938 354.404 518.252V525H352.587V517.184C352.587 516.531 352.492 515.988 352.301 515.555C352.118 515.122 351.839 514.799 351.465 514.586C351.098 514.366 350.632 514.256 350.066 514.256C349.266 514.256 348.624 514.421 348.14 514.751C347.656 515.081 347.303 515.573 347.083 516.226C346.87 516.872 346.764 517.668 346.764 518.615V525H344.936V512.935H346.412L346.687 514.641H346.786C347.028 514.223 347.333 513.87 347.7 513.584C348.067 513.298 348.478 513.081 348.933 512.935C349.388 512.788 349.872 512.714 350.386 512.714C351.303 512.714 352.07 512.887 352.686 513.232C353.31 513.569 353.762 514.087 354.04 514.784H354.14C354.536 514.087 355.079 513.569 355.769 513.232C356.459 512.887 357.215 512.714 358.037 512.714ZM371.181 514.366H368.175V525H366.348V514.366H364.212V513.485L366.348 512.88V512.076C366.348 511.063 366.498 510.241 366.799 509.61C367.1 508.972 367.537 508.502 368.109 508.201C368.682 507.9 369.379 507.75 370.201 507.75C370.663 507.75 371.085 507.79 371.467 507.871C371.856 507.951 372.197 508.043 372.491 508.146L372.017 509.588C371.768 509.507 371.485 509.434 371.17 509.368C370.862 509.295 370.546 509.258 370.223 509.258C369.526 509.258 369.008 509.485 368.671 509.94C368.341 510.388 368.175 511.093 368.175 512.054V512.935H371.181V514.366ZM383.808 518.945C383.808 519.936 383.679 520.82 383.422 521.598C383.165 522.376 382.795 523.033 382.31 523.569C381.826 524.105 381.239 524.516 380.549 524.802C379.866 525.081 379.092 525.22 378.226 525.22C377.419 525.22 376.678 525.081 376.002 524.802C375.335 524.516 374.755 524.105 374.263 523.569C373.779 523.033 373.401 522.376 373.129 521.598C372.865 520.82 372.733 519.936 372.733 518.945C372.733 517.624 372.957 516.501 373.404 515.577C373.852 514.645 374.491 513.936 375.32 513.452C376.157 512.96 377.151 512.714 378.303 512.714C379.404 512.714 380.366 512.96 381.188 513.452C382.017 513.944 382.659 514.656 383.114 515.588C383.576 516.512 383.808 517.632 383.808 518.945ZM374.626 518.945C374.626 519.914 374.755 520.754 375.012 521.466C375.269 522.178 375.665 522.729 376.201 523.118C376.736 523.507 377.426 523.701 378.27 523.701C379.107 523.701 379.793 523.507 380.329 523.118C380.872 522.729 381.272 522.178 381.529 521.466C381.786 520.754 381.914 519.914 381.914 518.945C381.914 517.984 381.786 517.155 381.529 516.457C381.272 515.753 380.876 515.21 380.34 514.828C379.804 514.446 379.111 514.256 378.259 514.256C377.004 514.256 376.083 514.67 375.496 515.5C374.916 516.329 374.626 517.478 374.626 518.945ZM392.449 512.714C392.691 512.714 392.945 512.729 393.209 512.759C393.473 512.781 393.708 512.814 393.913 512.858L393.682 514.553C393.484 514.502 393.264 514.461 393.022 514.432C392.779 514.402 392.552 514.388 392.339 514.388C391.855 514.388 391.396 514.487 390.963 514.685C390.537 514.876 390.163 515.155 389.84 515.522C389.517 515.881 389.264 516.318 389.081 516.832C388.897 517.338 388.805 517.903 388.805 518.527V525H386.967V512.935H388.486L388.684 515.158H388.761C389.011 514.711 389.312 514.303 389.664 513.936C390.016 513.562 390.424 513.265 390.886 513.045C391.356 512.825 391.877 512.714 392.449 512.714ZM400.089 523.723C400.39 523.723 400.698 523.697 401.014 523.646C401.329 523.595 401.586 523.532 401.784 523.459V524.879C401.572 524.974 401.274 525.055 400.893 525.121C400.518 525.187 400.152 525.22 399.792 525.22C399.153 525.22 398.574 525.11 398.053 524.89C397.531 524.662 397.113 524.281 396.798 523.745C396.489 523.209 396.335 522.468 396.335 521.521V514.366H394.618V513.474L396.346 512.759L397.073 510.138H398.174V512.935H401.707V514.366H398.174V521.466C398.174 522.222 398.346 522.787 398.691 523.162C399.043 523.536 399.509 523.723 400.089 523.723ZM408.742 512.737C410.18 512.737 411.248 513.059 411.945 513.705C412.643 514.351 412.991 515.382 412.991 516.799V525H411.659L411.307 523.217H411.219C410.881 523.657 410.529 524.028 410.162 524.328C409.795 524.622 409.369 524.846 408.885 525C408.408 525.147 407.821 525.22 407.124 525.22C406.39 525.22 405.737 525.092 405.164 524.835C404.599 524.578 404.151 524.189 403.821 523.668C403.498 523.147 403.337 522.486 403.337 521.686C403.337 520.483 403.814 519.558 404.768 518.912C405.722 518.266 407.175 517.914 409.127 517.855L411.208 517.767V517.03C411.208 515.988 410.984 515.257 410.536 514.839C410.089 514.421 409.457 514.212 408.643 514.212C408.012 514.212 407.41 514.303 406.837 514.487C406.265 514.67 405.722 514.887 405.208 515.136L404.647 513.749C405.19 513.47 405.814 513.232 406.518 513.034C407.223 512.836 407.964 512.737 408.742 512.737ZM411.186 519.055L409.347 519.132C407.843 519.191 406.782 519.437 406.166 519.87C405.549 520.303 405.241 520.916 405.241 521.708C405.241 522.398 405.45 522.908 405.869 523.239C406.287 523.569 406.841 523.734 407.531 523.734C408.602 523.734 409.479 523.437 410.162 522.842C410.844 522.248 411.186 521.356 411.186 520.167V519.055ZM418.583 507.871V512.153C418.583 512.645 418.569 513.122 418.539 513.584C418.517 514.047 418.499 514.406 418.484 514.663H418.583C418.914 514.12 419.391 513.661 420.015 513.287C420.638 512.913 421.435 512.725 422.403 512.725C423.915 512.725 425.119 513.25 426.014 514.3C426.917 515.342 427.368 516.894 427.368 518.956C427.368 520.314 427.163 521.459 426.752 522.391C426.341 523.323 425.761 524.028 425.012 524.505C424.264 524.982 423.38 525.22 422.359 525.22C421.405 525.22 420.62 525.044 420.004 524.692C419.394 524.332 418.925 523.895 418.594 523.382H418.451L418.077 525H416.756V507.871H418.583ZM422.106 514.256C421.233 514.256 420.539 514.428 420.026 514.773C419.512 515.111 419.141 515.624 418.914 516.314C418.694 516.997 418.583 517.863 418.583 518.912V519.011C418.583 520.531 418.837 521.694 419.343 522.501C419.849 523.301 420.77 523.701 422.106 523.701C423.229 523.701 424.069 523.29 424.627 522.468C425.192 521.646 425.475 520.472 425.475 518.945C425.475 517.389 425.196 516.219 424.638 515.434C424.088 514.648 423.244 514.256 422.106 514.256ZM432.399 525H430.561V507.871H432.399V525ZM440.909 512.714C441.936 512.714 442.817 512.942 443.551 513.397C444.285 513.852 444.846 514.491 445.235 515.313C445.624 516.127 445.819 517.081 445.819 518.175V519.309H437.485C437.507 520.725 437.859 521.804 438.542 522.545C439.224 523.286 440.186 523.657 441.426 523.657C442.189 523.657 442.865 523.587 443.452 523.448C444.039 523.308 444.648 523.103 445.279 522.831V524.439C444.67 524.71 444.065 524.908 443.463 525.033C442.868 525.158 442.164 525.22 441.349 525.22C440.19 525.22 439.177 524.985 438.311 524.516C437.452 524.039 436.784 523.341 436.307 522.424C435.83 521.507 435.592 520.384 435.592 519.055C435.592 517.756 435.808 516.634 436.241 515.687C436.681 514.733 437.298 513.999 438.091 513.485C438.891 512.971 439.83 512.714 440.909 512.714ZM440.887 514.212C439.911 514.212 439.133 514.531 438.553 515.169C437.973 515.808 437.628 516.7 437.518 517.844H443.903C443.896 517.125 443.782 516.494 443.562 515.951C443.349 515.401 443.022 514.975 442.582 514.674C442.142 514.366 441.577 514.212 440.887 514.212Z" fill="black"/>
<rect x="467.364" y="505.932" width="21.1364" height="21.1364" rx="3.52273" fill="#FFC0CB"/>
<path d="M510.33 525H508.172L499.398 511.482H499.31C499.332 511.841 499.358 512.252 499.387 512.714C499.417 513.17 499.439 513.658 499.453 514.179C499.475 514.692 499.486 515.217 499.486 515.753V525H497.747V508.906H499.894L508.635 522.38H508.712C508.697 522.123 508.679 521.76 508.657 521.29C508.635 520.813 508.613 520.303 508.591 519.76C508.576 519.21 508.568 518.699 508.568 518.23V508.906H510.33V525ZM519.093 512.714C520.12 512.714 521.001 512.942 521.735 513.397C522.469 513.852 523.03 514.491 523.419 515.313C523.808 516.127 524.002 517.081 524.002 518.175V519.309H515.669C515.691 520.725 516.043 521.804 516.726 522.545C517.408 523.286 518.37 523.657 519.61 523.657C520.373 523.657 521.048 523.587 521.636 523.448C522.223 523.308 522.832 523.103 523.463 522.831V524.439C522.854 524.71 522.248 524.908 521.647 525.033C521.052 525.158 520.348 525.22 519.533 525.22C518.373 525.22 517.361 524.985 516.495 524.516C515.636 524.039 514.968 523.341 514.491 522.424C514.014 521.507 513.776 520.384 513.776 519.055C513.776 517.756 513.992 516.634 514.425 515.687C514.865 514.733 515.482 513.999 516.274 513.485C517.074 512.971 518.014 512.714 519.093 512.714ZM519.071 514.212C518.095 514.212 517.317 514.531 516.737 515.169C516.157 515.808 515.812 516.7 515.702 517.844H522.087C522.08 517.125 521.966 516.494 521.746 515.951C521.533 515.401 521.206 514.975 520.766 514.674C520.326 514.366 519.76 514.212 519.071 514.212ZM537.07 512.935V525H535.572L535.308 523.305H535.209C534.96 523.723 534.637 524.075 534.24 524.362C533.844 524.648 533.396 524.861 532.897 525C532.406 525.147 531.881 525.22 531.323 525.22C530.369 525.22 529.569 525.066 528.923 524.758C528.277 524.45 527.789 523.973 527.459 523.327C527.136 522.681 526.975 521.852 526.975 520.839V512.935H528.824V520.707C528.824 521.712 529.052 522.464 529.507 522.963C529.962 523.455 530.655 523.701 531.587 523.701C532.483 523.701 533.195 523.532 533.723 523.195C534.259 522.857 534.644 522.362 534.879 521.708C535.114 521.048 535.231 520.241 535.231 519.287V512.935H537.07ZM544.831 523.723C545.131 523.723 545.44 523.697 545.755 523.646C546.071 523.595 546.328 523.532 546.526 523.459V524.879C546.313 524.974 546.016 525.055 545.634 525.121C545.26 525.187 544.893 525.22 544.533 525.22C543.895 525.22 543.315 525.11 542.794 524.89C542.273 524.662 541.855 524.281 541.539 523.745C541.231 523.209 541.077 522.468 541.077 521.521V514.366H539.359V513.474L541.088 512.759L541.814 510.138H542.915V512.935H546.449V514.366H542.915V521.466C542.915 522.222 543.088 522.787 543.432 523.162C543.785 523.536 544.251 523.723 544.831 523.723ZM554.452 512.714C554.694 512.714 554.947 512.729 555.212 512.759C555.476 512.781 555.711 512.814 555.916 512.858L555.685 514.553C555.487 514.502 555.267 514.461 555.024 514.432C554.782 514.402 554.555 514.388 554.342 514.388C553.858 514.388 553.399 514.487 552.966 514.685C552.54 514.876 552.166 515.155 551.843 515.522C551.52 515.881 551.267 516.318 551.083 516.832C550.9 517.338 550.808 517.903 550.808 518.527V525H548.97V512.935H550.489L550.687 515.158H550.764C551.014 514.711 551.315 514.303 551.667 513.936C552.019 513.562 552.426 513.265 552.889 513.045C553.359 512.825 553.88 512.714 554.452 512.714ZM562.708 512.737C564.147 512.737 565.215 513.059 565.912 513.705C566.609 514.351 566.958 515.382 566.958 516.799V525H565.626L565.273 523.217H565.185C564.848 523.657 564.495 524.028 564.129 524.328C563.762 524.622 563.336 524.846 562.852 525C562.374 525.147 561.787 525.22 561.09 525.22C560.356 525.22 559.703 525.092 559.131 524.835C558.566 524.578 558.118 524.189 557.788 523.668C557.465 523.147 557.303 522.486 557.303 521.686C557.303 520.483 557.78 519.558 558.734 518.912C559.688 518.266 561.142 517.914 563.094 517.855L565.174 517.767V517.03C565.174 515.988 564.95 515.257 564.503 514.839C564.055 514.421 563.424 514.212 562.609 514.212C561.978 514.212 561.376 514.303 560.804 514.487C560.231 514.67 559.688 514.887 559.175 515.136L558.613 513.749C559.156 513.47 559.78 513.232 560.485 513.034C561.189 512.836 561.93 512.737 562.708 512.737ZM565.152 519.055L563.314 519.132C561.809 519.191 560.749 519.437 560.132 519.87C559.516 520.303 559.208 520.916 559.208 521.708C559.208 522.398 559.417 522.908 559.835 523.239C560.254 523.569 560.808 523.734 561.497 523.734C562.569 523.734 563.446 523.437 564.129 522.842C564.811 522.248 565.152 521.356 565.152 520.167V519.055ZM572.561 525H570.723V507.871H572.561V525Z" fill="black"/>
<rect x="90.5909" y="556.932" width="21.1364" height="21.1364" rx="3.52273" fill="#D6ECC1"/>
<path d="M127.855 561.326C126.967 561.326 126.167 561.48 125.455 561.788C124.75 562.089 124.149 562.529 123.649 563.109C123.158 563.681 122.78 564.375 122.516 565.19C122.251 566.004 122.119 566.922 122.119 567.942C122.119 569.292 122.328 570.466 122.747 571.464C123.172 572.455 123.804 573.222 124.64 573.765C125.484 574.308 126.537 574.58 127.8 574.58C128.519 574.58 129.194 574.521 129.825 574.404C130.464 574.279 131.084 574.125 131.686 573.941V575.571C131.099 575.791 130.482 575.952 129.836 576.055C129.19 576.165 128.424 576.22 127.535 576.22C125.899 576.22 124.53 575.883 123.429 575.207C122.336 574.525 121.514 573.563 120.963 572.323C120.42 571.083 120.149 569.619 120.149 567.931C120.149 566.712 120.318 565.601 120.655 564.595C121 563.582 121.499 562.709 122.152 561.975C122.813 561.241 123.62 560.676 124.574 560.28C125.536 559.876 126.636 559.674 127.877 559.674C128.691 559.674 129.477 559.755 130.233 559.917C130.988 560.078 131.671 560.309 132.28 560.61L131.532 562.195C131.018 561.96 130.453 561.759 129.836 561.59C129.227 561.414 128.567 561.326 127.855 561.326ZM145.303 569.945C145.303 570.936 145.175 571.82 144.918 572.598C144.661 573.376 144.29 574.033 143.806 574.569C143.322 575.105 142.735 575.516 142.045 575.802C141.362 576.081 140.588 576.22 139.722 576.22C138.915 576.22 138.173 576.081 137.498 575.802C136.83 575.516 136.251 575.105 135.759 574.569C135.274 574.033 134.897 573.376 134.625 572.598C134.361 571.82 134.229 570.936 134.229 569.945C134.229 568.624 134.453 567.501 134.9 566.577C135.348 565.645 135.986 564.936 136.816 564.452C137.652 563.96 138.647 563.714 139.799 563.714C140.9 563.714 141.861 563.96 142.683 564.452C143.513 564.944 144.155 565.656 144.61 566.588C145.072 567.512 145.303 568.632 145.303 569.945ZM136.122 569.945C136.122 570.914 136.251 571.754 136.507 572.466C136.764 573.178 137.161 573.729 137.696 574.118C138.232 574.507 138.922 574.701 139.766 574.701C140.603 574.701 141.289 574.507 141.825 574.118C142.368 573.729 142.768 573.178 143.024 572.466C143.281 571.754 143.41 570.914 143.41 569.945C143.41 568.984 143.281 568.155 143.024 567.457C142.768 566.753 142.371 566.21 141.836 565.828C141.3 565.446 140.606 565.256 139.755 565.256C138.5 565.256 137.579 565.67 136.992 566.5C136.412 567.329 136.122 568.478 136.122 569.945ZM161.563 563.714C162.891 563.714 163.893 564.063 164.568 564.76C165.243 565.45 165.581 566.562 165.581 568.096V576H163.776V568.184C163.776 567.208 163.563 566.478 163.137 565.993C162.719 565.502 162.095 565.256 161.266 565.256C160.099 565.256 159.251 565.593 158.723 566.268C158.194 566.944 157.93 567.938 157.93 569.252V576H156.114V568.184C156.114 567.531 156.018 566.988 155.827 566.555C155.644 566.122 155.365 565.799 154.991 565.586C154.624 565.366 154.158 565.256 153.593 565.256C152.793 565.256 152.151 565.421 151.666 565.751C151.182 566.081 150.83 566.573 150.609 567.226C150.397 567.872 150.29 568.668 150.29 569.615V576H148.463V563.935H149.938L150.213 565.641H150.312C150.554 565.223 150.859 564.87 151.226 564.584C151.593 564.298 152.004 564.081 152.459 563.935C152.914 563.788 153.398 563.714 153.912 563.714C154.829 563.714 155.596 563.887 156.213 564.232C156.837 564.569 157.288 565.087 157.567 565.784H157.666C158.062 565.087 158.605 564.569 159.295 564.232C159.985 563.887 160.741 563.714 161.563 563.714ZM174.707 565.366H171.702V576H169.874V565.366H167.739V564.485L169.874 563.88V563.076C169.874 562.063 170.025 561.241 170.326 560.61C170.627 559.972 171.063 559.502 171.636 559.201C172.208 558.9 172.905 558.75 173.727 558.75C174.19 558.75 174.612 558.79 174.993 558.871C175.382 558.951 175.723 559.043 176.017 559.146L175.544 560.588C175.294 560.507 175.012 560.434 174.696 560.368C174.388 560.295 174.072 560.258 173.749 560.258C173.052 560.258 172.535 560.485 172.197 560.94C171.867 561.388 171.702 562.093 171.702 563.054V563.935H174.707V565.366ZM187.334 569.945C187.334 570.936 187.205 571.82 186.948 572.598C186.692 573.376 186.321 574.033 185.837 574.569C185.352 575.105 184.765 575.516 184.075 575.802C183.393 576.081 182.618 576.22 181.752 576.22C180.945 576.22 180.204 576.081 179.529 575.802C178.861 575.516 178.281 575.105 177.789 574.569C177.305 574.033 176.927 573.376 176.656 572.598C176.391 571.82 176.259 570.936 176.259 569.945C176.259 568.624 176.483 567.501 176.931 566.577C177.378 565.645 178.017 564.936 178.846 564.452C179.683 563.96 180.677 563.714 181.83 563.714C182.93 563.714 183.892 563.96 184.714 564.452C185.543 564.944 186.185 565.656 186.64 566.588C187.103 567.512 187.334 568.632 187.334 569.945ZM178.153 569.945C178.153 570.914 178.281 571.754 178.538 572.466C178.795 573.178 179.191 573.729 179.727 574.118C180.263 574.507 180.953 574.701 181.796 574.701C182.633 574.701 183.319 574.507 183.855 574.118C184.398 573.729 184.798 573.178 185.055 572.466C185.312 571.754 185.44 570.914 185.44 569.945C185.44 568.984 185.312 568.155 185.055 567.457C184.798 566.753 184.402 566.21 183.866 565.828C183.33 565.446 182.637 565.256 181.785 565.256C180.531 565.256 179.609 565.67 179.022 566.5C178.443 567.329 178.153 568.478 178.153 569.945ZM195.975 563.714C196.218 563.714 196.471 563.729 196.735 563.759C196.999 563.781 197.234 563.814 197.44 563.858L197.208 565.553C197.01 565.502 196.79 565.461 196.548 565.432C196.306 565.402 196.078 565.388 195.865 565.388C195.381 565.388 194.922 565.487 194.489 565.685C194.064 565.876 193.689 566.155 193.366 566.522C193.044 566.881 192.79 567.318 192.607 567.832C192.423 568.338 192.332 568.903 192.332 569.527V576H190.493V563.935H192.012L192.211 566.158H192.288C192.537 565.711 192.838 565.303 193.19 564.936C193.543 564.562 193.95 564.265 194.412 564.045C194.882 563.825 195.403 563.714 195.975 563.714ZM203.615 574.723C203.916 574.723 204.225 574.697 204.54 574.646C204.856 574.595 205.113 574.532 205.311 574.459V575.879C205.098 575.974 204.801 576.055 204.419 576.121C204.045 576.187 203.678 576.22 203.318 576.22C202.68 576.22 202.1 576.11 201.579 575.89C201.058 575.662 200.639 575.281 200.324 574.745C200.016 574.209 199.861 573.468 199.861 572.521V565.366H198.144V564.474L199.872 563.759L200.599 561.138H201.7V563.935H205.234V565.366H201.7V572.466C201.7 573.222 201.872 573.787 202.217 574.162C202.57 574.536 203.036 574.723 203.615 574.723ZM212.268 563.737C213.707 563.737 214.774 564.059 215.472 564.705C216.169 565.351 216.517 566.382 216.517 567.799V576H215.185L214.833 574.217H214.745C214.407 574.657 214.055 575.028 213.688 575.328C213.321 575.622 212.896 575.846 212.411 576C211.934 576.147 211.347 576.22 210.65 576.22C209.916 576.22 209.263 576.092 208.69 575.835C208.125 575.578 207.678 575.189 207.347 574.668C207.024 574.147 206.863 573.486 206.863 572.686C206.863 571.483 207.34 570.558 208.294 569.912C209.248 569.266 210.701 568.914 212.653 568.855L214.734 568.767V568.03C214.734 566.988 214.51 566.257 214.062 565.839C213.615 565.421 212.984 565.212 212.169 565.212C211.538 565.212 210.936 565.303 210.364 565.487C209.791 565.67 209.248 565.887 208.734 566.136L208.173 564.749C208.716 564.47 209.34 564.232 210.044 564.034C210.749 563.836 211.49 563.737 212.268 563.737ZM214.712 570.055L212.874 570.132C211.369 570.191 210.309 570.437 209.692 570.87C209.076 571.303 208.767 571.916 208.767 572.708C208.767 573.398 208.977 573.908 209.395 574.239C209.813 574.569 210.367 574.734 211.057 574.734C212.129 574.734 213.006 574.437 213.688 573.842C214.371 573.248 214.712 572.356 214.712 571.167V570.055ZM222.11 558.871V563.153C222.11 563.645 222.095 564.122 222.066 564.584C222.044 565.047 222.025 565.406 222.011 565.663H222.11C222.44 565.12 222.917 564.661 223.541 564.287C224.165 563.913 224.961 563.725 225.93 563.725C227.441 563.725 228.645 564.25 229.54 565.3C230.443 566.342 230.895 567.894 230.895 569.956C230.895 571.314 230.689 572.459 230.278 573.391C229.867 574.323 229.287 575.028 228.539 575.505C227.79 575.982 226.906 576.22 225.886 576.22C224.932 576.22 224.146 576.044 223.53 575.692C222.921 575.332 222.451 574.895 222.121 574.382H221.978L221.603 576H220.282V558.871H222.11ZM225.632 565.256C224.759 565.256 224.066 565.428 223.552 565.773C223.038 566.111 222.667 566.624 222.44 567.314C222.22 567.997 222.11 568.863 222.11 569.912V570.011C222.11 571.531 222.363 572.694 222.869 573.501C223.376 574.301 224.297 574.701 225.632 574.701C226.755 574.701 227.596 574.29 228.153 573.468C228.718 572.646 229.001 571.472 229.001 569.945C229.001 568.389 228.722 567.219 228.164 566.434C227.614 565.648 226.77 565.256 225.632 565.256ZM235.925 576H234.087V558.871H235.925V576ZM244.435 563.714C245.462 563.714 246.343 563.942 247.077 564.397C247.811 564.852 248.372 565.491 248.761 566.313C249.15 567.127 249.345 568.081 249.345 569.175V570.309H241.011C241.033 571.725 241.386 572.804 242.068 573.545C242.751 574.286 243.712 574.657 244.952 574.657C245.716 574.657 246.391 574.587 246.978 574.448C247.565 574.308 248.174 574.103 248.805 573.831V575.439C248.196 575.71 247.591 575.908 246.989 576.033C246.395 576.158 245.69 576.22 244.875 576.22C243.716 576.22 242.703 575.985 241.837 575.516C240.978 575.039 240.31 574.341 239.833 573.424C239.356 572.507 239.118 571.384 239.118 570.055C239.118 568.756 239.334 567.634 239.767 566.687C240.208 565.733 240.824 564.999 241.617 564.485C242.417 563.971 243.356 563.714 244.435 563.714ZM244.413 565.212C243.437 565.212 242.659 565.531 242.079 566.169C241.499 566.808 241.154 567.7 241.044 568.844H247.429C247.422 568.125 247.308 567.494 247.088 566.951C246.875 566.401 246.549 565.975 246.108 565.674C245.668 565.366 245.103 565.212 244.413 565.212Z" fill="black"/>
<rect x="270.773" y="556.932" width="21.1364" height="21.1364" rx="3.52273" fill="#61B3FF"/>
<path d="M312.396 559.906L306.616 576H304.734L298.954 559.906H300.914L304.679 570.507C304.833 570.932 304.969 571.34 305.086 571.729C305.211 572.118 305.321 572.492 305.416 572.852C305.512 573.211 305.596 573.56 305.67 573.897C305.743 573.56 305.827 573.211 305.923 572.852C306.018 572.485 306.128 572.107 306.253 571.718C306.378 571.321 306.517 570.907 306.671 570.474L310.414 559.906H312.396ZM318.979 563.714C320.006 563.714 320.887 563.942 321.621 564.397C322.355 564.852 322.916 565.491 323.305 566.313C323.694 567.127 323.889 568.081 323.889 569.175V570.309H315.555C315.577 571.725 315.93 572.804 316.612 573.545C317.295 574.286 318.256 574.657 319.496 574.657C320.26 574.657 320.935 574.587 321.522 574.448C322.109 574.308 322.718 574.103 323.349 573.831V575.439C322.74 575.71 322.135 575.908 321.533 576.033C320.938 576.158 320.234 576.22 319.419 576.22C318.26 576.22 317.247 575.985 316.381 575.516C315.522 575.039 314.854 574.341 314.377 573.424C313.9 572.507 313.662 571.384 313.662 570.055C313.662 568.756 313.878 567.634 314.311 566.687C314.752 565.733 315.368 564.999 316.161 564.485C316.961 563.971 317.9 563.714 318.979 563.714ZM318.957 565.212C317.981 565.212 317.203 565.531 316.623 566.169C316.043 566.808 315.698 567.7 315.588 568.844H321.973C321.966 568.125 321.852 567.494 321.632 566.951C321.419 566.401 321.093 565.975 320.652 565.674C320.212 565.366 319.647 565.212 318.957 565.212ZM332.475 563.714C332.718 563.714 332.971 563.729 333.235 563.759C333.499 563.781 333.734 563.814 333.94 563.858L333.708 565.553C333.51 565.502 333.29 565.461 333.048 565.432C332.806 565.402 332.578 565.388 332.365 565.388C331.881 565.388 331.422 565.487 330.989 565.685C330.564 565.876 330.189 566.155 329.866 566.522C329.543 566.881 329.29 567.318 329.107 567.832C328.923 568.338 328.832 568.903 328.832 569.527V576H326.993V563.935H328.512L328.711 566.158H328.788C329.037 565.711 329.338 565.303 329.69 564.936C330.043 564.562 330.45 564.265 330.912 564.045C331.382 563.825 331.903 563.714 332.475 563.714ZM334.314 563.935H336.273L338.937 570.936C339.092 571.347 339.235 571.743 339.367 572.125C339.499 572.499 339.616 572.859 339.719 573.204C339.822 573.549 339.903 573.883 339.961 574.206H340.038C340.141 573.839 340.288 573.358 340.479 572.763C340.669 572.162 340.875 571.549 341.095 570.925L343.616 563.935H345.587L340.336 577.772C340.057 578.514 339.73 579.159 339.356 579.71C338.989 580.26 338.541 580.682 338.013 580.976C337.484 581.277 336.846 581.427 336.097 581.427C335.752 581.427 335.448 581.405 335.184 581.361C334.919 581.324 334.692 581.28 334.501 581.229V579.765C334.662 579.802 334.857 579.835 335.084 579.864C335.319 579.893 335.561 579.908 335.811 579.908C336.266 579.908 336.659 579.82 336.989 579.644C337.327 579.475 337.616 579.225 337.859 578.895C338.101 578.565 338.31 578.172 338.486 577.717L339.147 576.022L334.314 563.935ZM360.525 561.326C359.637 561.326 358.837 561.48 358.125 561.788C357.421 562.089 356.819 562.529 356.32 563.109C355.828 563.681 355.45 564.375 355.186 565.19C354.922 566.004 354.79 566.922 354.79 567.942C354.79 569.292 354.999 570.466 355.417 571.464C355.843 572.455 356.474 573.222 357.311 573.765C358.155 574.308 359.208 574.58 360.47 574.58C361.189 574.58 361.865 574.521 362.496 574.404C363.134 574.279 363.754 574.125 364.356 573.941V575.571C363.769 575.791 363.153 575.952 362.507 576.055C361.861 576.165 361.094 576.22 360.206 576.22C358.569 576.22 357.201 575.883 356.1 575.207C355.006 574.525 354.184 573.563 353.634 572.323C353.091 571.083 352.819 569.619 352.819 567.931C352.819 566.712 352.988 565.601 353.326 564.595C353.67 563.582 354.17 562.709 354.823 561.975C355.483 561.241 356.291 560.676 357.245 560.28C358.206 559.876 359.307 559.674 360.547 559.674C361.362 559.674 362.147 559.755 362.903 559.917C363.659 560.078 364.341 560.309 364.951 560.61L364.202 562.195C363.688 561.96 363.123 561.759 362.507 561.59C361.898 561.414 361.237 561.326 360.525 561.326ZM377.974 569.945C377.974 570.936 377.845 571.82 377.588 572.598C377.331 573.376 376.961 574.033 376.476 574.569C375.992 575.105 375.405 575.516 374.715 575.802C374.033 576.081 373.258 576.22 372.392 576.22C371.585 576.22 370.844 576.081 370.169 575.802C369.501 575.516 368.921 575.105 368.429 574.569C367.945 574.033 367.567 573.376 367.295 572.598C367.031 571.82 366.899 570.936 366.899 569.945C366.899 568.624 367.123 567.501 367.571 566.577C368.018 565.645 368.657 564.936 369.486 564.452C370.323 563.96 371.317 563.714 372.469 563.714C373.57 563.714 374.532 563.96 375.354 564.452C376.183 564.944 376.825 565.656 377.28 566.588C377.742 567.512 377.974 568.632 377.974 569.945ZM368.793 569.945C368.793 570.914 368.921 571.754 369.178 572.466C369.435 573.178 369.831 573.729 370.367 574.118C370.903 574.507 371.592 574.701 372.436 574.701C373.273 574.701 373.959 574.507 374.495 574.118C375.038 573.729 375.438 573.178 375.695 572.466C375.952 571.754 376.08 570.914 376.08 569.945C376.08 568.984 375.952 568.155 375.695 567.457C375.438 566.753 375.042 566.21 374.506 565.828C373.97 565.446 373.277 565.256 372.425 565.256C371.17 565.256 370.249 565.67 369.662 566.5C369.082 567.329 368.793 568.478 368.793 569.945ZM394.233 563.714C395.562 563.714 396.563 564.063 397.239 564.76C397.914 565.45 398.251 566.562 398.251 568.096V576H396.446V568.184C396.446 567.208 396.233 566.478 395.807 565.993C395.389 565.502 394.765 565.256 393.936 565.256C392.769 565.256 391.921 565.593 391.393 566.268C390.865 566.944 390.6 567.938 390.6 569.252V576H388.784V568.184C388.784 567.531 388.689 566.988 388.498 566.555C388.314 566.122 388.035 565.799 387.661 565.586C387.294 565.366 386.828 565.256 386.263 565.256C385.463 565.256 384.821 565.421 384.337 565.751C383.852 566.081 383.5 566.573 383.28 567.226C383.067 567.872 382.961 568.668 382.961 569.615V576H381.133V563.935H382.608L382.883 565.641H382.983C383.225 565.223 383.529 564.87 383.896 564.584C384.263 564.298 384.674 564.081 385.129 563.935C385.584 563.788 386.069 563.714 386.582 563.714C387.5 563.714 388.267 563.887 388.883 564.232C389.507 564.569 389.958 565.087 390.237 565.784H390.336C390.733 565.087 391.276 564.569 391.965 564.232C392.655 563.887 393.411 563.714 394.233 563.714ZM407.377 565.366H404.372V576H402.545V565.366H400.409V564.485L402.545 563.88V563.076C402.545 562.063 402.695 561.241 402.996 560.61C403.297 559.972 403.734 559.502 404.306 559.201C404.878 558.9 405.576 558.75 406.398 558.75C406.86 558.75 407.282 558.79 407.664 558.871C408.053 558.951 408.394 559.043 408.687 559.146L408.214 560.588C407.965 560.507 407.682 560.434 407.366 560.368C407.058 560.295 406.743 560.258 406.42 560.258C405.722 560.258 405.205 560.485 404.867 560.94C404.537 561.388 404.372 562.093 404.372 563.054V563.935H407.377V565.366ZM420.004 569.945C420.004 570.936 419.876 571.82 419.619 572.598C419.362 573.376 418.991 574.033 418.507 574.569C418.023 575.105 417.436 575.516 416.746 575.802C416.063 576.081 415.289 576.22 414.423 576.22C413.616 576.22 412.874 576.081 412.199 575.802C411.531 575.516 410.952 575.105 410.46 574.569C409.975 574.033 409.597 573.376 409.326 572.598C409.062 571.82 408.93 570.936 408.93 569.945C408.93 568.624 409.153 567.501 409.601 566.577C410.049 565.645 410.687 564.936 411.517 564.452C412.353 563.96 413.348 563.714 414.5 563.714C415.601 563.714 416.562 563.96 417.384 564.452C418.213 564.944 418.856 565.656 419.311 566.588C419.773 567.512 420.004 568.632 420.004 569.945ZM410.823 569.945C410.823 570.914 410.952 571.754 411.208 572.466C411.465 573.178 411.862 573.729 412.397 574.118C412.933 574.507 413.623 574.701 414.467 574.701C415.304 574.701 415.99 574.507 416.525 574.118C417.069 573.729 417.469 573.178 417.725 572.466C417.982 571.754 418.111 570.914 418.111 569.945C418.111 568.984 417.982 568.155 417.725 567.457C417.469 566.753 417.072 566.21 416.536 565.828C416.001 565.446 415.307 565.256 414.456 565.256C413.201 565.256 412.28 565.67 411.693 566.5C411.113 567.329 410.823 568.478 410.823 569.945ZM428.646 563.714C428.888 563.714 429.141 563.729 429.405 563.759C429.67 563.781 429.905 563.814 430.11 563.858L429.879 565.553C429.681 565.502 429.461 565.461 429.218 565.432C428.976 565.402 428.749 565.388 428.536 565.388C428.051 565.388 427.593 565.487 427.16 565.685C426.734 565.876 426.36 566.155 426.037 566.522C425.714 566.881 425.461 567.318 425.277 567.832C425.094 568.338 425.002 568.903 425.002 569.527V576H423.164V563.935H424.683L424.881 566.158H424.958C425.208 565.711 425.508 565.303 425.861 564.936C426.213 564.562 426.62 564.265 427.083 564.045C427.552 563.825 428.073 563.714 428.646 563.714ZM436.286 574.723C436.587 574.723 436.895 574.697 437.211 574.646C437.526 574.595 437.783 574.532 437.981 574.459V575.879C437.768 575.974 437.471 576.055 437.089 576.121C436.715 576.187 436.348 576.22 435.989 576.22C435.35 576.22 434.77 576.11 434.249 575.89C433.728 575.662 433.31 575.281 432.994 574.745C432.686 574.209 432.532 573.468 432.532 572.521V565.366H430.815V564.474L432.543 563.759L433.269 561.138H434.37V563.935H437.904V565.366H434.37V572.466C434.37 573.222 434.543 573.787 434.888 574.162C435.24 574.536 435.706 574.723 436.286 574.723ZM444.938 563.737C446.377 563.737 447.445 564.059 448.142 564.705C448.839 565.351 449.188 566.382 449.188 567.799V576H447.856L447.503 574.217H447.415C447.078 574.657 446.726 575.028 446.359 575.328C445.992 575.622 445.566 575.846 445.082 576C444.605 576.147 444.017 576.22 443.32 576.22C442.586 576.22 441.933 576.092 441.361 575.835C440.796 575.578 440.348 575.189 440.018 574.668C439.695 574.147 439.533 573.486 439.533 572.686C439.533 571.483 440.01 570.558 440.964 569.912C441.918 569.266 443.372 568.914 445.324 568.855L447.404 568.767V568.03C447.404 566.988 447.181 566.257 446.733 565.839C446.285 565.421 445.654 565.212 444.839 565.212C444.208 565.212 443.606 565.303 443.034 565.487C442.462 565.67 441.918 565.887 441.405 566.136L440.843 564.749C441.386 564.47 442.01 564.232 442.715 564.034C443.419 563.836 444.161 563.737 444.938 563.737ZM447.382 570.055L445.544 570.132C444.039 570.191 442.979 570.437 442.362 570.87C441.746 571.303 441.438 571.916 441.438 572.708C441.438 573.398 441.647 573.908 442.065 574.239C442.484 574.569 443.038 574.734 443.728 574.734C444.799 574.734 445.676 574.437 446.359 573.842C447.041 573.248 447.382 572.356 447.382 571.167V570.055ZM454.78 558.871V563.153C454.78 563.645 454.765 564.122 454.736 564.584C454.714 565.047 454.696 565.406 454.681 565.663H454.78C455.11 565.12 455.587 564.661 456.211 564.287C456.835 563.913 457.631 563.725 458.6 563.725C460.112 563.725 461.315 564.25 462.211 565.3C463.114 566.342 463.565 567.894 463.565 569.956C463.565 571.314 463.359 572.459 462.948 573.391C462.537 574.323 461.958 575.028 461.209 575.505C460.461 575.982 459.576 576.22 458.556 576.22C457.602 576.22 456.817 576.044 456.2 575.692C455.591 575.332 455.121 574.895 454.791 574.382H454.648L454.274 576H452.953V558.871H454.78ZM458.303 565.256C457.429 565.256 456.736 565.428 456.222 565.773C455.708 566.111 455.338 566.624 455.11 567.314C454.89 567.997 454.78 568.863 454.78 569.912V570.011C454.78 571.531 455.033 572.694 455.54 573.501C456.046 574.301 456.967 574.701 458.303 574.701C459.426 574.701 460.266 574.29 460.824 573.468C461.389 572.646 461.671 571.472 461.671 569.945C461.671 568.389 461.393 567.219 460.835 566.434C460.284 565.648 459.44 565.256 458.303 565.256ZM468.596 576H466.757V558.871H468.596V576ZM477.105 563.714C478.133 563.714 479.014 563.942 479.747 564.397C480.481 564.852 481.043 565.491 481.432 566.313C481.821 567.127 482.015 568.081 482.015 569.175V570.309H473.682C473.704 571.725 474.056 572.804 474.739 573.545C475.421 574.286 476.382 574.657 477.623 574.657C478.386 574.657 479.061 574.587 479.648 574.448C480.235 574.308 480.845 574.103 481.476 573.831V575.439C480.867 575.71 480.261 575.908 479.659 576.033C479.065 576.158 478.36 576.22 477.546 576.22C476.386 576.22 475.373 575.985 474.507 575.516C473.649 575.039 472.981 574.341 472.504 573.424C472.027 572.507 471.788 571.384 471.788 570.055C471.788 568.756 472.005 567.634 472.438 566.687C472.878 565.733 473.495 564.999 474.287 564.485C475.087 563.971 476.027 563.714 477.105 563.714ZM477.083 565.212C476.107 565.212 475.329 565.531 474.75 566.169C474.17 566.808 473.825 567.7 473.715 568.844H480.1C480.092 568.125 479.979 567.494 479.758 566.951C479.546 566.401 479.219 565.975 478.779 565.674C478.338 565.366 477.773 565.212 477.083 565.212Z" fill="black"/>
</svg>
