<svg width="625" height="379" viewBox="0 0 625 379" fill="none" xmlns="http://www.w3.org/2000/svg">
<g clip-path="url(#clip0_144_666)">
<line x1="532.057" y1="3.16627e-08" x2="532.057" y2="347.692" stroke="#CCCCCC" stroke-width="1.44872"/>
<path d="M518.791 361.347C519.509 361.347 520.146 361.461 520.7 361.687C521.255 361.913 521.688 362.247 521.999 362.689C522.316 363.124 522.475 363.662 522.475 364.301C522.475 364.805 522.364 365.247 522.144 365.626C521.928 365.999 521.637 366.327 521.269 366.61C520.901 366.888 520.494 367.137 520.047 367.357C520.579 367.601 521.057 367.875 521.481 368.181C521.911 368.486 522.251 368.846 522.5 369.259C522.749 369.672 522.874 370.161 522.874 370.727C522.874 371.423 522.704 372.026 522.364 372.535C522.03 373.039 521.561 373.427 520.955 373.698C520.35 373.97 519.639 374.106 518.824 374.106C517.947 374.106 517.2 373.976 516.583 373.715C515.972 373.449 515.505 373.07 515.183 372.578C514.866 372.08 514.708 371.483 514.708 370.787C514.708 370.215 514.829 369.72 515.073 369.301C515.316 368.877 515.638 368.512 516.04 368.206C516.442 367.901 516.881 367.643 517.356 367.434C516.943 367.207 516.564 366.95 516.218 366.661C515.879 366.373 515.607 366.036 515.404 365.651C515.206 365.261 515.106 364.808 515.106 364.293C515.106 363.665 515.265 363.133 515.582 362.697C515.904 362.256 516.343 361.922 516.898 361.696C517.458 361.463 518.089 361.347 518.791 361.347ZM516.091 370.795C516.091 371.429 516.315 371.953 516.762 372.366C517.209 372.773 517.885 372.977 518.791 372.977C519.651 372.977 520.316 372.773 520.785 372.366C521.255 371.953 521.49 371.412 521.49 370.744C521.49 370.331 521.382 369.969 521.167 369.658C520.952 369.341 520.647 369.058 520.251 368.809C519.854 368.56 519.388 368.334 518.85 368.13L518.544 368.019C518.024 368.235 517.579 368.475 517.212 368.741C516.849 369.001 516.572 369.298 516.38 369.632C516.187 369.966 516.091 370.354 516.091 370.795ZM518.774 362.502C518.106 362.502 517.56 362.663 517.135 362.986C516.711 363.303 516.499 363.761 516.499 364.361C516.499 364.791 516.6 365.156 516.804 365.456C517.014 365.75 517.297 366.005 517.653 366.22C518.01 366.429 518.409 366.625 518.85 366.806C519.28 366.625 519.662 366.426 519.996 366.211C520.33 365.991 520.593 365.73 520.785 365.43C520.978 365.131 521.074 364.771 521.074 364.352C521.074 363.753 520.862 363.294 520.437 362.977C520.019 362.66 519.464 362.502 518.774 362.502ZM532.839 367.714C532.839 368.721 532.763 369.621 532.61 370.413C532.457 371.206 532.217 371.876 531.888 372.425C531.56 372.974 531.136 373.393 530.615 373.681C530.094 373.964 529.469 374.106 528.739 374.106C527.817 374.106 527.053 373.854 526.447 373.35C525.847 372.847 525.397 372.119 525.098 371.169C524.803 370.212 524.656 369.061 524.656 367.714C524.656 366.39 524.789 365.252 525.055 364.301C525.327 363.345 525.762 362.612 526.362 362.103C526.962 361.588 527.754 361.33 528.739 361.33C529.673 361.33 530.443 361.585 531.048 362.094C531.654 362.598 532.103 363.328 532.398 364.285C532.692 365.235 532.839 366.378 532.839 367.714ZM526.074 367.714C526.074 368.868 526.161 369.83 526.337 370.6C526.512 371.37 526.795 371.947 527.186 372.332C527.582 372.711 528.1 372.9 528.739 372.9C529.379 372.9 529.894 372.711 530.284 372.332C530.68 371.953 530.966 371.378 531.141 370.609C531.322 369.839 531.413 368.874 531.413 367.714C531.413 366.576 531.325 365.626 531.15 364.862C530.974 364.092 530.692 363.515 530.301 363.13C529.911 362.74 529.39 362.544 528.739 362.544C528.088 362.544 527.568 362.74 527.177 363.13C526.787 363.515 526.504 364.092 526.328 364.862C526.159 365.626 526.074 366.576 526.074 367.714ZM537.117 361.347C537.966 361.347 538.609 361.687 539.044 362.366C539.486 363.04 539.706 363.993 539.706 365.227C539.706 366.46 539.494 367.422 539.07 368.113C538.645 368.798 537.995 369.14 537.117 369.14C536.302 369.14 535.677 368.798 535.241 368.113C534.811 367.422 534.596 366.46 534.596 365.227C534.596 363.993 534.803 363.04 535.216 362.366C535.629 361.687 536.263 361.347 537.117 361.347ZM537.117 362.358C536.659 362.358 536.322 362.598 536.107 363.079C535.892 363.554 535.785 364.27 535.785 365.227C535.785 366.183 535.892 366.905 536.107 367.391C536.322 367.878 536.659 368.121 537.117 368.121C537.593 368.121 537.946 367.878 538.178 367.391C538.41 366.905 538.526 366.183 538.526 365.227C538.526 364.276 538.41 363.56 538.178 363.079C537.952 362.598 537.598 362.358 537.117 362.358ZM544.978 361.526L538.094 373.936H536.854L543.738 361.526H544.978ZM544.647 366.322C545.49 366.322 546.132 366.661 546.574 367.34C547.015 368.014 547.236 368.967 547.236 370.201C547.236 371.429 547.024 372.388 546.599 373.079C546.175 373.763 545.524 374.106 544.647 374.106C543.826 374.106 543.201 373.763 542.771 373.079C542.341 372.388 542.126 371.429 542.126 370.201C542.126 368.967 542.329 368.014 542.737 367.34C543.15 366.661 543.787 366.322 544.647 366.322ZM544.647 367.34C544.188 367.34 543.852 367.578 543.637 368.053C543.422 368.529 543.314 369.245 543.314 370.201C543.314 371.157 543.422 371.879 543.637 372.366C543.852 372.847 544.188 373.087 544.647 373.087C545.122 373.087 545.476 372.849 545.708 372.374C545.94 371.893 546.056 371.169 546.056 370.201C546.056 369.25 545.94 368.537 545.708 368.062C545.481 367.581 545.128 367.34 544.647 367.34Z" fill="black"/>
<line x1="459.622" y1="3.16627e-08" x2="459.622" y2="347.692" stroke="#CCCCCC" stroke-width="1.44872"/>
<path d="M442.382 368.631C442.382 367.884 442.433 367.154 442.535 366.441C442.642 365.728 442.821 365.065 443.07 364.454C443.319 363.837 443.658 363.297 444.088 362.833C444.518 362.369 445.053 362.007 445.693 361.746C446.338 361.48 447.11 361.347 448.01 361.347C448.265 361.347 448.539 361.362 448.833 361.39C449.128 361.413 449.371 361.452 449.563 361.509V362.723C449.354 362.649 449.114 362.595 448.842 362.561C448.576 362.527 448.307 362.51 448.035 362.51C446.983 362.51 446.154 362.74 445.548 363.198C444.948 363.656 444.516 364.279 444.25 365.065C443.984 365.846 443.831 366.726 443.791 367.705H443.885C444.06 367.422 444.284 367.168 444.555 366.941C444.827 366.709 445.155 366.526 445.54 366.39C445.93 366.254 446.383 366.186 446.898 366.186C447.622 366.186 448.253 366.333 448.791 366.627C449.334 366.922 449.753 367.349 450.047 367.909C450.347 368.469 450.497 369.148 450.497 369.946C450.497 370.801 450.339 371.539 450.022 372.162C449.705 372.784 449.252 373.265 448.664 373.605C448.081 373.939 447.385 374.106 446.575 374.106C445.97 374.106 445.412 373.99 444.903 373.758C444.394 373.526 443.95 373.181 443.57 372.722C443.197 372.264 442.906 371.695 442.696 371.016C442.487 370.331 442.382 369.536 442.382 368.631ZM446.558 372.917C447.328 372.917 447.945 372.671 448.409 372.179C448.873 371.687 449.105 370.942 449.105 369.946C449.105 369.131 448.898 368.486 448.485 368.011C448.072 367.536 447.45 367.298 446.618 367.298C446.052 367.298 445.56 367.417 445.141 367.654C444.722 367.887 444.397 368.181 444.165 368.537C443.933 368.894 443.817 369.256 443.817 369.624C443.817 369.997 443.87 370.376 443.978 370.761C444.091 371.146 444.261 371.503 444.487 371.831C444.714 372.159 444.999 372.422 445.345 372.62C445.69 372.818 446.094 372.917 446.558 372.917ZM460.403 367.714C460.403 368.721 460.327 369.621 460.174 370.413C460.021 371.206 459.781 371.876 459.453 372.425C459.124 372.974 458.7 373.393 458.179 373.681C457.659 373.964 457.033 374.106 456.303 374.106C455.381 374.106 454.617 373.854 454.011 373.35C453.412 372.847 452.962 372.119 452.662 371.169C452.367 370.212 452.22 369.061 452.22 367.714C452.22 366.39 452.353 365.252 452.619 364.301C452.891 363.345 453.327 362.612 453.927 362.103C454.526 361.588 455.319 361.33 456.303 361.33C457.237 361.33 458.007 361.585 458.612 362.094C459.218 362.598 459.668 363.328 459.962 364.285C460.256 365.235 460.403 366.378 460.403 367.714ZM453.638 367.714C453.638 368.868 453.726 369.83 453.901 370.6C454.077 371.37 454.359 371.947 454.75 372.332C455.146 372.711 455.664 372.9 456.303 372.9C456.943 372.9 457.458 372.711 457.848 372.332C458.244 371.953 458.53 371.378 458.706 370.609C458.887 369.839 458.977 368.874 458.977 367.714C458.977 366.576 458.89 365.626 458.714 364.862C458.539 364.092 458.256 363.515 457.865 363.13C457.475 362.74 456.954 362.544 456.303 362.544C455.653 362.544 455.132 362.74 454.741 363.13C454.351 363.515 454.068 364.092 453.893 364.862C453.723 365.626 453.638 366.576 453.638 367.714ZM464.682 361.347C465.53 361.347 466.173 361.687 466.608 362.366C467.05 363.04 467.271 363.993 467.271 365.227C467.271 366.46 467.058 367.422 466.634 368.113C466.21 368.798 465.559 369.14 464.682 369.14C463.867 369.14 463.241 368.798 462.806 368.113C462.376 367.422 462.16 366.46 462.16 365.227C462.16 363.993 462.367 363.04 462.78 362.366C463.193 361.687 463.827 361.347 464.682 361.347ZM464.682 362.358C464.223 362.358 463.886 362.598 463.671 363.079C463.456 363.554 463.349 364.27 463.349 365.227C463.349 366.183 463.456 366.905 463.671 367.391C463.886 367.878 464.223 368.121 464.682 368.121C465.157 368.121 465.511 367.878 465.743 367.391C465.975 366.905 466.091 366.183 466.091 365.227C466.091 364.276 465.975 363.56 465.743 363.079C465.516 362.598 465.163 362.358 464.682 362.358ZM472.542 361.526L465.658 373.936H464.418L471.303 361.526H472.542ZM472.211 366.322C473.054 366.322 473.696 366.661 474.138 367.34C474.579 368.014 474.8 368.967 474.8 370.201C474.8 371.429 474.588 372.388 474.163 373.079C473.739 373.763 473.088 374.106 472.211 374.106C471.39 374.106 470.765 373.763 470.335 373.079C469.905 372.388 469.69 371.429 469.69 370.201C469.69 368.967 469.894 368.014 470.301 367.34C470.714 366.661 471.351 366.322 472.211 366.322ZM472.211 367.34C471.753 367.34 471.416 367.578 471.201 368.053C470.986 368.529 470.878 369.245 470.878 370.201C470.878 371.157 470.986 371.879 471.201 372.366C471.416 372.847 471.753 373.087 472.211 373.087C472.686 373.087 473.04 372.849 473.272 372.374C473.504 371.893 473.62 371.169 473.62 370.201C473.62 369.25 473.504 368.537 473.272 368.062C473.046 367.581 472.692 367.34 472.211 367.34Z" fill="black"/>
<line x1="387.186" y1="3.16627e-08" x2="387.186" y2="347.692" stroke="#CCCCCC" stroke-width="1.44872"/>
<path d="M378.571 371.058H376.712V373.936H375.337V371.058H369.335V369.87L375.243 361.458H376.712V369.785H378.571V371.058ZM375.337 369.785V365.728C375.337 365.416 375.339 365.136 375.345 364.887C375.351 364.633 375.359 364.398 375.37 364.183C375.382 363.962 375.39 363.753 375.396 363.554C375.407 363.356 375.416 363.161 375.421 362.969H375.354C375.246 363.195 375.121 363.436 374.98 363.69C374.844 363.939 374.706 364.163 374.564 364.361L370.736 369.785H375.337ZM387.968 367.714C387.968 368.721 387.891 369.621 387.738 370.413C387.586 371.206 387.345 371.876 387.017 372.425C386.689 372.974 386.264 373.393 385.744 373.681C385.223 373.964 384.598 374.106 383.868 374.106C382.945 374.106 382.181 373.854 381.576 373.35C380.976 372.847 380.526 372.119 380.226 371.169C379.932 370.212 379.785 369.061 379.785 367.714C379.785 366.39 379.918 365.252 380.184 364.301C380.455 363.345 380.891 362.612 381.491 362.103C382.091 361.588 382.883 361.33 383.868 361.33C384.801 361.33 385.571 361.585 386.176 362.094C386.782 362.598 387.232 363.328 387.526 364.285C387.82 365.235 387.968 366.378 387.968 367.714ZM381.202 367.714C381.202 368.868 381.29 369.83 381.465 370.6C381.641 371.37 381.924 371.947 382.314 372.332C382.71 372.711 383.228 372.9 383.868 372.9C384.507 372.9 385.022 372.711 385.412 372.332C385.809 371.953 386.094 371.378 386.27 370.609C386.451 369.839 386.541 368.874 386.541 367.714C386.541 366.576 386.454 365.626 386.278 364.862C386.103 364.092 385.82 363.515 385.429 363.13C385.039 362.74 384.518 362.544 383.868 362.544C383.217 362.544 382.696 362.74 382.306 363.13C381.915 363.515 381.632 364.092 381.457 364.862C381.287 365.626 381.202 366.576 381.202 367.714ZM392.246 361.347C393.095 361.347 393.737 361.687 394.173 362.366C394.614 363.04 394.835 363.993 394.835 365.227C394.835 366.46 394.623 367.422 394.198 368.113C393.774 368.798 393.123 369.14 392.246 369.14C391.431 369.14 390.806 368.798 390.37 368.113C389.94 367.422 389.725 366.46 389.725 365.227C389.725 363.993 389.931 363.04 390.344 362.366C390.757 361.687 391.391 361.347 392.246 361.347ZM392.246 362.358C391.787 362.358 391.451 362.598 391.236 363.079C391.021 363.554 390.913 364.27 390.913 365.227C390.913 366.183 391.021 366.905 391.236 367.391C391.451 367.878 391.787 368.121 392.246 368.121C392.721 368.121 393.075 367.878 393.307 367.391C393.539 366.905 393.655 366.183 393.655 365.227C393.655 364.276 393.539 363.56 393.307 363.079C393.08 362.598 392.727 362.358 392.246 362.358ZM400.106 361.526L393.222 373.936H391.983L398.867 361.526H400.106ZM399.775 366.322C400.618 366.322 401.261 366.661 401.702 367.34C402.143 368.014 402.364 368.967 402.364 370.201C402.364 371.429 402.152 372.388 401.728 373.079C401.303 373.763 400.652 374.106 399.775 374.106C398.955 374.106 398.329 373.763 397.899 373.079C397.469 372.388 397.254 371.429 397.254 370.201C397.254 368.967 397.458 368.014 397.865 367.34C398.278 366.661 398.915 366.322 399.775 366.322ZM399.775 367.34C399.317 367.34 398.98 367.578 398.765 368.053C398.55 368.529 398.442 369.245 398.442 370.201C398.442 371.157 398.55 371.879 398.765 372.366C398.98 372.847 399.317 373.087 399.775 373.087C400.251 373.087 400.604 372.849 400.836 372.374C401.068 371.893 401.184 371.169 401.184 370.201C401.184 369.25 401.068 368.537 400.836 368.062C400.61 367.581 400.256 367.34 399.775 367.34Z" fill="black"/>
<line x1="314.75" y1="3.16627e-08" x2="314.75" y2="347.692" stroke="#CCCCCC" stroke-width="1.44872"/>
<path d="M305.515 373.936H297.383V372.756L300.702 369.386C301.319 368.764 301.837 368.209 302.255 367.722C302.68 367.236 303.002 366.758 303.223 366.288C303.444 365.812 303.554 365.292 303.554 364.726C303.554 364.024 303.345 363.489 302.926 363.122C302.513 362.748 301.967 362.561 301.288 362.561C300.694 362.561 300.167 362.663 299.709 362.867C299.251 363.071 298.781 363.359 298.3 363.733L297.544 362.782C297.873 362.505 298.229 362.259 298.614 362.044C299.004 361.828 299.42 361.659 299.862 361.534C300.309 361.41 300.784 361.347 301.288 361.347C302.052 361.347 302.711 361.48 303.266 361.746C303.82 362.012 304.247 362.392 304.547 362.884C304.853 363.376 305.006 363.962 305.006 364.641C305.006 365.297 304.876 365.909 304.615 366.475C304.355 367.035 303.99 367.592 303.52 368.147C303.051 368.696 302.502 369.279 301.873 369.895L299.174 372.586V372.646H305.515V373.936ZM315.532 367.714C315.532 368.721 315.455 369.621 315.302 370.413C315.15 371.206 314.909 371.876 314.581 372.425C314.253 372.974 313.828 373.393 313.308 373.681C312.787 373.964 312.162 374.106 311.432 374.106C310.509 374.106 309.745 373.854 309.14 373.35C308.54 372.847 308.09 372.119 307.79 371.169C307.496 370.212 307.349 369.061 307.349 367.714C307.349 366.39 307.482 365.252 307.748 364.301C308.019 363.345 308.455 362.612 309.055 362.103C309.655 361.588 310.447 361.33 311.432 361.33C312.365 361.33 313.135 361.585 313.741 362.094C314.346 362.598 314.796 363.328 315.09 364.285C315.384 365.235 315.532 366.378 315.532 367.714ZM308.766 367.714C308.766 368.868 308.854 369.83 309.029 370.6C309.205 371.37 309.488 371.947 309.878 372.332C310.274 372.711 310.792 372.9 311.432 372.9C312.071 372.9 312.586 372.711 312.977 372.332C313.373 371.953 313.658 371.378 313.834 370.609C314.015 369.839 314.106 368.874 314.106 367.714C314.106 366.576 314.018 365.626 313.842 364.862C313.667 364.092 313.384 363.515 312.994 363.13C312.603 362.74 312.082 362.544 311.432 362.544C310.781 362.544 310.26 362.74 309.87 363.13C309.479 363.515 309.196 364.092 309.021 364.862C308.851 365.626 308.766 366.576 308.766 367.714ZM319.81 361.347C320.659 361.347 321.301 361.687 321.737 362.366C322.178 363.04 322.399 363.993 322.399 365.227C322.399 366.46 322.187 367.422 321.762 368.113C321.338 368.798 320.687 369.14 319.81 369.14C318.995 369.14 318.37 368.798 317.934 368.113C317.504 367.422 317.289 366.46 317.289 365.227C317.289 363.993 317.495 363.04 317.908 362.366C318.322 361.687 318.955 361.347 319.81 361.347ZM319.81 362.358C319.351 362.358 319.015 362.598 318.8 363.079C318.585 363.554 318.477 364.27 318.477 365.227C318.477 366.183 318.585 366.905 318.8 367.391C319.015 367.878 319.351 368.121 319.81 368.121C320.285 368.121 320.639 367.878 320.871 367.391C321.103 366.905 321.219 366.183 321.219 365.227C321.219 364.276 321.103 363.56 320.871 363.079C320.645 362.598 320.291 362.358 319.81 362.358ZM327.67 361.526L320.786 373.936H319.547L326.431 361.526H327.67ZM327.339 366.322C328.182 366.322 328.825 366.661 329.266 367.34C329.708 368.014 329.928 368.967 329.928 370.201C329.928 371.429 329.716 372.388 329.292 373.079C328.867 373.763 328.216 374.106 327.339 374.106C326.519 374.106 325.893 373.763 325.463 373.079C325.033 372.388 324.818 371.429 324.818 370.201C324.818 368.967 325.022 368.014 325.429 367.34C325.842 366.661 326.479 366.322 327.339 366.322ZM327.339 367.34C326.881 367.34 326.544 367.578 326.329 368.053C326.114 368.529 326.007 369.245 326.007 370.201C326.007 371.157 326.114 371.879 326.329 372.366C326.544 372.847 326.881 373.087 327.339 373.087C327.815 373.087 328.168 372.849 328.4 372.374C328.632 371.893 328.748 371.169 328.748 370.201C328.748 369.25 328.632 368.537 328.4 368.062C328.174 367.581 327.82 367.34 327.339 367.34Z" fill="black"/>
<line x1="242.314" y1="3.16627e-08" x2="242.314" y2="347.692" stroke="#CCCCCC" stroke-width="1.44872"/>
<path d="M238.147 367.714C238.147 368.721 238.071 369.621 237.918 370.413C237.765 371.206 237.524 371.876 237.196 372.425C236.868 372.974 236.444 373.393 235.923 373.681C235.402 373.964 234.777 374.106 234.047 374.106C233.125 374.106 232.361 373.854 231.755 373.35C231.155 372.847 230.705 372.119 230.405 371.169C230.111 370.212 229.964 369.061 229.964 367.714C229.964 366.39 230.097 365.252 230.363 364.301C230.635 363.345 231.07 362.612 231.67 362.103C232.27 361.588 233.062 361.33 234.047 361.33C234.981 361.33 235.75 361.585 236.356 362.094C236.961 362.598 237.411 363.328 237.706 364.285C238 365.235 238.147 366.378 238.147 367.714ZM231.382 367.714C231.382 368.868 231.469 369.83 231.645 370.6C231.82 371.37 232.103 371.947 232.494 372.332C232.89 372.711 233.408 372.9 234.047 372.9C234.686 372.9 235.201 372.711 235.592 372.332C235.988 371.953 236.274 371.378 236.449 370.609C236.63 369.839 236.721 368.874 236.721 367.714C236.721 366.576 236.633 365.626 236.458 364.862C236.282 364.092 235.999 363.515 235.609 363.13C235.218 362.74 234.698 362.544 234.047 362.544C233.396 362.544 232.876 362.74 232.485 363.13C232.095 363.515 231.812 364.092 231.636 364.862C231.466 365.626 231.382 366.576 231.382 367.714ZM242.425 361.347C243.274 361.347 243.916 361.687 244.352 362.366C244.794 363.04 245.014 363.993 245.014 365.227C245.014 366.46 244.802 367.422 244.378 368.113C243.953 368.798 243.302 369.14 242.425 369.14C241.61 369.14 240.985 368.798 240.549 368.113C240.119 367.422 239.904 366.46 239.904 365.227C239.904 363.993 240.111 363.04 240.524 362.366C240.937 361.687 241.571 361.347 242.425 361.347ZM242.425 362.358C241.967 362.358 241.63 362.598 241.415 363.079C241.2 363.554 241.093 364.27 241.093 365.227C241.093 366.183 241.2 366.905 241.415 367.391C241.63 367.878 241.967 368.121 242.425 368.121C242.901 368.121 243.254 367.878 243.486 367.391C243.718 366.905 243.834 366.183 243.834 365.227C243.834 364.276 243.718 363.56 243.486 363.079C243.26 362.598 242.906 362.358 242.425 362.358ZM250.286 361.526L243.401 373.936H242.162L249.046 361.526H250.286ZM249.955 366.322C250.798 366.322 251.44 366.661 251.881 367.34C252.323 368.014 252.544 368.967 252.544 370.201C252.544 371.429 252.331 372.388 251.907 373.079C251.483 373.763 250.832 374.106 249.955 374.106C249.134 374.106 248.509 373.763 248.079 373.079C247.649 372.388 247.433 371.429 247.433 370.201C247.433 368.967 247.637 368.014 248.045 367.34C248.458 366.661 249.094 366.322 249.955 366.322ZM249.955 367.34C249.496 367.34 249.159 367.578 248.944 368.053C248.729 368.529 248.622 369.245 248.622 370.201C248.622 371.157 248.729 371.879 248.944 372.366C249.159 372.847 249.496 373.087 249.955 373.087C250.43 373.087 250.784 372.849 251.016 372.374C251.248 371.893 251.364 371.169 251.364 370.201C251.364 369.25 251.248 368.537 251.016 368.062C250.789 367.581 250.436 367.34 249.955 367.34Z" fill="black"/>
<line x1="604.493" y1="3.16627e-08" x2="604.493" y2="347.692" stroke="#CCCCCC" stroke-width="1.44872"/>
<path d="M587.373 373.936H585.997V365.142C585.997 364.808 585.997 364.522 585.997 364.285C586.003 364.041 586.009 363.82 586.014 363.622C586.026 363.419 586.04 363.212 586.057 363.003C585.881 363.184 585.717 363.339 585.564 363.47C585.412 363.594 585.222 363.75 584.996 363.936L583.578 365.074L582.84 364.115L586.201 361.526H587.373V373.936ZM600.275 367.714C600.275 368.721 600.199 369.621 600.046 370.413C599.893 371.206 599.653 371.876 599.324 372.425C598.996 372.974 598.572 373.393 598.051 373.681C597.531 373.964 596.905 374.106 596.175 374.106C595.253 374.106 594.489 373.854 593.883 373.35C593.283 372.847 592.834 372.119 592.534 371.169C592.239 370.212 592.092 369.061 592.092 367.714C592.092 366.39 592.225 365.252 592.491 364.301C592.763 363.345 593.199 362.612 593.798 362.103C594.398 361.588 595.191 361.33 596.175 361.33C597.109 361.33 597.879 361.585 598.484 362.094C599.09 362.598 599.539 363.328 599.834 364.285C600.128 365.235 600.275 366.378 600.275 367.714ZM593.51 367.714C593.51 368.868 593.597 369.83 593.773 370.6C593.948 371.37 594.231 371.947 594.622 372.332C595.018 372.711 595.536 372.9 596.175 372.9C596.815 372.9 597.33 372.711 597.72 372.332C598.116 371.953 598.402 371.378 598.577 370.609C598.759 369.839 598.849 368.874 598.849 367.714C598.849 366.576 598.761 365.626 598.586 364.862C598.411 364.092 598.128 363.515 597.737 363.13C597.347 362.74 596.826 362.544 596.175 362.544C595.524 362.544 595.004 362.74 594.613 363.13C594.223 363.515 593.94 364.092 593.764 364.862C593.595 365.626 593.51 366.576 593.51 367.714ZM610.224 367.714C610.224 368.721 610.147 369.621 609.995 370.413C609.842 371.206 609.601 371.876 609.273 372.425C608.945 372.974 608.52 373.393 608 373.681C607.479 373.964 606.854 374.106 606.124 374.106C605.201 374.106 604.437 373.854 603.832 373.35C603.232 372.847 602.782 372.119 602.482 371.169C602.188 370.212 602.041 369.061 602.041 367.714C602.041 366.39 602.174 365.252 602.44 364.301C602.711 363.345 603.147 362.612 603.747 362.103C604.347 361.588 605.139 361.33 606.124 361.33C607.058 361.33 607.827 361.585 608.433 362.094C609.038 362.598 609.488 363.328 609.782 364.285C610.077 365.235 610.224 366.378 610.224 367.714ZM603.458 367.714C603.458 368.868 603.546 369.83 603.722 370.6C603.897 371.37 604.18 371.947 604.57 372.332C604.967 372.711 605.484 372.9 606.124 372.9C606.763 372.9 607.278 372.711 607.669 372.332C608.065 371.953 608.351 371.378 608.526 370.609C608.707 369.839 608.798 368.874 608.798 367.714C608.798 366.576 608.71 365.626 608.535 364.862C608.359 364.092 608.076 363.515 607.686 363.13C607.295 362.74 606.775 362.544 606.124 362.544C605.473 362.544 604.952 362.74 604.562 363.13C604.171 363.515 603.888 364.092 603.713 364.862C603.543 365.626 603.458 366.576 603.458 367.714ZM614.502 361.347C615.351 361.347 615.993 361.687 616.429 362.366C616.87 363.04 617.091 363.993 617.091 365.227C617.091 366.46 616.879 367.422 616.454 368.113C616.03 368.798 615.379 369.14 614.502 369.14C613.687 369.14 613.062 368.798 612.626 368.113C612.196 367.422 611.981 366.46 611.981 365.227C611.981 363.993 612.187 363.04 612.601 362.366C613.014 361.687 613.648 361.347 614.502 361.347ZM614.502 362.358C614.044 362.358 613.707 362.598 613.492 363.079C613.277 363.554 613.169 364.27 613.169 365.227C613.169 366.183 613.277 366.905 613.492 367.391C613.707 367.878 614.044 368.121 614.502 368.121C614.977 368.121 615.331 367.878 615.563 367.391C615.795 366.905 615.911 366.183 615.911 365.227C615.911 364.276 615.795 363.56 615.563 363.079C615.337 362.598 614.983 362.358 614.502 362.358ZM622.362 361.526L615.478 373.936H614.239L621.123 361.526H622.362ZM622.031 366.322C622.875 366.322 623.517 366.661 623.958 367.34C624.4 368.014 624.62 368.967 624.62 370.201C624.62 371.429 624.408 372.388 623.984 373.079C623.559 373.763 622.909 374.106 622.031 374.106C621.211 374.106 620.586 373.763 620.155 373.079C619.725 372.388 619.51 371.429 619.51 370.201C619.51 368.967 619.714 368.014 620.121 367.34C620.535 366.661 621.171 366.322 622.031 366.322ZM622.031 367.34C621.573 367.34 621.236 367.578 621.021 368.053C620.806 368.529 620.699 369.245 620.699 370.201C620.699 371.157 620.806 371.879 621.021 372.366C621.236 372.847 621.573 373.087 622.031 373.087C622.507 373.087 622.86 372.849 623.092 372.374C623.324 371.893 623.441 371.169 623.441 370.201C623.441 369.25 623.324 368.537 623.092 368.062C622.866 367.581 622.512 367.34 622.031 367.34Z" fill="black"/>
<path d="M101.284 292.808C101.284 293.762 101.045 294.576 100.568 295.251C100.098 295.919 99.438 296.429 98.5866 296.782C97.7353 297.134 96.7335 297.31 95.5813 297.31C94.9722 297.31 94.3961 297.281 93.853 297.222C93.3099 297.163 92.8108 297.079 92.3558 296.969C91.9008 296.859 91.5008 296.723 91.1559 296.561V294.767C91.7063 294.995 92.3778 295.207 93.1705 295.406C93.9631 295.596 94.7924 295.692 95.6584 295.692C96.4657 295.692 97.1482 295.585 97.706 295.373C98.2637 295.152 98.6857 294.84 98.9719 294.437C99.2655 294.026 99.4123 293.534 99.4123 292.962C99.4123 292.411 99.2912 291.953 99.049 291.586C98.8068 291.211 98.4032 290.874 97.8381 290.573C97.2803 290.265 96.517 289.938 95.5483 289.593C94.8658 289.351 94.264 289.087 93.7429 288.8C93.2218 288.507 92.7852 288.177 92.4329 287.81C92.0806 287.443 91.8127 287.017 91.6293 286.533C91.4531 286.048 91.3651 285.494 91.3651 284.87C91.3651 284.012 91.5816 283.278 92.0146 282.669C92.4549 282.052 93.0604 281.583 93.831 281.26C94.6089 280.929 95.5006 280.764 96.506 280.764C97.3647 280.764 98.1573 280.845 98.8839 281.006C99.6178 281.168 100.289 281.384 100.898 281.656L100.315 283.263C99.7352 283.021 99.1187 282.819 98.4656 282.658C97.8197 282.496 97.1519 282.415 96.462 282.415C95.7721 282.415 95.1887 282.518 94.7116 282.724C94.242 282.922 93.8823 283.204 93.6328 283.571C93.3833 283.938 93.2585 284.375 93.2585 284.881C93.2585 285.446 93.3759 285.916 93.6108 286.29C93.853 286.665 94.2346 286.999 94.7557 287.292C95.2841 287.578 95.9813 287.879 96.8473 288.195C97.794 288.54 98.5977 288.907 99.2582 289.296C99.9187 289.677 100.421 290.147 100.766 290.705C101.111 291.255 101.284 291.956 101.284 292.808ZM117.4 284.804C118.729 284.804 119.73 285.153 120.406 285.85C121.081 286.54 121.418 287.652 121.418 289.186V297.09H119.613V289.274C119.613 288.298 119.4 287.567 118.974 287.083C118.556 286.591 117.932 286.346 117.103 286.346C115.936 286.346 115.088 286.683 114.56 287.358C114.032 288.033 113.767 289.028 113.767 290.342V297.09H111.951V289.274C111.951 288.621 111.856 288.078 111.665 287.645C111.481 287.212 111.202 286.889 110.828 286.676C110.461 286.456 109.995 286.346 109.43 286.346C108.63 286.346 107.988 286.511 107.504 286.841C107.019 287.171 106.667 287.663 106.447 288.316C106.234 288.962 106.127 289.758 106.127 290.705V297.09H104.3V285.025H105.775L106.05 286.731H106.15C106.392 286.313 106.696 285.96 107.063 285.674C107.43 285.388 107.841 285.171 108.296 285.025C108.751 284.878 109.236 284.804 109.749 284.804C110.667 284.804 111.434 284.977 112.05 285.322C112.674 285.659 113.125 286.177 113.404 286.874H113.503C113.9 286.177 114.443 285.659 115.132 285.322C115.822 284.977 116.578 284.804 117.4 284.804ZM129.686 284.826C131.124 284.826 132.192 285.149 132.889 285.795C133.586 286.441 133.935 287.472 133.935 288.888V297.09H132.603L132.251 295.306H132.163C131.825 295.747 131.473 296.117 131.106 296.418C130.739 296.712 130.313 296.936 129.829 297.09C129.352 297.237 128.765 297.31 128.067 297.31C127.334 297.31 126.68 297.182 126.108 296.925C125.543 296.668 125.095 296.279 124.765 295.758C124.442 295.237 124.281 294.576 124.281 293.776C124.281 292.573 124.758 291.648 125.712 291.002C126.666 290.356 128.119 290.004 130.071 289.945L132.152 289.857V289.12C132.152 288.078 131.928 287.347 131.48 286.929C131.032 286.511 130.401 286.301 129.587 286.301C128.955 286.301 128.354 286.393 127.781 286.577C127.209 286.76 126.666 286.977 126.152 287.226L125.591 285.839C126.134 285.56 126.757 285.322 127.462 285.124C128.167 284.925 128.908 284.826 129.686 284.826ZM132.13 291.145L130.291 291.222C128.787 291.281 127.726 291.527 127.11 291.96C126.493 292.393 126.185 293.006 126.185 293.798C126.185 294.488 126.394 294.998 126.812 295.328C127.231 295.659 127.785 295.824 128.475 295.824C129.546 295.824 130.423 295.527 131.106 294.932C131.788 294.338 132.13 293.446 132.13 292.257V291.145ZM143.182 284.804C143.424 284.804 143.678 284.819 143.942 284.848C144.206 284.87 144.441 284.903 144.646 284.947L144.415 286.643C144.217 286.591 143.997 286.551 143.755 286.522C143.512 286.492 143.285 286.478 143.072 286.478C142.588 286.478 142.129 286.577 141.696 286.775C141.27 286.966 140.896 287.245 140.573 287.612C140.25 287.971 139.997 288.408 139.814 288.922C139.63 289.428 139.538 289.993 139.538 290.617V297.09H137.7V285.025H139.219L139.417 287.248H139.494C139.744 286.801 140.045 286.393 140.397 286.026C140.749 285.652 141.157 285.355 141.619 285.135C142.089 284.914 142.61 284.804 143.182 284.804ZM150.822 295.813C151.123 295.813 151.431 295.787 151.747 295.736C152.062 295.684 152.319 295.622 152.517 295.549V296.969C152.305 297.064 152.007 297.145 151.626 297.211C151.251 297.277 150.884 297.31 150.525 297.31C149.886 297.31 149.307 297.2 148.786 296.98C148.264 296.752 147.846 296.371 147.531 295.835C147.222 295.299 147.068 294.558 147.068 293.611V286.456H145.351V285.564L147.079 284.848L147.806 282.228H148.907V285.025H152.44V286.456H148.907V293.556C148.907 294.312 149.079 294.877 149.424 295.251C149.776 295.626 150.242 295.813 150.822 295.813ZM160.631 284.804C162.135 284.804 163.335 285.322 164.23 286.357C165.126 287.391 165.574 288.947 165.574 291.024C165.574 292.397 165.368 293.549 164.957 294.481C164.546 295.413 163.966 296.117 163.218 296.594C162.476 297.071 161.599 297.31 160.587 297.31C159.948 297.31 159.387 297.226 158.902 297.057C158.418 296.888 158.003 296.661 157.658 296.374C157.313 296.088 157.027 295.776 156.8 295.439H156.668C156.69 295.725 156.715 296.07 156.745 296.473C156.781 296.877 156.8 297.229 156.8 297.53V302.484H154.961V285.025H156.469L156.712 286.808H156.8C157.035 286.441 157.321 286.107 157.658 285.806C157.996 285.498 158.407 285.256 158.891 285.08C159.383 284.896 159.963 284.804 160.631 284.804ZM160.311 286.346C159.475 286.346 158.8 286.507 158.286 286.83C157.779 287.153 157.409 287.637 157.174 288.283C156.939 288.922 156.814 289.725 156.8 290.694V291.046C156.8 292.066 156.91 292.929 157.13 293.633C157.357 294.338 157.728 294.873 158.242 295.24C158.763 295.607 159.46 295.791 160.333 295.791C161.082 295.791 161.706 295.589 162.205 295.185C162.704 294.782 163.075 294.22 163.317 293.501C163.566 292.775 163.691 291.942 163.691 291.002C163.691 289.578 163.412 288.448 162.854 287.612C162.304 286.768 161.456 286.346 160.311 286.346ZM170.593 279.961V285.08C170.593 285.373 170.586 285.67 170.571 285.971C170.557 286.265 170.531 286.536 170.494 286.786H170.615C170.865 286.36 171.181 286.004 171.562 285.718C171.951 285.424 172.391 285.204 172.883 285.058C173.375 284.903 173.896 284.826 174.446 284.826C175.415 284.826 176.222 284.98 176.868 285.289C177.521 285.597 178.009 286.074 178.332 286.72C178.663 287.366 178.828 288.202 178.828 289.23V297.09H177.022V289.351C177.022 288.345 176.791 287.593 176.329 287.094C175.874 286.595 175.173 286.346 174.226 286.346C173.331 286.346 172.615 286.518 172.08 286.863C171.551 287.201 171.17 287.7 170.935 288.36C170.707 289.021 170.593 289.828 170.593 290.782V297.09H168.766V279.961H170.593ZM192.996 291.035C192.996 292.026 192.867 292.91 192.61 293.688C192.354 294.466 191.983 295.123 191.499 295.659C191.014 296.194 190.427 296.605 189.737 296.892C189.055 297.171 188.28 297.31 187.414 297.31C186.607 297.31 185.866 297.171 185.191 296.892C184.523 296.605 183.943 296.194 183.451 295.659C182.967 295.123 182.589 294.466 182.317 293.688C182.053 292.91 181.921 292.026 181.921 291.035C181.921 289.714 182.145 288.591 182.593 287.667C183.04 286.734 183.679 286.026 184.508 285.542C185.345 285.05 186.339 284.804 187.491 284.804C188.592 284.804 189.554 285.05 190.376 285.542C191.205 286.034 191.847 286.746 192.302 287.678C192.765 288.602 192.996 289.721 192.996 291.035ZM183.815 291.035C183.815 292.004 183.943 292.844 184.2 293.556C184.457 294.268 184.853 294.818 185.389 295.207C185.925 295.596 186.614 295.791 187.458 295.791C188.295 295.791 188.981 295.596 189.517 295.207C190.06 294.818 190.46 294.268 190.717 293.556C190.974 292.844 191.102 292.004 191.102 291.035C191.102 290.074 190.974 289.244 190.717 288.547C190.46 287.843 190.064 287.3 189.528 286.918C188.992 286.536 188.299 286.346 187.447 286.346C186.192 286.346 185.271 286.76 184.684 287.589C184.105 288.419 183.815 289.567 183.815 291.035ZM201.869 284.804C203.3 284.804 204.382 285.157 205.116 285.861C205.85 286.558 206.217 287.681 206.217 289.23V297.09H204.412V289.351C204.412 288.345 204.18 287.593 203.718 287.094C203.263 286.595 202.562 286.346 201.615 286.346C200.28 286.346 199.34 286.723 198.797 287.479C198.254 288.235 197.983 289.333 197.983 290.771V297.09H196.155V285.025H197.63L197.906 286.764H198.005C198.261 286.338 198.588 285.982 198.984 285.696C199.381 285.402 199.825 285.182 200.316 285.036C200.808 284.881 201.326 284.804 201.869 284.804ZM214.627 284.804C215.655 284.804 216.536 285.032 217.27 285.487C218.003 285.942 218.565 286.58 218.954 287.402C219.343 288.217 219.537 289.171 219.537 290.265V291.398H211.204C211.226 292.815 211.578 293.894 212.261 294.635C212.943 295.376 213.905 295.747 215.145 295.747C215.908 295.747 216.583 295.677 217.17 295.538C217.758 295.398 218.367 295.193 218.998 294.921V296.528C218.389 296.8 217.783 296.998 217.181 297.123C216.587 297.248 215.882 297.31 215.068 297.31C213.908 297.31 212.895 297.075 212.029 296.605C211.171 296.128 210.503 295.431 210.026 294.514C209.549 293.596 209.31 292.474 209.31 291.145C209.31 289.846 209.527 288.723 209.96 287.777C210.4 286.823 211.017 286.089 211.809 285.575C212.609 285.061 213.549 284.804 214.627 284.804ZM214.605 286.301C213.629 286.301 212.851 286.621 212.272 287.259C211.692 287.898 211.347 288.789 211.237 289.934H217.622C217.614 289.215 217.501 288.584 217.281 288.041C217.068 287.49 216.741 287.065 216.301 286.764C215.86 286.456 215.295 286.301 214.605 286.301Z" fill="black"/>
<rect x="242.731" y="269.09" width="257" height="39" fill="#61B3FF"/>
<path d="M162.145 183.09H160.262V168.647H155.198V166.995H167.186V168.647H162.145V183.09ZM173.858 170.826C175.296 170.826 176.364 171.149 177.061 171.795C177.758 172.441 178.107 173.472 178.107 174.888V183.09H176.775L176.423 181.306H176.335C175.997 181.747 175.645 182.117 175.278 182.418C174.911 182.712 174.485 182.936 174.001 183.09C173.524 183.237 172.937 183.31 172.239 183.31C171.505 183.31 170.852 183.182 170.28 182.925C169.715 182.668 169.267 182.279 168.937 181.758C168.614 181.237 168.452 180.576 168.452 179.776C168.452 178.573 168.929 177.648 169.884 177.002C170.838 176.356 172.291 176.004 174.243 175.945L176.324 175.857V175.12C176.324 174.078 176.1 173.347 175.652 172.929C175.204 172.511 174.573 172.301 173.759 172.301C173.127 172.301 172.526 172.393 171.953 172.577C171.381 172.76 170.838 172.977 170.324 173.226L169.762 171.839C170.306 171.56 170.929 171.322 171.634 171.124C172.338 170.925 173.08 170.826 173.858 170.826ZM176.301 177.145L174.463 177.222C172.959 177.281 171.898 177.527 171.282 177.96C170.665 178.393 170.357 179.006 170.357 179.798C170.357 180.488 170.566 180.998 170.984 181.328C171.403 181.659 171.957 181.824 172.647 181.824C173.718 181.824 174.595 181.527 175.278 180.932C175.96 180.338 176.301 179.446 176.301 178.257V177.145ZM183.699 165.961V170.243C183.699 170.735 183.685 171.212 183.655 171.674C183.633 172.136 183.615 172.496 183.6 172.753H183.699C184.029 172.21 184.507 171.751 185.13 171.377C185.754 171.002 186.55 170.815 187.519 170.815C189.031 170.815 190.235 171.34 191.13 172.39C192.033 173.432 192.484 174.984 192.484 177.046C192.484 178.404 192.279 179.549 191.868 180.481C191.457 181.413 190.877 182.117 190.128 182.594C189.38 183.071 188.495 183.31 187.475 183.31C186.521 183.31 185.736 183.134 185.119 182.782C184.51 182.422 184.04 181.985 183.71 181.472H183.567L183.193 183.09H181.872V165.961H183.699ZM187.222 172.346C186.349 172.346 185.655 172.518 185.141 172.863C184.628 173.201 184.257 173.714 184.029 174.404C183.809 175.087 183.699 175.953 183.699 177.002V177.101C183.699 178.62 183.952 179.784 184.459 180.591C184.965 181.391 185.886 181.791 187.222 181.791C188.345 181.791 189.185 181.38 189.743 180.558C190.308 179.736 190.591 178.562 190.591 177.035C190.591 175.479 190.312 174.309 189.754 173.523C189.203 172.738 188.359 172.346 187.222 172.346ZM197.515 183.09H195.676V165.961H197.515V183.09ZM206.025 170.804C207.052 170.804 207.933 171.032 208.667 171.487C209.4 171.942 209.962 172.58 210.351 173.402C210.74 174.217 210.934 175.171 210.934 176.265V177.398H202.601C202.623 178.815 202.975 179.894 203.658 180.635C204.34 181.376 205.302 181.747 206.542 181.747C207.305 181.747 207.98 181.677 208.567 181.538C209.155 181.398 209.764 181.193 210.395 180.921V182.528C209.786 182.8 209.18 182.998 208.578 183.123C207.984 183.248 207.279 183.31 206.465 183.31C205.305 183.31 204.292 183.075 203.426 182.605C202.568 182.128 201.9 181.431 201.423 180.514C200.946 179.596 200.707 178.474 200.707 177.145C200.707 175.846 200.924 174.723 201.357 173.777C201.797 172.823 202.414 172.089 203.206 171.575C204.006 171.061 204.946 170.804 206.025 170.804ZM206.002 172.301C205.026 172.301 204.248 172.621 203.669 173.259C203.089 173.898 202.744 174.789 202.634 175.934H209.019C209.011 175.215 208.898 174.584 208.678 174.041C208.465 173.49 208.138 173.065 207.698 172.764C207.257 172.456 206.692 172.301 206.002 172.301ZM217.936 181.813C218.237 181.813 218.545 181.787 218.86 181.736C219.176 181.684 219.433 181.622 219.631 181.549V182.969C219.418 183.064 219.121 183.145 218.739 183.211C218.365 183.277 217.998 183.31 217.638 183.31C217 183.31 216.42 183.2 215.899 182.98C215.378 182.752 214.96 182.371 214.644 181.835C214.336 181.299 214.182 180.558 214.182 179.611V172.456H212.464V171.564L214.193 170.848L214.919 168.228H216.02V171.025H219.554V172.456H216.02V179.556C216.02 180.312 216.193 180.877 216.538 181.251C216.89 181.626 217.356 181.813 217.936 181.813Z" fill="black"/>
<rect x="242.731" y="155.09" width="148" height="39" fill="#FFC0CB"/>
<path d="M66.9826 60.3885C66.9826 62.2012 66.6523 63.7167 65.9918 64.935C65.3313 66.146 64.3736 67.0597 63.1186 67.6761C61.871 68.2853 60.3555 68.5898 58.5721 68.5898H54.2017V52.4954H59.0565C60.6931 52.4954 62.1022 52.7963 63.2837 53.3981C64.4653 53.9925 65.3754 54.8769 66.0138 56.0511C66.6597 57.218 66.9826 58.6638 66.9826 60.3885ZM65.0121 60.4545C65.0121 59.0088 64.7699 57.8162 64.2855 56.8768C63.8085 55.9374 63.1039 55.2402 62.1719 54.7852C61.2472 54.3228 60.1133 54.0916 58.7702 54.0916H56.0732V66.9826H58.3519C60.5683 66.9826 62.2306 66.4358 63.3388 65.3423C64.4543 64.2488 65.0121 62.6196 65.0121 60.4545ZM74.9308 56.3043C75.9582 56.3043 76.8389 56.5318 77.5728 56.9869C78.3067 57.4419 78.8681 58.0804 79.2571 58.9023C79.6461 59.717 79.8406 60.671 79.8406 61.7646V62.8984H71.5071C71.5291 64.3149 71.8814 65.3937 72.5639 66.1349C73.2464 66.8762 74.2079 67.2468 75.4482 67.2468C76.2114 67.2468 76.8866 67.1771 77.4737 67.0376C78.0608 66.8982 78.67 66.6927 79.3011 66.4212V68.0284C78.692 68.3 78.0865 68.4981 77.4847 68.6229C76.8903 68.7476 76.1857 68.81 75.3711 68.81C74.2115 68.81 73.1987 68.5752 72.3327 68.1055C71.4741 67.6284 70.8062 66.9312 70.3292 66.0138C69.8522 65.0965 69.6136 63.9736 69.6136 62.6452C69.6136 61.3462 69.8301 60.2234 70.2631 59.2766C70.7035 58.3226 71.32 57.5887 72.1126 57.0749C72.9125 56.5612 73.8519 56.3043 74.9308 56.3043ZM74.9087 57.8015C73.9326 57.8015 73.1547 58.1207 72.5749 58.7592C71.9951 59.3977 71.6502 60.2894 71.5401 61.4343H77.9251C77.9177 60.7151 77.804 60.0839 77.5838 59.5408C77.371 58.9904 77.0444 58.5647 76.604 58.2638C76.1637 57.9556 75.5986 57.8015 74.9087 57.8015ZM90.75 65.2873C90.75 66.0579 90.5555 66.7074 90.1665 67.2358C89.7849 67.7569 89.2345 68.1495 88.5153 68.4137C87.8034 68.6779 86.9521 68.81 85.9613 68.81C85.1173 68.81 84.3871 68.744 83.7706 68.6119C83.1541 68.4798 82.6147 68.2926 82.1523 68.0504V66.3661C82.6441 66.6083 83.2312 66.8285 83.9137 67.0266C84.5962 67.2248 85.2934 67.3239 86.0053 67.3239C87.0475 67.3239 87.8034 67.1551 88.2731 66.8175C88.7428 66.4799 88.9776 66.0212 88.9776 65.4414C88.9776 65.1112 88.8822 64.8213 88.6914 64.5717C88.5079 64.3149 88.196 64.069 87.7557 63.8342C87.3153 63.592 86.7062 63.3278 85.9283 63.0415C85.1577 62.748 84.4898 62.4581 83.9247 62.1719C83.3669 61.8783 82.9339 61.5224 82.6257 61.104C82.3248 60.6857 82.1744 60.1426 82.1744 59.4748C82.1744 58.4547 82.5853 57.6731 83.4073 57.13C84.2366 56.5795 85.3228 56.3043 86.6658 56.3043C87.3924 56.3043 88.0713 56.3777 88.7024 56.5245C89.3409 56.6639 89.9354 56.8548 90.4858 57.0969L89.8693 58.5611C89.3703 58.3482 88.8382 58.1684 88.2731 58.0217C87.708 57.8749 87.1319 57.8015 86.5447 57.8015C85.7008 57.8015 85.0513 57.9409 84.5962 58.2198C84.1486 58.4987 83.9247 58.8803 83.9247 59.3647C83.9247 59.739 84.0275 60.0472 84.233 60.2894C84.4458 60.5316 84.7834 60.7591 85.2457 60.9719C85.7081 61.1848 86.3172 61.4343 87.0732 61.7205C87.8291 61.9994 88.4822 62.2893 89.0327 62.5902C89.5831 62.8838 90.0051 63.2434 90.2986 63.669C90.5995 64.0874 90.75 64.6268 90.75 65.2873ZM95.5057 51.4606V60.3555C95.5057 60.649 95.4947 61.0086 95.4727 61.4343C95.4506 61.8526 95.4323 62.2232 95.4176 62.5462H95.4947C95.6488 62.3554 95.8726 62.0728 96.1662 61.6985C96.4671 61.3242 96.7203 61.0233 96.9258 60.7958L100.933 56.5245H103.08L98.2248 61.6765L103.432 68.5898H101.23L96.9698 62.8764L95.5057 64.2195V68.5898H93.6893V51.4606H95.5057ZM109.431 67.3129C109.732 67.3129 110.041 67.2872 110.356 67.2358C110.672 67.1844 110.929 67.122 111.127 67.0487V68.4688C110.914 68.5642 110.617 68.6449 110.235 68.7109C109.861 68.777 109.494 68.81 109.134 68.81C108.496 68.81 107.916 68.6999 107.395 68.4798C106.874 68.2522 106.455 67.8706 106.14 67.3349C105.832 66.7991 105.678 66.0579 105.678 65.1112V57.9556H103.96V57.0639L105.689 56.3484L106.415 53.7283H107.516V56.5245H111.05V57.9556H107.516V65.0561C107.516 65.812 107.688 66.3771 108.033 66.7514C108.386 67.1257 108.852 67.3129 109.431 67.3129ZM123.974 62.5352C123.974 63.5259 123.845 64.4103 123.588 65.1882C123.332 65.9661 122.961 66.623 122.477 67.1587C121.992 67.6945 121.405 68.1055 120.715 68.3917C120.033 68.6706 119.258 68.81 118.392 68.81C117.585 68.81 116.844 68.6706 116.169 68.3917C115.501 68.1055 114.921 67.6945 114.429 67.1587C113.945 66.623 113.567 65.9661 113.295 65.1882C113.031 64.4103 112.899 63.5259 112.899 62.5352C112.899 61.2141 113.123 60.0913 113.571 59.1665C114.018 58.2345 114.657 57.5263 115.486 57.0419C116.323 56.5502 117.317 56.3043 118.469 56.3043C119.57 56.3043 120.532 56.5502 121.354 57.0419C122.183 57.5336 122.825 58.2455 123.28 59.1776C123.743 60.1023 123.974 61.2215 123.974 62.5352ZM114.793 62.5352C114.793 63.5039 114.921 64.3442 115.178 65.0561C115.435 65.768 115.831 66.3184 116.367 66.7074C116.903 67.0964 117.592 67.2908 118.436 67.2908C119.273 67.2908 119.959 67.0964 120.495 66.7074C121.038 66.3184 121.438 65.768 121.695 65.0561C121.952 64.3442 122.08 63.5039 122.08 62.5352C122.08 61.5737 121.952 60.7444 121.695 60.0472C121.438 59.3427 121.042 58.7996 120.506 58.418C119.97 58.0363 119.277 57.8455 118.425 57.8455C117.17 57.8455 116.249 58.2602 115.662 59.0895C115.083 59.9188 114.793 61.0674 114.793 62.5352ZM132.803 56.3043C134.307 56.3043 135.507 56.8217 136.402 57.8565C137.298 58.8913 137.745 60.4472 137.745 62.5241C137.745 63.8965 137.54 65.0488 137.129 65.9808C136.718 66.9129 136.138 67.6174 135.39 68.0945C134.648 68.5715 133.771 68.81 132.759 68.81C132.12 68.81 131.559 68.7256 131.074 68.5568C130.59 68.388 130.175 68.1605 129.83 67.8743C129.485 67.5881 129.199 67.2762 128.972 66.9386H128.839C128.862 67.2248 128.887 67.5697 128.917 67.9734C128.953 68.377 128.972 68.7293 128.972 69.0302V73.984H127.133V56.5245H128.641L128.884 58.3079H128.972C129.206 57.9409 129.493 57.607 129.83 57.3061C130.168 56.9979 130.579 56.7557 131.063 56.5795C131.555 56.3961 132.135 56.3043 132.803 56.3043ZM132.483 57.8455C131.647 57.8455 130.971 58.007 130.458 58.3299C129.951 58.6528 129.581 59.1372 129.346 59.783C129.111 60.4215 128.986 61.2251 128.972 62.1939V62.5462C128.972 63.5663 129.082 64.4286 129.302 65.1332C129.529 65.8377 129.9 66.3735 130.414 66.7404C130.935 67.1074 131.632 67.2908 132.505 67.2908C133.254 67.2908 133.878 67.089 134.377 66.6854C134.876 66.2817 135.246 65.7203 135.489 65.0011C135.738 64.2745 135.863 63.4415 135.863 62.5021C135.863 61.0784 135.584 59.9482 135.026 59.1115C134.476 58.2675 133.628 57.8455 132.483 57.8455ZM147.037 52.4954L141.048 68.5898H139.243L145.242 52.4954H147.037ZM149.491 68.5898V52.4954H151.363V66.9165H158.507V68.5898H149.491ZM165.509 56.3263C166.947 56.3263 168.015 56.6493 168.712 57.2951C169.41 57.9409 169.758 58.9721 169.758 60.3885V68.5898H168.426L168.074 66.8065H167.986C167.648 67.2468 167.296 67.6174 166.929 67.9183C166.562 68.2119 166.136 68.4357 165.652 68.5898C165.175 68.7366 164.588 68.81 163.891 68.81C163.157 68.81 162.504 68.6816 161.931 68.4247C161.366 68.1679 160.918 67.7789 160.588 67.2578C160.265 66.7367 160.104 66.0762 160.104 65.2763C160.104 64.0727 160.581 63.148 161.535 62.5021C162.489 61.8563 163.942 61.504 165.894 61.4453L167.975 61.3572V60.6197C167.975 59.5775 167.751 58.8473 167.303 58.429C166.856 58.0107 166.224 57.8015 165.41 57.8015C164.779 57.8015 164.177 57.8932 163.604 58.0767C163.032 58.2602 162.489 58.4767 161.975 58.7262L161.414 57.3391C161.957 57.0603 162.581 56.8217 163.285 56.6236C163.99 56.4254 164.731 56.3263 165.509 56.3263ZM167.953 62.6452L166.114 62.7223C164.61 62.781 163.549 63.0269 162.933 63.4599C162.316 63.8929 162.008 64.5057 162.008 65.2983C162.008 65.9882 162.217 66.4982 162.636 66.8285C163.054 67.1587 163.608 67.3239 164.298 67.3239C165.369 67.3239 166.246 67.0266 166.929 66.4322C167.612 65.8377 167.953 64.946 167.953 63.7571V62.6452ZM179.192 56.3043C180.697 56.3043 181.897 56.8217 182.792 57.8565C183.688 58.8913 184.135 60.4472 184.135 62.5241C184.135 63.8965 183.93 65.0488 183.519 65.9808C183.108 66.9129 182.528 67.6174 181.779 68.0945C181.038 68.5715 180.161 68.81 179.148 68.81C178.51 68.81 177.949 68.7256 177.464 68.5568C176.98 68.388 176.565 68.1605 176.22 67.8743C175.875 67.5881 175.589 67.2762 175.362 66.9386H175.229C175.251 67.2248 175.277 67.5697 175.306 67.9734C175.343 68.377 175.362 68.7293 175.362 69.0302V73.984H173.523V56.5245H175.031L175.273 58.3079H175.362C175.596 57.9409 175.883 57.607 176.22 57.3061C176.558 56.9979 176.969 56.7557 177.453 56.5795C177.945 56.3961 178.525 56.3043 179.192 56.3043ZM178.873 57.8455C178.037 57.8455 177.361 58.007 176.848 58.3299C176.341 58.6528 175.971 59.1372 175.736 59.783C175.501 60.4215 175.376 61.2251 175.362 62.1939V62.5462C175.362 63.5663 175.472 64.4286 175.692 65.1332C175.919 65.8377 176.29 66.3735 176.804 66.7404C177.325 67.1074 178.022 67.2908 178.895 67.2908C179.644 67.2908 180.268 67.089 180.767 66.6854C181.266 66.2817 181.636 65.7203 181.879 65.0011C182.128 64.2745 182.253 63.4415 182.253 62.5021C182.253 61.0784 181.974 59.9482 181.416 59.1115C180.866 58.2675 180.018 57.8455 178.873 57.8455ZM191.225 67.3129C191.526 67.3129 191.834 67.2872 192.149 67.2358C192.465 67.1844 192.722 67.122 192.92 67.0487V68.4688C192.707 68.5642 192.41 68.6449 192.028 68.7109C191.654 68.777 191.287 68.81 190.928 68.81C190.289 68.81 189.709 68.6999 189.188 68.4798C188.667 68.2522 188.249 67.8706 187.933 67.3349C187.625 66.7991 187.471 66.0579 187.471 65.1112V57.9556H185.754V57.0639L187.482 56.3484L188.208 53.7283H189.309V56.5245H192.843V57.9556H189.309V65.0561C189.309 65.812 189.482 66.3771 189.827 66.7514C190.179 67.1257 190.645 67.3129 191.225 67.3129ZM205.767 62.5352C205.767 63.5259 205.639 64.4103 205.382 65.1882C205.125 65.9661 204.754 66.623 204.27 67.1587C203.786 67.6945 203.198 68.1055 202.509 68.3917C201.826 68.6706 201.052 68.81 200.186 68.81C199.378 68.81 198.637 68.6706 197.962 68.3917C197.294 68.1055 196.714 67.6945 196.223 67.1587C195.738 66.623 195.36 65.9661 195.089 65.1882C194.825 64.4103 194.692 63.5259 194.692 62.5352C194.692 61.2141 194.916 60.0913 195.364 59.1665C195.812 58.2345 196.45 57.5263 197.279 57.0419C198.116 56.5502 199.111 56.3043 200.263 56.3043C201.364 56.3043 202.325 56.5502 203.147 57.0419C203.976 57.5336 204.618 58.2455 205.074 59.1776C205.536 60.1023 205.767 61.2215 205.767 62.5352ZM196.586 62.5352C196.586 63.5039 196.714 64.3442 196.971 65.0561C197.228 65.768 197.624 66.3184 198.16 66.7074C198.696 67.0964 199.386 67.2908 200.23 67.2908C201.066 67.2908 201.753 67.0964 202.288 66.7074C202.831 66.3184 203.231 65.768 203.488 65.0561C203.745 64.3442 203.874 63.5039 203.874 62.5352C203.874 61.5737 203.745 60.7444 203.488 60.0472C203.231 59.3427 202.835 58.7996 202.299 58.418C201.764 58.0363 201.07 57.8455 200.219 57.8455C198.964 57.8455 198.043 58.2602 197.456 59.0895C196.876 59.9188 196.586 61.0674 196.586 62.5352ZM214.596 56.3043C216.1 56.3043 217.3 56.8217 218.196 57.8565C219.091 58.8913 219.539 60.4472 219.539 62.5241C219.539 63.8965 219.333 65.0488 218.922 65.9808C218.511 66.9129 217.931 67.6174 217.183 68.0945C216.442 68.5715 215.565 68.81 214.552 68.81C213.913 68.81 213.352 68.7256 212.868 68.5568C212.383 68.388 211.969 68.1605 211.624 67.8743C211.279 67.5881 210.992 67.2762 210.765 66.9386H210.633C210.655 67.2248 210.681 67.5697 210.71 67.9734C210.747 68.377 210.765 68.7293 210.765 69.0302V73.984H208.926V56.5245H210.435L210.677 58.3079H210.765C211 57.9409 211.286 57.607 211.624 57.3061C211.961 56.9979 212.372 56.7557 212.857 56.5795C213.348 56.3961 213.928 56.3043 214.596 56.3043ZM214.277 57.8455C213.44 57.8455 212.765 58.007 212.251 58.3299C211.745 58.6528 211.374 59.1372 211.139 59.783C210.904 60.4215 210.78 61.2251 210.765 62.1939V62.5462C210.765 63.5663 210.875 64.4286 211.095 65.1332C211.323 65.8377 211.693 66.3735 212.207 66.7404C212.728 67.1074 213.425 67.2908 214.299 67.2908C215.047 67.2908 215.671 67.089 216.17 66.6854C216.669 66.2817 217.04 65.7203 217.282 65.0011C217.531 64.2745 217.656 63.4415 217.656 62.5021C217.656 61.0784 217.377 59.9482 216.82 59.1115C216.269 58.2675 215.422 57.8455 214.277 57.8455Z" fill="black"/>
<rect x="242.731" y="40.0898" width="184" height="40" fill="#FEF0A9"/>
</g>
<defs>
<clipPath id="clip0_144_666">
<rect width="625" height="379" fill="white"/>
</clipPath>
</defs>
</svg>
