<svg width="625" height="379" viewBox="0 0 625 379" fill="none" xmlns="http://www.w3.org/2000/svg">
<line x1="530.057" y1="3.16627e-08" x2="530.057" y2="347.692" stroke="#CCCCCC" stroke-width="1.44872"/>
<path d="M516.791 361.347C517.509 361.347 518.146 361.461 518.7 361.687C519.255 361.913 519.688 362.247 519.999 362.689C520.316 363.124 520.475 363.662 520.475 364.301C520.475 364.805 520.364 365.247 520.144 365.626C519.928 365.999 519.637 366.327 519.269 366.61C518.901 366.888 518.494 367.137 518.047 367.357C518.579 367.601 519.057 367.875 519.481 368.181C519.911 368.486 520.251 368.846 520.5 369.259C520.749 369.672 520.874 370.161 520.874 370.727C520.874 371.423 520.704 372.026 520.364 372.535C520.03 373.039 519.561 373.427 518.955 373.698C518.35 373.97 517.639 374.106 516.824 374.106C515.947 374.106 515.2 373.976 514.583 373.715C513.972 373.449 513.505 373.07 513.183 372.578C512.866 372.08 512.708 371.483 512.708 370.787C512.708 370.215 512.829 369.72 513.073 369.301C513.316 368.877 513.638 368.512 514.04 368.206C514.442 367.901 514.881 367.643 515.356 367.434C514.943 367.207 514.564 366.95 514.218 366.661C513.879 366.373 513.607 366.036 513.404 365.651C513.206 365.261 513.106 364.808 513.106 364.293C513.106 363.665 513.265 363.133 513.582 362.697C513.904 362.256 514.343 361.922 514.898 361.696C515.458 361.463 516.089 361.347 516.791 361.347ZM514.091 370.795C514.091 371.429 514.315 371.953 514.762 372.366C515.209 372.773 515.885 372.977 516.791 372.977C517.651 372.977 518.316 372.773 518.785 372.366C519.255 371.953 519.49 371.412 519.49 370.744C519.49 370.331 519.382 369.969 519.167 369.658C518.952 369.341 518.647 369.058 518.251 368.809C517.854 368.56 517.388 368.334 516.85 368.13L516.544 368.019C516.024 368.235 515.579 368.475 515.212 368.741C514.849 369.001 514.572 369.298 514.38 369.632C514.187 369.966 514.091 370.354 514.091 370.795ZM516.774 362.502C516.106 362.502 515.56 362.663 515.135 362.986C514.711 363.303 514.499 363.761 514.499 364.361C514.499 364.791 514.6 365.156 514.804 365.456C515.014 365.75 515.297 366.005 515.653 366.22C516.01 366.429 516.409 366.625 516.85 366.806C517.28 366.625 517.662 366.426 517.996 366.211C518.33 365.991 518.593 365.73 518.785 365.43C518.978 365.131 519.074 364.771 519.074 364.352C519.074 363.753 518.862 363.294 518.437 362.977C518.019 362.66 517.464 362.502 516.774 362.502ZM530.839 367.714C530.839 368.721 530.763 369.621 530.61 370.413C530.457 371.206 530.217 371.876 529.888 372.425C529.56 372.974 529.136 373.393 528.615 373.681C528.094 373.964 527.469 374.106 526.739 374.106C525.817 374.106 525.053 373.854 524.447 373.35C523.847 372.847 523.397 372.119 523.098 371.169C522.803 370.212 522.656 369.061 522.656 367.714C522.656 366.39 522.789 365.252 523.055 364.301C523.327 363.345 523.762 362.612 524.362 362.103C524.962 361.588 525.754 361.33 526.739 361.33C527.673 361.33 528.443 361.585 529.048 362.094C529.654 362.598 530.103 363.328 530.398 364.285C530.692 365.235 530.839 366.378 530.839 367.714ZM524.074 367.714C524.074 368.868 524.161 369.83 524.337 370.6C524.512 371.37 524.795 371.947 525.186 372.332C525.582 372.711 526.1 372.9 526.739 372.9C527.379 372.9 527.894 372.711 528.284 372.332C528.68 371.953 528.966 371.378 529.141 370.609C529.322 369.839 529.413 368.874 529.413 367.714C529.413 366.576 529.325 365.626 529.15 364.862C528.974 364.092 528.692 363.515 528.301 363.13C527.911 362.74 527.39 362.544 526.739 362.544C526.088 362.544 525.568 362.74 525.177 363.13C524.787 363.515 524.504 364.092 524.328 364.862C524.159 365.626 524.074 366.576 524.074 367.714ZM535.117 361.347C535.966 361.347 536.609 361.687 537.044 362.366C537.486 363.04 537.706 363.993 537.706 365.227C537.706 366.46 537.494 367.422 537.07 368.113C536.645 368.798 535.995 369.14 535.117 369.14C534.302 369.14 533.677 368.798 533.241 368.113C532.811 367.422 532.596 366.46 532.596 365.227C532.596 363.993 532.803 363.04 533.216 362.366C533.629 361.687 534.263 361.347 535.117 361.347ZM535.117 362.358C534.659 362.358 534.322 362.598 534.107 363.079C533.892 363.554 533.785 364.27 533.785 365.227C533.785 366.183 533.892 366.905 534.107 367.391C534.322 367.878 534.659 368.121 535.117 368.121C535.593 368.121 535.946 367.878 536.178 367.391C536.41 366.905 536.526 366.183 536.526 365.227C536.526 364.276 536.41 363.56 536.178 363.079C535.952 362.598 535.598 362.358 535.117 362.358ZM542.978 361.526L536.094 373.936H534.854L541.738 361.526H542.978ZM542.647 366.322C543.49 366.322 544.132 366.661 544.574 367.34C545.015 368.014 545.236 368.967 545.236 370.201C545.236 371.429 545.024 372.388 544.599 373.079C544.175 373.763 543.524 374.106 542.647 374.106C541.826 374.106 541.201 373.763 540.771 373.079C540.341 372.388 540.126 371.429 540.126 370.201C540.126 368.967 540.329 368.014 540.737 367.34C541.15 366.661 541.787 366.322 542.647 366.322ZM542.647 367.34C542.188 367.34 541.852 367.578 541.637 368.053C541.422 368.529 541.314 369.245 541.314 370.201C541.314 371.157 541.422 371.879 541.637 372.366C541.852 372.847 542.188 373.087 542.647 373.087C543.122 373.087 543.476 372.849 543.708 372.374C543.94 371.893 544.056 371.169 544.056 370.201C544.056 369.25 543.94 368.537 543.708 368.062C543.481 367.581 543.128 367.34 542.647 367.34Z" fill="black"/>
<line x1="457.622" y1="3.16627e-08" x2="457.622" y2="347.692" stroke="#CCCCCC" stroke-width="1.44872"/>
<path d="M440.382 368.631C440.382 367.884 440.433 367.154 440.535 366.441C440.642 365.728 440.821 365.065 441.07 364.454C441.319 363.837 441.658 363.297 442.088 362.833C442.518 362.369 443.053 362.007 443.693 361.746C444.338 361.48 445.11 361.347 446.01 361.347C446.265 361.347 446.539 361.362 446.833 361.39C447.128 361.413 447.371 361.452 447.563 361.509V362.723C447.354 362.649 447.114 362.595 446.842 362.561C446.576 362.527 446.307 362.51 446.035 362.51C444.983 362.51 444.154 362.74 443.548 363.198C442.948 363.656 442.516 364.279 442.25 365.065C441.984 365.846 441.831 366.726 441.791 367.705H441.885C442.06 367.422 442.284 367.168 442.555 366.941C442.827 366.709 443.155 366.526 443.54 366.39C443.93 366.254 444.383 366.186 444.898 366.186C445.622 366.186 446.253 366.333 446.791 366.627C447.334 366.922 447.753 367.349 448.047 367.909C448.347 368.469 448.497 369.148 448.497 369.946C448.497 370.801 448.339 371.539 448.022 372.162C447.705 372.784 447.252 373.265 446.664 373.605C446.081 373.939 445.385 374.106 444.575 374.106C443.97 374.106 443.412 373.99 442.903 373.758C442.394 373.526 441.95 373.181 441.57 372.722C441.197 372.264 440.906 371.695 440.696 371.016C440.487 370.331 440.382 369.536 440.382 368.631ZM444.558 372.917C445.328 372.917 445.945 372.671 446.409 372.179C446.873 371.687 447.105 370.942 447.105 369.946C447.105 369.131 446.898 368.486 446.485 368.011C446.072 367.536 445.45 367.298 444.618 367.298C444.052 367.298 443.56 367.417 443.141 367.654C442.722 367.887 442.397 368.181 442.165 368.537C441.933 368.894 441.817 369.256 441.817 369.624C441.817 369.997 441.87 370.376 441.978 370.761C442.091 371.146 442.261 371.503 442.487 371.831C442.714 372.159 442.999 372.422 443.345 372.62C443.69 372.818 444.094 372.917 444.558 372.917ZM458.403 367.714C458.403 368.721 458.327 369.621 458.174 370.413C458.021 371.206 457.781 371.876 457.453 372.425C457.124 372.974 456.7 373.393 456.179 373.681C455.659 373.964 455.033 374.106 454.303 374.106C453.381 374.106 452.617 373.854 452.011 373.35C451.412 372.847 450.962 372.119 450.662 371.169C450.367 370.212 450.22 369.061 450.22 367.714C450.22 366.39 450.353 365.252 450.619 364.301C450.891 363.345 451.327 362.612 451.927 362.103C452.526 361.588 453.319 361.33 454.303 361.33C455.237 361.33 456.007 361.585 456.612 362.094C457.218 362.598 457.668 363.328 457.962 364.285C458.256 365.235 458.403 366.378 458.403 367.714ZM451.638 367.714C451.638 368.868 451.726 369.83 451.901 370.6C452.077 371.37 452.359 371.947 452.75 372.332C453.146 372.711 453.664 372.9 454.303 372.9C454.943 372.9 455.458 372.711 455.848 372.332C456.244 371.953 456.53 371.378 456.706 370.609C456.887 369.839 456.977 368.874 456.977 367.714C456.977 366.576 456.89 365.626 456.714 364.862C456.539 364.092 456.256 363.515 455.865 363.13C455.475 362.74 454.954 362.544 454.303 362.544C453.653 362.544 453.132 362.74 452.741 363.13C452.351 363.515 452.068 364.092 451.893 364.862C451.723 365.626 451.638 366.576 451.638 367.714ZM462.682 361.347C463.53 361.347 464.173 361.687 464.608 362.366C465.05 363.04 465.271 363.993 465.271 365.227C465.271 366.46 465.058 367.422 464.634 368.113C464.21 368.798 463.559 369.14 462.682 369.14C461.867 369.14 461.241 368.798 460.806 368.113C460.376 367.422 460.16 366.46 460.16 365.227C460.16 363.993 460.367 363.04 460.78 362.366C461.193 361.687 461.827 361.347 462.682 361.347ZM462.682 362.358C462.223 362.358 461.886 362.598 461.671 363.079C461.456 363.554 461.349 364.27 461.349 365.227C461.349 366.183 461.456 366.905 461.671 367.391C461.886 367.878 462.223 368.121 462.682 368.121C463.157 368.121 463.511 367.878 463.743 367.391C463.975 366.905 464.091 366.183 464.091 365.227C464.091 364.276 463.975 363.56 463.743 363.079C463.516 362.598 463.163 362.358 462.682 362.358ZM470.542 361.526L463.658 373.936H462.418L469.303 361.526H470.542ZM470.211 366.322C471.054 366.322 471.696 366.661 472.138 367.34C472.579 368.014 472.8 368.967 472.8 370.201C472.8 371.429 472.588 372.388 472.163 373.079C471.739 373.763 471.088 374.106 470.211 374.106C469.39 374.106 468.765 373.763 468.335 373.079C467.905 372.388 467.69 371.429 467.69 370.201C467.69 368.967 467.894 368.014 468.301 367.34C468.714 366.661 469.351 366.322 470.211 366.322ZM470.211 367.34C469.753 367.34 469.416 367.578 469.201 368.053C468.986 368.529 468.878 369.245 468.878 370.201C468.878 371.157 468.986 371.879 469.201 372.366C469.416 372.847 469.753 373.087 470.211 373.087C470.686 373.087 471.04 372.849 471.272 372.374C471.504 371.893 471.62 371.169 471.62 370.201C471.62 369.25 471.504 368.537 471.272 368.062C471.046 367.581 470.692 367.34 470.211 367.34Z" fill="black"/>
<line x1="385.186" y1="3.16627e-08" x2="385.186" y2="347.692" stroke="#CCCCCC" stroke-width="1.44872"/>
<path d="M376.571 371.058H374.712V373.936H373.337V371.058H367.335V369.87L373.243 361.458H374.712V369.785H376.571V371.058ZM373.337 369.785V365.728C373.337 365.416 373.339 365.136 373.345 364.887C373.351 364.633 373.359 364.398 373.37 364.183C373.382 363.962 373.39 363.753 373.396 363.554C373.407 363.356 373.416 363.161 373.421 362.969H373.354C373.246 363.195 373.121 363.436 372.98 363.69C372.844 363.939 372.706 364.163 372.564 364.361L368.736 369.785H373.337ZM385.968 367.714C385.968 368.721 385.891 369.621 385.738 370.413C385.586 371.206 385.345 371.876 385.017 372.425C384.689 372.974 384.264 373.393 383.744 373.681C383.223 373.964 382.598 374.106 381.868 374.106C380.945 374.106 380.181 373.854 379.576 373.35C378.976 372.847 378.526 372.119 378.226 371.169C377.932 370.212 377.785 369.061 377.785 367.714C377.785 366.39 377.918 365.252 378.184 364.301C378.455 363.345 378.891 362.612 379.491 362.103C380.091 361.588 380.883 361.33 381.868 361.33C382.801 361.33 383.571 361.585 384.176 362.094C384.782 362.598 385.232 363.328 385.526 364.285C385.82 365.235 385.968 366.378 385.968 367.714ZM379.202 367.714C379.202 368.868 379.29 369.83 379.465 370.6C379.641 371.37 379.924 371.947 380.314 372.332C380.71 372.711 381.228 372.9 381.868 372.9C382.507 372.9 383.022 372.711 383.412 372.332C383.809 371.953 384.094 371.378 384.27 370.609C384.451 369.839 384.541 368.874 384.541 367.714C384.541 366.576 384.454 365.626 384.278 364.862C384.103 364.092 383.82 363.515 383.429 363.13C383.039 362.74 382.518 362.544 381.868 362.544C381.217 362.544 380.696 362.74 380.306 363.13C379.915 363.515 379.632 364.092 379.457 364.862C379.287 365.626 379.202 366.576 379.202 367.714ZM390.246 361.347C391.095 361.347 391.737 361.687 392.173 362.366C392.614 363.04 392.835 363.993 392.835 365.227C392.835 366.46 392.623 367.422 392.198 368.113C391.774 368.798 391.123 369.14 390.246 369.14C389.431 369.14 388.806 368.798 388.37 368.113C387.94 367.422 387.725 366.46 387.725 365.227C387.725 363.993 387.931 363.04 388.344 362.366C388.757 361.687 389.391 361.347 390.246 361.347ZM390.246 362.358C389.787 362.358 389.451 362.598 389.236 363.079C389.021 363.554 388.913 364.27 388.913 365.227C388.913 366.183 389.021 366.905 389.236 367.391C389.451 367.878 389.787 368.121 390.246 368.121C390.721 368.121 391.075 367.878 391.307 367.391C391.539 366.905 391.655 366.183 391.655 365.227C391.655 364.276 391.539 363.56 391.307 363.079C391.08 362.598 390.727 362.358 390.246 362.358ZM398.106 361.526L391.222 373.936H389.983L396.867 361.526H398.106ZM397.775 366.322C398.618 366.322 399.261 366.661 399.702 367.34C400.143 368.014 400.364 368.967 400.364 370.201C400.364 371.429 400.152 372.388 399.728 373.079C399.303 373.763 398.652 374.106 397.775 374.106C396.955 374.106 396.329 373.763 395.899 373.079C395.469 372.388 395.254 371.429 395.254 370.201C395.254 368.967 395.458 368.014 395.865 367.34C396.278 366.661 396.915 366.322 397.775 366.322ZM397.775 367.34C397.317 367.34 396.98 367.578 396.765 368.053C396.55 368.529 396.442 369.245 396.442 370.201C396.442 371.157 396.55 371.879 396.765 372.366C396.98 372.847 397.317 373.087 397.775 373.087C398.251 373.087 398.604 372.849 398.836 372.374C399.068 371.893 399.184 371.169 399.184 370.201C399.184 369.25 399.068 368.537 398.836 368.062C398.61 367.581 398.256 367.34 397.775 367.34Z" fill="black"/>
<line x1="312.75" y1="3.16627e-08" x2="312.75" y2="347.692" stroke="#CCCCCC" stroke-width="1.44872"/>
<path d="M303.515 373.936H295.383V372.756L298.702 369.386C299.319 368.764 299.837 368.209 300.255 367.722C300.68 367.236 301.002 366.758 301.223 366.288C301.444 365.812 301.554 365.292 301.554 364.726C301.554 364.024 301.345 363.489 300.926 363.122C300.513 362.748 299.967 362.561 299.288 362.561C298.694 362.561 298.167 362.663 297.709 362.867C297.251 363.071 296.781 363.359 296.3 363.733L295.544 362.782C295.873 362.505 296.229 362.259 296.614 362.044C297.004 361.828 297.42 361.659 297.862 361.534C298.309 361.41 298.784 361.347 299.288 361.347C300.052 361.347 300.711 361.48 301.266 361.746C301.82 362.012 302.247 362.392 302.547 362.884C302.853 363.376 303.006 363.962 303.006 364.641C303.006 365.297 302.876 365.909 302.615 366.475C302.355 367.035 301.99 367.592 301.52 368.147C301.051 368.696 300.502 369.279 299.873 369.895L297.174 372.586V372.646H303.515V373.936ZM313.532 367.714C313.532 368.721 313.455 369.621 313.302 370.413C313.15 371.206 312.909 371.876 312.581 372.425C312.253 372.974 311.828 373.393 311.308 373.681C310.787 373.964 310.162 374.106 309.432 374.106C308.509 374.106 307.745 373.854 307.14 373.35C306.54 372.847 306.09 372.119 305.79 371.169C305.496 370.212 305.349 369.061 305.349 367.714C305.349 366.39 305.482 365.252 305.748 364.301C306.019 363.345 306.455 362.612 307.055 362.103C307.655 361.588 308.447 361.33 309.432 361.33C310.365 361.33 311.135 361.585 311.741 362.094C312.346 362.598 312.796 363.328 313.09 364.285C313.384 365.235 313.532 366.378 313.532 367.714ZM306.766 367.714C306.766 368.868 306.854 369.83 307.029 370.6C307.205 371.37 307.488 371.947 307.878 372.332C308.274 372.711 308.792 372.9 309.432 372.9C310.071 372.9 310.586 372.711 310.977 372.332C311.373 371.953 311.658 371.378 311.834 370.609C312.015 369.839 312.106 368.874 312.106 367.714C312.106 366.576 312.018 365.626 311.842 364.862C311.667 364.092 311.384 363.515 310.994 363.13C310.603 362.74 310.082 362.544 309.432 362.544C308.781 362.544 308.26 362.74 307.87 363.13C307.479 363.515 307.196 364.092 307.021 364.862C306.851 365.626 306.766 366.576 306.766 367.714ZM317.81 361.347C318.659 361.347 319.301 361.687 319.737 362.366C320.178 363.04 320.399 363.993 320.399 365.227C320.399 366.46 320.187 367.422 319.762 368.113C319.338 368.798 318.687 369.14 317.81 369.14C316.995 369.14 316.37 368.798 315.934 368.113C315.504 367.422 315.289 366.46 315.289 365.227C315.289 363.993 315.495 363.04 315.908 362.366C316.322 361.687 316.955 361.347 317.81 361.347ZM317.81 362.358C317.351 362.358 317.015 362.598 316.8 363.079C316.585 363.554 316.477 364.27 316.477 365.227C316.477 366.183 316.585 366.905 316.8 367.391C317.015 367.878 317.351 368.121 317.81 368.121C318.285 368.121 318.639 367.878 318.871 367.391C319.103 366.905 319.219 366.183 319.219 365.227C319.219 364.276 319.103 363.56 318.871 363.079C318.645 362.598 318.291 362.358 317.81 362.358ZM325.67 361.526L318.786 373.936H317.547L324.431 361.526H325.67ZM325.339 366.322C326.182 366.322 326.825 366.661 327.266 367.34C327.708 368.014 327.928 368.967 327.928 370.201C327.928 371.429 327.716 372.388 327.292 373.079C326.867 373.763 326.216 374.106 325.339 374.106C324.519 374.106 323.893 373.763 323.463 373.079C323.033 372.388 322.818 371.429 322.818 370.201C322.818 368.967 323.022 368.014 323.429 367.34C323.842 366.661 324.479 366.322 325.339 366.322ZM325.339 367.34C324.881 367.34 324.544 367.578 324.329 368.053C324.114 368.529 324.007 369.245 324.007 370.201C324.007 371.157 324.114 371.879 324.329 372.366C324.544 372.847 324.881 373.087 325.339 373.087C325.815 373.087 326.168 372.849 326.4 372.374C326.632 371.893 326.748 371.169 326.748 370.201C326.748 369.25 326.632 368.537 326.4 368.062C326.174 367.581 325.82 367.34 325.339 367.34Z" fill="black"/>
<line x1="240.314" y1="3.16627e-08" x2="240.314" y2="347.692" stroke="#CCCCCC" stroke-width="1.44872"/>
<path d="M236.147 367.714C236.147 368.721 236.071 369.621 235.918 370.413C235.765 371.206 235.524 371.876 235.196 372.425C234.868 372.974 234.444 373.393 233.923 373.681C233.402 373.964 232.777 374.106 232.047 374.106C231.125 374.106 230.361 373.854 229.755 373.35C229.155 372.847 228.705 372.119 228.405 371.169C228.111 370.212 227.964 369.061 227.964 367.714C227.964 366.39 228.097 365.252 228.363 364.301C228.635 363.345 229.07 362.612 229.67 362.103C230.27 361.588 231.062 361.33 232.047 361.33C232.981 361.33 233.75 361.585 234.356 362.094C234.961 362.598 235.411 363.328 235.706 364.285C236 365.235 236.147 366.378 236.147 367.714ZM229.382 367.714C229.382 368.868 229.469 369.83 229.645 370.6C229.82 371.37 230.103 371.947 230.494 372.332C230.89 372.711 231.408 372.9 232.047 372.9C232.686 372.9 233.201 372.711 233.592 372.332C233.988 371.953 234.274 371.378 234.449 370.609C234.63 369.839 234.721 368.874 234.721 367.714C234.721 366.576 234.633 365.626 234.458 364.862C234.282 364.092 233.999 363.515 233.609 363.13C233.218 362.74 232.698 362.544 232.047 362.544C231.396 362.544 230.876 362.74 230.485 363.13C230.095 363.515 229.812 364.092 229.636 364.862C229.466 365.626 229.382 366.576 229.382 367.714ZM240.425 361.347C241.274 361.347 241.916 361.687 242.352 362.366C242.794 363.04 243.014 363.993 243.014 365.227C243.014 366.46 242.802 367.422 242.378 368.113C241.953 368.798 241.302 369.14 240.425 369.14C239.61 369.14 238.985 368.798 238.549 368.113C238.119 367.422 237.904 366.46 237.904 365.227C237.904 363.993 238.111 363.04 238.524 362.366C238.937 361.687 239.571 361.347 240.425 361.347ZM240.425 362.358C239.967 362.358 239.63 362.598 239.415 363.079C239.2 363.554 239.093 364.27 239.093 365.227C239.093 366.183 239.2 366.905 239.415 367.391C239.63 367.878 239.967 368.121 240.425 368.121C240.901 368.121 241.254 367.878 241.486 367.391C241.718 366.905 241.834 366.183 241.834 365.227C241.834 364.276 241.718 363.56 241.486 363.079C241.26 362.598 240.906 362.358 240.425 362.358ZM248.286 361.526L241.401 373.936H240.162L247.046 361.526H248.286ZM247.955 366.322C248.798 366.322 249.44 366.661 249.881 367.34C250.323 368.014 250.544 368.967 250.544 370.201C250.544 371.429 250.331 372.388 249.907 373.079C249.483 373.763 248.832 374.106 247.955 374.106C247.134 374.106 246.509 373.763 246.079 373.079C245.649 372.388 245.433 371.429 245.433 370.201C245.433 368.967 245.637 368.014 246.045 367.34C246.458 366.661 247.094 366.322 247.955 366.322ZM247.955 367.34C247.496 367.34 247.159 367.578 246.944 368.053C246.729 368.529 246.622 369.245 246.622 370.201C246.622 371.157 246.729 371.879 246.944 372.366C247.159 372.847 247.496 373.087 247.955 373.087C248.43 373.087 248.784 372.849 249.016 372.374C249.248 371.893 249.364 371.169 249.364 370.201C249.364 369.25 249.248 368.537 249.016 368.062C248.789 367.581 248.436 367.34 247.955 367.34Z" fill="black"/>
<line x1="602.493" y1="3.16627e-08" x2="602.493" y2="347.692" stroke="#CCCCCC" stroke-width="1.44872"/>
<path d="M585.373 373.936H583.997V365.142C583.997 364.808 583.997 364.522 583.997 364.285C584.003 364.041 584.009 363.82 584.014 363.622C584.026 363.419 584.04 363.212 584.057 363.003C583.881 363.184 583.717 363.339 583.564 363.47C583.412 363.594 583.222 363.75 582.996 363.936L581.578 365.074L580.84 364.115L584.201 361.526H585.373V373.936ZM598.275 367.714C598.275 368.721 598.199 369.621 598.046 370.413C597.893 371.206 597.653 371.876 597.324 372.425C596.996 372.974 596.572 373.393 596.051 373.681C595.531 373.964 594.905 374.106 594.175 374.106C593.253 374.106 592.489 373.854 591.883 373.35C591.283 372.847 590.834 372.119 590.534 371.169C590.239 370.212 590.092 369.061 590.092 367.714C590.092 366.39 590.225 365.252 590.491 364.301C590.763 363.345 591.199 362.612 591.798 362.103C592.398 361.588 593.191 361.33 594.175 361.33C595.109 361.33 595.879 361.585 596.484 362.094C597.09 362.598 597.539 363.328 597.834 364.285C598.128 365.235 598.275 366.378 598.275 367.714ZM591.51 367.714C591.51 368.868 591.597 369.83 591.773 370.6C591.948 371.37 592.231 371.947 592.622 372.332C593.018 372.711 593.536 372.9 594.175 372.9C594.815 372.9 595.33 372.711 595.72 372.332C596.116 371.953 596.402 371.378 596.577 370.609C596.759 369.839 596.849 368.874 596.849 367.714C596.849 366.576 596.761 365.626 596.586 364.862C596.411 364.092 596.128 363.515 595.737 363.13C595.347 362.74 594.826 362.544 594.175 362.544C593.524 362.544 593.004 362.74 592.613 363.13C592.223 363.515 591.94 364.092 591.764 364.862C591.595 365.626 591.51 366.576 591.51 367.714ZM608.224 367.714C608.224 368.721 608.147 369.621 607.995 370.413C607.842 371.206 607.601 371.876 607.273 372.425C606.945 372.974 606.52 373.393 606 373.681C605.479 373.964 604.854 374.106 604.124 374.106C603.201 374.106 602.437 373.854 601.832 373.35C601.232 372.847 600.782 372.119 600.482 371.169C600.188 370.212 600.041 369.061 600.041 367.714C600.041 366.39 600.174 365.252 600.44 364.301C600.711 363.345 601.147 362.612 601.747 362.103C602.347 361.588 603.139 361.33 604.124 361.33C605.058 361.33 605.827 361.585 606.433 362.094C607.038 362.598 607.488 363.328 607.782 364.285C608.077 365.235 608.224 366.378 608.224 367.714ZM601.458 367.714C601.458 368.868 601.546 369.83 601.722 370.6C601.897 371.37 602.18 371.947 602.57 372.332C602.967 372.711 603.484 372.9 604.124 372.9C604.763 372.9 605.278 372.711 605.669 372.332C606.065 371.953 606.351 371.378 606.526 370.609C606.707 369.839 606.798 368.874 606.798 367.714C606.798 366.576 606.71 365.626 606.535 364.862C606.359 364.092 606.076 363.515 605.686 363.13C605.295 362.74 604.775 362.544 604.124 362.544C603.473 362.544 602.952 362.74 602.562 363.13C602.171 363.515 601.888 364.092 601.713 364.862C601.543 365.626 601.458 366.576 601.458 367.714ZM612.502 361.347C613.351 361.347 613.993 361.687 614.429 362.366C614.87 363.04 615.091 363.993 615.091 365.227C615.091 366.46 614.879 367.422 614.454 368.113C614.03 368.798 613.379 369.14 612.502 369.14C611.687 369.14 611.062 368.798 610.626 368.113C610.196 367.422 609.981 366.46 609.981 365.227C609.981 363.993 610.187 363.04 610.601 362.366C611.014 361.687 611.648 361.347 612.502 361.347ZM612.502 362.358C612.044 362.358 611.707 362.598 611.492 363.079C611.277 363.554 611.169 364.27 611.169 365.227C611.169 366.183 611.277 366.905 611.492 367.391C611.707 367.878 612.044 368.121 612.502 368.121C612.977 368.121 613.331 367.878 613.563 367.391C613.795 366.905 613.911 366.183 613.911 365.227C613.911 364.276 613.795 363.56 613.563 363.079C613.337 362.598 612.983 362.358 612.502 362.358ZM620.362 361.526L613.478 373.936H612.239L619.123 361.526H620.362ZM620.031 366.322C620.875 366.322 621.517 366.661 621.958 367.34C622.4 368.014 622.62 368.967 622.62 370.201C622.62 371.429 622.408 372.388 621.984 373.079C621.559 373.763 620.909 374.106 620.031 374.106C619.211 374.106 618.586 373.763 618.155 373.079C617.725 372.388 617.51 371.429 617.51 370.201C617.51 368.967 617.714 368.014 618.121 367.34C618.535 366.661 619.171 366.322 620.031 366.322ZM620.031 367.34C619.573 367.34 619.236 367.578 619.021 368.053C618.806 368.529 618.699 369.245 618.699 370.201C618.699 371.157 618.806 371.879 619.021 372.366C619.236 372.847 619.573 373.087 620.031 373.087C620.507 373.087 620.86 372.849 621.092 372.374C621.324 371.893 621.441 371.169 621.441 370.201C621.441 369.25 621.324 368.537 621.092 368.062C620.866 367.581 620.512 367.34 620.031 367.34Z" fill="black"/>
<path d="M34.407 282.053C36.4839 282.053 37.9994 282.46 38.9535 283.275C39.9149 284.082 40.3956 285.242 40.3956 286.754C40.3956 287.436 40.2818 288.086 40.0543 288.702C39.8342 289.311 39.4745 289.851 38.9755 290.32C38.4764 290.783 37.8196 291.15 37.005 291.421C36.1977 291.685 35.2069 291.818 34.0327 291.818H32.0732V298.147H30.2017V282.053H34.407ZM34.2308 283.649H32.0732V290.21H33.8235C34.851 290.21 35.706 290.1 36.3885 289.88C37.0784 289.66 37.5958 289.304 37.9407 288.812C38.2856 288.313 38.4581 287.653 38.4581 286.831C38.4581 285.759 38.1168 284.963 37.4343 284.442C36.7518 283.913 35.6839 283.649 34.2308 283.649ZM48.9712 285.862C49.2134 285.862 49.4666 285.877 49.7308 285.906C49.995 285.928 50.2299 285.961 50.4354 286.005L50.2042 287.7C50.006 287.649 49.7859 287.609 49.5437 287.579C49.3015 287.55 49.074 287.535 48.8612 287.535C48.3768 287.535 47.9181 287.634 47.4851 287.832C47.0594 288.023 46.6851 288.302 46.3622 288.669C46.0393 289.029 45.7861 289.465 45.6026 289.979C45.4192 290.486 45.3274 291.051 45.3274 291.674V298.147H43.489V286.082H45.0082L45.2063 288.306H45.2834C45.5329 287.858 45.8338 287.451 46.1861 287.084C46.5384 286.71 46.9457 286.412 47.408 286.192C47.8777 285.972 48.3988 285.862 48.9712 285.862ZM57.3597 285.862C58.3872 285.862 59.2679 286.089 60.0018 286.544C60.7357 286.999 61.2971 287.638 61.6861 288.46C62.075 289.275 62.2695 290.229 62.2695 291.322V292.456H53.9361C53.9581 293.872 54.3104 294.951 54.9929 295.693C55.6754 296.434 56.6368 296.804 57.8771 296.804C58.6404 296.804 59.3156 296.735 59.9027 296.595C60.4898 296.456 61.099 296.25 61.7301 295.979V297.586C61.121 297.858 60.5155 298.056 59.9137 298.18C59.3192 298.305 58.6147 298.368 57.8001 298.368C56.6405 298.368 55.6277 298.133 54.7617 297.663C53.9031 297.186 53.2352 296.489 52.7582 295.571C52.2811 294.654 52.0426 293.531 52.0426 292.203C52.0426 290.904 52.2591 289.781 52.6921 288.834C53.1325 287.88 53.7489 287.146 54.5415 286.633C55.3415 286.119 56.2809 285.862 57.3597 285.862ZM57.3377 287.359C56.3616 287.359 55.5837 287.678 55.0039 288.317C54.4241 288.955 54.0792 289.847 53.9691 290.992H60.354C60.3467 290.273 60.233 289.642 60.0128 289.098C59.8 288.548 59.4734 288.122 59.033 287.821C58.5927 287.513 58.0276 287.359 57.3377 287.359ZM73.179 294.845C73.179 295.616 72.9845 296.265 72.5955 296.793C72.2139 297.314 71.6635 297.707 70.9442 297.971C70.2324 298.236 69.381 298.368 68.3903 298.368C67.5463 298.368 66.816 298.302 66.1996 298.169C65.5831 298.037 65.0437 297.85 64.5813 297.608V295.924C65.073 296.166 65.6602 296.386 66.3427 296.584C67.0252 296.782 67.7224 296.881 68.4343 296.881C69.4764 296.881 70.2324 296.713 70.7021 296.375C71.1718 296.037 71.4066 295.579 71.4066 294.999C71.4066 294.669 71.3112 294.379 71.1204 294.129C70.9369 293.872 70.625 293.627 70.1847 293.392C69.7443 293.15 69.1352 292.885 68.3572 292.599C67.5866 292.306 66.9188 292.016 66.3537 291.729C65.7959 291.436 65.3629 291.08 65.0547 290.662C64.7538 290.243 64.6033 289.7 64.6033 289.032C64.6033 288.012 65.0143 287.231 65.8363 286.688C66.6656 286.137 67.7518 285.862 69.0948 285.862C69.8214 285.862 70.5002 285.935 71.1314 286.082C71.7699 286.222 72.3643 286.412 72.9148 286.655L72.2983 288.119C71.7992 287.906 71.2672 287.726 70.7021 287.579C70.137 287.432 69.5608 287.359 68.9737 287.359C68.1297 287.359 67.4802 287.499 67.0252 287.777C66.5775 288.056 66.3537 288.438 66.3537 288.922C66.3537 289.297 66.4564 289.605 66.6619 289.847C66.8748 290.089 67.2124 290.317 67.6747 290.53C68.1371 290.742 68.7462 290.992 69.5021 291.278C70.258 291.557 70.9112 291.847 71.4616 292.148C72.0121 292.441 72.4341 292.801 72.7276 293.227C73.0285 293.645 73.179 294.184 73.179 294.845ZM80.951 298.368C79.8648 298.368 78.9071 298.144 78.0778 297.696C77.2485 297.248 76.6026 296.566 76.1403 295.649C75.6779 294.731 75.4467 293.575 75.4467 292.181C75.4467 290.72 75.6889 289.528 76.1733 288.603C76.665 287.671 77.3402 286.981 78.1989 286.533C79.0575 286.086 80.0336 285.862 81.1271 285.862C81.7289 285.862 82.3087 285.924 82.8665 286.049C83.4316 286.167 83.8939 286.317 84.2536 286.5L83.7031 288.031C83.3362 287.884 82.9105 287.752 82.4261 287.634C81.9491 287.517 81.5014 287.458 81.0831 287.458C80.2464 287.458 79.5492 287.638 78.9915 287.998C78.4411 288.357 78.0264 288.886 77.7475 289.583C77.476 290.28 77.3402 291.139 77.3402 292.159C77.3402 293.135 77.4723 293.968 77.7365 294.658C78.008 295.348 78.408 295.876 78.9364 296.243C79.4722 296.603 80.14 296.782 80.94 296.782C81.5785 296.782 82.1546 296.716 82.6683 296.584C83.1821 296.445 83.6481 296.283 84.0664 296.1V297.729C83.6628 297.935 83.2114 298.092 82.7124 298.203C82.2206 298.313 81.6335 298.368 80.951 298.368ZM92.4109 285.862C92.6531 285.862 92.9062 285.877 93.1705 285.906C93.4347 285.928 93.6695 285.961 93.875 286.005L93.6438 287.7C93.4457 287.649 93.2255 287.609 92.9833 287.579C92.7411 287.55 92.5136 287.535 92.3008 287.535C91.8164 287.535 91.3577 287.634 90.9247 287.832C90.4991 288.023 90.1248 288.302 89.8018 288.669C89.4789 289.029 89.2257 289.465 89.0423 289.979C88.8588 290.486 88.767 291.051 88.767 291.674V298.147H86.9286V286.082H88.4478L88.6459 288.306H88.723C88.9725 287.858 89.2734 287.451 89.6257 287.084C89.978 286.71 90.3853 286.412 90.8477 286.192C91.3174 285.972 91.8384 285.862 92.4109 285.862ZM97.9812 286.082V298.147H96.1538V286.082H97.9812ZM97.0895 281.569C97.3904 281.569 97.6473 281.668 97.8601 281.866C98.0803 282.057 98.1903 282.358 98.1903 282.769C98.1903 283.172 98.0803 283.473 97.8601 283.671C97.6473 283.869 97.3904 283.968 97.0895 283.968C96.7739 283.968 96.5097 283.869 96.2969 283.671C96.0914 283.473 95.9886 283.172 95.9886 282.769C95.9886 282.358 96.0914 282.057 96.2969 281.866C96.5097 281.668 96.7739 281.569 97.0895 281.569ZM107.526 285.862C109.03 285.862 110.23 286.379 111.125 287.414C112.021 288.449 112.468 290.005 112.468 292.082C112.468 293.454 112.263 294.606 111.852 295.538C111.441 296.47 110.861 297.175 110.113 297.652C109.371 298.129 108.494 298.368 107.482 298.368C106.843 298.368 106.282 298.283 105.797 298.114C105.313 297.946 104.898 297.718 104.553 297.432C104.208 297.146 103.922 296.834 103.695 296.496H103.562C103.585 296.782 103.61 297.127 103.64 297.531C103.676 297.935 103.695 298.287 103.695 298.588V303.542H101.856V286.082H103.364L103.607 287.866H103.695C103.929 287.499 104.216 287.165 104.553 286.864C104.891 286.555 105.302 286.313 105.786 286.137C106.278 285.954 106.858 285.862 107.526 285.862ZM107.206 287.403C106.37 287.403 105.694 287.565 105.181 287.888C104.674 288.21 104.304 288.695 104.069 289.341C103.834 289.979 103.709 290.783 103.695 291.752V292.104C103.695 293.124 103.805 293.986 104.025 294.691C104.252 295.395 104.623 295.931 105.137 296.298C105.658 296.665 106.355 296.848 107.228 296.848C107.977 296.848 108.601 296.647 109.1 296.243C109.599 295.839 109.969 295.278 110.212 294.559C110.461 293.832 110.586 292.999 110.586 292.06C110.586 290.636 110.307 289.506 109.749 288.669C109.199 287.825 108.351 287.403 107.206 287.403ZM119.558 296.87C119.859 296.87 120.167 296.845 120.483 296.793C120.798 296.742 121.055 296.68 121.253 296.606V298.026C121.04 298.122 120.743 298.203 120.362 298.269C119.987 298.335 119.62 298.368 119.261 298.368C118.622 298.368 118.042 298.258 117.521 298.037C117 297.81 116.582 297.428 116.266 296.892C115.958 296.357 115.804 295.616 115.804 294.669V287.513H114.087V286.622L115.815 285.906L116.542 283.286H117.642V286.082H121.176V287.513H117.642V294.614C117.642 295.37 117.815 295.935 118.16 296.309C118.512 296.683 118.978 296.87 119.558 296.87ZM125.524 286.082V298.147H123.697V286.082H125.524ZM124.633 281.569C124.934 281.569 125.191 281.668 125.403 281.866C125.624 282.057 125.734 282.358 125.734 282.769C125.734 283.172 125.624 283.473 125.403 283.671C125.191 283.869 124.934 283.968 124.633 283.968C124.317 283.968 124.053 283.869 123.84 283.671C123.635 283.473 123.532 283.172 123.532 282.769C123.532 282.358 123.635 282.057 123.84 281.866C124.053 281.668 124.317 281.569 124.633 281.569ZM139.803 292.093C139.803 293.084 139.674 293.968 139.417 294.746C139.16 295.524 138.79 296.181 138.305 296.716C137.821 297.252 137.234 297.663 136.544 297.949C135.862 298.228 135.087 298.368 134.221 298.368C133.414 298.368 132.673 298.228 131.998 297.949C131.33 297.663 130.75 297.252 130.258 296.716C129.774 296.181 129.396 295.524 129.124 294.746C128.86 293.968 128.728 293.084 128.728 292.093C128.728 290.772 128.952 289.649 129.399 288.724C129.847 287.792 130.486 287.084 131.315 286.6C132.152 286.108 133.146 285.862 134.298 285.862C135.399 285.862 136.361 286.108 137.183 286.6C138.012 287.091 138.654 287.803 139.109 288.735C139.571 289.66 139.803 290.779 139.803 292.093ZM130.621 292.093C130.621 293.062 130.75 293.902 131.007 294.614C131.264 295.326 131.66 295.876 132.196 296.265C132.731 296.654 133.421 296.848 134.265 296.848C135.102 296.848 135.788 296.654 136.324 296.265C136.867 295.876 137.267 295.326 137.524 294.614C137.781 293.902 137.909 293.062 137.909 292.093C137.909 291.131 137.781 290.302 137.524 289.605C137.267 288.9 136.871 288.357 136.335 287.976C135.799 287.594 135.106 287.403 134.254 287.403C132.999 287.403 132.078 287.818 131.491 288.647C130.911 289.476 130.621 290.625 130.621 292.093ZM148.675 285.862C150.107 285.862 151.189 286.214 151.923 286.919C152.657 287.616 153.024 288.739 153.024 290.287V298.147H151.218V290.408C151.218 289.403 150.987 288.651 150.525 288.152C150.07 287.653 149.369 287.403 148.422 287.403C147.087 287.403 146.147 287.781 145.604 288.537C145.061 289.293 144.789 290.39 144.789 291.829V298.147H142.962V286.082H144.437L144.712 287.821H144.811C145.068 287.396 145.395 287.04 145.791 286.754C146.187 286.46 146.632 286.24 147.123 286.093C147.615 285.939 148.132 285.862 148.675 285.862ZM168.127 285.862C168.37 285.862 168.623 285.877 168.887 285.906C169.151 285.928 169.386 285.961 169.592 286.005L169.36 287.7C169.162 287.649 168.942 287.609 168.7 287.579C168.458 287.55 168.23 287.535 168.017 287.535C167.533 287.535 167.074 287.634 166.641 287.832C166.216 288.023 165.841 288.302 165.518 288.669C165.196 289.029 164.942 289.465 164.759 289.979C164.575 290.486 164.484 291.051 164.484 291.674V298.147H162.645V286.082H164.164L164.363 288.306H164.44C164.689 287.858 164.99 287.451 165.342 287.084C165.695 286.71 166.102 286.412 166.564 286.192C167.034 285.972 167.555 285.862 168.127 285.862ZM176.516 285.862C177.543 285.862 178.424 286.089 179.158 286.544C179.892 286.999 180.453 287.638 180.842 288.46C181.231 289.275 181.426 290.229 181.426 291.322V292.456H173.092C173.114 293.872 173.467 294.951 174.149 295.693C174.832 296.434 175.793 296.804 177.033 296.804C177.797 296.804 178.472 296.735 179.059 296.595C179.646 296.456 180.255 296.25 180.886 295.979V297.586C180.277 297.858 179.672 298.056 179.07 298.18C178.475 298.305 177.771 298.368 176.956 298.368C175.797 298.368 174.784 298.133 173.918 297.663C173.059 297.186 172.391 296.489 171.914 295.571C171.437 294.654 171.199 293.531 171.199 292.203C171.199 290.904 171.415 289.781 171.848 288.834C172.289 287.88 172.905 287.146 173.698 286.633C174.498 286.119 175.437 285.862 176.516 285.862ZM176.494 287.359C175.518 287.359 174.74 287.678 174.16 288.317C173.58 288.955 173.235 289.847 173.125 290.992H179.51C179.503 290.273 179.389 289.642 179.169 289.098C178.956 288.548 178.63 288.122 178.189 287.821C177.749 287.513 177.184 287.359 176.494 287.359ZM189.902 287.513H186.897V298.147H185.07V287.513H182.934V286.633L185.07 286.027V285.223C185.07 284.211 185.22 283.389 185.521 282.758C185.822 282.119 186.259 281.649 186.831 281.348C187.403 281.048 188.101 280.897 188.923 280.897C189.385 280.897 189.807 280.937 190.189 281.018C190.578 281.099 190.919 281.191 191.212 281.293L190.739 282.736C190.489 282.655 190.207 282.581 189.891 282.515C189.583 282.442 189.268 282.405 188.945 282.405C188.247 282.405 187.73 282.633 187.392 283.088C187.062 283.535 186.897 284.24 186.897 285.201V286.082H189.902V287.513ZM193.942 286.082V298.147H192.115V286.082H193.942ZM193.051 281.569C193.352 281.569 193.609 281.668 193.821 281.866C194.042 282.057 194.152 282.358 194.152 282.769C194.152 283.172 194.042 283.473 193.821 283.671C193.609 283.869 193.352 283.968 193.051 283.968C192.735 283.968 192.471 283.869 192.258 283.671C192.053 283.473 191.95 283.172 191.95 282.769C191.95 282.358 192.053 282.057 192.258 281.866C192.471 281.668 192.735 281.569 193.051 281.569ZM199.645 298.147H197.806V281.018H199.645V298.147ZM205.347 298.147H203.509V281.018H205.347V298.147ZM217.016 294.845C217.016 295.616 216.822 296.265 216.433 296.793C216.051 297.314 215.501 297.707 214.782 297.971C214.07 298.236 213.218 298.368 212.228 298.368C211.384 298.368 210.653 298.302 210.037 298.169C209.42 298.037 208.881 297.85 208.419 297.608V295.924C208.91 296.166 209.498 296.386 210.18 296.584C210.863 296.782 211.56 296.881 212.272 296.881C213.314 296.881 214.07 296.713 214.539 296.375C215.009 296.037 215.244 295.579 215.244 294.999C215.244 294.669 215.149 294.379 214.958 294.129C214.774 293.872 214.462 293.627 214.022 293.392C213.582 293.15 212.973 292.885 212.195 292.599C211.424 292.306 210.756 292.016 210.191 291.729C209.633 291.436 209.2 291.08 208.892 290.662C208.591 290.243 208.441 289.7 208.441 289.032C208.441 288.012 208.852 287.231 209.674 286.688C210.503 286.137 211.589 285.862 212.932 285.862C213.659 285.862 214.338 285.935 214.969 286.082C215.607 286.222 216.202 286.412 216.752 286.655L216.136 288.119C215.637 287.906 215.105 287.726 214.539 287.579C213.974 287.432 213.398 287.359 212.811 287.359C211.967 287.359 211.318 287.499 210.863 287.777C210.415 288.056 210.191 288.438 210.191 288.922C210.191 289.297 210.294 289.605 210.499 289.847C210.712 290.089 211.05 290.317 211.512 290.53C211.974 290.742 212.584 290.992 213.339 291.278C214.095 291.557 214.749 291.847 215.299 292.148C215.849 292.441 216.271 292.801 216.565 293.227C216.866 293.645 217.016 294.184 217.016 294.845Z" fill="black"/>
<rect x="240.731" y="270.09" width="364" height="39.1154" fill="#61B3FF"/>
<path d="M53.1605 160.021C53.1605 161.261 53.0027 162.391 52.6871 163.411C52.3716 164.424 51.9019 165.297 51.2781 166.031C50.6616 166.758 49.8946 167.319 48.9773 167.716C48.0599 168.112 46.9957 168.31 45.7848 168.31C44.5372 168.31 43.4473 168.112 42.5153 167.716C41.5906 167.319 40.82 166.754 40.2035 166.02C39.5943 165.286 39.1357 164.409 38.8274 163.389C38.5265 162.369 38.3761 161.239 38.3761 159.999C38.3761 158.355 38.6476 156.913 39.1907 155.672C39.7338 154.432 40.5558 153.467 41.6566 152.777C42.7648 152.087 44.1519 151.742 45.8178 151.742C47.4104 151.742 48.7498 152.083 49.8359 152.766C50.9295 153.449 51.7551 154.41 52.3129 155.65C52.878 156.883 53.1605 158.34 53.1605 160.021ZM40.3466 160.021C40.3466 161.386 40.5411 162.567 40.93 163.565C41.319 164.563 41.9135 165.334 42.7134 165.877C43.5207 166.42 44.5445 166.692 45.7848 166.692C47.0324 166.692 48.0526 166.42 48.8452 165.877C49.6451 165.334 50.2359 164.563 50.6175 163.565C50.9992 162.567 51.19 161.386 51.19 160.021C51.19 157.944 50.7533 156.322 49.88 155.155C49.014 153.981 47.6599 153.393 45.8178 153.393C44.5702 153.393 43.5427 153.661 42.7354 154.197C41.9281 154.733 41.3263 155.496 40.93 156.487C40.5411 157.47 40.3466 158.648 40.3466 160.021ZM59.1271 168.09L54.5476 156.025H56.5071L59.1602 163.323C59.3436 163.822 59.5308 164.373 59.7216 164.974C59.9124 165.576 60.0445 166.061 60.1179 166.428H60.195C60.283 166.061 60.4298 165.576 60.6353 164.974C60.8408 164.365 61.0279 163.815 61.1967 163.323L63.8498 156.025H65.8093L61.2187 168.09H59.1271ZM72.3924 155.804C73.4199 155.804 74.3005 156.032 75.0344 156.487C75.7683 156.942 76.3298 157.58 76.7187 158.402C77.1077 159.217 77.3022 160.171 77.3022 161.265V162.398H68.9687C68.9908 163.815 69.343 164.894 70.0256 165.635C70.7081 166.376 71.6695 166.747 72.9098 166.747C73.6731 166.747 74.3482 166.677 74.9354 166.538C75.5225 166.398 76.1316 166.193 76.7628 165.921V167.528C76.1536 167.8 75.5482 167.998 74.9464 168.123C74.3519 168.248 73.6474 168.31 72.8327 168.31C71.6732 168.31 70.6604 168.075 69.7944 167.605C68.9357 167.128 68.2679 166.431 67.7908 165.514C67.3138 164.596 67.0753 163.474 67.0753 162.145C67.0753 160.846 67.2918 159.723 67.7248 158.777C68.1651 157.823 68.7816 157.089 69.5742 156.575C70.3742 156.061 71.3136 155.804 72.3924 155.804ZM72.3704 157.301C71.3943 157.301 70.6164 157.621 70.0366 158.259C69.4568 158.898 69.1119 159.789 69.0018 160.934H75.3867C75.3794 160.215 75.2656 159.584 75.0455 159.041C74.8326 158.49 74.506 158.065 74.0657 157.764C73.6254 157.456 73.0603 157.301 72.3704 157.301ZM85.8888 155.804C86.131 155.804 86.3842 155.819 86.6484 155.848C86.9126 155.87 87.1475 155.903 87.353 155.947L87.1218 157.643C86.9236 157.591 86.7035 157.551 86.4613 157.522C86.2191 157.492 85.9916 157.478 85.7788 157.478C85.2944 157.478 84.8357 157.577 84.4027 157.775C83.977 157.966 83.6027 158.245 83.2798 158.612C82.9569 158.971 82.7037 159.408 82.5202 159.922C82.3368 160.428 82.245 160.993 82.245 161.617V168.09H80.4066V156.025H81.9258L82.1239 158.248H82.201C82.4505 157.801 82.7514 157.393 83.1037 157.026C83.456 156.652 83.8633 156.355 84.3256 156.135C84.7953 155.914 85.3164 155.804 85.8888 155.804ZM88.608 162.85V161.221H94.0682V162.85H88.608ZM100.794 166.813C101.095 166.813 101.404 166.787 101.719 166.736C102.035 166.684 102.292 166.622 102.49 166.549V167.969C102.277 168.064 101.98 168.145 101.598 168.211C101.224 168.277 100.857 168.31 100.497 168.31C99.8587 168.31 99.2789 168.2 98.7578 167.98C98.2367 167.752 97.8184 167.371 97.5028 166.835C97.1946 166.299 97.0405 165.558 97.0405 164.611V157.456H95.3232V156.564L97.0515 155.848L97.7781 153.228H98.8789V156.025H102.413V157.456H98.8789V164.556C98.8789 165.312 99.0514 165.877 99.3963 166.251C99.7486 166.626 100.215 166.813 100.794 166.813ZM106.761 150.961V156.08C106.761 156.373 106.754 156.67 106.739 156.971C106.724 157.265 106.699 157.536 106.662 157.786H106.783C107.033 157.36 107.348 157.004 107.73 156.718C108.119 156.424 108.559 156.204 109.051 156.058C109.542 155.903 110.064 155.826 110.614 155.826C111.583 155.826 112.39 155.98 113.036 156.289C113.689 156.597 114.177 157.074 114.5 157.72C114.83 158.366 114.995 159.202 114.995 160.23V168.09H113.19V160.351C113.19 159.345 112.959 158.593 112.496 158.094C112.041 157.595 111.341 157.346 110.394 157.346C109.498 157.346 108.783 157.518 108.247 157.863C107.719 158.201 107.337 158.7 107.102 159.36C106.875 160.021 106.761 160.828 106.761 161.782V168.09H104.934V150.961H106.761ZM123.406 155.804C124.433 155.804 125.314 156.032 126.048 156.487C126.782 156.942 127.343 157.58 127.732 158.402C128.121 159.217 128.316 160.171 128.316 161.265V162.398H119.982C120.004 163.815 120.357 164.894 121.039 165.635C121.722 166.376 122.683 166.747 123.923 166.747C124.687 166.747 125.362 166.677 125.949 166.538C126.536 166.398 127.145 166.193 127.776 165.921V167.528C127.167 167.8 126.562 167.998 125.96 168.123C125.365 168.248 124.661 168.31 123.846 168.31C122.687 168.31 121.674 168.075 120.808 167.605C119.949 167.128 119.281 166.431 118.804 165.514C118.327 164.596 118.089 163.474 118.089 162.145C118.089 160.846 118.305 159.723 118.738 158.777C119.179 157.823 119.795 157.089 120.588 156.575C121.388 156.061 122.327 155.804 123.406 155.804ZM123.384 157.301C122.408 157.301 121.63 157.621 121.05 158.259C120.47 158.898 120.125 159.789 120.015 160.934H126.4C126.393 160.215 126.279 159.584 126.059 159.041C125.846 158.49 125.52 158.065 125.079 157.764C124.639 157.456 124.074 157.301 123.384 157.301ZM130.396 162.85V161.221H135.857V162.85H130.396ZM143.518 168.31C142.432 168.31 141.475 168.086 140.645 167.638C139.816 167.191 139.17 166.508 138.708 165.591C138.245 164.674 138.014 163.518 138.014 162.123C138.014 160.663 138.256 159.47 138.741 158.545C139.232 157.613 139.908 156.924 140.766 156.476C141.625 156.028 142.601 155.804 143.695 155.804C144.296 155.804 144.876 155.867 145.434 155.991C145.999 156.109 146.461 156.259 146.821 156.443L146.271 157.973C145.904 157.826 145.478 157.694 144.994 157.577C144.517 157.459 144.069 157.401 143.651 157.401C142.814 157.401 142.117 157.58 141.559 157.94C141.009 158.3 140.594 158.828 140.315 159.525C140.043 160.222 139.908 161.081 139.908 162.101C139.908 163.077 140.04 163.91 140.304 164.6C140.576 165.29 140.975 165.818 141.504 166.185C142.04 166.545 142.708 166.725 143.507 166.725C144.146 166.725 144.722 166.659 145.236 166.527C145.75 166.387 146.216 166.226 146.634 166.042V167.672C146.23 167.877 145.779 168.035 145.28 168.145C144.788 168.255 144.201 168.31 143.518 168.31ZM159.899 162.035C159.899 163.026 159.771 163.91 159.514 164.688C159.257 165.466 158.886 166.123 158.402 166.659C157.918 167.194 157.33 167.605 156.641 167.892C155.958 168.171 155.184 168.31 154.318 168.31C153.511 168.31 152.769 168.171 152.094 167.892C151.426 167.605 150.846 167.194 150.355 166.659C149.87 166.123 149.492 165.466 149.221 164.688C148.957 163.91 148.825 163.026 148.825 162.035C148.825 160.714 149.048 159.591 149.496 158.667C149.944 157.734 150.582 157.026 151.412 156.542C152.248 156.05 153.243 155.804 154.395 155.804C155.496 155.804 156.457 156.05 157.279 156.542C158.108 157.034 158.751 157.746 159.206 158.678C159.668 159.602 159.899 160.721 159.899 162.035ZM150.718 162.035C150.718 163.004 150.846 163.844 151.103 164.556C151.36 165.268 151.757 165.818 152.292 166.207C152.828 166.596 153.518 166.791 154.362 166.791C155.199 166.791 155.885 166.596 156.42 166.207C156.964 165.818 157.364 165.268 157.62 164.556C157.877 163.844 158.006 163.004 158.006 162.035C158.006 161.074 157.877 160.244 157.62 159.547C157.364 158.843 156.967 158.3 156.431 157.918C155.896 157.536 155.202 157.346 154.351 157.346C153.096 157.346 152.175 157.76 151.588 158.589C151.008 159.419 150.718 160.567 150.718 162.035ZM173.021 156.025V168.09H171.524L171.26 166.395H171.161C170.911 166.813 170.588 167.165 170.192 167.451C169.796 167.738 169.348 167.95 168.849 168.09C168.357 168.237 167.833 168.31 167.275 168.31C166.321 168.31 165.521 168.156 164.875 167.848C164.229 167.539 163.741 167.062 163.411 166.417C163.088 165.771 162.926 164.941 162.926 163.929V156.025H164.776V163.797C164.776 164.802 165.003 165.554 165.458 166.053C165.913 166.545 166.607 166.791 167.539 166.791C168.434 166.791 169.146 166.622 169.675 166.284C170.21 165.947 170.596 165.451 170.831 164.798C171.065 164.138 171.183 163.33 171.183 162.376V156.025H173.021ZM182.599 155.804C184.03 155.804 185.112 156.157 185.846 156.861C186.58 157.558 186.947 158.681 186.947 160.23V168.09H185.142V160.351C185.142 159.345 184.911 158.593 184.448 158.094C183.993 157.595 183.292 157.346 182.346 157.346C181.01 157.346 180.07 157.723 179.527 158.479C178.984 159.235 178.713 160.333 178.713 161.771V168.09H176.885V156.025H178.36L178.636 157.764H178.735C178.992 157.338 179.318 156.982 179.714 156.696C180.111 156.402 180.555 156.182 181.047 156.036C181.538 155.881 182.056 155.804 182.599 155.804ZM194.609 166.813C194.91 166.813 195.218 166.787 195.534 166.736C195.849 166.684 196.106 166.622 196.304 166.549V167.969C196.091 168.064 195.794 168.145 195.413 168.211C195.038 168.277 194.671 168.31 194.312 168.31C193.673 168.31 193.094 168.2 192.572 167.98C192.051 167.752 191.633 167.371 191.317 166.835C191.009 166.299 190.855 165.558 190.855 164.611V157.456H189.138V156.564L190.866 155.848L191.593 153.228H192.694V156.025H196.227V157.456H192.694V164.556C192.694 165.312 192.866 165.877 193.211 166.251C193.563 166.626 194.029 166.813 194.609 166.813ZM203.394 155.804C204.421 155.804 205.302 156.032 206.036 156.487C206.77 156.942 207.331 157.58 207.72 158.402C208.109 159.217 208.304 160.171 208.304 161.265V162.398H199.97C199.992 163.815 200.344 164.894 201.027 165.635C201.71 166.376 202.671 166.747 203.911 166.747C204.674 166.747 205.35 166.677 205.937 166.538C206.524 166.398 207.133 166.193 207.764 165.921V167.528C207.155 167.8 206.55 167.998 205.948 168.123C205.353 168.248 204.649 168.31 203.834 168.31C202.675 168.31 201.662 168.075 200.796 167.605C199.937 167.128 199.269 166.431 198.792 165.514C198.315 164.596 198.077 163.474 198.077 162.145C198.077 160.846 198.293 159.723 198.726 158.777C199.167 157.823 199.783 157.089 200.576 156.575C201.376 156.061 202.315 155.804 203.394 155.804ZM203.372 157.301C202.396 157.301 201.618 157.621 201.038 158.259C200.458 158.898 200.113 159.789 200.003 160.934H206.388C206.381 160.215 206.267 159.584 206.047 159.041C205.834 158.49 205.507 158.065 205.067 157.764C204.627 157.456 204.062 157.301 203.372 157.301ZM216.89 155.804C217.132 155.804 217.386 155.819 217.65 155.848C217.914 155.87 218.149 155.903 218.354 155.947L218.123 157.643C217.925 157.591 217.705 157.551 217.463 157.522C217.221 157.492 216.993 157.478 216.78 157.478C216.296 157.478 215.837 157.577 215.404 157.775C214.978 157.966 214.604 158.245 214.281 158.612C213.958 158.971 213.705 159.408 213.522 159.922C213.338 160.428 213.246 160.993 213.246 161.617V168.09H211.408V156.025H212.927L213.125 158.248H213.202C213.452 157.801 213.753 157.393 214.105 157.026C214.457 156.652 214.865 156.355 215.327 156.135C215.797 155.914 216.318 155.804 216.89 155.804ZM52.0266 186.804C53.355 186.804 54.3568 187.153 55.032 187.85C55.7071 188.54 56.0447 189.652 56.0447 191.186V199.09H54.2393V191.274C54.2393 190.298 54.0265 189.567 53.6009 189.083C53.1825 188.591 52.5587 188.346 51.7294 188.346C50.5625 188.346 49.7148 188.683 49.1864 189.358C48.658 190.033 48.3938 191.028 48.3938 192.342V199.09H46.5774V191.274C46.5774 190.621 46.482 190.078 46.2912 189.645C46.1077 189.212 45.8288 188.889 45.4545 188.676C45.0876 188.456 44.6216 188.346 44.0565 188.346C43.2565 188.346 42.6143 188.511 42.13 188.841C41.6456 189.171 41.2933 189.663 41.0732 190.316C40.8603 190.962 40.7539 191.758 40.7539 192.705V199.09H38.9265V187.025H40.4016L40.6768 188.731H40.7759C41.0181 188.313 41.3227 187.96 41.6896 187.674C42.0566 187.388 42.4676 187.171 42.9226 187.025C43.3776 186.878 43.862 186.804 44.3757 186.804C45.2931 186.804 46.06 186.977 46.6765 187.322C47.3003 187.659 47.7517 188.177 48.0305 188.874H48.1296C48.5259 188.177 49.069 187.659 49.7589 187.322C50.4487 186.977 51.2047 186.804 52.0266 186.804ZM64.4442 186.804C65.4717 186.804 66.3524 187.032 67.0863 187.487C67.8202 187.942 68.3816 188.58 68.7706 189.402C69.1596 190.217 69.354 191.171 69.354 192.265V193.398H61.0206C61.0426 194.815 61.3949 195.894 62.0774 196.635C62.7599 197.376 63.7214 197.747 64.9616 197.747C65.7249 197.747 66.4001 197.677 66.9872 197.538C67.5743 197.398 68.1835 197.193 68.8146 196.921V198.528C68.2055 198.8 67.6 198.998 66.9982 199.123C66.4038 199.248 65.6992 199.31 64.8846 199.31C63.725 199.31 62.7122 199.075 61.8462 198.605C60.9876 198.128 60.3197 197.431 59.8427 196.514C59.3656 195.596 59.1271 194.474 59.1271 193.145C59.1271 191.846 59.3436 190.723 59.7766 189.777C60.217 188.823 60.8335 188.089 61.6261 187.575C62.426 187.061 63.3654 186.804 64.4442 186.804ZM64.4222 188.301C63.4461 188.301 62.6682 188.621 62.0884 189.259C61.5086 189.898 61.1637 190.789 61.0536 191.934H67.4386C67.4312 191.215 67.3175 190.584 67.0973 190.041C66.8845 189.49 66.5579 189.065 66.1175 188.764C65.6772 188.456 65.1121 188.301 64.4222 188.301ZM76.7518 199.31C75.2253 199.31 74.0143 198.789 73.119 197.747C72.2309 196.705 71.7869 195.156 71.7869 193.101C71.7869 191.024 72.242 189.457 73.152 188.401C74.062 187.336 75.273 186.804 76.7848 186.804C77.4233 186.804 77.9811 186.889 78.4581 187.058C78.9351 187.226 79.3461 187.454 79.6911 187.74C80.036 188.019 80.3259 188.338 80.5607 188.698H80.6928C80.6635 188.47 80.6341 188.158 80.6048 187.762C80.5754 187.366 80.5607 187.043 80.5607 186.793V181.961H82.3881V199.09H80.913L80.6378 197.373H80.5607C80.3332 197.732 80.0433 198.059 79.6911 198.352C79.3461 198.646 78.9315 198.881 78.4471 199.057C77.9701 199.226 77.4049 199.31 76.7518 199.31ZM77.038 197.791C78.3297 197.791 79.2434 197.424 79.7791 196.69C80.3149 195.956 80.5827 194.866 80.5827 193.42V193.09C80.5827 191.556 80.3259 190.378 79.8121 189.556C79.3058 188.734 78.381 188.324 77.038 188.324C75.9151 188.324 75.0748 188.757 74.517 189.623C73.9593 190.481 73.6804 191.655 73.6804 193.145C73.6804 194.628 73.9556 195.773 74.506 196.58C75.0638 197.387 75.9078 197.791 77.038 197.791ZM88.0906 187.025V199.09H86.2631V187.025H88.0906ZM87.1989 182.511C87.4998 182.511 87.7566 182.61 87.9695 182.808C88.1896 182.999 88.2997 183.3 88.2997 183.711C88.2997 184.115 88.1896 184.415 87.9695 184.614C87.7566 184.812 87.4998 184.911 87.1989 184.911C86.8833 184.911 86.6191 184.812 86.4062 184.614C86.2008 184.415 86.098 184.115 86.098 183.711C86.098 183.3 86.2008 182.999 86.4062 182.808C86.6191 182.61 86.8833 182.511 87.1989 182.511ZM96.7983 199.31C95.7121 199.31 94.7544 199.086 93.9251 198.638C93.0958 198.191 92.4499 197.508 91.9876 196.591C91.5252 195.674 91.294 194.518 91.294 193.123C91.294 191.663 91.5362 190.47 92.0206 189.545C92.5123 188.613 93.1875 187.924 94.0462 187.476C94.9048 187.028 95.8809 186.804 96.9744 186.804C97.5762 186.804 98.156 186.867 98.7138 186.991C99.2789 187.109 99.7412 187.259 100.101 187.443L99.5504 188.973C99.1835 188.826 98.7578 188.694 98.2734 188.577C97.7964 188.459 97.3487 188.401 96.9304 188.401C96.0937 188.401 95.3965 188.58 94.8388 188.94C94.2884 189.3 93.8737 189.828 93.5948 190.525C93.3233 191.222 93.1875 192.081 93.1875 193.101C93.1875 194.077 93.3196 194.91 93.5838 195.6C93.8554 196.29 94.2553 196.818 94.7837 197.185C95.3195 197.545 95.9873 197.725 96.7873 197.725C97.4258 197.725 98.0019 197.659 98.5156 197.527C99.0294 197.387 99.4954 197.226 99.9137 197.042V198.672C99.5101 198.877 99.0587 199.035 98.5597 199.145C98.0679 199.255 97.4808 199.31 96.7983 199.31ZM107.289 186.826C108.728 186.826 109.796 187.149 110.493 187.795C111.19 188.441 111.539 189.472 111.539 190.888V199.09H110.207L109.854 197.306H109.766C109.429 197.747 109.076 198.117 108.71 198.418C108.343 198.712 107.917 198.936 107.433 199.09C106.955 199.237 106.368 199.31 105.671 199.31C104.937 199.31 104.284 199.182 103.712 198.925C103.147 198.668 102.699 198.279 102.369 197.758C102.046 197.237 101.884 196.576 101.884 195.776C101.884 194.573 102.361 193.648 103.315 193.002C104.269 192.356 105.723 192.004 107.675 191.945L109.755 191.857V191.12C109.755 190.078 109.531 189.347 109.084 188.929C108.636 188.511 108.005 188.301 107.19 188.301C106.559 188.301 105.957 188.393 105.385 188.577C104.812 188.76 104.269 188.977 103.756 189.226L103.194 187.839C103.737 187.56 104.361 187.322 105.066 187.124C105.77 186.925 106.511 186.826 107.289 186.826ZM109.733 193.145L107.895 193.222C106.39 193.281 105.33 193.527 104.713 193.96C104.097 194.393 103.789 195.006 103.789 195.798C103.789 196.488 103.998 196.998 104.416 197.328C104.835 197.659 105.389 197.824 106.078 197.824C107.15 197.824 108.027 197.527 108.71 196.932C109.392 196.338 109.733 195.446 109.733 194.257V193.145ZM119.201 197.813C119.502 197.813 119.81 197.787 120.125 197.736C120.441 197.684 120.698 197.622 120.896 197.549V198.969C120.683 199.064 120.386 199.145 120.004 199.211C119.63 199.277 119.263 199.31 118.903 199.31C118.265 199.31 117.685 199.2 117.164 198.98C116.643 198.752 116.225 198.371 115.909 197.835C115.601 197.299 115.447 196.558 115.447 195.611V188.456H113.729V187.564L115.458 186.848L116.184 184.228H117.285V187.025H120.819V188.456H117.285V195.556C117.285 196.312 117.458 196.877 117.803 197.251C118.155 197.626 118.621 197.813 119.201 197.813ZM125.167 187.025V199.09H123.34V187.025H125.167ZM124.276 182.511C124.576 182.511 124.833 182.61 125.046 182.808C125.266 182.999 125.376 183.3 125.376 183.711C125.376 184.115 125.266 184.415 125.046 184.614C124.833 184.812 124.576 184.911 124.276 184.911C123.96 184.911 123.696 184.812 123.483 184.614C123.277 184.415 123.175 184.115 123.175 183.711C123.175 183.3 123.277 182.999 123.483 182.808C123.696 182.61 123.96 182.511 124.276 182.511ZM139.445 193.035C139.445 194.026 139.317 194.91 139.06 195.688C138.803 196.466 138.433 197.123 137.948 197.659C137.464 198.194 136.877 198.605 136.187 198.892C135.504 199.171 134.73 199.31 133.864 199.31C133.057 199.31 132.315 199.171 131.64 198.892C130.972 198.605 130.393 198.194 129.901 197.659C129.417 197.123 129.039 196.466 128.767 195.688C128.503 194.91 128.371 194.026 128.371 193.035C128.371 191.714 128.595 190.591 129.042 189.667C129.49 188.734 130.128 188.026 130.958 187.542C131.794 187.05 132.789 186.804 133.941 186.804C135.042 186.804 136.003 187.05 136.825 187.542C137.655 188.034 138.297 188.746 138.752 189.678C139.214 190.602 139.445 191.721 139.445 193.035ZM130.264 193.035C130.264 194.004 130.393 194.844 130.65 195.556C130.906 196.268 131.303 196.818 131.838 197.207C132.374 197.596 133.064 197.791 133.908 197.791C134.745 197.791 135.431 197.596 135.967 197.207C136.51 196.818 136.91 196.268 137.167 195.556C137.423 194.844 137.552 194.004 137.552 193.035C137.552 192.074 137.423 191.244 137.167 190.547C136.91 189.843 136.513 189.3 135.978 188.918C135.442 188.536 134.748 188.346 133.897 188.346C132.642 188.346 131.721 188.76 131.134 189.589C130.554 190.419 130.264 191.567 130.264 193.035ZM148.318 186.804C149.749 186.804 150.832 187.157 151.566 187.861C152.3 188.558 152.667 189.681 152.667 191.23V199.09H150.861V191.351C150.861 190.345 150.63 189.593 150.168 189.094C149.713 188.595 149.012 188.346 148.065 188.346C146.729 188.346 145.79 188.723 145.247 189.479C144.704 190.235 144.432 191.333 144.432 192.771V199.09H142.605V187.025H144.08L144.355 188.764H144.454C144.711 188.338 145.038 187.982 145.434 187.696C145.83 187.402 146.274 187.182 146.766 187.036C147.258 186.881 147.775 186.804 148.318 186.804ZM164.237 195.787C164.237 196.558 164.042 197.207 163.653 197.736C163.271 198.257 162.721 198.65 162.002 198.914C161.29 199.178 160.439 199.31 159.448 199.31C158.604 199.31 157.874 199.244 157.257 199.112C156.641 198.98 156.101 198.793 155.639 198.55V196.866C156.131 197.108 156.718 197.328 157.4 197.527C158.083 197.725 158.78 197.824 159.492 197.824C160.534 197.824 161.29 197.655 161.76 197.317C162.229 196.98 162.464 196.521 162.464 195.941C162.464 195.611 162.369 195.321 162.178 195.072C161.994 194.815 161.683 194.569 161.242 194.334C160.802 194.092 160.193 193.828 159.415 193.542C158.644 193.248 157.976 192.958 157.411 192.672C156.853 192.378 156.42 192.022 156.112 191.604C155.811 191.186 155.661 190.643 155.661 189.975C155.661 188.955 156.072 188.173 156.894 187.63C157.723 187.08 158.809 186.804 160.152 186.804C160.879 186.804 161.558 186.878 162.189 187.025C162.827 187.164 163.422 187.355 163.972 187.597L163.356 189.061C162.857 188.848 162.325 188.668 161.76 188.522C161.194 188.375 160.618 188.301 160.031 188.301C159.187 188.301 158.538 188.441 158.083 188.72C157.635 188.999 157.411 189.38 157.411 189.865C157.411 190.239 157.514 190.547 157.719 190.789C157.932 191.032 158.27 191.259 158.732 191.472C159.195 191.685 159.804 191.934 160.56 192.221C161.316 192.499 161.969 192.789 162.519 193.09C163.07 193.384 163.492 193.743 163.785 194.169C164.086 194.587 164.237 195.127 164.237 195.787Z" fill="black"/>
<rect x="240.731" y="155.59" width="219" height="39" fill="#FFC0CB"/>
<path d="M16.3991 68.5898H14.5277V61.005H6.07315V68.5898H4.2017V52.4954H6.07315V59.3537H14.5277V52.4954H16.3991V68.5898ZM25.195 56.3043C26.2224 56.3043 27.1031 56.5318 27.837 56.9869C28.5709 57.4419 29.1323 58.0804 29.5213 58.9023C29.9103 59.717 30.1048 60.671 30.1048 61.7646V62.8984H21.7713C21.7933 64.3149 22.1456 65.3937 22.8281 66.1349C23.5107 66.8762 24.4721 67.2468 25.7124 67.2468C26.4756 67.2468 27.1508 67.1771 27.7379 67.0376C28.325 66.8982 28.9342 66.6927 29.5653 66.4212V68.0284C28.9562 68.3 28.3507 68.4981 27.7489 68.6229C27.1545 68.7476 26.4499 68.81 25.6353 68.81C24.4757 68.81 23.4629 68.5752 22.5969 68.1055C21.7383 67.6284 21.0704 66.9312 20.5934 66.0138C20.1164 65.0965 19.8778 63.9736 19.8778 62.6452C19.8778 61.3462 20.0943 60.2234 20.5273 59.2766C20.9677 58.3226 21.5842 57.5887 22.3768 57.0749C23.1767 56.5612 24.1161 56.3043 25.195 56.3043ZM25.1729 57.8015C24.1969 57.8015 23.4189 58.1207 22.8391 58.7592C22.2594 59.3977 21.9144 60.2894 21.8043 61.4343H28.1893C28.1819 60.7151 28.0682 60.0839 27.848 59.5408C27.6352 58.9904 27.3086 58.5647 26.8683 58.2638C26.4279 57.9556 25.8628 57.8015 25.1729 57.8015ZM37.7227 56.3263C39.1611 56.3263 40.2289 56.6493 40.9261 57.2951C41.6233 57.9409 41.9719 58.9721 41.9719 60.3885V68.5898H40.6399L40.2876 66.8065H40.1996C39.862 67.2468 39.5097 67.6174 39.1428 67.9183C38.7758 68.2119 38.3501 68.4357 37.8658 68.5898C37.3887 68.7366 36.8016 68.81 36.1044 68.81C35.3705 68.81 34.7173 68.6816 34.1449 68.4247C33.5798 68.1679 33.1321 67.7789 32.8018 67.2578C32.4789 66.7367 32.3175 66.0762 32.3175 65.2763C32.3175 64.0727 32.7945 63.148 33.7486 62.5021C34.7027 61.8563 36.1558 61.504 38.108 61.4453L40.1886 61.3572V60.6197C40.1886 59.5775 39.9647 58.8473 39.517 58.429C39.0694 58.0107 38.4382 57.8015 37.6236 57.8015C36.9924 57.8015 36.3906 57.8932 35.8182 58.0767C35.2457 58.2602 34.7027 58.4767 34.1889 58.7262L33.6275 57.3391C34.1706 57.0603 34.7944 56.8217 35.4989 56.6236C36.2035 56.4254 36.9447 56.3263 37.7227 56.3263ZM40.1665 62.6452L38.3281 62.7223C36.8236 62.781 35.7631 63.0269 35.1467 63.4599C34.5302 63.8929 34.2219 64.5057 34.2219 65.2983C34.2219 65.9882 34.4311 66.4982 34.8494 66.8285C35.2678 67.1587 35.8218 67.3239 36.5117 67.3239C37.5832 67.3239 38.4602 67.0266 39.1428 66.4322C39.8253 65.8377 40.1665 64.946 40.1665 63.7571V62.6452ZM47.5753 68.5898H45.7369V51.4606H47.5753V68.5898ZM55.3363 67.3129C55.6372 67.3129 55.9454 67.2872 56.261 67.2358C56.5766 67.1844 56.8335 67.122 57.0316 67.0487V68.4688C56.8188 68.5642 56.5215 68.6449 56.1399 68.7109C55.7656 68.777 55.3987 68.81 55.0391 68.81C54.4006 68.81 53.8208 68.6999 53.2997 68.4798C52.7786 68.2522 52.3603 67.8706 52.0447 67.3349C51.7365 66.7991 51.5824 66.0579 51.5824 65.1112V57.9556H49.8651V57.0639L51.5934 56.3484L52.32 53.7283H53.4208V56.5245H56.9545V57.9556H53.4208V65.0561C53.4208 65.812 53.5933 66.3771 53.9382 66.7514C54.2905 67.1257 54.7565 67.3129 55.3363 67.3129ZM61.3029 51.4606V56.5795C61.3029 56.8731 61.2956 57.1703 61.2809 57.4712C61.2662 57.7648 61.2405 58.0363 61.2038 58.2859H61.3249C61.5745 57.8602 61.89 57.5043 62.2717 57.218C62.6606 56.9245 63.101 56.7043 63.5927 56.5575C64.0844 56.4034 64.6055 56.3263 65.1559 56.3263C66.1246 56.3263 66.9319 56.4805 67.5778 56.7887C68.2309 57.0969 68.719 57.574 69.0419 58.2198C69.3722 58.8656 69.5373 59.7023 69.5373 60.7298V68.5898H67.7319V60.8509C67.7319 59.8454 67.5007 59.0932 67.0383 58.5941C66.5833 58.0951 65.8825 57.8455 64.9357 57.8455C64.0404 57.8455 63.3248 58.018 62.7891 58.3629C62.2607 58.7005 61.879 59.1996 61.6442 59.8601C61.4167 60.5206 61.3029 61.3279 61.3029 62.282V68.5898H59.4755V51.4606H61.3029ZM83.9915 68.81C82.9053 68.81 81.9476 68.5862 81.1182 68.1385C80.2889 67.6908 79.6431 67.0083 79.1807 66.0909C78.7184 65.1735 78.4872 64.0176 78.4872 62.6232C78.4872 61.1628 78.7294 59.9702 79.2138 59.0455C79.7055 58.1134 80.3807 57.4235 81.2393 56.9759C82.098 56.5282 83.0741 56.3043 84.1676 56.3043C84.7694 56.3043 85.3492 56.3667 85.907 56.4915C86.4721 56.6089 86.9344 56.7594 87.294 56.9428L86.7436 58.473C86.3767 58.3262 85.951 58.1941 85.4666 58.0767C84.9896 57.9593 84.5419 57.9006 84.1236 57.9006C83.2869 57.9006 82.5897 58.0804 82.032 58.44C81.4815 58.7996 81.0669 59.328 80.788 60.0252C80.5164 60.7224 80.3807 61.5811 80.3807 62.6012C80.3807 63.5773 80.5128 64.4103 80.777 65.1001C81.0485 65.79 81.4485 66.3184 81.9769 66.6854C82.5127 67.045 83.1805 67.2248 83.9805 67.2248C84.619 67.2248 85.1951 67.1587 85.7088 67.0266C86.2225 66.8872 86.6886 66.7257 87.1069 66.5423V68.1715C86.7032 68.377 86.2519 68.5348 85.7528 68.6449C85.2611 68.755 84.674 68.81 83.9915 68.81ZM100.372 62.5352C100.372 63.5259 100.244 64.4103 99.9869 65.1882C99.73 65.9661 99.3594 66.623 98.875 67.1587C98.3906 67.6945 97.8035 68.1055 97.1136 68.3917C96.4311 68.6706 95.6568 68.81 94.7908 68.81C93.9835 68.81 93.2423 68.6706 92.5671 68.3917C91.8993 68.1055 91.3195 67.6945 90.8278 67.1587C90.3434 66.623 89.9654 65.9661 89.6939 65.1882C89.4297 64.4103 89.2976 63.5259 89.2976 62.5352C89.2976 61.2141 89.5214 60.0913 89.9691 59.1665C90.4168 58.2345 91.0553 57.5263 91.8846 57.0419C92.7212 56.5502 93.7157 56.3043 94.8679 56.3043C95.9687 56.3043 96.9302 56.5502 97.7521 57.0419C98.5814 57.5336 99.2236 58.2455 99.6786 59.1776C100.141 60.1023 100.372 61.2215 100.372 62.5352ZM91.191 62.5352C91.191 63.5039 91.3195 64.3442 91.5763 65.0561C91.8332 65.768 92.2295 66.3184 92.7653 66.7074C93.301 67.0964 93.9909 67.2908 94.8349 67.2908C95.6715 67.2908 96.3577 67.0964 96.8935 66.7074C97.4365 66.3184 97.8365 65.768 98.0934 65.0561C98.3503 64.3442 98.4787 63.5039 98.4787 62.5352C98.4787 61.5737 98.3503 60.7444 98.0934 60.0472C97.8365 59.3427 97.4402 58.7996 96.9045 58.418C96.3687 58.0363 95.6752 57.8455 94.8239 57.8455C93.5689 57.8455 92.6478 58.2602 92.0607 59.0895C91.4809 59.9188 91.191 61.0674 91.191 62.5352ZM109.245 56.3043C110.676 56.3043 111.759 56.6566 112.493 57.3612C113.226 58.0584 113.593 59.1812 113.593 60.7298V68.5898H111.788V60.8509C111.788 59.8454 111.557 59.0932 111.094 58.5941C110.639 58.0951 109.939 57.8455 108.992 57.8455C107.656 57.8455 106.717 58.2235 106.174 58.9794C105.631 59.7353 105.359 60.8325 105.359 62.271V68.5898H103.532V56.5245H105.007L105.282 58.2638H105.381C105.638 57.8382 105.964 57.4822 106.361 57.196C106.757 56.9025 107.201 56.6823 107.693 56.5355C108.185 56.3814 108.702 56.3043 109.245 56.3043ZM125.163 65.2873C125.163 66.0579 124.969 66.7074 124.58 67.2358C124.198 67.7569 123.648 68.1495 122.929 68.4137C122.217 68.6779 121.365 68.81 120.375 68.81C119.531 68.81 118.8 68.744 118.184 68.6119C117.567 68.4798 117.028 68.2926 116.566 68.0504V66.3661C117.057 66.6083 117.645 66.8285 118.327 67.0266C119.01 67.2248 119.707 67.3239 120.419 67.3239C121.461 67.3239 122.217 67.1551 122.686 66.8175C123.156 66.4799 123.391 66.0212 123.391 65.4414C123.391 65.1112 123.296 64.8213 123.105 64.5717C122.921 64.3149 122.609 64.069 122.169 63.8342C121.729 63.592 121.12 63.3278 120.342 63.0415C119.571 62.748 118.903 62.4581 118.338 62.1719C117.78 61.8783 117.347 61.5224 117.039 61.104C116.738 60.6857 116.588 60.1426 116.588 59.4748C116.588 58.4547 116.999 57.6731 117.821 57.13C118.65 56.5795 119.736 56.3043 121.079 56.3043C121.806 56.3043 122.485 56.3777 123.116 56.5245C123.754 56.6639 124.349 56.8548 124.899 57.0969L124.283 58.5611C123.784 58.3482 123.252 58.1684 122.686 58.0217C122.121 57.8749 121.545 57.8015 120.958 57.8015C120.114 57.8015 119.465 57.9409 119.01 58.2198C118.562 58.4987 118.338 58.8803 118.338 59.3647C118.338 59.739 118.441 60.0472 118.646 60.2894C118.859 60.5316 119.197 60.7591 119.659 60.9719C120.121 61.1848 120.731 61.4343 121.487 61.7205C122.242 61.9994 122.896 62.2893 123.446 62.5902C123.996 62.8838 124.418 63.2434 124.712 63.669C125.013 64.0874 125.163 64.6268 125.163 65.2873ZM138.065 56.5245V68.5898H136.568L136.304 66.8945H136.205C135.955 67.3129 135.632 67.6651 135.236 67.9513C134.84 68.2376 134.392 68.4504 133.893 68.5898C133.401 68.7366 132.877 68.81 132.319 68.81C131.365 68.81 130.565 68.6559 129.919 68.3477C129.273 68.0394 128.785 67.5624 128.455 66.9165C128.132 66.2707 127.971 65.4414 127.971 64.4286V56.5245H129.82V64.2965C129.82 65.302 130.047 66.0542 130.502 66.5533C130.958 67.045 131.651 67.2908 132.583 67.2908C133.478 67.2908 134.19 67.122 134.719 66.7844C135.254 66.4469 135.64 65.9515 135.875 65.2983C136.109 64.6378 136.227 63.8305 136.227 62.8764V56.5245H138.065ZM143.768 68.5898H141.929V51.4606H143.768V68.5898ZM151.529 67.3129C151.83 67.3129 152.138 67.2872 152.453 67.2358C152.769 67.1844 153.026 67.122 153.224 67.0487V68.4688C153.011 68.5642 152.714 68.6449 152.332 68.7109C151.958 68.777 151.591 68.81 151.232 68.81C150.593 68.81 150.013 68.6999 149.492 68.4798C148.971 68.2522 148.553 67.8706 148.237 67.3349C147.929 66.7991 147.775 66.0579 147.775 65.1112V57.9556H146.058V57.0639L147.786 56.3484L148.512 53.7283H149.613V56.5245H153.147V57.9556H149.613V65.0561C149.613 65.812 149.786 66.3771 150.131 66.7514C150.483 67.1257 150.949 67.3129 151.529 67.3129ZM160.181 56.3263C161.62 56.3263 162.688 56.6493 163.385 57.2951C164.082 57.9409 164.431 58.9721 164.431 60.3885V68.5898H163.099L162.746 66.8065H162.658C162.321 67.2468 161.969 67.6174 161.602 67.9183C161.235 68.2119 160.809 68.4357 160.325 68.5898C159.848 68.7366 159.26 68.81 158.563 68.81C157.829 68.81 157.176 68.6816 156.604 68.4247C156.039 68.1679 155.591 67.7789 155.261 67.2578C154.938 66.7367 154.776 66.0762 154.776 65.2763C154.776 64.0727 155.253 63.148 156.207 62.5021C157.161 61.8563 158.615 61.504 160.567 61.4453L162.647 61.3572V60.6197C162.647 59.5775 162.424 58.8473 161.976 58.429C161.528 58.0107 160.897 57.8015 160.082 57.8015C159.451 57.8015 158.849 57.8932 158.277 58.0767C157.705 58.2602 157.161 58.4767 156.648 58.7262L156.086 57.3391C156.629 57.0603 157.253 56.8217 157.958 56.6236C158.662 56.4254 159.404 56.3263 160.181 56.3263ZM162.625 62.6452L160.787 62.7223C159.282 62.781 158.222 63.0269 157.605 63.4599C156.989 63.8929 156.681 64.5057 156.681 65.2983C156.681 65.9882 156.89 66.4982 157.308 66.8285C157.727 67.1587 158.281 67.3239 158.971 67.3239C160.042 67.3239 160.919 67.0266 161.602 66.4322C162.284 65.8377 162.625 64.946 162.625 63.7571V62.6452ZM172.093 67.3129C172.394 67.3129 172.702 67.2872 173.017 67.2358C173.333 67.1844 173.59 67.122 173.788 67.0487V68.4688C173.575 68.5642 173.278 68.6449 172.896 68.7109C172.522 68.777 172.155 68.81 171.795 68.81C171.157 68.81 170.577 68.6999 170.056 68.4798C169.535 68.2522 169.117 67.8706 168.801 67.3349C168.493 66.7991 168.339 66.0579 168.339 65.1112V57.9556H166.621V57.0639L168.35 56.3484L169.076 53.7283H170.177V56.5245H173.711V57.9556H170.177V65.0561C170.177 65.812 170.35 66.3771 170.695 66.7514C171.047 67.1257 171.513 67.3129 172.093 67.3129ZM178.059 56.5245V68.5898H176.232V56.5245H178.059ZM177.168 52.011C177.469 52.011 177.725 52.1101 177.938 52.3082C178.158 52.4991 178.268 52.8 178.268 53.2109C178.268 53.6146 178.158 53.9155 177.938 54.1136C177.725 54.3118 177.469 54.4109 177.168 54.4109C176.852 54.4109 176.588 54.3118 176.375 54.1136C176.169 53.9155 176.067 53.6146 176.067 53.2109C176.067 52.8 176.169 52.4991 176.375 52.3082C176.588 52.1101 176.852 52.011 177.168 52.011ZM192.337 62.5352C192.337 63.5259 192.209 64.4103 191.952 65.1882C191.695 65.9661 191.325 66.623 190.84 67.1587C190.356 67.6945 189.769 68.1055 189.079 68.3917C188.396 68.6706 187.622 68.81 186.756 68.81C185.949 68.81 185.208 68.6706 184.532 68.3917C183.864 68.1055 183.285 67.6945 182.793 67.1587C182.309 66.623 181.931 65.9661 181.659 65.1882C181.395 64.4103 181.263 63.5259 181.263 62.5352C181.263 61.2141 181.487 60.0913 181.934 59.1665C182.382 58.2345 183.02 57.5263 183.85 57.0419C184.686 56.5502 185.681 56.3043 186.833 56.3043C187.934 56.3043 188.895 56.5502 189.717 57.0419C190.547 57.5336 191.189 58.2455 191.644 59.1776C192.106 60.1023 192.337 61.2215 192.337 62.5352ZM183.156 62.5352C183.156 63.5039 183.285 64.3442 183.542 65.0561C183.798 65.768 184.195 66.3184 184.73 66.7074C185.266 67.0964 185.956 67.2908 186.8 67.2908C187.637 67.2908 188.323 67.0964 188.859 66.7074C189.402 66.3184 189.802 65.768 190.059 65.0561C190.315 64.3442 190.444 63.5039 190.444 62.5352C190.444 61.5737 190.315 60.7444 190.059 60.0472C189.802 59.3427 189.405 58.7996 188.87 58.418C188.334 58.0363 187.64 57.8455 186.789 57.8455C185.534 57.8455 184.613 58.2602 184.026 59.0895C183.446 59.9188 183.156 61.0674 183.156 62.5352ZM201.21 56.3043C202.641 56.3043 203.724 56.6566 204.458 57.3612C205.192 58.0584 205.559 59.1812 205.559 60.7298V68.5898H203.753V60.8509C203.753 59.8454 203.522 59.0932 203.06 58.5941C202.605 58.0951 201.904 57.8455 200.957 57.8455C199.621 57.8455 198.682 58.2235 198.139 58.9794C197.596 59.7353 197.324 60.8325 197.324 62.271V68.5898H195.497V56.5245H196.972L197.247 58.2638H197.346C197.603 57.8382 197.93 57.4822 198.326 57.196C198.722 56.9025 199.166 56.6823 199.658 56.5355C200.15 56.3814 200.667 56.3043 201.21 56.3043ZM217.129 65.2873C217.129 66.0579 216.934 66.7074 216.545 67.2358C216.163 67.7569 215.613 68.1495 214.894 68.4137C214.182 68.6779 213.331 68.81 212.34 68.81C211.496 68.81 210.766 68.744 210.149 68.6119C209.533 68.4798 208.993 68.2926 208.531 68.0504V66.3661C209.023 66.6083 209.61 66.8285 210.292 67.0266C210.975 67.2248 211.672 67.3239 212.384 67.3239C213.426 67.3239 214.182 67.1551 214.652 66.8175C215.121 66.4799 215.356 66.0212 215.356 65.4414C215.356 65.1112 215.261 64.8213 215.07 64.5717C214.886 64.3149 214.575 64.069 214.134 63.8342C213.694 63.592 213.085 63.3278 212.307 63.0415C211.536 62.748 210.868 62.4581 210.303 62.1719C209.746 61.8783 209.313 61.5224 209.004 61.104C208.703 60.6857 208.553 60.1426 208.553 59.4748C208.553 58.4547 208.964 57.6731 209.786 57.13C210.615 56.5795 211.701 56.3043 213.044 56.3043C213.771 56.3043 214.45 56.3777 215.081 56.5245C215.719 56.6639 216.314 56.8548 216.864 57.0969L216.248 58.5611C215.749 58.3482 215.217 58.1684 214.652 58.0217C214.087 57.8749 213.51 57.8015 212.923 57.8015C212.079 57.8015 211.43 57.9409 210.975 58.2198C210.527 58.4987 210.303 58.8803 210.303 59.3647C210.303 59.739 210.406 60.0472 210.612 60.2894C210.824 60.5316 211.162 60.7591 211.624 60.9719C212.087 61.1848 212.696 61.4343 213.452 61.7205C214.208 61.9994 214.861 62.2893 215.411 62.5902C215.962 62.8838 216.384 63.2434 216.677 63.669C216.978 64.0874 217.129 64.6268 217.129 65.2873Z" fill="black"/>
<rect x="240.731" y="40.0898" width="147" height="40" fill="#FEF0A9"/>
</svg>
