<svg width="575" height="583" viewBox="0 0 575 583" fill="none" xmlns="http://www.w3.org/2000/svg">
<path d="M287.252 225.97V1C384.712 1 471.087 63.7576 501.204 156.45L287.252 225.97Z" fill="#FFC0CB" stroke="white"/>
<path d="M287.252 225.97L501.204 156.45C539.597 274.616 474.932 401.534 356.77 439.928C238.607 478.323 111.694 413.655 73.301 295.489L287.252 225.97Z" fill="#61B3FF" stroke="white"/>
<path d="M287.252 225.97L73.3007 295.489C43.1841 202.797 76.1765 101.253 155.023 43.9655L287.252 225.97Z" fill="#E0ECFF" stroke="white"/>
<path d="M287.252 225.97L155.023 43.9654C193.457 16.0403 239.745 1 287.252 1V225.97Z" fill="#FEF0A9" stroke="white"/>
<path d="M360.822 135H345.853V132.828L351.962 126.625C353.098 125.479 354.051 124.458 354.822 123.562C355.603 122.667 356.197 121.786 356.603 120.922C357.009 120.047 357.212 119.089 357.212 118.047C357.212 116.755 356.827 115.771 356.056 115.094C355.296 114.406 354.291 114.062 353.041 114.062C351.947 114.062 350.978 114.25 350.134 114.625C349.291 115 348.426 115.531 347.541 116.219L346.15 114.469C346.754 113.958 347.41 113.505 348.119 113.109C348.837 112.714 349.603 112.401 350.416 112.172C351.238 111.943 352.113 111.828 353.041 111.828C354.447 111.828 355.66 112.073 356.681 112.562C357.702 113.052 358.488 113.75 359.041 114.656C359.603 115.562 359.884 116.641 359.884 117.891C359.884 119.099 359.645 120.224 359.166 121.266C358.686 122.297 358.014 123.323 357.15 124.344C356.285 125.354 355.275 126.427 354.119 127.562L349.15 132.516V132.625H360.822V135ZM379.259 123.547C379.259 125.401 379.119 127.057 378.837 128.516C378.556 129.974 378.113 131.208 377.509 132.219C376.905 133.229 376.124 134 375.166 134.531C374.207 135.052 373.056 135.312 371.712 135.312C370.014 135.312 368.608 134.849 367.494 133.922C366.389 132.995 365.561 131.656 365.009 129.906C364.468 128.146 364.197 126.026 364.197 123.547C364.197 121.109 364.442 119.016 364.931 117.266C365.431 115.505 366.233 114.156 367.337 113.219C368.442 112.271 369.9 111.797 371.712 111.797C373.431 111.797 374.848 112.266 375.962 113.203C377.077 114.13 377.905 115.474 378.447 117.234C378.988 118.984 379.259 121.089 379.259 123.547ZM366.806 123.547C366.806 125.672 366.968 127.443 367.291 128.859C367.613 130.276 368.134 131.339 368.853 132.047C369.582 132.745 370.535 133.094 371.712 133.094C372.889 133.094 373.837 132.745 374.556 132.047C375.285 131.349 375.811 130.292 376.134 128.875C376.468 127.458 376.634 125.682 376.634 123.547C376.634 121.453 376.473 119.703 376.15 118.297C375.827 116.88 375.306 115.818 374.587 115.109C373.869 114.391 372.91 114.031 371.712 114.031C370.514 114.031 369.556 114.391 368.837 115.109C368.119 115.818 367.598 116.88 367.275 118.297C366.962 119.703 366.806 121.453 366.806 123.547ZM387.134 111.828C388.697 111.828 389.879 112.453 390.681 113.703C391.494 114.943 391.9 116.698 391.9 118.969C391.9 121.24 391.509 123.01 390.728 124.281C389.947 125.542 388.749 126.172 387.134 126.172C385.634 126.172 384.483 125.542 383.681 124.281C382.889 123.01 382.494 121.24 382.494 118.969C382.494 116.698 382.874 114.943 383.634 113.703C384.395 112.453 385.561 111.828 387.134 111.828ZM387.134 113.688C386.291 113.688 385.671 114.13 385.275 115.016C384.879 115.891 384.681 117.208 384.681 118.969C384.681 120.729 384.879 122.057 385.275 122.953C385.671 123.849 386.291 124.297 387.134 124.297C388.009 124.297 388.66 123.849 389.087 122.953C389.514 122.057 389.728 120.729 389.728 118.969C389.728 117.219 389.514 115.901 389.087 115.016C388.671 114.13 388.02 113.688 387.134 113.688ZM401.603 112.156L388.931 135H386.65L399.322 112.156H401.603ZM400.994 120.984C402.546 120.984 403.728 121.609 404.541 122.859C405.353 124.099 405.759 125.854 405.759 128.125C405.759 130.385 405.369 132.151 404.587 133.422C403.806 134.682 402.608 135.312 400.994 135.312C399.483 135.312 398.332 134.682 397.541 133.422C396.749 132.151 396.353 130.385 396.353 128.125C396.353 125.854 396.728 124.099 397.478 122.859C398.238 121.609 399.41 120.984 400.994 120.984ZM400.994 122.859C400.15 122.859 399.53 123.297 399.134 124.172C398.738 125.047 398.541 126.365 398.541 128.125C398.541 129.885 398.738 131.214 399.134 132.109C399.53 132.995 400.15 133.438 400.994 133.438C401.869 133.438 402.52 133 402.947 132.125C403.374 131.24 403.587 129.906 403.587 128.125C403.587 126.375 403.374 125.062 402.947 124.188C402.53 123.302 401.879 122.859 400.994 122.859Z" fill="white"/>
<path d="M158.822 194H143.853V191.828L149.962 185.625C151.098 184.479 152.051 183.458 152.822 182.562C153.603 181.667 154.197 180.786 154.603 179.922C155.009 179.047 155.212 178.089 155.212 177.047C155.212 175.755 154.827 174.771 154.056 174.094C153.296 173.406 152.291 173.062 151.041 173.062C149.947 173.062 148.978 173.25 148.134 173.625C147.291 174 146.426 174.531 145.541 175.219L144.15 173.469C144.754 172.958 145.41 172.505 146.119 172.109C146.837 171.714 147.603 171.401 148.416 171.172C149.238 170.943 150.113 170.828 151.041 170.828C152.447 170.828 153.66 171.073 154.681 171.562C155.702 172.052 156.488 172.75 157.041 173.656C157.603 174.562 157.884 175.641 157.884 176.891C157.884 178.099 157.645 179.224 157.166 180.266C156.686 181.297 156.014 182.323 155.15 183.344C154.285 184.354 153.275 185.427 152.119 186.562L147.15 191.516V191.625H158.822V194ZM177.259 182.547C177.259 184.401 177.119 186.057 176.837 187.516C176.556 188.974 176.113 190.208 175.509 191.219C174.905 192.229 174.124 193 173.166 193.531C172.207 194.052 171.056 194.312 169.712 194.312C168.014 194.312 166.608 193.849 165.494 192.922C164.389 191.995 163.561 190.656 163.009 188.906C162.468 187.146 162.197 185.026 162.197 182.547C162.197 180.109 162.442 178.016 162.931 176.266C163.431 174.505 164.233 173.156 165.337 172.219C166.442 171.271 167.9 170.797 169.712 170.797C171.431 170.797 172.848 171.266 173.962 172.203C175.077 173.13 175.905 174.474 176.447 176.234C176.988 177.984 177.259 180.089 177.259 182.547ZM164.806 182.547C164.806 184.672 164.968 186.443 165.291 187.859C165.613 189.276 166.134 190.339 166.853 191.047C167.582 191.745 168.535 192.094 169.712 192.094C170.889 192.094 171.837 191.745 172.556 191.047C173.285 190.349 173.811 189.292 174.134 187.875C174.468 186.458 174.634 184.682 174.634 182.547C174.634 180.453 174.473 178.703 174.15 177.297C173.827 175.88 173.306 174.818 172.587 174.109C171.869 173.391 170.91 173.031 169.712 173.031C168.514 173.031 167.556 173.391 166.837 174.109C166.119 174.818 165.598 175.88 165.275 177.297C164.962 178.703 164.806 180.453 164.806 182.547ZM185.134 170.828C186.697 170.828 187.879 171.453 188.681 172.703C189.494 173.943 189.9 175.698 189.9 177.969C189.9 180.24 189.509 182.01 188.728 183.281C187.947 184.542 186.749 185.172 185.134 185.172C183.634 185.172 182.483 184.542 181.681 183.281C180.889 182.01 180.494 180.24 180.494 177.969C180.494 175.698 180.874 173.943 181.634 172.703C182.395 171.453 183.561 170.828 185.134 170.828ZM185.134 172.688C184.291 172.688 183.671 173.13 183.275 174.016C182.879 174.891 182.681 176.208 182.681 177.969C182.681 179.729 182.879 181.057 183.275 181.953C183.671 182.849 184.291 183.297 185.134 183.297C186.009 183.297 186.66 182.849 187.087 181.953C187.514 181.057 187.728 179.729 187.728 177.969C187.728 176.219 187.514 174.901 187.087 174.016C186.671 173.13 186.02 172.688 185.134 172.688ZM199.603 171.156L186.931 194H184.65L197.322 171.156H199.603ZM198.994 179.984C200.546 179.984 201.728 180.609 202.541 181.859C203.353 183.099 203.759 184.854 203.759 187.125C203.759 189.385 203.369 191.151 202.587 192.422C201.806 193.682 200.608 194.312 198.994 194.312C197.483 194.312 196.332 193.682 195.541 192.422C194.749 191.151 194.353 189.385 194.353 187.125C194.353 184.854 194.728 183.099 195.478 181.859C196.238 180.609 197.41 179.984 198.994 179.984ZM198.994 181.859C198.15 181.859 197.53 182.297 197.134 183.172C196.738 184.047 196.541 185.365 196.541 187.125C196.541 188.885 196.738 190.214 197.134 191.109C197.53 191.995 198.15 192.438 198.994 192.438C199.869 192.438 200.52 192 200.947 191.125C201.374 190.24 201.587 188.906 201.587 187.125C201.587 185.375 201.374 184.062 200.947 183.188C200.53 182.302 199.879 181.859 198.994 181.859Z" fill="#2395FF"/>
<path d="M224.509 101H221.978V84.8125C221.978 84.1979 221.978 83.6719 221.978 83.2344C221.988 82.7865 221.999 82.3802 222.009 82.0156C222.03 81.6406 222.056 81.2604 222.087 80.875C221.764 81.2083 221.462 81.4948 221.181 81.7344C220.9 81.9635 220.551 82.25 220.134 82.5938L217.525 84.6875L216.166 82.9219L222.353 78.1562H224.509V101ZM248.259 89.5469C248.259 91.401 248.119 93.0573 247.837 94.5156C247.556 95.974 247.113 97.2083 246.509 98.2188C245.905 99.2292 245.124 100 244.166 100.531C243.207 101.052 242.056 101.312 240.712 101.312C239.014 101.312 237.608 100.849 236.494 99.9219C235.389 98.9948 234.561 97.6562 234.009 95.9062C233.468 94.1458 233.197 92.026 233.197 89.5469C233.197 87.1094 233.442 85.0156 233.931 83.2656C234.431 81.5052 235.233 80.1562 236.337 79.2188C237.442 78.2708 238.9 77.7969 240.712 77.7969C242.431 77.7969 243.848 78.2656 244.962 79.2031C246.077 80.1302 246.905 81.474 247.447 83.2344C247.988 84.9844 248.259 87.0885 248.259 89.5469ZM235.806 89.5469C235.806 91.6719 235.968 93.4427 236.291 94.8594C236.613 96.276 237.134 97.3385 237.853 98.0469C238.582 98.7448 239.535 99.0938 240.712 99.0938C241.889 99.0938 242.837 98.7448 243.556 98.0469C244.285 97.349 244.811 96.2917 245.134 94.875C245.468 93.4583 245.634 91.6823 245.634 89.5469C245.634 87.4531 245.473 85.7031 245.15 84.2969C244.827 82.8802 244.306 81.8177 243.587 81.1094C242.869 80.3906 241.91 80.0312 240.712 80.0312C239.514 80.0312 238.556 80.3906 237.837 81.1094C237.119 81.8177 236.598 82.8802 236.275 84.2969C235.962 85.7031 235.806 87.4531 235.806 89.5469ZM256.134 77.8281C257.697 77.8281 258.879 78.4531 259.681 79.7031C260.494 80.9427 260.9 82.6979 260.9 84.9688C260.9 87.2396 260.509 89.0104 259.728 90.2812C258.947 91.5417 257.749 92.1719 256.134 92.1719C254.634 92.1719 253.483 91.5417 252.681 90.2812C251.889 89.0104 251.494 87.2396 251.494 84.9688C251.494 82.6979 251.874 80.9427 252.634 79.7031C253.395 78.4531 254.561 77.8281 256.134 77.8281ZM256.134 79.6875C255.291 79.6875 254.671 80.1302 254.275 81.0156C253.879 81.8906 253.681 83.2083 253.681 84.9688C253.681 86.7292 253.879 88.0573 254.275 88.9531C254.671 89.849 255.291 90.2969 256.134 90.2969C257.009 90.2969 257.66 89.849 258.087 88.9531C258.514 88.0573 258.728 86.7292 258.728 84.9688C258.728 83.2188 258.514 81.901 258.087 81.0156C257.671 80.1302 257.02 79.6875 256.134 79.6875ZM270.603 78.1562L257.931 101H255.65L268.322 78.1562H270.603ZM269.994 86.9844C271.546 86.9844 272.728 87.6094 273.541 88.8594C274.353 90.099 274.759 91.8542 274.759 94.125C274.759 96.3854 274.369 98.151 273.587 99.4219C272.806 100.682 271.608 101.312 269.994 101.312C268.483 101.312 267.332 100.682 266.541 99.4219C265.749 98.151 265.353 96.3854 265.353 94.125C265.353 91.8542 265.728 90.099 266.478 88.8594C267.238 87.6094 268.41 86.9844 269.994 86.9844ZM269.994 88.8594C269.15 88.8594 268.53 89.2969 268.134 90.1719C267.738 91.0469 267.541 92.3646 267.541 94.125C267.541 95.8854 267.738 97.2135 268.134 98.1094C268.53 98.9948 269.15 99.4375 269.994 99.4375C270.869 99.4375 271.52 99 271.947 98.125C272.374 97.2396 272.587 95.9062 272.587 94.125C272.587 92.375 272.374 91.0625 271.947 90.1875C271.53 89.3021 270.879 88.8594 269.994 88.8594Z" fill="#2395FF"/>
<path d="M308.072 324.031C309.624 324.031 310.973 324.297 312.119 324.828C313.265 325.349 314.15 326.109 314.775 327.109C315.41 328.109 315.728 329.323 315.728 330.75C315.728 332.312 315.39 333.661 314.713 334.797C314.035 335.922 313.061 336.792 311.791 337.406C310.52 338.01 308.999 338.312 307.228 338.312C306.041 338.312 304.936 338.208 303.916 338C302.895 337.792 302.035 337.479 301.338 337.062V334.594C302.098 335.052 303.02 335.417 304.103 335.688C305.186 335.958 306.239 336.094 307.259 336.094C308.416 336.094 309.426 335.911 310.291 335.547C311.166 335.172 311.843 334.609 312.322 333.859C312.811 333.099 313.056 332.146 313.056 331C313.056 329.479 312.588 328.307 311.65 327.484C310.723 326.651 309.254 326.234 307.244 326.234C306.598 326.234 305.89 326.286 305.119 326.391C304.348 326.495 303.713 326.609 303.213 326.734L301.9 325.875L302.775 315.156H314.134V317.531H304.994L304.416 324.422C304.811 324.339 305.322 324.255 305.947 324.172C306.572 324.078 307.28 324.031 308.072 324.031ZM334.259 326.547C334.259 328.401 334.119 330.057 333.838 331.516C333.556 332.974 333.114 334.208 332.509 335.219C331.905 336.229 331.124 337 330.166 337.531C329.207 338.052 328.056 338.312 326.713 338.312C325.015 338.312 323.608 337.849 322.494 336.922C321.39 335.995 320.561 334.656 320.009 332.906C319.468 331.146 319.197 329.026 319.197 326.547C319.197 324.109 319.442 322.016 319.931 320.266C320.431 318.505 321.233 317.156 322.338 316.219C323.442 315.271 324.9 314.797 326.713 314.797C328.431 314.797 329.848 315.266 330.963 316.203C332.077 317.13 332.905 318.474 333.447 320.234C333.989 321.984 334.259 324.089 334.259 326.547ZM321.806 326.547C321.806 328.672 321.968 330.443 322.291 331.859C322.614 333.276 323.134 334.339 323.853 335.047C324.582 335.745 325.535 336.094 326.713 336.094C327.89 336.094 328.838 335.745 329.556 335.047C330.285 334.349 330.811 333.292 331.134 331.875C331.468 330.458 331.634 328.682 331.634 326.547C331.634 324.453 331.473 322.703 331.15 321.297C330.827 319.88 330.306 318.818 329.588 318.109C328.869 317.391 327.91 317.031 326.713 317.031C325.515 317.031 324.556 317.391 323.838 318.109C323.119 318.818 322.598 319.88 322.275 321.297C321.963 322.703 321.806 324.453 321.806 326.547ZM342.134 314.828C343.697 314.828 344.879 315.453 345.681 316.703C346.494 317.943 346.9 319.698 346.9 321.969C346.9 324.24 346.509 326.01 345.728 327.281C344.947 328.542 343.749 329.172 342.134 329.172C340.634 329.172 339.483 328.542 338.681 327.281C337.89 326.01 337.494 324.24 337.494 321.969C337.494 319.698 337.874 317.943 338.634 316.703C339.395 315.453 340.561 314.828 342.134 314.828ZM342.134 316.688C341.291 316.688 340.671 317.13 340.275 318.016C339.879 318.891 339.681 320.208 339.681 321.969C339.681 323.729 339.879 325.057 340.275 325.953C340.671 326.849 341.291 327.297 342.134 327.297C343.009 327.297 343.66 326.849 344.088 325.953C344.515 325.057 344.728 323.729 344.728 321.969C344.728 320.219 344.515 318.901 344.088 318.016C343.671 317.13 343.02 316.688 342.134 316.688ZM356.603 315.156L343.931 338H341.65L354.322 315.156H356.603ZM355.994 323.984C357.546 323.984 358.728 324.609 359.541 325.859C360.353 327.099 360.759 328.854 360.759 331.125C360.759 333.385 360.369 335.151 359.588 336.422C358.806 337.682 357.608 338.312 355.994 338.312C354.483 338.312 353.332 337.682 352.541 336.422C351.749 335.151 351.353 333.385 351.353 331.125C351.353 328.854 351.728 327.099 352.478 325.859C353.239 324.609 354.41 323.984 355.994 323.984ZM355.994 325.859C355.15 325.859 354.53 326.297 354.134 327.172C353.739 328.047 353.541 329.365 353.541 331.125C353.541 332.885 353.739 334.214 354.134 335.109C354.53 335.995 355.15 336.438 355.994 336.438C356.869 336.438 357.52 336 357.947 335.125C358.374 334.24 358.588 332.906 358.588 331.125C358.588 329.375 358.374 328.062 357.947 327.188C357.53 326.302 356.879 325.859 355.994 325.859Z" fill="white"/>
<rect x="190.093" y="505.932" width="21.1364" height="21.1364" rx="3.52273" fill="#E0ECFF"/>
<path d="M224.825 508.906C226.146 508.906 227.236 509.071 228.095 509.401C228.961 509.724 229.606 510.219 230.032 510.887C230.458 511.555 230.67 512.406 230.67 513.441C230.67 514.292 230.516 515.004 230.208 515.577C229.9 516.142 229.496 516.6 228.997 516.953C228.498 517.305 227.966 517.577 227.401 517.767L231.815 525H229.636L225.695 518.285H222.348V525H220.477V508.906H224.825ZM224.715 510.524H222.348V516.7H224.902C226.216 516.7 227.181 516.432 227.797 515.896C228.421 515.36 228.733 514.571 228.733 513.529C228.733 512.436 228.403 511.661 227.742 511.206C227.089 510.751 226.08 510.524 224.715 510.524ZM238.63 512.737C240.068 512.737 241.136 513.059 241.833 513.705C242.53 514.351 242.879 515.382 242.879 516.799V525H241.547L241.195 523.217H241.107C240.769 523.657 240.417 524.028 240.05 524.328C239.683 524.622 239.257 524.846 238.773 525C238.296 525.147 237.709 525.22 237.011 525.22C236.278 525.22 235.624 525.092 235.052 524.835C234.487 524.578 234.039 524.189 233.709 523.668C233.386 523.147 233.224 522.486 233.224 521.686C233.224 520.483 233.702 519.558 234.656 518.912C235.61 518.266 237.063 517.914 239.015 517.855L241.096 517.767V517.03C241.096 515.988 240.872 515.257 240.424 514.839C239.976 514.421 239.345 514.212 238.531 514.212C237.899 514.212 237.298 514.303 236.725 514.487C236.153 514.67 235.61 514.887 235.096 515.136L234.534 513.749C235.078 513.47 235.701 513.232 236.406 513.034C237.11 512.836 237.852 512.737 238.63 512.737ZM241.074 519.055L239.235 519.132C237.731 519.191 236.67 519.437 236.054 519.87C235.437 520.303 235.129 520.916 235.129 521.708C235.129 522.398 235.338 522.908 235.756 523.239C236.175 523.569 236.729 523.734 237.419 523.734C238.49 523.734 239.367 523.437 240.05 522.842C240.732 522.248 241.074 521.356 241.074 520.167V519.055ZM252.126 512.714C252.368 512.714 252.621 512.729 252.886 512.759C253.15 512.781 253.385 512.814 253.59 512.858L253.359 514.553C253.161 514.502 252.941 514.461 252.699 514.432C252.456 514.402 252.229 514.388 252.016 514.388C251.532 514.388 251.073 514.487 250.64 514.685C250.214 514.876 249.84 515.155 249.517 515.522C249.194 515.881 248.941 516.318 248.758 516.832C248.574 517.338 248.482 517.903 248.482 518.527V525H246.644V512.935H248.163L248.361 515.158H248.438C248.688 514.711 248.989 514.303 249.341 513.936C249.693 513.562 250.101 513.265 250.563 513.045C251.033 512.825 251.554 512.714 252.126 512.714ZM260.515 512.714C261.542 512.714 262.423 512.942 263.157 513.397C263.891 513.852 264.452 514.491 264.841 515.313C265.23 516.127 265.424 517.081 265.424 518.175V519.309H257.091C257.113 520.725 257.465 521.804 258.148 522.545C258.83 523.286 259.792 523.657 261.032 523.657C261.795 523.657 262.47 523.587 263.058 523.448C263.645 523.308 264.254 523.103 264.885 522.831V524.439C264.276 524.71 263.67 524.908 263.069 525.033C262.474 525.158 261.77 525.22 260.955 525.22C259.795 525.22 258.783 524.985 257.917 524.516C257.058 524.039 256.39 523.341 255.913 522.424C255.436 521.507 255.197 520.384 255.197 519.055C255.197 517.756 255.414 516.634 255.847 515.687C256.287 514.733 256.904 513.999 257.696 513.485C258.496 512.971 259.436 512.714 260.515 512.714ZM260.493 514.212C259.516 514.212 258.739 514.531 258.159 515.169C257.579 515.808 257.234 516.7 257.124 517.844H263.509C263.502 517.125 263.388 516.494 263.168 515.951C262.955 515.401 262.628 514.975 262.188 514.674C261.748 514.366 261.182 514.212 260.493 514.212ZM270.367 525H268.529V507.871H270.367V525ZM272.327 512.935H274.286L276.95 519.936C277.104 520.347 277.248 520.743 277.38 521.125C277.512 521.499 277.629 521.859 277.732 522.204C277.835 522.549 277.915 522.883 277.974 523.206H278.051C278.154 522.839 278.301 522.358 278.492 521.763C278.682 521.162 278.888 520.549 279.108 519.925L281.629 512.935H283.599L278.348 526.772C278.07 527.514 277.743 528.159 277.369 528.71C277.002 529.26 276.554 529.682 276.026 529.976C275.497 530.277 274.859 530.427 274.11 530.427C273.765 530.427 273.461 530.405 273.196 530.361C272.932 530.324 272.705 530.28 272.514 530.229V528.765C272.675 528.802 272.87 528.835 273.097 528.864C273.332 528.893 273.574 528.908 273.824 528.908C274.279 528.908 274.672 528.82 275.002 528.644C275.339 528.475 275.629 528.225 275.871 527.895C276.114 527.565 276.323 527.172 276.499 526.717L277.159 525.022L272.327 512.935Z" fill="black"/>
<rect x="304.275" y="505.932" width="21.1364" height="21.1364" rx="3.52273" fill="#FEF0A9"/>
<path d="M347.439 516.799C347.439 518.611 347.109 520.127 346.448 521.345C345.788 522.556 344.83 523.47 343.575 524.086C342.328 524.695 340.812 525 339.029 525H334.658V508.906H339.513C341.15 508.906 342.559 509.206 343.74 509.808C344.922 510.403 345.832 511.287 346.471 512.461C347.116 513.628 347.439 515.074 347.439 516.799ZM345.469 516.865C345.469 515.419 345.227 514.226 344.742 513.287C344.265 512.348 343.561 511.65 342.629 511.195C341.704 510.733 340.57 510.502 339.227 510.502H336.53V523.393H338.809C341.025 523.393 342.687 522.846 343.795 521.752C344.911 520.659 345.469 519.03 345.469 516.865ZM355.255 512.737C356.694 512.737 357.762 513.059 358.459 513.705C359.156 514.351 359.505 515.382 359.505 516.799V525H358.173L357.82 523.217H357.732C357.395 523.657 357.042 524.028 356.675 524.328C356.308 524.622 355.883 524.846 355.398 525C354.921 525.147 354.334 525.22 353.637 525.22C352.903 525.22 352.25 525.092 351.678 524.835C351.112 524.578 350.665 524.189 350.335 523.668C350.012 523.147 349.85 522.486 349.85 521.686C349.85 520.483 350.327 519.558 351.281 518.912C352.235 518.266 353.688 517.914 355.641 517.855L357.721 517.767V517.03C357.721 515.988 357.497 515.257 357.05 514.839C356.602 514.421 355.971 514.212 355.156 514.212C354.525 514.212 353.923 514.303 353.351 514.487C352.778 514.67 352.235 514.887 351.722 515.136L351.16 513.749C351.703 513.47 352.327 513.232 353.032 513.034C353.736 512.836 354.477 512.737 355.255 512.737ZM357.699 519.055L355.861 519.132C354.356 519.191 353.296 519.437 352.679 519.87C352.063 520.303 351.755 520.916 351.755 521.708C351.755 522.398 351.964 522.908 352.382 523.239C352.8 523.569 353.355 523.734 354.044 523.734C355.116 523.734 355.993 523.437 356.675 522.842C357.358 522.248 357.699 521.356 357.699 520.167V519.055ZM365.097 512.935V525H363.27V512.935H365.097ZM364.205 508.421C364.506 508.421 364.763 508.52 364.976 508.718C365.196 508.909 365.306 509.21 365.306 509.621C365.306 510.025 365.196 510.326 364.976 510.524C364.763 510.722 364.506 510.821 364.205 510.821C363.89 510.821 363.625 510.722 363.413 510.524C363.207 510.326 363.104 510.025 363.104 509.621C363.104 509.21 363.207 508.909 363.413 508.718C363.625 508.52 363.89 508.421 364.205 508.421ZM370.81 525H368.972V507.871H370.81V525ZM372.77 512.935H374.729L377.393 519.936C377.548 520.347 377.691 520.743 377.823 521.125C377.955 521.499 378.072 521.859 378.175 522.204C378.278 522.549 378.359 522.883 378.417 523.206H378.494C378.597 522.839 378.744 522.358 378.935 521.763C379.125 521.162 379.331 520.549 379.551 519.925L382.072 512.935H384.043L378.792 526.772C378.513 527.514 378.186 528.159 377.812 528.71C377.445 529.26 376.997 529.682 376.469 529.976C375.94 530.277 375.302 530.427 374.553 530.427C374.208 530.427 373.904 530.405 373.64 530.361C373.375 530.324 373.148 530.28 372.957 530.229V528.765C373.118 528.802 373.313 528.835 373.54 528.864C373.775 528.893 374.018 528.908 374.267 528.908C374.722 528.908 375.115 528.82 375.445 528.644C375.783 528.475 376.072 528.225 376.315 527.895C376.557 527.565 376.766 527.172 376.942 526.717L377.603 525.022L372.77 512.935Z" fill="black"/>
<rect x="168.093" y="556.932" width="21.1364" height="21.1364" rx="3.52273" fill="#FFC0CB"/>
<path d="M216.762 559.906L212.457 576H210.575L207.383 565.168C207.287 564.859 207.195 564.551 207.107 564.243C207.027 563.927 206.949 563.63 206.876 563.351C206.803 563.065 206.74 562.815 206.689 562.603C206.645 562.382 206.612 562.217 206.59 562.107C206.575 562.217 206.546 562.379 206.502 562.592C206.465 562.804 206.414 563.05 206.348 563.329C206.289 563.608 206.216 563.905 206.128 564.221C206.047 564.536 205.959 564.856 205.863 565.179L202.759 576H200.876L196.605 559.906H198.554L201.141 570C201.229 570.338 201.309 570.672 201.383 571.002C201.464 571.325 201.533 571.641 201.592 571.949C201.658 572.257 201.717 572.558 201.768 572.852C201.82 573.145 201.867 573.431 201.911 573.71C201.948 573.424 201.996 573.127 202.054 572.819C202.113 572.503 202.175 572.184 202.242 571.861C202.315 571.538 202.392 571.211 202.473 570.881C202.561 570.551 202.653 570.221 202.748 569.89L205.643 559.906H207.57L210.586 569.967C210.689 570.312 210.784 570.654 210.872 570.991C210.96 571.329 211.037 571.659 211.103 571.982C211.177 572.297 211.239 572.602 211.291 572.896C211.349 573.182 211.401 573.453 211.445 573.71C211.496 573.351 211.558 572.973 211.632 572.576C211.705 572.18 211.79 571.765 211.885 571.332C211.988 570.899 212.098 570.452 212.215 569.989L214.802 559.906H216.762ZM223.675 563.714C224.703 563.714 225.583 563.942 226.317 564.397C227.051 564.852 227.612 565.491 228.001 566.313C228.39 567.127 228.585 568.081 228.585 569.175V570.309H220.251C220.273 571.725 220.626 572.804 221.308 573.545C221.991 574.286 222.952 574.657 224.193 574.657C224.956 574.657 225.631 574.587 226.218 574.448C226.805 574.308 227.414 574.103 228.045 573.831V575.439C227.436 575.71 226.831 575.908 226.229 576.033C225.635 576.158 224.93 576.22 224.115 576.22C222.956 576.22 221.943 575.985 221.077 575.516C220.218 575.039 219.551 574.341 219.074 573.424C218.597 572.507 218.358 571.384 218.358 570.055C218.358 568.756 218.574 567.634 219.008 566.687C219.448 565.733 220.064 564.999 220.857 564.485C221.657 563.971 222.596 563.714 223.675 563.714ZM223.653 565.212C222.677 565.212 221.899 565.531 221.319 566.169C220.74 566.808 220.395 567.7 220.284 568.844H226.669C226.662 568.125 226.548 567.494 226.328 566.951C226.115 566.401 225.789 565.975 225.348 565.674C224.908 565.366 224.343 565.212 223.653 565.212ZM236.335 563.714C237.362 563.714 238.243 563.942 238.977 564.397C239.711 564.852 240.272 565.491 240.661 566.313C241.05 567.127 241.245 568.081 241.245 569.175V570.309H232.911C232.933 571.725 233.286 572.804 233.968 573.545C234.651 574.286 235.612 574.657 236.852 574.657C237.616 574.657 238.291 574.587 238.878 574.448C239.465 574.308 240.074 574.103 240.705 573.831V575.439C240.096 575.71 239.491 575.908 238.889 576.033C238.294 576.158 237.59 576.22 236.775 576.22C235.616 576.22 234.603 575.985 233.737 575.516C232.878 575.039 232.21 574.341 231.733 573.424C231.256 572.507 231.018 571.384 231.018 570.055C231.018 568.756 231.234 567.634 231.667 566.687C232.108 565.733 232.724 564.999 233.517 564.485C234.317 563.971 235.256 563.714 236.335 563.714ZM236.313 565.212C235.337 565.212 234.559 565.531 233.979 566.169C233.399 566.808 233.054 567.7 232.944 568.844H239.329C239.322 568.125 239.208 567.494 238.988 566.951C238.775 566.401 238.449 565.975 238.008 565.674C237.568 565.366 237.003 565.212 236.313 565.212ZM246.166 558.871V567.766C246.166 568.059 246.155 568.419 246.133 568.844C246.11 569.263 246.092 569.633 246.077 569.956H246.155C246.309 569.766 246.532 569.483 246.826 569.109C247.127 568.734 247.38 568.433 247.586 568.206L251.593 563.935H253.739L248.885 569.087L254.092 576H251.89L247.63 570.287L246.166 571.63V576H244.349V558.871H246.166ZM258.033 576H256.194V558.871H258.033V576ZM259.992 563.935H261.952L264.616 570.936C264.77 571.347 264.913 571.743 265.045 572.125C265.177 572.499 265.295 572.859 265.397 573.204C265.5 573.549 265.581 573.883 265.64 574.206H265.717C265.819 573.839 265.966 573.358 266.157 572.763C266.348 572.162 266.553 571.549 266.773 570.925L269.294 563.935H271.265L266.014 577.772C265.735 578.514 265.408 579.159 265.034 579.71C264.667 580.26 264.22 580.682 263.691 580.976C263.163 581.277 262.524 581.427 261.776 581.427C261.431 581.427 261.126 581.405 260.862 581.361C260.598 581.324 260.37 581.28 260.179 581.229V579.765C260.341 579.802 260.535 579.835 260.763 579.864C260.998 579.893 261.24 579.908 261.489 579.908C261.944 579.908 262.337 579.82 262.667 579.644C263.005 579.475 263.295 579.225 263.537 578.895C263.779 578.565 263.988 578.172 264.164 577.717L264.825 576.022L259.992 563.935Z" fill="black"/>
<rect x="291.275" y="556.932" width="21.1364" height="21.1364" rx="3.52273" fill="#61B3FF"/>
<path d="M328.737 576L323.332 561.755H323.244C323.273 562.056 323.299 562.423 323.321 562.856C323.343 563.289 323.361 563.762 323.376 564.276C323.39 564.782 323.398 565.3 323.398 565.828V576H321.658V559.906H324.433L329.529 573.292H329.607L334.781 559.906H337.533V576H335.683V565.696C335.683 565.219 335.691 564.742 335.705 564.265C335.72 563.781 335.738 563.326 335.76 562.9C335.782 562.467 335.804 562.093 335.826 561.777H335.738L330.267 576H328.737ZM352.064 569.945C352.064 570.936 351.935 571.82 351.679 572.598C351.422 573.376 351.051 574.033 350.567 574.569C350.082 575.105 349.495 575.516 348.805 575.802C348.123 576.081 347.349 576.22 346.483 576.22C345.675 576.22 344.934 576.081 344.259 575.802C343.591 575.516 343.011 575.105 342.52 574.569C342.035 574.033 341.657 573.376 341.386 572.598C341.121 571.82 340.989 570.936 340.989 569.945C340.989 568.624 341.213 567.501 341.661 566.577C342.109 565.645 342.747 564.936 343.576 564.452C344.413 563.96 345.407 563.714 346.56 563.714C347.66 563.714 348.622 563.96 349.444 564.452C350.273 564.944 350.915 565.656 351.37 566.588C351.833 567.512 352.064 568.632 352.064 569.945ZM342.883 569.945C342.883 570.914 343.011 571.754 343.268 572.466C343.525 573.178 343.921 573.729 344.457 574.118C344.993 574.507 345.683 574.701 346.527 574.701C347.363 574.701 348.049 574.507 348.585 574.118C349.128 573.729 349.528 573.178 349.785 572.466C350.042 571.754 350.17 570.914 350.17 569.945C350.17 568.984 350.042 568.155 349.785 567.457C349.528 566.753 349.132 566.21 348.596 565.828C348.06 565.446 347.367 565.256 346.516 565.256C345.261 565.256 344.34 565.67 343.752 566.5C343.173 567.329 342.883 568.478 342.883 569.945ZM360.937 563.714C362.368 563.714 363.45 564.067 364.184 564.771C364.918 565.469 365.285 566.591 365.285 568.14V576H363.48V568.261C363.48 567.256 363.249 566.503 362.786 566.004C362.331 565.505 361.63 565.256 360.684 565.256C359.348 565.256 358.408 565.634 357.865 566.39C357.322 567.145 357.051 568.243 357.051 569.681V576H355.223V563.935H356.698L356.974 565.674H357.073C357.33 565.248 357.656 564.892 358.053 564.606C358.449 564.313 358.893 564.092 359.385 563.946C359.876 563.792 360.394 563.714 360.937 563.714ZM372.947 574.723C373.248 574.723 373.556 574.697 373.872 574.646C374.187 574.595 374.444 574.532 374.642 574.459V575.879C374.43 575.974 374.132 576.055 373.751 576.121C373.376 576.187 373.009 576.22 372.65 576.22C372.011 576.22 371.432 576.11 370.91 575.89C370.389 575.662 369.971 575.281 369.656 574.745C369.347 574.209 369.193 573.468 369.193 572.521V565.366H367.476V564.474L369.204 563.759L369.931 561.138H371.032V563.935H374.565V565.366H371.032V572.466C371.032 573.222 371.204 573.787 371.549 574.162C371.901 574.536 372.367 574.723 372.947 574.723ZM378.914 558.871V563.99C378.914 564.283 378.906 564.58 378.892 564.881C378.877 565.175 378.851 565.446 378.815 565.696H378.936C379.185 565.27 379.501 564.914 379.882 564.628C380.271 564.335 380.712 564.114 381.203 563.968C381.695 563.814 382.216 563.737 382.767 563.737C383.735 563.737 384.543 563.891 385.189 564.199C385.842 564.507 386.33 564.984 386.653 565.63C386.983 566.276 387.148 567.112 387.148 568.14V576H385.343V568.261C385.343 567.256 385.111 566.503 384.649 566.004C384.194 565.505 383.493 565.256 382.547 565.256C381.651 565.256 380.936 565.428 380.4 565.773C379.871 566.111 379.49 566.61 379.255 567.27C379.027 567.931 378.914 568.738 378.914 569.692V576H377.086V558.871H378.914ZM392.751 576H390.913V558.871H392.751V576ZM394.711 563.935H396.67L399.335 570.936C399.489 571.347 399.632 571.743 399.764 572.125C399.896 572.499 400.013 572.859 400.116 573.204C400.219 573.549 400.3 573.883 400.358 574.206H400.435C400.538 573.839 400.685 573.358 400.876 572.763C401.067 572.162 401.272 571.549 401.492 570.925L404.013 563.935H405.984L400.733 577.772C400.454 578.514 400.127 579.159 399.753 579.71C399.386 580.26 398.938 580.682 398.41 580.976C397.881 581.277 397.243 581.427 396.494 581.427C396.149 581.427 395.845 581.405 395.581 581.361C395.316 581.324 395.089 581.28 394.898 581.229V579.765C395.06 579.802 395.254 579.835 395.482 579.864C395.716 579.893 395.959 579.908 396.208 579.908C396.663 579.908 397.056 579.82 397.386 579.644C397.724 579.475 398.013 579.225 398.256 578.895C398.498 578.565 398.707 578.172 398.883 577.717L399.544 576.022L394.711 563.935Z" fill="black"/>
</svg>
