<svg width="736" height="582" viewBox="0 0 736 582" fill="none" xmlns="http://www.w3.org/2000/svg">
<g clip-path="url(#clip0_7245_29825)">
<path d="M367.773 224.97L367.773 0C415.285 0 461.578 15.0403 500.016 42.9654L367.773 224.97Z" fill="#FDE3DF" stroke="white"/>
<path d="M367.773 224.97L500.016 42.9653C578.87 100.253 611.866 201.796 581.746 294.489L367.773 224.97Z" fill="#F4C3C1" stroke="white"/>
<path d="M367.773 224.97L581.746 294.489C543.349 412.655 416.423 477.323 298.249 438.928C229.755 416.675 176.055 362.978 153.8 294.489L367.773 224.97Z" fill="#EF9F93" stroke="white"/>
<path d="M367.773 224.97L153.8 294.489C123.68 201.796 156.676 100.253 235.53 42.9653L367.773 224.97Z" fill="#E8706D" stroke="white"/>
<path d="M367.773 224.97L235.53 42.9654C273.968 15.0403 320.261 0 367.773 0V224.97Z" fill="#E5434B" stroke="white"/>
<path d="M290.507 77.5H287.976V61.3125C287.976 60.6979 287.976 60.1719 287.976 59.7344C287.986 59.2865 287.997 58.8802 288.007 58.5156C288.028 58.1406 288.054 57.7604 288.085 57.375C287.763 57.7083 287.46 57.9948 287.179 58.2344C286.898 58.4635 286.549 58.75 286.132 59.0938L283.523 61.1875L282.164 59.4219L288.351 54.6562H290.507V77.5ZM314.257 66.0469C314.257 67.901 314.117 69.5573 313.835 71.0156C313.554 72.474 313.111 73.7083 312.507 74.7188C311.903 75.7292 311.122 76.5 310.164 77.0312C309.205 77.5521 308.054 77.8125 306.71 77.8125C305.013 77.8125 303.606 77.349 302.492 76.4219C301.388 75.4948 300.559 74.1562 300.007 72.4062C299.466 70.6458 299.195 68.526 299.195 66.0469C299.195 63.6094 299.44 61.5156 299.929 59.7656C300.429 58.0052 301.231 56.6562 302.335 55.7188C303.44 54.7708 304.898 54.2969 306.71 54.2969C308.429 54.2969 309.846 54.7656 310.96 55.7031C312.075 56.6302 312.903 57.974 313.445 59.7344C313.986 61.4844 314.257 63.5885 314.257 66.0469ZM301.804 66.0469C301.804 68.1719 301.966 69.9427 302.289 71.3594C302.611 72.776 303.132 73.8385 303.851 74.5469C304.58 75.2448 305.533 75.5938 306.71 75.5938C307.888 75.5938 308.835 75.2448 309.554 74.5469C310.283 73.849 310.809 72.7917 311.132 71.375C311.466 69.9583 311.632 68.1823 311.632 66.0469C311.632 63.9531 311.471 62.2031 311.148 60.7969C310.825 59.3802 310.304 58.3177 309.585 57.6094C308.867 56.8906 307.908 56.5312 306.71 56.5312C305.513 56.5312 304.554 56.8906 303.835 57.6094C303.117 58.3177 302.596 59.3802 302.273 60.7969C301.96 62.2031 301.804 63.9531 301.804 66.0469ZM322.132 54.3281C323.695 54.3281 324.877 54.9531 325.679 56.2031C326.492 57.4427 326.898 59.1979 326.898 61.4688C326.898 63.7396 326.507 65.5104 325.726 66.7812C324.945 68.0417 323.747 68.6719 322.132 68.6719C320.632 68.6719 319.481 68.0417 318.679 66.7812C317.888 65.5104 317.492 63.7396 317.492 61.4688C317.492 59.1979 317.872 57.4427 318.632 56.2031C319.393 54.9531 320.559 54.3281 322.132 54.3281ZM322.132 56.1875C321.289 56.1875 320.669 56.6302 320.273 57.5156C319.877 58.3906 319.679 59.7083 319.679 61.4688C319.679 63.2292 319.877 64.5573 320.273 65.4531C320.669 66.349 321.289 66.7969 322.132 66.7969C323.007 66.7969 323.658 66.349 324.085 65.4531C324.513 64.5573 324.726 63.2292 324.726 61.4688C324.726 59.7188 324.513 58.401 324.085 57.5156C323.669 56.6302 323.018 56.1875 322.132 56.1875ZM336.601 54.6562L323.929 77.5H321.648L334.32 54.6562H336.601ZM335.992 63.4844C337.544 63.4844 338.726 64.1094 339.539 65.3594C340.351 66.599 340.757 68.3542 340.757 70.625C340.757 72.8854 340.367 74.651 339.585 75.9219C338.804 77.1823 337.606 77.8125 335.992 77.8125C334.481 77.8125 333.33 77.1823 332.539 75.9219C331.747 74.651 331.351 72.8854 331.351 70.625C331.351 68.3542 331.726 66.599 332.476 65.3594C333.236 64.1094 334.408 63.4844 335.992 63.4844ZM335.992 65.3594C335.148 65.3594 334.528 65.7969 334.132 66.6719C333.736 67.5469 333.539 68.8646 333.539 70.625C333.539 72.3854 333.736 73.7135 334.132 74.6094C334.528 75.4948 335.148 75.9375 335.992 75.9375C336.867 75.9375 337.518 75.5 337.945 74.625C338.372 73.7396 338.585 72.4062 338.585 70.625C338.585 68.875 338.372 67.5625 337.945 66.6875C337.528 65.8021 336.877 65.3594 335.992 65.3594Z" fill="white"/>
<path d="M225.32 185.5H210.351V183.328L216.46 177.125C217.596 175.979 218.549 174.958 219.32 174.062C220.101 173.167 220.695 172.286 221.101 171.422C221.507 170.547 221.71 169.589 221.71 168.547C221.71 167.255 221.325 166.271 220.554 165.594C219.794 164.906 218.789 164.562 217.539 164.562C216.445 164.562 215.476 164.75 214.632 165.125C213.789 165.5 212.924 166.031 212.039 166.719L210.648 164.969C211.252 164.458 211.908 164.005 212.617 163.609C213.335 163.214 214.101 162.901 214.914 162.672C215.736 162.443 216.611 162.328 217.539 162.328C218.945 162.328 220.158 162.573 221.179 163.062C222.2 163.552 222.986 164.25 223.539 165.156C224.101 166.062 224.382 167.141 224.382 168.391C224.382 169.599 224.143 170.724 223.664 171.766C223.184 172.797 222.513 173.823 221.648 174.844C220.783 175.854 219.773 176.927 218.617 178.062L213.648 183.016V183.125H225.32V185.5ZM243.757 174.047C243.757 175.901 243.617 177.557 243.335 179.016C243.054 180.474 242.611 181.708 242.007 182.719C241.403 183.729 240.622 184.5 239.664 185.031C238.705 185.552 237.554 185.812 236.21 185.812C234.513 185.812 233.106 185.349 231.992 184.422C230.888 183.495 230.059 182.156 229.507 180.406C228.966 178.646 228.695 176.526 228.695 174.047C228.695 171.609 228.94 169.516 229.429 167.766C229.929 166.005 230.731 164.656 231.835 163.719C232.94 162.771 234.398 162.297 236.21 162.297C237.929 162.297 239.346 162.766 240.46 163.703C241.575 164.63 242.403 165.974 242.945 167.734C243.486 169.484 243.757 171.589 243.757 174.047ZM231.304 174.047C231.304 176.172 231.466 177.943 231.789 179.359C232.111 180.776 232.632 181.839 233.351 182.547C234.08 183.245 235.033 183.594 236.21 183.594C237.388 183.594 238.335 183.245 239.054 182.547C239.783 181.849 240.309 180.792 240.632 179.375C240.966 177.958 241.132 176.182 241.132 174.047C241.132 171.953 240.971 170.203 240.648 168.797C240.325 167.38 239.804 166.318 239.085 165.609C238.367 164.891 237.408 164.531 236.21 164.531C235.013 164.531 234.054 164.891 233.335 165.609C232.617 166.318 232.096 167.38 231.773 168.797C231.46 170.203 231.304 171.953 231.304 174.047ZM251.632 162.328C253.195 162.328 254.377 162.953 255.179 164.203C255.992 165.443 256.398 167.198 256.398 169.469C256.398 171.74 256.007 173.51 255.226 174.781C254.445 176.042 253.247 176.672 251.632 176.672C250.132 176.672 248.981 176.042 248.179 174.781C247.388 173.51 246.992 171.74 246.992 169.469C246.992 167.198 247.372 165.443 248.132 164.203C248.893 162.953 250.059 162.328 251.632 162.328ZM251.632 164.188C250.789 164.188 250.169 164.63 249.773 165.516C249.377 166.391 249.179 167.708 249.179 169.469C249.179 171.229 249.377 172.557 249.773 173.453C250.169 174.349 250.789 174.797 251.632 174.797C252.507 174.797 253.158 174.349 253.585 173.453C254.013 172.557 254.226 171.229 254.226 169.469C254.226 167.719 254.013 166.401 253.585 165.516C253.169 164.63 252.518 164.188 251.632 164.188ZM266.101 162.656L253.429 185.5H251.148L263.82 162.656H266.101ZM265.492 171.484C267.044 171.484 268.226 172.109 269.039 173.359C269.851 174.599 270.257 176.354 270.257 178.625C270.257 180.885 269.867 182.651 269.085 183.922C268.304 185.182 267.106 185.812 265.492 185.812C263.981 185.812 262.83 185.182 262.039 183.922C261.247 182.651 260.851 180.885 260.851 178.625C260.851 176.354 261.226 174.599 261.976 173.359C262.736 172.109 263.908 171.484 265.492 171.484ZM265.492 173.359C264.648 173.359 264.028 173.797 263.632 174.672C263.236 175.547 263.039 176.865 263.039 178.625C263.039 180.385 263.236 181.714 263.632 182.609C264.028 183.495 264.648 183.938 265.492 183.938C266.367 183.938 267.018 183.5 267.445 182.625C267.872 181.74 268.085 180.406 268.085 178.625C268.085 176.875 267.872 175.562 267.445 174.688C267.028 173.802 266.377 173.359 265.492 173.359Z" fill="white"/>
<path d="M356.96 340.703H353.539V346H351.007V340.703H339.96V338.516L350.835 323.031H353.539V338.359H356.96V340.703ZM351.007 338.359V330.891C351.007 330.318 351.013 329.802 351.023 329.344C351.033 328.875 351.049 328.443 351.07 328.047C351.091 327.641 351.106 327.255 351.117 326.891C351.138 326.526 351.153 326.167 351.164 325.812H351.039C350.841 326.229 350.611 326.672 350.351 327.141C350.101 327.599 349.846 328.01 349.585 328.375L342.539 338.359H351.007ZM374.257 334.547C374.257 336.401 374.117 338.057 373.835 339.516C373.554 340.974 373.111 342.208 372.507 343.219C371.903 344.229 371.122 345 370.164 345.531C369.205 346.052 368.054 346.312 366.71 346.312C365.013 346.312 363.606 345.849 362.492 344.922C361.388 343.995 360.559 342.656 360.007 340.906C359.466 339.146 359.195 337.026 359.195 334.547C359.195 332.109 359.44 330.016 359.929 328.266C360.429 326.505 361.231 325.156 362.335 324.219C363.44 323.271 364.898 322.797 366.71 322.797C368.429 322.797 369.846 323.266 370.96 324.203C372.075 325.13 372.903 326.474 373.445 328.234C373.986 329.984 374.257 332.089 374.257 334.547ZM361.804 334.547C361.804 336.672 361.966 338.443 362.289 339.859C362.611 341.276 363.132 342.339 363.851 343.047C364.58 343.745 365.533 344.094 366.71 344.094C367.888 344.094 368.835 343.745 369.554 343.047C370.283 342.349 370.809 341.292 371.132 339.875C371.466 338.458 371.632 336.682 371.632 334.547C371.632 332.453 371.471 330.703 371.148 329.297C370.825 327.88 370.304 326.818 369.585 326.109C368.867 325.391 367.908 325.031 366.71 325.031C365.513 325.031 364.554 325.391 363.835 326.109C363.117 326.818 362.596 327.88 362.273 329.297C361.96 330.703 361.804 332.453 361.804 334.547ZM382.132 322.828C383.695 322.828 384.877 323.453 385.679 324.703C386.492 325.943 386.898 327.698 386.898 329.969C386.898 332.24 386.507 334.01 385.726 335.281C384.945 336.542 383.747 337.172 382.132 337.172C380.632 337.172 379.481 336.542 378.679 335.281C377.888 334.01 377.492 332.24 377.492 329.969C377.492 327.698 377.872 325.943 378.632 324.703C379.393 323.453 380.559 322.828 382.132 322.828ZM382.132 324.688C381.289 324.688 380.669 325.13 380.273 326.016C379.877 326.891 379.679 328.208 379.679 329.969C379.679 331.729 379.877 333.057 380.273 333.953C380.669 334.849 381.289 335.297 382.132 335.297C383.007 335.297 383.658 334.849 384.085 333.953C384.513 333.057 384.726 331.729 384.726 329.969C384.726 328.219 384.513 326.901 384.085 326.016C383.669 325.13 383.018 324.688 382.132 324.688ZM396.601 323.156L383.929 346H381.648L394.32 323.156H396.601ZM395.992 331.984C397.544 331.984 398.726 332.609 399.539 333.859C400.351 335.099 400.757 336.854 400.757 339.125C400.757 341.385 400.367 343.151 399.585 344.422C398.804 345.682 397.606 346.312 395.992 346.312C394.481 346.312 393.33 345.682 392.539 344.422C391.747 343.151 391.351 341.385 391.351 339.125C391.351 336.854 391.726 335.099 392.476 333.859C393.236 332.609 394.408 331.984 395.992 331.984ZM395.992 333.859C395.148 333.859 394.528 334.297 394.132 335.172C393.736 336.047 393.539 337.365 393.539 339.125C393.539 340.885 393.736 342.214 394.132 343.109C394.528 343.995 395.148 344.438 395.992 344.438C396.867 344.438 397.518 344 397.945 343.125C398.372 342.24 398.585 340.906 398.585 339.125C398.585 337.375 398.372 336.062 397.945 335.188C397.528 334.302 396.877 333.859 395.992 333.859Z" fill="white"/>
<path d="M480.32 196H465.351V193.828L471.46 187.625C472.596 186.479 473.549 185.458 474.32 184.562C475.101 183.667 475.695 182.786 476.101 181.922C476.507 181.047 476.71 180.089 476.71 179.047C476.71 177.755 476.325 176.771 475.554 176.094C474.794 175.406 473.789 175.062 472.539 175.062C471.445 175.062 470.476 175.25 469.632 175.625C468.789 176 467.924 176.531 467.039 177.219L465.648 175.469C466.252 174.958 466.908 174.505 467.617 174.109C468.335 173.714 469.101 173.401 469.914 173.172C470.736 172.943 471.611 172.828 472.539 172.828C473.945 172.828 475.158 173.073 476.179 173.562C477.2 174.052 477.986 174.75 478.539 175.656C479.101 176.562 479.382 177.641 479.382 178.891C479.382 180.099 479.143 181.224 478.664 182.266C478.184 183.297 477.513 184.323 476.648 185.344C475.783 186.354 474.773 187.427 473.617 188.562L468.648 193.516V193.625H480.32V196ZM498.757 184.547C498.757 186.401 498.617 188.057 498.335 189.516C498.054 190.974 497.611 192.208 497.007 193.219C496.403 194.229 495.622 195 494.664 195.531C493.705 196.052 492.554 196.312 491.21 196.312C489.513 196.312 488.106 195.849 486.992 194.922C485.888 193.995 485.059 192.656 484.507 190.906C483.966 189.146 483.695 187.026 483.695 184.547C483.695 182.109 483.94 180.016 484.429 178.266C484.929 176.505 485.731 175.156 486.835 174.219C487.94 173.271 489.398 172.797 491.21 172.797C492.929 172.797 494.346 173.266 495.46 174.203C496.575 175.13 497.403 176.474 497.945 178.234C498.486 179.984 498.757 182.089 498.757 184.547ZM486.304 184.547C486.304 186.672 486.466 188.443 486.789 189.859C487.111 191.276 487.632 192.339 488.351 193.047C489.08 193.745 490.033 194.094 491.21 194.094C492.388 194.094 493.335 193.745 494.054 193.047C494.783 192.349 495.309 191.292 495.632 189.875C495.966 188.458 496.132 186.682 496.132 184.547C496.132 182.453 495.971 180.703 495.648 179.297C495.325 177.88 494.804 176.818 494.085 176.109C493.367 175.391 492.408 175.031 491.21 175.031C490.013 175.031 489.054 175.391 488.335 176.109C487.617 176.818 487.096 177.88 486.773 179.297C486.46 180.703 486.304 182.453 486.304 184.547ZM506.632 172.828C508.195 172.828 509.377 173.453 510.179 174.703C510.992 175.943 511.398 177.698 511.398 179.969C511.398 182.24 511.007 184.01 510.226 185.281C509.445 186.542 508.247 187.172 506.632 187.172C505.132 187.172 503.981 186.542 503.179 185.281C502.388 184.01 501.992 182.24 501.992 179.969C501.992 177.698 502.372 175.943 503.132 174.703C503.893 173.453 505.059 172.828 506.632 172.828ZM506.632 174.688C505.789 174.688 505.169 175.13 504.773 176.016C504.377 176.891 504.179 178.208 504.179 179.969C504.179 181.729 504.377 183.057 504.773 183.953C505.169 184.849 505.789 185.297 506.632 185.297C507.507 185.297 508.158 184.849 508.585 183.953C509.013 183.057 509.226 181.729 509.226 179.969C509.226 178.219 509.013 176.901 508.585 176.016C508.169 175.13 507.518 174.688 506.632 174.688ZM521.101 173.156L508.429 196H506.148L518.82 173.156H521.101ZM520.492 181.984C522.044 181.984 523.226 182.609 524.039 183.859C524.851 185.099 525.257 186.854 525.257 189.125C525.257 191.385 524.867 193.151 524.085 194.422C523.304 195.682 522.106 196.312 520.492 196.312C518.981 196.312 517.83 195.682 517.039 194.422C516.247 193.151 515.851 191.385 515.851 189.125C515.851 186.854 516.226 185.099 516.976 183.859C517.736 182.609 518.908 181.984 520.492 181.984ZM520.492 183.859C519.648 183.859 519.028 184.297 518.632 185.172C518.236 186.047 518.039 187.365 518.039 189.125C518.039 190.885 518.236 192.214 518.632 193.109C519.028 193.995 519.648 194.438 520.492 194.438C521.367 194.438 522.018 194 522.445 193.125C522.872 192.24 523.085 190.906 523.085 189.125C523.085 187.375 522.872 186.062 522.445 185.188C522.028 184.302 521.377 183.859 520.492 183.859Z" fill="white"/>
<path d="M394.007 77.5H391.476V61.3125C391.476 60.6979 391.476 60.1719 391.476 59.7344C391.486 59.2865 391.497 58.8802 391.507 58.5156C391.528 58.1406 391.554 57.7604 391.585 57.375C391.263 57.7083 390.96 57.9948 390.679 58.2344C390.398 58.4635 390.049 58.75 389.632 59.0938L387.023 61.1875L385.664 59.4219L391.851 54.6562H394.007V77.5ZM417.757 66.0469C417.757 67.901 417.617 69.5573 417.335 71.0156C417.054 72.474 416.611 73.7083 416.007 74.7188C415.403 75.7292 414.622 76.5 413.664 77.0312C412.705 77.5521 411.554 77.8125 410.21 77.8125C408.513 77.8125 407.106 77.349 405.992 76.4219C404.888 75.4948 404.059 74.1562 403.507 72.4062C402.966 70.6458 402.695 68.526 402.695 66.0469C402.695 63.6094 402.94 61.5156 403.429 59.7656C403.929 58.0052 404.731 56.6562 405.835 55.7188C406.94 54.7708 408.398 54.2969 410.21 54.2969C411.929 54.2969 413.346 54.7656 414.46 55.7031C415.575 56.6302 416.403 57.974 416.945 59.7344C417.486 61.4844 417.757 63.5885 417.757 66.0469ZM405.304 66.0469C405.304 68.1719 405.466 69.9427 405.789 71.3594C406.111 72.776 406.632 73.8385 407.351 74.5469C408.08 75.2448 409.033 75.5938 410.21 75.5938C411.388 75.5938 412.335 75.2448 413.054 74.5469C413.783 73.849 414.309 72.7917 414.632 71.375C414.966 69.9583 415.132 68.1823 415.132 66.0469C415.132 63.9531 414.971 62.2031 414.648 60.7969C414.325 59.3802 413.804 58.3177 413.085 57.6094C412.367 56.8906 411.408 56.5312 410.21 56.5312C409.013 56.5312 408.054 56.8906 407.335 57.6094C406.617 58.3177 406.096 59.3802 405.773 60.7969C405.46 62.2031 405.304 63.9531 405.304 66.0469ZM425.632 54.3281C427.195 54.3281 428.377 54.9531 429.179 56.2031C429.992 57.4427 430.398 59.1979 430.398 61.4688C430.398 63.7396 430.007 65.5104 429.226 66.7812C428.445 68.0417 427.247 68.6719 425.632 68.6719C424.132 68.6719 422.981 68.0417 422.179 66.7812C421.388 65.5104 420.992 63.7396 420.992 61.4688C420.992 59.1979 421.372 57.4427 422.132 56.2031C422.893 54.9531 424.059 54.3281 425.632 54.3281ZM425.632 56.1875C424.789 56.1875 424.169 56.6302 423.773 57.5156C423.377 58.3906 423.179 59.7083 423.179 61.4688C423.179 63.2292 423.377 64.5573 423.773 65.4531C424.169 66.349 424.789 66.7969 425.632 66.7969C426.507 66.7969 427.158 66.349 427.585 65.4531C428.013 64.5573 428.226 63.2292 428.226 61.4688C428.226 59.7188 428.013 58.401 427.585 57.5156C427.169 56.6302 426.518 56.1875 425.632 56.1875ZM440.101 54.6562L427.429 77.5H425.148L437.82 54.6562H440.101ZM439.492 63.4844C441.044 63.4844 442.226 64.1094 443.039 65.3594C443.851 66.599 444.257 68.3542 444.257 70.625C444.257 72.8854 443.867 74.651 443.085 75.9219C442.304 77.1823 441.106 77.8125 439.492 77.8125C437.981 77.8125 436.83 77.1823 436.039 75.9219C435.247 74.651 434.851 72.8854 434.851 70.625C434.851 68.3542 435.226 66.599 435.976 65.3594C436.736 64.1094 437.908 63.4844 439.492 63.4844ZM439.492 65.3594C438.648 65.3594 438.028 65.7969 437.632 66.6719C437.236 67.5469 437.039 68.8646 437.039 70.625C437.039 72.3854 437.236 73.7135 437.632 74.6094C438.028 75.4948 438.648 75.9375 439.492 75.9375C440.367 75.9375 441.018 75.5 441.445 74.625C441.872 73.7396 442.085 72.4062 442.085 70.625C442.085 68.875 441.872 67.5625 441.445 66.6875C441.028 65.8021 440.377 65.3594 439.492 65.3594Z" fill="#E5434B"/>
<rect x="105.409" y="504.932" width="21.1364" height="21.1364" rx="3.52273" fill="#FDE3DF"/>
<path d="M141.506 524H139.723V512.595C139.723 512.162 139.723 511.792 139.723 511.483C139.73 511.168 139.737 510.882 139.745 510.625C139.76 510.36 139.778 510.093 139.8 509.821C139.572 510.056 139.36 510.258 139.161 510.426C138.963 510.588 138.717 510.79 138.424 511.032L136.585 512.507L135.628 511.263L139.987 507.906H141.506V524ZM151.293 517.824L147.121 511.935H149.212L152.394 516.58L155.564 511.935H157.634L153.461 517.824L157.865 524H155.773L152.394 519.079L148.992 524H146.922L151.293 517.824ZM166.319 507.906L160.331 524H158.525L164.525 507.906H166.319ZM178.319 523.978L176.172 516.955C176.077 516.654 175.985 516.36 175.897 516.074C175.816 515.78 175.739 515.501 175.666 515.237C175.6 514.966 175.537 514.716 175.478 514.489C175.427 514.254 175.383 514.052 175.346 513.883H175.269C175.24 514.052 175.2 514.254 175.148 514.489C175.097 514.716 175.034 514.966 174.961 515.237C174.895 515.509 174.822 515.795 174.741 516.096C174.66 516.389 174.568 516.687 174.466 516.988L172.22 523.978H170.161L166.837 511.913H168.73L170.47 518.573C170.587 519.013 170.697 519.45 170.8 519.883C170.91 520.308 171.002 520.712 171.075 521.094C171.156 521.468 171.215 521.795 171.251 522.074H171.339C171.383 521.89 171.431 521.67 171.482 521.413C171.541 521.156 171.603 520.885 171.67 520.598C171.743 520.305 171.82 520.015 171.901 519.729C171.981 519.435 172.062 519.16 172.143 518.903L174.367 511.913H176.337L178.484 518.892C178.594 519.244 178.7 519.611 178.803 519.993C178.913 520.375 179.012 520.745 179.1 521.105C179.188 521.457 179.251 521.773 179.287 522.051H179.376C179.405 521.802 179.46 521.494 179.541 521.127C179.621 520.76 179.713 520.356 179.816 519.916C179.926 519.475 180.04 519.028 180.157 518.573L181.918 511.913H183.779L180.443 523.978H178.319ZM190.626 511.714C191.654 511.714 192.534 511.942 193.268 512.397C194.002 512.852 194.564 513.491 194.953 514.313C195.342 515.127 195.536 516.081 195.536 517.175V518.309H187.203C187.225 519.725 187.577 520.804 188.259 521.545C188.942 522.286 189.903 522.657 191.144 522.657C191.907 522.657 192.582 522.587 193.169 522.448C193.756 522.308 194.365 522.103 194.997 521.831V523.439C194.387 523.71 193.782 523.908 193.18 524.033C192.586 524.158 191.881 524.22 191.067 524.22C189.907 524.22 188.894 523.985 188.028 523.516C187.17 523.039 186.502 522.341 186.025 521.424C185.548 520.507 185.309 519.384 185.309 518.055C185.309 516.756 185.526 515.634 185.959 514.687C186.399 513.733 187.015 512.999 187.808 512.485C188.608 511.971 189.547 511.714 190.626 511.714ZM190.604 513.212C189.628 513.212 188.85 513.531 188.27 514.169C187.691 514.808 187.346 515.7 187.236 516.844H193.621C193.613 516.125 193.499 515.494 193.279 514.951C193.066 514.401 192.74 513.975 192.3 513.674C191.859 513.366 191.294 513.212 190.604 513.212ZM203.286 511.714C204.313 511.714 205.194 511.942 205.928 512.397C206.662 512.852 207.223 513.491 207.612 514.313C208.001 515.127 208.196 516.081 208.196 517.175V518.309H199.862C199.884 519.725 200.237 520.804 200.919 521.545C201.602 522.286 202.563 522.657 203.803 522.657C204.567 522.657 205.242 522.587 205.829 522.448C206.416 522.308 207.025 522.103 207.656 521.831V523.439C207.047 523.71 206.442 523.908 205.84 524.033C205.246 524.158 204.541 524.22 203.726 524.22C202.567 524.22 201.554 523.985 200.688 523.516C199.829 523.039 199.161 522.341 198.684 521.424C198.207 520.507 197.969 519.384 197.969 518.055C197.969 516.756 198.185 515.634 198.618 514.687C199.059 513.733 199.675 512.999 200.468 512.485C201.268 511.971 202.207 511.714 203.286 511.714ZM203.264 513.212C202.288 513.212 201.51 513.531 200.93 514.169C200.35 514.808 200.005 515.7 199.895 516.844H206.28C206.273 516.125 206.159 515.494 205.939 514.951C205.726 514.401 205.4 513.975 204.959 513.674C204.519 513.366 203.954 513.212 203.264 513.212ZM213.117 506.871V515.766C213.117 516.059 213.106 516.419 213.084 516.844C213.062 517.263 213.043 517.633 213.029 517.956H213.106C213.26 517.766 213.484 517.483 213.777 517.109C214.078 516.734 214.331 516.433 214.537 516.206L218.544 511.935H220.69L215.836 517.087L221.043 524H218.841L214.581 518.287L213.117 519.63V524H211.3V506.871H213.117Z" fill="black"/>
<rect x="241.591" y="504.932" width="21.1364" height="21.1364" rx="3.52273" fill="#F4C3C1"/>
<path d="M281.431 524H270.885V522.47L275.189 518.099C275.989 517.292 276.661 516.573 277.204 515.942C277.754 515.311 278.172 514.69 278.459 514.081C278.745 513.465 278.888 512.79 278.888 512.056C278.888 511.146 278.616 510.452 278.073 509.975C277.538 509.491 276.829 509.249 275.949 509.249C275.178 509.249 274.496 509.381 273.901 509.645C273.307 509.909 272.698 510.283 272.074 510.768L271.094 509.535C271.52 509.175 271.982 508.856 272.481 508.577C272.987 508.298 273.527 508.078 274.099 507.917C274.679 507.755 275.296 507.674 275.949 507.674C276.939 507.674 277.794 507.847 278.514 508.192C279.233 508.537 279.787 509.028 280.176 509.667C280.572 510.305 280.77 511.065 280.77 511.946C280.77 512.797 280.602 513.59 280.264 514.324C279.926 515.05 279.453 515.773 278.844 516.492C278.235 517.204 277.523 517.96 276.708 518.76L273.208 522.25V522.327H281.431V524ZM287.475 517.824L283.302 511.935H285.394L288.576 516.58L291.746 511.935H293.816L289.643 517.824L294.047 524H291.955L288.576 519.079L285.174 524H283.104L287.475 517.824ZM302.501 507.906L296.513 524H294.707L300.707 507.906H302.501ZM314.501 523.978L312.354 516.955C312.259 516.654 312.167 516.36 312.079 516.074C311.998 515.78 311.921 515.501 311.848 515.237C311.781 514.966 311.719 514.716 311.66 514.489C311.609 514.254 311.565 514.052 311.528 513.883H311.451C311.422 514.052 311.381 514.254 311.33 514.489C311.279 514.716 311.216 514.966 311.143 515.237C311.077 515.509 311.004 515.795 310.923 516.096C310.842 516.389 310.75 516.687 310.648 516.988L308.402 523.978H306.343L303.019 511.913H304.912L306.651 518.573C306.769 519.013 306.879 519.45 306.982 519.883C307.092 520.308 307.184 520.712 307.257 521.094C307.338 521.468 307.396 521.795 307.433 522.074H307.521C307.565 521.89 307.613 521.67 307.664 521.413C307.723 521.156 307.785 520.885 307.851 520.598C307.925 520.305 308.002 520.015 308.083 519.729C308.163 519.435 308.244 519.16 308.325 518.903L310.549 511.913H312.519L314.666 518.892C314.776 519.244 314.882 519.611 314.985 519.993C315.095 520.375 315.194 520.745 315.282 521.105C315.37 521.457 315.433 521.773 315.469 522.051H315.557C315.587 521.802 315.642 521.494 315.723 521.127C315.803 520.76 315.895 520.356 315.998 519.916C316.108 519.475 316.222 519.028 316.339 518.573L318.1 511.913H319.961L316.625 523.978H314.501ZM326.808 511.714C327.836 511.714 328.716 511.942 329.45 512.397C330.184 512.852 330.745 513.491 331.134 514.313C331.523 515.127 331.718 516.081 331.718 517.175V518.309H323.384C323.406 519.725 323.759 520.804 324.441 521.545C325.124 522.286 326.085 522.657 327.326 522.657C328.089 522.657 328.764 522.587 329.351 522.448C329.938 522.308 330.547 522.103 331.178 521.831V523.439C330.569 523.71 329.964 523.908 329.362 524.033C328.768 524.158 328.063 524.22 327.248 524.22C326.089 524.22 325.076 523.985 324.21 523.516C323.351 523.039 322.684 522.341 322.207 521.424C321.73 520.507 321.491 519.384 321.491 518.055C321.491 516.756 321.707 515.634 322.14 514.687C322.581 513.733 323.197 512.999 323.99 512.485C324.79 511.971 325.729 511.714 326.808 511.714ZM326.786 513.212C325.81 513.212 325.032 513.531 324.452 514.169C323.872 514.808 323.528 515.7 323.417 516.844H329.802C329.795 516.125 329.681 515.494 329.461 514.951C329.248 514.401 328.922 513.975 328.481 513.674C328.041 513.366 327.476 513.212 326.786 513.212ZM339.468 511.714C340.495 511.714 341.376 511.942 342.11 512.397C342.844 512.852 343.405 513.491 343.794 514.313C344.183 515.127 344.378 516.081 344.378 517.175V518.309H336.044C336.066 519.725 336.419 520.804 337.101 521.545C337.784 522.286 338.745 522.657 339.985 522.657C340.749 522.657 341.424 522.587 342.011 522.448C342.598 522.308 343.207 522.103 343.838 521.831V523.439C343.229 523.71 342.624 523.908 342.022 524.033C341.427 524.158 340.723 524.22 339.908 524.22C338.749 524.22 337.736 523.985 336.87 523.516C336.011 523.039 335.343 522.341 334.866 521.424C334.389 520.507 334.151 519.384 334.151 518.055C334.151 516.756 334.367 515.634 334.8 514.687C335.241 513.733 335.857 512.999 336.65 512.485C337.45 511.971 338.389 511.714 339.468 511.714ZM339.446 513.212C338.47 513.212 337.692 513.531 337.112 514.169C336.532 514.808 336.187 515.7 336.077 516.844H342.462C342.455 516.125 342.341 515.494 342.121 514.951C341.908 514.401 341.582 513.975 341.141 513.674C340.701 513.366 340.136 513.212 339.446 513.212ZM349.299 506.871V515.766C349.299 516.059 349.288 516.419 349.265 516.844C349.243 517.263 349.225 517.633 349.21 517.956H349.288C349.442 517.766 349.665 517.483 349.959 517.109C350.26 516.734 350.513 516.433 350.719 516.206L354.726 511.935H356.872L352.018 517.087L357.225 524H355.023L350.763 518.287L349.299 519.63V524H347.482V506.871H349.299Z" fill="black"/>
<rect x="377.773" y="504.932" width="21.1364" height="21.1364" rx="3.52273" fill="#EF9F93"/>
<path d="M417.018 511.659C417.018 512.379 416.879 513.002 416.6 513.531C416.321 514.059 415.932 514.492 415.433 514.83C414.934 515.16 414.347 515.391 413.672 515.523V515.612C414.949 515.773 415.907 516.184 416.545 516.844C417.191 517.505 417.514 518.371 417.514 519.442C417.514 520.375 417.294 521.2 416.853 521.919C416.42 522.639 415.752 523.204 414.85 523.615C413.954 524.018 412.806 524.22 411.404 524.22C410.553 524.22 409.764 524.15 409.037 524.011C408.318 523.879 407.628 523.655 406.968 523.339V521.622C407.635 521.952 408.362 522.213 409.147 522.404C409.933 522.587 410.692 522.679 411.426 522.679C412.894 522.679 413.954 522.389 414.608 521.809C415.261 521.222 415.587 520.422 415.587 519.409C415.587 518.712 415.404 518.151 415.037 517.725C414.677 517.292 414.156 516.977 413.474 516.778C412.798 516.573 411.984 516.47 411.03 516.47H409.423V514.907H411.041C411.914 514.907 412.655 514.779 413.264 514.522C413.874 514.265 414.336 513.905 414.652 513.443C414.974 512.973 415.136 512.419 415.136 511.781C415.136 510.966 414.864 510.338 414.321 509.898C413.778 509.45 413.041 509.227 412.109 509.227C411.536 509.227 411.015 509.285 410.545 509.403C410.076 509.52 409.635 509.682 409.224 509.887C408.813 510.093 408.402 510.331 407.991 510.603L407.067 509.348C407.654 508.893 408.369 508.5 409.213 508.17C410.057 507.839 411.015 507.674 412.087 507.674C413.731 507.674 414.963 508.049 415.785 508.797C416.607 509.546 417.018 510.5 417.018 511.659ZM423.657 517.824L419.484 511.935H421.576L424.757 516.58L427.928 511.935H429.997L425.825 517.824L430.229 524H428.137L424.757 519.079L421.356 524H419.286L423.657 517.824ZM438.683 507.906L432.695 524H430.889L436.889 507.906H438.683ZM450.682 523.978L448.536 516.955C448.44 516.654 448.349 516.36 448.261 516.074C448.18 515.78 448.103 515.501 448.029 515.237C447.963 514.966 447.901 514.716 447.842 514.489C447.791 514.254 447.747 514.052 447.71 513.883H447.633C447.604 514.052 447.563 514.254 447.512 514.489C447.461 514.716 447.398 514.966 447.325 515.237C447.259 515.509 447.185 515.795 447.105 516.096C447.024 516.389 446.932 516.687 446.829 516.988L444.584 523.978H442.525L439.201 511.913H441.094L442.833 518.573C442.951 519.013 443.061 519.45 443.164 519.883C443.274 520.308 443.365 520.712 443.439 521.094C443.52 521.468 443.578 521.795 443.615 522.074H443.703C443.747 521.89 443.795 521.67 443.846 521.413C443.905 521.156 443.967 520.885 444.033 520.598C444.107 520.305 444.184 520.015 444.264 519.729C444.345 519.435 444.426 519.16 444.507 518.903L446.73 511.913H448.701L450.848 518.892C450.958 519.244 451.064 519.611 451.167 519.993C451.277 520.375 451.376 520.745 451.464 521.105C451.552 521.457 451.615 521.773 451.651 522.051H451.739C451.769 521.802 451.824 521.494 451.904 521.127C451.985 520.76 452.077 520.356 452.18 519.916C452.29 519.475 452.403 519.028 452.521 518.573L454.282 511.913H456.143L452.807 523.978H450.682ZM462.99 511.714C464.017 511.714 464.898 511.942 465.632 512.397C466.366 512.852 466.927 513.491 467.316 514.313C467.705 515.127 467.9 516.081 467.9 517.175V518.309H459.566C459.588 519.725 459.941 520.804 460.623 521.545C461.306 522.286 462.267 522.657 463.507 522.657C464.271 522.657 464.946 522.587 465.533 522.448C466.12 522.308 466.729 522.103 467.36 521.831V523.439C466.751 523.71 466.146 523.908 465.544 524.033C464.95 524.158 464.245 524.22 463.43 524.22C462.271 524.22 461.258 523.985 460.392 523.516C459.533 523.039 458.865 522.341 458.388 521.424C457.911 520.507 457.673 519.384 457.673 518.055C457.673 516.756 457.889 515.634 458.322 514.687C458.763 513.733 459.379 512.999 460.172 512.485C460.972 511.971 461.911 511.714 462.99 511.714ZM462.968 513.212C461.992 513.212 461.214 513.531 460.634 514.169C460.054 514.808 459.709 515.7 459.599 516.844H465.984C465.977 516.125 465.863 515.494 465.643 514.951C465.43 514.401 465.104 513.975 464.663 513.674C464.223 513.366 463.658 513.212 462.968 513.212ZM475.65 511.714C476.677 511.714 477.558 511.942 478.292 512.397C479.026 512.852 479.587 513.491 479.976 514.313C480.365 515.127 480.56 516.081 480.56 517.175V518.309H472.226C472.248 519.725 472.6 520.804 473.283 521.545C473.965 522.286 474.927 522.657 476.167 522.657C476.93 522.657 477.606 522.587 478.193 522.448C478.78 522.308 479.389 522.103 480.02 521.831V523.439C479.411 523.71 478.806 523.908 478.204 524.033C477.609 524.158 476.905 524.22 476.09 524.22C474.931 524.22 473.918 523.985 473.052 523.516C472.193 523.039 471.525 522.341 471.048 521.424C470.571 520.507 470.333 519.384 470.333 518.055C470.333 516.756 470.549 515.634 470.982 514.687C471.423 513.733 472.039 512.999 472.832 512.485C473.632 511.971 474.571 511.714 475.65 511.714ZM475.628 513.212C474.652 513.212 473.874 513.531 473.294 514.169C472.714 514.808 472.369 515.7 472.259 516.844H478.644C478.637 516.125 478.523 515.494 478.303 514.951C478.09 514.401 477.763 513.975 477.323 513.674C476.883 513.366 476.318 513.212 475.628 513.212ZM485.48 506.871V515.766C485.48 516.059 485.469 516.419 485.447 516.844C485.425 517.263 485.407 517.633 485.392 517.956H485.469C485.624 517.766 485.847 517.483 486.141 517.109C486.442 516.734 486.695 516.433 486.901 516.206L490.908 511.935H493.054L488.2 517.087L493.407 524H491.205L486.945 518.287L485.48 519.63V524H483.664V506.871H485.48Z" fill="black"/>
<rect x="513.955" y="504.932" width="21.1364" height="21.1364" rx="3.52273" fill="#E8706D"/>
<path d="M554.598 520.268H552.187V524H550.404V520.268H542.621V518.727L550.283 507.817H552.187V518.617H554.598V520.268ZM550.404 518.617V513.355C550.404 512.951 550.408 512.588 550.415 512.265C550.422 511.935 550.433 511.63 550.448 511.351C550.463 511.065 550.474 510.793 550.481 510.537C550.496 510.28 550.507 510.027 550.514 509.777H550.426C550.286 510.071 550.125 510.382 549.942 510.713C549.765 511.036 549.586 511.326 549.402 511.582L544.437 518.617H550.404ZM559.838 517.824L555.666 511.935H557.758L560.939 516.58L564.109 511.935H566.179L562.007 517.824L566.41 524H564.319L560.939 519.079L557.537 524H555.468L559.838 517.824ZM574.865 507.906L568.876 524H567.071L573.07 507.906H574.865ZM586.864 523.978L584.717 516.955C584.622 516.654 584.53 516.36 584.442 516.074C584.361 515.78 584.284 515.501 584.211 515.237C584.145 514.966 584.083 514.716 584.024 514.489C583.973 514.254 583.928 514.052 583.892 513.883H583.815C583.785 514.052 583.745 514.254 583.694 514.489C583.642 514.716 583.58 514.966 583.507 515.237C583.44 515.509 583.367 515.795 583.286 516.096C583.206 516.389 583.114 516.687 583.011 516.988L580.765 523.978H578.707L575.382 511.913H577.276L579.015 518.573C579.132 519.013 579.243 519.45 579.345 519.883C579.455 520.308 579.547 520.712 579.62 521.094C579.701 521.468 579.76 521.795 579.797 522.074H579.885C579.929 521.89 579.976 521.67 580.028 521.413C580.087 521.156 580.149 520.885 580.215 520.598C580.288 520.305 580.365 520.015 580.446 519.729C580.527 519.435 580.608 519.16 580.688 518.903L582.912 511.913H584.883L587.029 518.892C587.139 519.244 587.246 519.611 587.348 519.993C587.459 520.375 587.558 520.745 587.646 521.105C587.734 521.457 587.796 521.773 587.833 522.051H587.921C587.95 521.802 588.005 521.494 588.086 521.127C588.167 520.76 588.259 520.356 588.361 519.916C588.471 519.475 588.585 519.028 588.703 518.573L590.464 511.913H592.324L588.989 523.978H586.864ZM599.172 511.714C600.199 511.714 601.08 511.942 601.814 512.397C602.548 512.852 603.109 513.491 603.498 514.313C603.887 515.127 604.081 516.081 604.081 517.175V518.309H595.748C595.77 519.725 596.122 520.804 596.805 521.545C597.487 522.286 598.449 522.657 599.689 522.657C600.452 522.657 601.127 522.587 601.715 522.448C602.302 522.308 602.911 522.103 603.542 521.831V523.439C602.933 523.71 602.327 523.908 601.726 524.033C601.131 524.158 600.427 524.22 599.612 524.22C598.452 524.22 597.44 523.985 596.574 523.516C595.715 523.039 595.047 522.341 594.57 521.424C594.093 520.507 593.855 519.384 593.855 518.055C593.855 516.756 594.071 515.634 594.504 514.687C594.944 513.733 595.561 512.999 596.353 512.485C597.153 511.971 598.093 511.714 599.172 511.714ZM599.15 513.212C598.174 513.212 597.396 513.531 596.816 514.169C596.236 514.808 595.891 515.7 595.781 516.844H602.166C602.159 516.125 602.045 515.494 601.825 514.951C601.612 514.401 601.285 513.975 600.845 513.674C600.405 513.366 599.839 513.212 599.15 513.212ZM611.831 511.714C612.859 511.714 613.74 511.942 614.473 512.397C615.207 512.852 615.769 513.491 616.158 514.313C616.547 515.127 616.741 516.081 616.741 517.175V518.309H608.408C608.43 519.725 608.782 520.804 609.465 521.545C610.147 522.286 611.109 522.657 612.349 522.657C613.112 522.657 613.787 522.587 614.374 522.448C614.962 522.308 615.571 522.103 616.202 521.831V523.439C615.593 523.71 614.987 523.908 614.385 524.033C613.791 524.158 613.086 524.22 612.272 524.22C611.112 524.22 610.099 523.985 609.233 523.516C608.375 523.039 607.707 522.341 607.23 521.424C606.753 520.507 606.514 519.384 606.514 518.055C606.514 516.756 606.731 515.634 607.164 514.687C607.604 513.733 608.221 512.999 609.013 512.485C609.813 511.971 610.753 511.714 611.831 511.714ZM611.809 513.212C610.833 513.212 610.055 513.531 609.476 514.169C608.896 514.808 608.551 515.7 608.441 516.844H614.826C614.818 516.125 614.705 515.494 614.484 514.951C614.272 514.401 613.945 513.975 613.505 513.674C613.064 513.366 612.499 513.212 611.809 513.212ZM621.662 506.871V515.766C621.662 516.059 621.651 516.419 621.629 516.844C621.607 517.263 621.589 517.633 621.574 517.956H621.651C621.805 517.766 622.029 517.483 622.323 517.109C622.623 516.734 622.877 516.433 623.082 516.206L627.089 511.935H629.236L624.381 517.087L629.588 524H627.386L623.126 518.287L621.662 519.63V524H619.846V506.871H621.662Z" fill="black"/>
<rect x="167" y="555.932" width="21.1364" height="21.1364" rx="3.52273" fill="#E5434B"/>
<path d="M201.38 565.158C202.473 565.158 203.424 565.346 204.231 565.72C205.038 566.087 205.662 566.623 206.102 567.327C206.55 568.032 206.774 568.887 206.774 569.892C206.774 570.993 206.535 571.943 206.058 572.743C205.581 573.536 204.895 574.149 204 574.582C203.104 575.007 202.033 575.22 200.785 575.22C199.949 575.22 199.171 575.147 198.451 575C197.732 574.853 197.127 574.633 196.635 574.339V572.6C197.171 572.923 197.82 573.18 198.584 573.371C199.347 573.562 200.088 573.657 200.807 573.657C201.622 573.657 202.334 573.529 202.943 573.272C203.559 573.007 204.036 572.611 204.374 572.083C204.719 571.547 204.891 570.875 204.891 570.068C204.891 568.997 204.561 568.171 203.901 567.591C203.247 567.004 202.213 566.711 200.796 566.711C200.341 566.711 199.842 566.747 199.299 566.821C198.756 566.894 198.308 566.975 197.956 567.063L197.031 566.457L197.648 558.906H205.651V560.579H199.211L198.804 565.434C199.083 565.375 199.442 565.316 199.883 565.257C200.323 565.191 200.822 565.158 201.38 565.158ZM212.884 568.824L208.711 562.935H210.803L213.984 567.58L217.155 562.935H219.224L215.052 568.824L219.456 575H217.364L213.984 570.079L210.583 575H208.513L212.884 568.824ZM227.91 558.906L221.922 575H220.116L226.116 558.906H227.91ZM239.91 574.978L237.763 567.955C237.667 567.654 237.576 567.36 237.488 567.074C237.407 566.78 237.33 566.501 237.256 566.237C237.19 565.966 237.128 565.716 237.069 565.489C237.018 565.254 236.974 565.052 236.937 564.883H236.86C236.831 565.052 236.79 565.254 236.739 565.489C236.688 565.716 236.625 565.966 236.552 566.237C236.486 566.509 236.412 566.795 236.332 567.096C236.251 567.389 236.159 567.687 236.057 567.988L233.811 574.978H231.752L228.428 562.913H230.321L232.06 569.573C232.178 570.013 232.288 570.45 232.391 570.883C232.501 571.308 232.593 571.712 232.666 572.094C232.747 572.468 232.805 572.795 232.842 573.074H232.93C232.974 572.89 233.022 572.67 233.073 572.413C233.132 572.156 233.194 571.885 233.26 571.598C233.334 571.305 233.411 571.015 233.492 570.729C233.572 570.435 233.653 570.16 233.734 569.903L235.957 562.913H237.928L240.075 569.892C240.185 570.244 240.291 570.611 240.394 570.993C240.504 571.375 240.603 571.745 240.691 572.105C240.779 572.457 240.842 572.773 240.878 573.051H240.966C240.996 572.802 241.051 572.494 241.131 572.127C241.212 571.76 241.304 571.356 241.407 570.916C241.517 570.475 241.631 570.028 241.748 569.573L243.509 562.913H245.37L242.034 574.978H239.91ZM252.217 562.714C253.245 562.714 254.125 562.942 254.859 563.397C255.593 563.852 256.154 564.491 256.543 565.313C256.932 566.127 257.127 567.081 257.127 568.175V569.309H248.793C248.815 570.725 249.168 571.804 249.85 572.545C250.533 573.286 251.494 573.657 252.734 573.657C253.498 573.657 254.173 573.587 254.76 573.448C255.347 573.308 255.956 573.103 256.587 572.831V574.439C255.978 574.71 255.373 574.908 254.771 575.033C254.177 575.158 253.472 575.22 252.657 575.22C251.498 575.22 250.485 574.985 249.619 574.516C248.76 574.039 248.093 573.341 247.615 572.424C247.138 571.507 246.9 570.384 246.9 569.055C246.9 567.756 247.116 566.634 247.549 565.687C247.99 564.733 248.606 563.999 249.399 563.485C250.199 562.971 251.138 562.714 252.217 562.714ZM252.195 564.212C251.219 564.212 250.441 564.531 249.861 565.169C249.281 565.808 248.936 566.7 248.826 567.844H255.211C255.204 567.125 255.09 566.494 254.87 565.951C254.657 565.401 254.331 564.975 253.89 564.674C253.45 564.366 252.885 564.212 252.195 564.212ZM264.877 562.714C265.904 562.714 266.785 562.942 267.519 563.397C268.253 563.852 268.814 564.491 269.203 565.313C269.592 566.127 269.787 567.081 269.787 568.175V569.309H261.453C261.475 570.725 261.827 571.804 262.51 572.545C263.193 573.286 264.154 573.657 265.394 573.657C266.157 573.657 266.833 573.587 267.42 573.448C268.007 573.308 268.616 573.103 269.247 572.831V574.439C268.638 574.71 268.033 574.908 267.431 575.033C266.836 575.158 266.132 575.22 265.317 575.22C264.158 575.22 263.145 574.985 262.279 574.516C261.42 574.039 260.752 573.341 260.275 572.424C259.798 571.507 259.56 570.384 259.56 569.055C259.56 567.756 259.776 566.634 260.209 565.687C260.65 564.733 261.266 563.999 262.059 563.485C262.859 562.971 263.798 562.714 264.877 562.714ZM264.855 564.212C263.879 564.212 263.101 564.531 262.521 565.169C261.941 565.808 261.596 566.7 261.486 567.844H267.871C267.864 567.125 267.75 566.494 267.53 565.951C267.317 565.401 266.99 564.975 266.55 564.674C266.11 564.366 265.545 564.212 264.855 564.212ZM274.707 557.871V566.766C274.707 567.059 274.696 567.419 274.674 567.844C274.652 568.263 274.634 568.633 274.619 568.956H274.696C274.851 568.766 275.074 568.483 275.368 568.109C275.669 567.734 275.922 567.433 276.128 567.206L280.135 562.935H282.281L277.427 568.087L282.634 575H280.432L276.172 569.287L274.707 570.63V575H272.891V557.871H274.707Z" fill="black"/>
<rect x="303.182" y="555.932" width="21.1364" height="21.1364" rx="3.52273" fill="#A82F35"/>
<path d="M332.641 568.12C332.641 567.151 332.707 566.204 332.839 565.279C332.978 564.355 333.21 563.496 333.532 562.703C333.855 561.904 334.296 561.203 334.853 560.601C335.411 559.999 336.105 559.529 336.934 559.192C337.771 558.847 338.773 558.674 339.939 558.674C340.27 558.674 340.626 558.693 341.007 558.729C341.389 558.759 341.704 558.81 341.954 558.884V560.458C341.682 560.362 341.371 560.293 341.018 560.249C340.673 560.205 340.325 560.183 339.972 560.183C338.607 560.183 337.532 560.48 336.747 561.074C335.969 561.669 335.408 562.476 335.063 563.496C334.718 564.509 334.52 565.65 334.468 566.92H334.589C334.817 566.553 335.107 566.223 335.459 565.929C335.811 565.628 336.237 565.39 336.736 565.213C337.242 565.037 337.829 564.949 338.497 564.949C339.437 564.949 340.255 565.14 340.952 565.522C341.657 565.903 342.2 566.457 342.581 567.184C342.97 567.911 343.165 568.791 343.165 569.826C343.165 570.934 342.959 571.892 342.548 572.699C342.137 573.507 341.55 574.13 340.787 574.571C340.031 575.004 339.128 575.22 338.079 575.22C337.294 575.22 336.571 575.07 335.91 574.769C335.25 574.468 334.674 574.02 334.182 573.426C333.698 572.831 333.32 572.094 333.048 571.213C332.777 570.325 332.641 569.294 332.641 568.12ZM338.057 573.679C339.055 573.679 339.855 573.36 340.457 572.721C341.059 572.083 341.36 571.118 341.36 569.826C341.36 568.769 341.092 567.933 340.556 567.316C340.02 566.7 339.213 566.391 338.134 566.391C337.4 566.391 336.762 566.545 336.219 566.854C335.675 567.155 335.253 567.536 334.953 567.999C334.652 568.461 334.501 568.931 334.501 569.408C334.501 569.892 334.571 570.384 334.71 570.883C334.857 571.382 335.077 571.844 335.371 572.27C335.664 572.696 336.035 573.037 336.483 573.294C336.93 573.551 337.455 573.679 338.057 573.679ZM349.065 568.824L344.893 562.935H346.985L350.166 567.58L353.337 562.935H355.406L351.234 568.824L355.638 575H353.546L350.166 570.079L346.765 575H344.695L349.065 568.824ZM364.092 558.906L358.103 575H356.298L362.298 558.906H364.092ZM376.091 574.978L373.945 567.955C373.849 567.654 373.758 567.36 373.67 567.074C373.589 566.78 373.512 566.501 373.438 566.237C373.372 565.966 373.31 565.716 373.251 565.489C373.2 565.254 373.156 565.052 373.119 564.883H373.042C373.013 565.052 372.972 565.254 372.921 565.489C372.87 565.716 372.807 565.966 372.734 566.237C372.668 566.509 372.594 566.795 372.514 567.096C372.433 567.389 372.341 567.687 372.238 567.988L369.993 574.978H367.934L364.61 562.913H366.503L368.242 569.573C368.36 570.013 368.47 570.45 368.573 570.883C368.683 571.308 368.774 571.712 368.848 572.094C368.929 572.468 368.987 572.795 369.024 573.074H369.112C369.156 572.89 369.204 572.67 369.255 572.413C369.314 572.156 369.376 571.885 369.442 571.598C369.516 571.305 369.593 571.015 369.673 570.729C369.754 570.435 369.835 570.16 369.916 569.903L372.139 562.913H374.11L376.257 569.892C376.367 570.244 376.473 570.611 376.576 570.993C376.686 571.375 376.785 571.745 376.873 572.105C376.961 572.457 377.023 572.773 377.06 573.051H377.148C377.178 572.802 377.233 572.494 377.313 572.127C377.394 571.76 377.486 571.356 377.589 570.916C377.699 570.475 377.812 570.028 377.93 569.573L379.691 562.913H381.552L378.216 574.978H376.091ZM388.399 562.714C389.426 562.714 390.307 562.942 391.041 563.397C391.775 563.852 392.336 564.491 392.725 565.313C393.114 566.127 393.309 567.081 393.309 568.175V569.309H384.975C384.997 570.725 385.35 571.804 386.032 572.545C386.715 573.286 387.676 573.657 388.916 573.657C389.68 573.657 390.355 573.587 390.942 573.448C391.529 573.308 392.138 573.103 392.769 572.831V574.439C392.16 574.71 391.555 574.908 390.953 575.033C390.358 575.158 389.654 575.22 388.839 575.22C387.68 575.22 386.667 574.985 385.801 574.516C384.942 574.039 384.274 573.341 383.797 572.424C383.32 571.507 383.082 570.384 383.082 569.055C383.082 567.756 383.298 566.634 383.731 565.687C384.172 564.733 384.788 563.999 385.581 563.485C386.381 562.971 387.32 562.714 388.399 562.714ZM388.377 564.212C387.401 564.212 386.623 564.531 386.043 565.169C385.463 565.808 385.118 566.7 385.008 567.844H391.393C391.386 567.125 391.272 566.494 391.052 565.951C390.839 565.401 390.513 564.975 390.072 564.674C389.632 564.366 389.067 564.212 388.377 564.212ZM401.059 562.714C402.086 562.714 402.967 562.942 403.701 563.397C404.435 563.852 404.996 564.491 405.385 565.313C405.774 566.127 405.969 567.081 405.969 568.175V569.309H397.635C397.657 570.725 398.009 571.804 398.692 572.545C399.374 573.286 400.336 573.657 401.576 573.657C402.339 573.657 403.015 573.587 403.602 573.448C404.189 573.308 404.798 573.103 405.429 572.831V574.439C404.82 574.71 404.215 574.908 403.613 575.033C403.018 575.158 402.314 575.22 401.499 575.22C400.34 575.22 399.327 574.985 398.461 574.516C397.602 574.039 396.934 573.341 396.457 572.424C395.98 571.507 395.742 570.384 395.742 569.055C395.742 567.756 395.958 566.634 396.391 565.687C396.831 564.733 397.448 563.999 398.241 563.485C399.04 562.971 399.98 562.714 401.059 562.714ZM401.037 564.212C400.061 564.212 399.283 564.531 398.703 565.169C398.123 565.808 397.778 566.7 397.668 567.844H404.053C404.046 567.125 403.932 566.494 403.712 565.951C403.499 565.401 403.172 564.975 402.732 564.674C402.292 564.366 401.727 564.212 401.037 564.212ZM410.889 557.871V566.766C410.889 567.059 410.878 567.419 410.856 567.844C410.834 568.263 410.816 568.633 410.801 568.956H410.878C411.032 568.766 411.256 568.483 411.55 568.109C411.851 567.734 412.104 567.433 412.309 567.206L416.317 562.935H418.463L413.608 568.087L418.815 575H416.614L412.353 569.287L410.889 570.63V575H409.073V557.871H410.889Z" fill="black"/>
<rect x="439.364" y="555.932" width="21.1364" height="21.1364" rx="3.52273" fill="#851D22"/>
<path d="M478.708 575H469.747V558.906H478.708V560.557H471.619V565.764H478.301V567.393H471.619V573.349H478.708V575ZM484.653 575L480.073 562.935H482.033L484.686 570.233C484.869 570.732 485.057 571.283 485.247 571.885C485.438 572.486 485.57 572.971 485.644 573.338H485.721C485.809 572.971 485.956 572.486 486.161 571.885C486.367 571.275 486.554 570.725 486.723 570.233L489.376 562.935H491.335L486.745 575H484.653ZM497.918 562.714C498.946 562.714 499.826 562.942 500.56 563.397C501.294 563.852 501.856 564.491 502.245 565.313C502.633 566.127 502.828 567.081 502.828 568.175V569.309H494.495C494.517 570.725 494.869 571.804 495.551 572.545C496.234 573.286 497.195 573.657 498.436 573.657C499.199 573.657 499.874 573.587 500.461 573.448C501.048 573.308 501.657 573.103 502.289 572.831V574.439C501.679 574.71 501.074 574.908 500.472 575.033C499.878 575.158 499.173 575.22 498.359 575.22C497.199 575.22 496.186 574.985 495.32 574.516C494.461 574.039 493.794 573.341 493.317 572.424C492.84 571.507 492.601 570.384 492.601 569.055C492.601 567.756 492.818 566.634 493.251 565.687C493.691 564.733 494.307 563.999 495.1 563.485C495.9 562.971 496.839 562.714 497.918 562.714ZM497.896 564.212C496.92 564.212 496.142 564.531 495.562 565.169C494.983 565.808 494.638 566.7 494.528 567.844H500.912C500.905 567.125 500.791 566.494 500.571 565.951C500.358 565.401 500.032 564.975 499.591 564.674C499.151 564.366 498.586 564.212 497.896 564.212ZM511.415 562.714C511.657 562.714 511.91 562.729 512.174 562.759C512.438 562.781 512.673 562.814 512.879 562.858L512.648 564.553C512.449 564.502 512.229 564.461 511.987 564.432C511.745 564.402 511.517 564.388 511.305 564.388C510.82 564.388 510.361 564.487 509.928 564.685C509.503 564.876 509.129 565.155 508.806 565.522C508.483 565.881 508.229 566.318 508.046 566.832C507.863 567.338 507.771 567.903 507.771 568.527V575H505.932V562.935H507.452L507.65 565.158H507.727C507.976 564.711 508.277 564.303 508.629 563.936C508.982 563.562 509.389 563.265 509.851 563.045C510.321 562.825 510.842 562.714 511.415 562.714ZM513.253 562.935H515.213L517.877 569.936C518.031 570.347 518.174 570.743 518.306 571.125C518.438 571.499 518.555 571.859 518.658 572.204C518.761 572.549 518.842 572.883 518.9 573.206H518.977C519.08 572.839 519.227 572.358 519.418 571.763C519.609 571.162 519.814 570.549 520.034 569.925L522.555 562.935H524.526L519.275 576.772C518.996 577.514 518.669 578.159 518.295 578.71C517.928 579.26 517.48 579.682 516.952 579.976C516.423 580.277 515.785 580.427 515.036 580.427C514.691 580.427 514.387 580.405 514.123 580.361C513.859 580.324 513.631 580.28 513.44 580.229V578.765C513.602 578.802 513.796 578.835 514.024 578.864C514.258 578.893 514.501 578.908 514.75 578.908C515.205 578.908 515.598 578.82 515.928 578.644C516.266 578.475 516.556 578.225 516.798 577.895C517.04 577.565 517.249 577.172 517.425 576.717L518.086 575.022L513.253 562.935ZM536.602 575.22C535.076 575.22 533.865 574.699 532.969 573.657C532.081 572.615 531.637 571.066 531.637 569.011C531.637 566.934 532.092 565.368 533.002 564.311C533.912 563.247 535.123 562.714 536.635 562.714C537.274 562.714 537.831 562.799 538.308 562.968C538.785 563.136 539.196 563.364 539.541 563.65C539.886 563.929 540.176 564.248 540.411 564.608H540.543C540.514 564.38 540.484 564.069 540.455 563.672C540.426 563.276 540.411 562.953 540.411 562.703V557.871H542.238V575H540.763L540.488 573.283H540.411C540.184 573.642 539.894 573.969 539.541 574.262C539.196 574.556 538.782 574.791 538.297 574.967C537.82 575.136 537.255 575.22 536.602 575.22ZM536.888 573.701C538.18 573.701 539.094 573.334 539.629 572.6C540.165 571.866 540.433 570.776 540.433 569.331V569C540.433 567.467 540.176 566.289 539.662 565.467C539.156 564.645 538.231 564.234 536.888 564.234C535.765 564.234 534.925 564.667 534.367 565.533C533.81 566.391 533.531 567.566 533.531 569.055C533.531 570.538 533.806 571.683 534.356 572.49C534.914 573.297 535.758 573.701 536.888 573.701ZM550.627 562.737C552.065 562.737 553.133 563.059 553.83 563.705C554.528 564.351 554.876 565.382 554.876 566.799V575H553.544L553.192 573.217H553.104C552.766 573.657 552.414 574.028 552.047 574.328C551.68 574.622 551.254 574.846 550.77 575C550.293 575.147 549.706 575.22 549.009 575.22C548.275 575.22 547.622 575.092 547.049 574.835C546.484 574.578 546.036 574.189 545.706 573.668C545.383 573.147 545.222 572.486 545.222 571.686C545.222 570.483 545.699 569.558 546.653 568.912C547.607 568.266 549.06 567.914 551.012 567.855L553.093 567.767V567.03C553.093 565.988 552.869 565.257 552.421 564.839C551.974 564.421 551.343 564.212 550.528 564.212C549.897 564.212 549.295 564.303 548.723 564.487C548.15 564.67 547.607 564.887 547.093 565.136L546.532 563.749C547.075 563.47 547.699 563.232 548.403 563.034C549.108 562.836 549.849 562.737 550.627 562.737ZM553.071 569.055L551.232 569.132C549.728 569.191 548.667 569.437 548.051 569.87C547.435 570.303 547.126 570.916 547.126 571.708C547.126 572.398 547.335 572.908 547.754 573.239C548.172 573.569 548.726 573.734 549.416 573.734C550.488 573.734 551.365 573.437 552.047 572.842C552.73 572.248 553.071 571.356 553.071 570.167V569.055ZM556.737 562.935H558.696L561.36 569.936C561.514 570.347 561.658 570.743 561.79 571.125C561.922 571.499 562.039 571.859 562.142 572.204C562.245 572.549 562.325 572.883 562.384 573.206H562.461C562.564 572.839 562.711 572.358 562.901 571.763C563.092 571.162 563.298 570.549 563.518 569.925L566.039 562.935H568.009L562.758 576.772C562.479 577.514 562.153 578.159 561.779 578.71C561.412 579.26 560.964 579.682 560.436 579.976C559.907 580.277 559.269 580.427 558.52 580.427C558.175 580.427 557.871 580.405 557.606 580.361C557.342 580.324 557.115 580.28 556.924 580.229V578.765C557.085 578.802 557.28 578.835 557.507 578.864C557.742 578.893 557.984 578.908 558.234 578.908C558.689 578.908 559.082 578.82 559.412 578.644C559.749 578.475 560.039 578.225 560.281 577.895C560.524 577.565 560.733 577.172 560.909 576.717L561.569 575.022L556.737 562.935Z" fill="black"/>
</g>
<defs>
<clipPath id="clip0_7245_29825">
<rect width="735.545" height="582" fill="white"/>
</clipPath>
</defs>
</svg>
