<svg width="736" height="582" viewBox="0 0 736 582" fill="none" xmlns="http://www.w3.org/2000/svg">
<g clip-path="url(#clip0_7245_29882)">
<path d="M367.773 224.992L367.773 0C415.285 0 461.577 15.0418 500.015 42.9696L367.773 224.992Z" fill="#F4C3C1" stroke="white"/>
<path d="M367.773 224.992L500.015 42.9698C600.54 116.008 622.824 256.711 549.789 357.239C476.753 457.767 336.055 480.052 235.53 407.015L367.773 224.992Z" fill="#EF9F93" stroke="white"/>
<path d="M367.773 224.992L235.53 407.014C135.006 333.976 112.721 193.273 185.757 92.745C228.088 34.4787 295.754 0 367.773 0V224.992Z" fill="#E8706D" stroke="white"/>
<path d="M438.07 266.031C439.622 266.031 440.971 266.297 442.116 266.828C443.262 267.349 444.148 268.109 444.773 269.109C445.408 270.109 445.726 271.323 445.726 272.75C445.726 274.312 445.387 275.661 444.71 276.797C444.033 277.922 443.059 278.792 441.788 279.406C440.517 280.01 438.997 280.312 437.226 280.312C436.038 280.312 434.934 280.208 433.913 280C432.892 279.792 432.033 279.479 431.335 279.062V276.594C432.096 277.052 433.017 277.417 434.101 277.688C435.184 277.958 436.236 278.094 437.257 278.094C438.413 278.094 439.424 277.911 440.288 277.547C441.163 277.172 441.84 276.609 442.32 275.859C442.809 275.099 443.054 274.146 443.054 273C443.054 271.479 442.585 270.307 441.648 269.484C440.721 268.651 439.252 268.234 437.241 268.234C436.596 268.234 435.887 268.286 435.116 268.391C434.346 268.495 433.71 268.609 433.21 268.734L431.898 267.875L432.773 257.156H444.132V259.531H434.991L434.413 266.422C434.809 266.339 435.32 266.255 435.945 266.172C436.57 266.078 437.278 266.031 438.07 266.031ZM464.257 268.547C464.257 270.401 464.116 272.057 463.835 273.516C463.554 274.974 463.111 276.208 462.507 277.219C461.903 278.229 461.122 279 460.163 279.531C459.205 280.052 458.054 280.312 456.71 280.312C455.012 280.312 453.606 279.849 452.491 278.922C451.387 277.995 450.559 276.656 450.007 274.906C449.465 273.146 449.195 271.026 449.195 268.547C449.195 266.109 449.439 264.016 449.929 262.266C450.429 260.505 451.231 259.156 452.335 258.219C453.439 257.271 454.898 256.797 456.71 256.797C458.429 256.797 459.846 257.266 460.96 258.203C462.075 259.13 462.903 260.474 463.445 262.234C463.986 263.984 464.257 266.089 464.257 268.547ZM451.804 268.547C451.804 270.672 451.965 272.443 452.288 273.859C452.611 275.276 453.132 276.339 453.851 277.047C454.58 277.745 455.533 278.094 456.71 278.094C457.887 278.094 458.835 277.745 459.554 277.047C460.283 276.349 460.809 275.292 461.132 273.875C461.465 272.458 461.632 270.682 461.632 268.547C461.632 266.453 461.471 264.703 461.148 263.297C460.825 261.88 460.304 260.818 459.585 260.109C458.866 259.391 457.908 259.031 456.71 259.031C455.512 259.031 454.554 259.391 453.835 260.109C453.116 260.818 452.596 261.88 452.273 263.297C451.96 264.703 451.804 266.453 451.804 268.547ZM472.132 256.828C473.695 256.828 474.877 257.453 475.679 258.703C476.491 259.943 476.898 261.698 476.898 263.969C476.898 266.24 476.507 268.01 475.726 269.281C474.945 270.542 473.747 271.172 472.132 271.172C470.632 271.172 469.481 270.542 468.679 269.281C467.887 268.01 467.491 266.24 467.491 263.969C467.491 261.698 467.872 259.943 468.632 258.703C469.392 257.453 470.559 256.828 472.132 256.828ZM472.132 258.688C471.288 258.688 470.669 259.13 470.273 260.016C469.877 260.891 469.679 262.208 469.679 263.969C469.679 265.729 469.877 267.057 470.273 267.953C470.669 268.849 471.288 269.297 472.132 269.297C473.007 269.297 473.658 268.849 474.085 267.953C474.512 267.057 474.726 265.729 474.726 263.969C474.726 262.219 474.512 260.901 474.085 260.016C473.669 259.13 473.017 258.688 472.132 258.688ZM486.601 257.156L473.929 280H471.648L484.32 257.156H486.601ZM485.991 265.984C487.544 265.984 488.726 266.609 489.538 267.859C490.351 269.099 490.757 270.854 490.757 273.125C490.757 275.385 490.366 277.151 489.585 278.422C488.804 279.682 487.606 280.312 485.991 280.312C484.481 280.312 483.33 279.682 482.538 278.422C481.747 277.151 481.351 275.385 481.351 273.125C481.351 270.854 481.726 269.099 482.476 267.859C483.236 266.609 484.408 265.984 485.991 265.984ZM485.991 267.859C485.148 267.859 484.528 268.297 484.132 269.172C483.736 270.047 483.538 271.365 483.538 273.125C483.538 274.885 483.736 276.214 484.132 277.109C484.528 277.995 485.148 278.438 485.991 278.438C486.866 278.438 487.517 278 487.945 277.125C488.372 276.24 488.585 274.906 488.585 273.125C488.585 271.375 488.372 270.062 487.945 269.188C487.528 268.302 486.877 267.859 485.991 267.859Z" fill="white"/>
<path d="M244.46 193.703H241.038V199H238.507V193.703H227.46V191.516L238.335 176.031H241.038V191.359H244.46V193.703ZM238.507 191.359V183.891C238.507 183.318 238.512 182.802 238.523 182.344C238.533 181.875 238.549 181.443 238.57 181.047C238.59 180.641 238.606 180.255 238.616 179.891C238.637 179.526 238.653 179.167 238.663 178.812H238.538C238.34 179.229 238.111 179.672 237.851 180.141C237.601 180.599 237.346 181.01 237.085 181.375L230.038 191.359H238.507ZM261.757 187.547C261.757 189.401 261.616 191.057 261.335 192.516C261.054 193.974 260.611 195.208 260.007 196.219C259.403 197.229 258.622 198 257.663 198.531C256.705 199.052 255.554 199.312 254.21 199.312C252.512 199.312 251.106 198.849 249.991 197.922C248.887 196.995 248.059 195.656 247.507 193.906C246.965 192.146 246.695 190.026 246.695 187.547C246.695 185.109 246.939 183.016 247.429 181.266C247.929 179.505 248.731 178.156 249.835 177.219C250.939 176.271 252.398 175.797 254.21 175.797C255.929 175.797 257.346 176.266 258.46 177.203C259.575 178.13 260.403 179.474 260.945 181.234C261.486 182.984 261.757 185.089 261.757 187.547ZM249.304 187.547C249.304 189.672 249.465 191.443 249.788 192.859C250.111 194.276 250.632 195.339 251.351 196.047C252.08 196.745 253.033 197.094 254.21 197.094C255.387 197.094 256.335 196.745 257.054 196.047C257.783 195.349 258.309 194.292 258.632 192.875C258.965 191.458 259.132 189.682 259.132 187.547C259.132 185.453 258.971 183.703 258.648 182.297C258.325 180.88 257.804 179.818 257.085 179.109C256.366 178.391 255.408 178.031 254.21 178.031C253.012 178.031 252.054 178.391 251.335 179.109C250.616 179.818 250.096 180.88 249.773 182.297C249.46 183.703 249.304 185.453 249.304 187.547ZM269.632 175.828C271.195 175.828 272.377 176.453 273.179 177.703C273.991 178.943 274.398 180.698 274.398 182.969C274.398 185.24 274.007 187.01 273.226 188.281C272.445 189.542 271.247 190.172 269.632 190.172C268.132 190.172 266.981 189.542 266.179 188.281C265.387 187.01 264.991 185.24 264.991 182.969C264.991 180.698 265.372 178.943 266.132 177.703C266.892 176.453 268.059 175.828 269.632 175.828ZM269.632 177.688C268.788 177.688 268.169 178.13 267.773 179.016C267.377 179.891 267.179 181.208 267.179 182.969C267.179 184.729 267.377 186.057 267.773 186.953C268.169 187.849 268.788 188.297 269.632 188.297C270.507 188.297 271.158 187.849 271.585 186.953C272.012 186.057 272.226 184.729 272.226 182.969C272.226 181.219 272.012 179.901 271.585 179.016C271.169 178.13 270.517 177.688 269.632 177.688ZM284.101 176.156L271.429 199H269.148L281.82 176.156H284.101ZM283.491 184.984C285.044 184.984 286.226 185.609 287.038 186.859C287.851 188.099 288.257 189.854 288.257 192.125C288.257 194.385 287.866 196.151 287.085 197.422C286.304 198.682 285.106 199.312 283.491 199.312C281.981 199.312 280.83 198.682 280.038 197.422C279.247 196.151 278.851 194.385 278.851 192.125C278.851 189.854 279.226 188.099 279.976 186.859C280.736 185.609 281.908 184.984 283.491 184.984ZM283.491 186.859C282.648 186.859 282.028 187.297 281.632 188.172C281.236 189.047 281.038 190.365 281.038 192.125C281.038 193.885 281.236 195.214 281.632 196.109C282.028 196.995 282.648 197.438 283.491 197.438C284.366 197.438 285.017 197 285.445 196.125C285.872 195.24 286.085 193.906 286.085 192.125C286.085 190.375 285.872 189.062 285.445 188.188C285.028 187.302 284.377 186.859 283.491 186.859Z" fill="white"/>
<path d="M389.507 88H386.976V71.8125C386.976 71.1979 386.976 70.6719 386.976 70.2344C386.986 69.7865 386.997 69.3802 387.007 69.0156C387.028 68.6406 387.054 68.2604 387.085 67.875C386.762 68.2083 386.46 68.4948 386.179 68.7344C385.898 68.9635 385.549 69.25 385.132 69.5938L382.523 71.6875L381.163 69.9219L387.351 65.1562H389.507V88ZM413.257 76.5469C413.257 78.401 413.116 80.0573 412.835 81.5156C412.554 82.974 412.111 84.2083 411.507 85.2188C410.903 86.2292 410.122 87 409.163 87.5312C408.205 88.0521 407.054 88.3125 405.71 88.3125C404.012 88.3125 402.606 87.849 401.491 86.9219C400.387 85.9948 399.559 84.6562 399.007 82.9062C398.465 81.1458 398.195 79.026 398.195 76.5469C398.195 74.1094 398.439 72.0156 398.929 70.2656C399.429 68.5052 400.231 67.1562 401.335 66.2188C402.439 65.2708 403.898 64.7969 405.71 64.7969C407.429 64.7969 408.846 65.2656 409.96 66.2031C411.075 67.1302 411.903 68.474 412.445 70.2344C412.986 71.9844 413.257 74.0885 413.257 76.5469ZM400.804 76.5469C400.804 78.6719 400.965 80.4427 401.288 81.8594C401.611 83.276 402.132 84.3385 402.851 85.0469C403.58 85.7448 404.533 86.0938 405.71 86.0938C406.887 86.0938 407.835 85.7448 408.554 85.0469C409.283 84.349 409.809 83.2917 410.132 81.875C410.465 80.4583 410.632 78.6823 410.632 76.5469C410.632 74.4531 410.471 72.7031 410.148 71.2969C409.825 69.8802 409.304 68.8177 408.585 68.1094C407.866 67.3906 406.908 67.0312 405.71 67.0312C404.512 67.0312 403.554 67.3906 402.835 68.1094C402.116 68.8177 401.596 69.8802 401.273 71.2969C400.96 72.7031 400.804 74.4531 400.804 76.5469ZM421.132 64.8281C422.695 64.8281 423.877 65.4531 424.679 66.7031C425.491 67.9427 425.898 69.6979 425.898 71.9688C425.898 74.2396 425.507 76.0104 424.726 77.2812C423.945 78.5417 422.747 79.1719 421.132 79.1719C419.632 79.1719 418.481 78.5417 417.679 77.2812C416.887 76.0104 416.491 74.2396 416.491 71.9688C416.491 69.6979 416.872 67.9427 417.632 66.7031C418.392 65.4531 419.559 64.8281 421.132 64.8281ZM421.132 66.6875C420.288 66.6875 419.669 67.1302 419.273 68.0156C418.877 68.8906 418.679 70.2083 418.679 71.9688C418.679 73.7292 418.877 75.0573 419.273 75.9531C419.669 76.849 420.288 77.2969 421.132 77.2969C422.007 77.2969 422.658 76.849 423.085 75.9531C423.512 75.0573 423.726 73.7292 423.726 71.9688C423.726 70.2188 423.512 68.901 423.085 68.0156C422.669 67.1302 422.017 66.6875 421.132 66.6875ZM435.601 65.1562L422.929 88H420.648L433.32 65.1562H435.601ZM434.991 73.9844C436.544 73.9844 437.726 74.6094 438.538 75.8594C439.351 77.099 439.757 78.8542 439.757 81.125C439.757 83.3854 439.366 85.151 438.585 86.4219C437.804 87.6823 436.606 88.3125 434.991 88.3125C433.481 88.3125 432.33 87.6823 431.538 86.4219C430.747 85.151 430.351 83.3854 430.351 81.125C430.351 78.8542 430.726 77.099 431.476 75.8594C432.236 74.6094 433.408 73.9844 434.991 73.9844ZM434.991 75.8594C434.148 75.8594 433.528 76.2969 433.132 77.1719C432.736 78.0469 432.538 79.3646 432.538 81.125C432.538 82.8854 432.736 84.2135 433.132 85.1094C433.528 85.9948 434.148 86.4375 434.991 86.4375C435.866 86.4375 436.517 86 436.945 85.125C437.372 84.2396 437.585 82.9062 437.585 81.125C437.585 79.375 437.372 78.0625 436.945 77.1875C436.528 76.3021 435.877 75.8594 434.991 75.8594Z" fill="white"/>
<rect x="135" y="504.932" width="21.1364" height="21.1364" rx="3.52273" fill="#FDE3DF"/>
<path d="M169.38 514.158C170.473 514.158 171.424 514.346 172.231 514.72C173.038 515.087 173.662 515.623 174.102 516.327C174.55 517.032 174.774 517.887 174.774 518.892C174.774 519.993 174.535 520.943 174.058 521.743C173.581 522.536 172.895 523.149 172 523.582C171.104 524.007 170.033 524.22 168.785 524.22C167.949 524.22 167.171 524.147 166.451 524C165.732 523.853 165.127 523.633 164.635 523.339V521.6C165.171 521.923 165.82 522.18 166.584 522.371C167.347 522.562 168.088 522.657 168.807 522.657C169.622 522.657 170.334 522.529 170.943 522.272C171.559 522.007 172.036 521.611 172.374 521.083C172.719 520.547 172.891 519.875 172.891 519.068C172.891 517.997 172.561 517.171 171.901 516.591C171.247 516.004 170.213 515.711 168.796 515.711C168.341 515.711 167.842 515.747 167.299 515.821C166.756 515.894 166.308 515.975 165.956 516.063L165.031 515.457L165.648 507.906H173.651V509.579H167.211L166.804 514.434C167.083 514.375 167.442 514.316 167.883 514.257C168.323 514.191 168.822 514.158 169.38 514.158ZM196.967 511.714C198.295 511.714 199.297 512.063 199.972 512.76C200.648 513.45 200.985 514.562 200.985 516.096V524H199.18V516.184C199.18 515.208 198.967 514.478 198.541 513.993C198.123 513.502 197.499 513.256 196.67 513.256C195.503 513.256 194.655 513.593 194.127 514.268C193.598 514.944 193.334 515.938 193.334 517.252V524H191.518V516.184C191.518 515.531 191.422 514.988 191.232 514.555C191.048 514.122 190.769 513.799 190.395 513.586C190.028 513.366 189.562 513.256 188.997 513.256C188.197 513.256 187.555 513.421 187.07 513.751C186.586 514.081 186.234 514.573 186.014 515.226C185.801 515.872 185.694 516.668 185.694 517.615V524H183.867V511.935H185.342L185.617 513.641H185.716C185.959 513.223 186.263 512.87 186.63 512.584C186.997 512.298 187.408 512.081 187.863 511.935C188.318 511.788 188.802 511.714 189.316 511.714C190.233 511.714 191 511.887 191.617 512.232C192.241 512.569 192.692 513.087 192.971 513.784H193.07C193.466 513.087 194.009 512.569 194.699 512.232C195.389 511.887 196.145 511.714 196.967 511.714ZM206.566 511.935V524H204.739V511.935H206.566ZM205.675 507.421C205.976 507.421 206.233 507.52 206.445 507.718C206.666 507.909 206.776 508.21 206.776 508.621C206.776 509.025 206.666 509.326 206.445 509.524C206.233 509.722 205.976 509.821 205.675 509.821C205.359 509.821 205.095 509.722 204.882 509.524C204.677 509.326 204.574 509.025 204.574 508.621C204.574 508.21 204.677 507.909 204.882 507.718C205.095 507.52 205.359 507.421 205.675 507.421ZM216.155 511.714C217.586 511.714 218.669 512.067 219.402 512.771C220.136 513.469 220.503 514.591 220.503 516.14V524H218.698V516.261C218.698 515.256 218.467 514.503 218.004 514.004C217.549 513.505 216.848 513.256 215.902 513.256C214.566 513.256 213.627 513.634 213.084 514.39C212.54 515.145 212.269 516.243 212.269 517.681V524H210.441V511.935H211.917L212.192 513.674H212.291C212.548 513.248 212.874 512.892 213.271 512.606C213.667 512.313 214.111 512.092 214.603 511.946C215.094 511.792 215.612 511.714 216.155 511.714ZM234.231 511.935V524H232.734L232.47 522.305H232.37C232.121 522.723 231.798 523.075 231.402 523.362C231.005 523.648 230.558 523.861 230.059 524C229.567 524.147 229.042 524.22 228.484 524.22C227.53 524.22 226.73 524.066 226.085 523.758C225.439 523.45 224.951 522.973 224.62 522.327C224.298 521.681 224.136 520.852 224.136 519.839V511.935H225.986V519.707C225.986 520.712 226.213 521.464 226.668 521.963C227.123 522.455 227.817 522.701 228.749 522.701C229.644 522.701 230.356 522.532 230.884 522.195C231.42 521.857 231.805 521.362 232.04 520.708C232.275 520.048 232.392 519.241 232.392 518.287V511.935H234.231ZM241.992 522.723C242.293 522.723 242.601 522.697 242.917 522.646C243.232 522.595 243.489 522.532 243.687 522.459V523.879C243.474 523.974 243.177 524.055 242.796 524.121C242.421 524.187 242.054 524.22 241.695 524.22C241.056 524.22 240.476 524.11 239.955 523.89C239.434 523.662 239.016 523.281 238.7 522.745C238.392 522.209 238.238 521.468 238.238 520.521V513.366H236.521V512.474L238.249 511.759L238.976 509.138H240.076V511.935H243.61V513.366H240.076V520.466C240.076 521.222 240.249 521.787 240.594 522.162C240.946 522.536 241.412 522.723 241.992 522.723ZM250.777 511.714C251.804 511.714 252.685 511.942 253.419 512.397C254.153 512.852 254.714 513.491 255.103 514.313C255.492 515.127 255.686 516.081 255.686 517.175V518.309H247.353C247.375 519.725 247.727 520.804 248.41 521.545C249.092 522.286 250.054 522.657 251.294 522.657C252.057 522.657 252.733 522.587 253.32 522.448C253.907 522.308 254.516 522.103 255.147 521.831V523.439C254.538 523.71 253.932 523.908 253.331 524.033C252.736 524.158 252.032 524.22 251.217 524.22C250.057 524.22 249.045 523.985 248.179 523.516C247.32 523.039 246.652 522.341 246.175 521.424C245.698 520.507 245.46 519.384 245.46 518.055C245.46 516.756 245.676 515.634 246.109 514.687C246.549 513.733 247.166 512.999 247.959 512.485C248.758 511.971 249.698 511.714 250.777 511.714ZM250.755 513.212C249.779 513.212 249.001 513.531 248.421 514.169C247.841 514.808 247.496 515.7 247.386 516.844H253.771C253.764 516.125 253.65 515.494 253.43 514.951C253.217 514.401 252.89 513.975 252.45 513.674C252.01 513.366 251.445 513.212 250.755 513.212ZM266.596 520.697C266.596 521.468 266.401 522.118 266.012 522.646C265.631 523.167 265.08 523.56 264.361 523.824C263.649 524.088 262.798 524.22 261.807 524.22C260.963 524.22 260.233 524.154 259.617 524.022C259 523.89 258.461 523.703 257.998 523.461V521.776C258.49 522.018 259.077 522.239 259.76 522.437C260.442 522.635 261.139 522.734 261.851 522.734C262.893 522.734 263.649 522.565 264.119 522.228C264.589 521.89 264.824 521.431 264.824 520.852C264.824 520.521 264.728 520.231 264.537 519.982C264.354 519.725 264.042 519.479 263.602 519.244C263.161 519.002 262.552 518.738 261.774 518.452C261.004 518.158 260.336 517.868 259.771 517.582C259.213 517.288 258.78 516.933 258.472 516.514C258.171 516.096 258.02 515.553 258.02 514.885C258.02 513.865 258.431 513.083 259.253 512.54C260.083 511.99 261.169 511.714 262.512 511.714C263.238 511.714 263.917 511.788 264.548 511.935C265.187 512.074 265.781 512.265 266.332 512.507L265.715 513.971C265.216 513.758 264.684 513.579 264.119 513.432C263.554 513.285 262.978 513.212 262.391 513.212C261.547 513.212 260.897 513.351 260.442 513.63C259.995 513.909 259.771 514.29 259.771 514.775C259.771 515.149 259.873 515.457 260.079 515.7C260.292 515.942 260.629 516.169 261.092 516.382C261.554 516.595 262.163 516.844 262.919 517.131C263.675 517.41 264.328 517.699 264.879 518C265.429 518.294 265.851 518.654 266.145 519.079C266.445 519.498 266.596 520.037 266.596 520.697Z" fill="black"/>
<rect x="288.182" y="504.932" width="21.1364" height="21.1364" rx="3.52273" fill="#F4C3C1"/>
<path d="M324.279 524H322.496V512.595C322.496 512.162 322.496 511.792 322.496 511.483C322.503 511.168 322.51 510.882 322.518 510.625C322.532 510.36 322.551 510.093 322.573 509.821C322.345 510.056 322.132 510.258 321.934 510.426C321.736 510.588 321.49 510.79 321.197 511.032L319.358 512.507L318.4 511.263L322.76 507.906H324.279V524ZM335.464 514.158C336.557 514.158 337.507 514.346 338.315 514.72C339.122 515.087 339.746 515.623 340.186 516.327C340.634 517.032 340.858 517.887 340.858 518.892C340.858 519.993 340.619 520.943 340.142 521.743C339.665 522.536 338.979 523.149 338.084 523.582C337.188 524.007 336.117 524.22 334.869 524.22C334.032 524.22 333.255 524.147 332.535 524C331.816 523.853 331.211 523.633 330.719 523.339V521.6C331.255 521.923 331.904 522.18 332.667 522.371C333.431 522.562 334.172 522.657 334.891 522.657C335.706 522.657 336.418 522.529 337.027 522.272C337.643 522.007 338.12 521.611 338.458 521.083C338.803 520.547 338.975 519.875 338.975 519.068C338.975 517.997 338.645 517.171 337.985 516.591C337.331 516.004 336.297 515.711 334.88 515.711C334.425 515.711 333.926 515.747 333.383 515.821C332.84 515.894 332.392 515.975 332.04 516.063L331.115 515.457L331.732 507.906H339.735V509.579H333.295L332.888 514.434C333.166 514.375 333.526 514.316 333.966 514.257C334.407 514.191 334.906 514.158 335.464 514.158ZM363.051 511.714C364.379 511.714 365.381 512.063 366.056 512.76C366.731 513.45 367.069 514.562 367.069 516.096V524H365.264V516.184C365.264 515.208 365.051 514.478 364.625 513.993C364.207 513.502 363.583 513.256 362.754 513.256C361.587 513.256 360.739 513.593 360.211 514.268C359.682 514.944 359.418 515.938 359.418 517.252V524H357.602V516.184C357.602 515.531 357.506 514.988 357.315 514.555C357.132 514.122 356.853 513.799 356.479 513.586C356.112 513.366 355.646 513.256 355.081 513.256C354.281 513.256 353.639 513.421 353.154 513.751C352.67 514.081 352.318 514.573 352.097 515.226C351.885 515.872 351.778 516.668 351.778 517.615V524H349.951V511.935H351.426L351.701 513.641H351.8C352.042 513.223 352.347 512.87 352.714 512.584C353.081 512.298 353.492 512.081 353.947 511.935C354.402 511.788 354.886 511.714 355.4 511.714C356.317 511.714 357.084 511.887 357.701 512.232C358.325 512.569 358.776 513.087 359.055 513.784H359.154C359.55 513.087 360.093 512.569 360.783 512.232C361.473 511.887 362.229 511.714 363.051 511.714ZM372.65 511.935V524H370.823V511.935H372.65ZM371.759 507.421C372.06 507.421 372.316 507.52 372.529 507.718C372.749 507.909 372.86 508.21 372.86 508.621C372.86 509.025 372.749 509.326 372.529 509.524C372.316 509.722 372.06 509.821 371.759 509.821C371.443 509.821 371.179 509.722 370.966 509.524C370.761 509.326 370.658 509.025 370.658 508.621C370.658 508.21 370.761 507.909 370.966 507.718C371.179 507.52 371.443 507.421 371.759 507.421ZM382.239 511.714C383.67 511.714 384.752 512.067 385.486 512.771C386.22 513.469 386.587 514.591 386.587 516.14V524H384.782V516.261C384.782 515.256 384.551 514.503 384.088 514.004C383.633 513.505 382.932 513.256 381.986 513.256C380.65 513.256 379.71 513.634 379.167 514.39C378.624 515.145 378.353 516.243 378.353 517.681V524H376.525V511.935H378L378.276 513.674H378.375C378.632 513.248 378.958 512.892 379.355 512.606C379.751 512.313 380.195 512.092 380.687 511.946C381.178 511.792 381.696 511.714 382.239 511.714ZM400.315 511.935V524H398.818L398.553 522.305H398.454C398.205 522.723 397.882 523.075 397.486 523.362C397.089 523.648 396.642 523.861 396.143 524C395.651 524.147 395.126 524.22 394.568 524.22C393.614 524.22 392.814 524.066 392.168 523.758C391.523 523.45 391.035 522.973 390.704 522.327C390.381 521.681 390.22 520.852 390.22 519.839V511.935H392.069V519.707C392.069 520.712 392.297 521.464 392.752 521.963C393.207 522.455 393.9 522.701 394.833 522.701C395.728 522.701 396.44 522.532 396.968 522.195C397.504 521.857 397.889 521.362 398.124 520.708C398.359 520.048 398.476 519.241 398.476 518.287V511.935H400.315ZM408.076 522.723C408.377 522.723 408.685 522.697 409 522.646C409.316 522.595 409.573 522.532 409.771 522.459V523.879C409.558 523.974 409.261 524.055 408.879 524.121C408.505 524.187 408.138 524.22 407.779 524.22C407.14 524.22 406.56 524.11 406.039 523.89C405.518 523.662 405.1 523.281 404.784 522.745C404.476 522.209 404.322 521.468 404.322 520.521V513.366H402.605V512.474L404.333 511.759L405.059 509.138H406.16V511.935H409.694V513.366H406.16V520.466C406.16 521.222 406.333 521.787 406.678 522.162C407.03 522.536 407.496 522.723 408.076 522.723ZM416.861 511.714C417.888 511.714 418.769 511.942 419.503 512.397C420.237 512.852 420.798 513.491 421.187 514.313C421.576 515.127 421.77 516.081 421.77 517.175V518.309H413.437C413.459 519.725 413.811 520.804 414.494 521.545C415.176 522.286 416.138 522.657 417.378 522.657C418.141 522.657 418.816 522.587 419.404 522.448C419.991 522.308 420.6 522.103 421.231 521.831V523.439C420.622 523.71 420.016 523.908 419.415 524.033C418.82 524.158 418.116 524.22 417.301 524.22C416.141 524.22 415.129 523.985 414.263 523.516C413.404 523.039 412.736 522.341 412.259 521.424C411.782 520.507 411.543 519.384 411.543 518.055C411.543 516.756 411.76 515.634 412.193 514.687C412.633 513.733 413.25 512.999 414.042 512.485C414.842 511.971 415.782 511.714 416.861 511.714ZM416.839 513.212C415.862 513.212 415.085 513.531 414.505 514.169C413.925 514.808 413.58 515.7 413.47 516.844H419.855C419.848 516.125 419.734 515.494 419.514 514.951C419.301 514.401 418.974 513.975 418.534 513.674C418.094 513.366 417.528 513.212 416.839 513.212ZM432.68 520.697C432.68 521.468 432.485 522.118 432.096 522.646C431.715 523.167 431.164 523.56 430.445 523.824C429.733 524.088 428.882 524.22 427.891 524.22C427.047 524.22 426.317 524.154 425.7 524.022C425.084 523.89 424.545 523.703 424.082 523.461V521.776C424.574 522.018 425.161 522.239 425.844 522.437C426.526 522.635 427.223 522.734 427.935 522.734C428.977 522.734 429.733 522.565 430.203 522.228C430.673 521.89 430.907 521.431 430.907 520.852C430.907 520.521 430.812 520.231 430.621 519.982C430.438 519.725 430.126 519.479 429.685 519.244C429.245 519.002 428.636 518.738 427.858 518.452C427.087 518.158 426.42 517.868 425.855 517.582C425.297 517.288 424.864 516.933 424.556 516.514C424.255 516.096 424.104 515.553 424.104 514.885C424.104 513.865 424.515 513.083 425.337 512.54C426.166 511.99 427.253 511.714 428.596 511.714C429.322 511.714 430.001 511.788 430.632 511.935C431.271 512.074 431.865 512.265 432.416 512.507L431.799 513.971C431.3 513.758 430.768 513.579 430.203 513.432C429.638 513.285 429.062 513.212 428.475 513.212C427.631 513.212 426.981 513.351 426.526 513.63C426.078 513.909 425.855 514.29 425.855 514.775C425.855 515.149 425.957 515.457 426.163 515.7C426.376 515.942 426.713 516.169 427.176 516.382C427.638 516.595 428.247 516.844 429.003 517.131C429.759 517.41 430.412 517.699 430.962 518C431.513 518.294 431.935 518.654 432.228 519.079C432.529 519.498 432.68 520.037 432.68 520.697Z" fill="black"/>
<rect x="454.364" y="504.932" width="21.1364" height="21.1364" rx="3.52273" fill="#EF9F93"/>
<path d="M493.609 511.659C493.609 512.379 493.47 513.002 493.191 513.531C492.912 514.059 492.523 514.492 492.024 514.83C491.525 515.16 490.938 515.391 490.263 515.523V515.612C491.54 515.773 492.497 516.184 493.136 516.844C493.782 517.505 494.105 518.371 494.105 519.442C494.105 520.375 493.884 521.2 493.444 521.919C493.011 522.639 492.343 523.204 491.441 523.615C490.545 524.018 489.397 524.22 487.995 524.22C487.144 524.22 486.355 524.15 485.628 524.011C484.909 523.879 484.219 523.655 483.558 523.339V521.622C484.226 521.952 484.953 522.213 485.738 522.404C486.523 522.587 487.283 522.679 488.017 522.679C489.485 522.679 490.545 522.389 491.198 521.809C491.852 521.222 492.178 520.422 492.178 519.409C492.178 518.712 491.995 518.151 491.628 517.725C491.268 517.292 490.747 516.977 490.064 516.778C489.389 516.573 488.575 516.47 487.621 516.47H486.013V514.907H487.632C488.505 514.907 489.246 514.779 489.855 514.522C490.464 514.265 490.927 513.905 491.242 513.443C491.565 512.973 491.727 512.419 491.727 511.781C491.727 510.966 491.455 510.338 490.912 509.898C490.369 509.45 489.631 509.227 488.699 509.227C488.127 509.227 487.606 509.285 487.136 509.403C486.667 509.52 486.226 509.682 485.815 509.887C485.404 510.093 484.993 510.331 484.582 510.603L483.658 509.348C484.245 508.893 484.96 508.5 485.804 508.17C486.648 507.839 487.606 507.674 488.677 507.674C490.321 507.674 491.554 508.049 492.376 508.797C493.198 509.546 493.609 510.5 493.609 511.659ZM507.194 515.931C507.194 517.237 507.095 518.404 506.897 519.431C506.698 520.459 506.386 521.329 505.961 522.04C505.535 522.752 504.985 523.295 504.31 523.67C503.634 524.037 502.823 524.22 501.877 524.22C500.68 524.22 499.69 523.894 498.904 523.24C498.126 522.587 497.543 521.644 497.154 520.411C496.772 519.171 496.582 517.677 496.582 515.931C496.582 514.213 496.754 512.738 497.099 511.505C497.451 510.265 498.016 509.315 498.794 508.654C499.572 507.986 500.6 507.652 501.877 507.652C503.088 507.652 504.086 507.983 504.871 508.643C505.656 509.296 506.24 510.243 506.621 511.483C507.003 512.716 507.194 514.199 507.194 515.931ZM498.42 515.931C498.42 517.428 498.534 518.676 498.761 519.674C498.989 520.672 499.356 521.42 499.862 521.919C500.376 522.411 501.047 522.657 501.877 522.657C502.706 522.657 503.374 522.411 503.88 521.919C504.394 521.428 504.765 520.683 504.992 519.685C505.227 518.687 505.344 517.435 505.344 515.931C505.344 514.456 505.231 513.223 505.003 512.232C504.776 511.234 504.409 510.485 503.902 509.986C503.396 509.48 502.721 509.227 501.877 509.227C501.033 509.227 500.357 509.48 499.851 509.986C499.345 510.485 498.978 511.234 498.75 512.232C498.53 513.223 498.42 514.456 498.42 515.931ZM529.233 511.714C530.561 511.714 531.563 512.063 532.238 512.76C532.913 513.45 533.251 514.562 533.251 516.096V524H531.446V516.184C531.446 515.208 531.233 514.478 530.807 513.993C530.389 513.502 529.765 513.256 528.936 513.256C527.769 513.256 526.921 513.593 526.393 514.268C525.864 514.944 525.6 515.938 525.6 517.252V524H523.784V516.184C523.784 515.531 523.688 514.988 523.497 514.555C523.314 514.122 523.035 513.799 522.661 513.586C522.294 513.366 521.828 513.256 521.263 513.256C520.463 513.256 519.821 513.421 519.336 513.751C518.852 514.081 518.499 514.573 518.279 515.226C518.066 515.872 517.96 516.668 517.96 517.615V524H516.133V511.935H517.608L517.883 513.641H517.982C518.224 513.223 518.529 512.87 518.896 512.584C519.263 512.298 519.674 512.081 520.129 511.935C520.584 511.788 521.068 511.714 521.582 511.714C522.499 511.714 523.266 511.887 523.883 512.232C524.506 512.569 524.958 513.087 525.237 513.784H525.336C525.732 513.087 526.275 512.569 526.965 512.232C527.655 511.887 528.411 511.714 529.233 511.714ZM538.832 511.935V524H537.005V511.935H538.832ZM537.941 507.421C538.241 507.421 538.498 507.52 538.711 507.718C538.931 507.909 539.041 508.21 539.041 508.621C539.041 509.025 538.931 509.326 538.711 509.524C538.498 509.722 538.241 509.821 537.941 509.821C537.625 509.821 537.361 509.722 537.148 509.524C536.942 509.326 536.84 509.025 536.84 508.621C536.84 508.21 536.942 507.909 537.148 507.718C537.361 507.52 537.625 507.421 537.941 507.421ZM548.421 511.714C549.852 511.714 550.934 512.067 551.668 512.771C552.402 513.469 552.769 514.591 552.769 516.14V524H550.964V516.261C550.964 515.256 550.732 514.503 550.27 514.004C549.815 513.505 549.114 513.256 548.167 513.256C546.832 513.256 545.892 513.634 545.349 514.39C544.806 515.145 544.535 516.243 544.535 517.681V524H542.707V511.935H544.182L544.458 513.674H544.557C544.814 513.248 545.14 512.892 545.536 512.606C545.933 512.313 546.377 512.092 546.868 511.946C547.36 511.792 547.878 511.714 548.421 511.714ZM566.497 511.935V524H564.999L564.735 522.305H564.636C564.387 522.723 564.064 523.075 563.667 523.362C563.271 523.648 562.823 523.861 562.324 524C561.833 524.147 561.308 524.22 560.75 524.22C559.796 524.22 558.996 524.066 558.35 523.758C557.705 523.45 557.216 522.973 556.886 522.327C556.563 521.681 556.402 520.852 556.402 519.839V511.935H558.251V519.707C558.251 520.712 558.479 521.464 558.934 521.963C559.389 522.455 560.082 522.701 561.014 522.701C561.91 522.701 562.622 522.532 563.15 522.195C563.686 521.857 564.071 521.362 564.306 520.708C564.541 520.048 564.658 519.241 564.658 518.287V511.935H566.497ZM574.258 522.723C574.559 522.723 574.867 522.697 575.182 522.646C575.498 522.595 575.755 522.532 575.953 522.459V523.879C575.74 523.974 575.443 524.055 575.061 524.121C574.687 524.187 574.32 524.22 573.96 524.22C573.322 524.22 572.742 524.11 572.221 523.89C571.7 523.662 571.282 523.281 570.966 522.745C570.658 522.209 570.504 521.468 570.504 520.521V513.366H568.786V512.474L570.515 511.759L571.241 509.138H572.342V511.935H575.876V513.366H572.342V520.466C572.342 521.222 572.515 521.787 572.86 522.162C573.212 522.536 573.678 522.723 574.258 522.723ZM583.042 511.714C584.07 511.714 584.951 511.942 585.685 512.397C586.418 512.852 586.98 513.491 587.369 514.313C587.758 515.127 587.952 516.081 587.952 517.175V518.309H579.619C579.641 519.725 579.993 520.804 580.676 521.545C581.358 522.286 582.32 522.657 583.56 522.657C584.323 522.657 584.998 522.587 585.585 522.448C586.173 522.308 586.782 522.103 587.413 521.831V523.439C586.804 523.71 586.198 523.908 585.596 524.033C585.002 524.158 584.297 524.22 583.483 524.22C582.323 524.22 581.31 523.985 580.444 523.516C579.586 523.039 578.918 522.341 578.441 521.424C577.964 520.507 577.725 519.384 577.725 518.055C577.725 516.756 577.942 515.634 578.375 514.687C578.815 513.733 579.432 512.999 580.224 512.485C581.024 511.971 581.964 511.714 583.042 511.714ZM583.02 513.212C582.044 513.212 581.266 513.531 580.687 514.169C580.107 514.808 579.762 515.7 579.652 516.844H586.037C586.029 516.125 585.916 515.494 585.696 514.951C585.483 514.401 585.156 513.975 584.716 513.674C584.275 513.366 583.71 513.212 583.02 513.212ZM598.862 520.697C598.862 521.468 598.667 522.118 598.278 522.646C597.897 523.167 597.346 523.56 596.627 523.824C595.915 524.088 595.064 524.22 594.073 524.22C593.229 524.22 592.499 524.154 591.882 524.022C591.266 523.89 590.726 523.703 590.264 523.461V521.776C590.756 522.018 591.343 522.239 592.025 522.437C592.708 522.635 593.405 522.734 594.117 522.734C595.159 522.734 595.915 522.565 596.385 522.228C596.854 521.89 597.089 521.431 597.089 520.852C597.089 520.521 596.994 520.231 596.803 519.982C596.62 519.725 596.308 519.479 595.867 519.244C595.427 519.002 594.818 518.738 594.04 518.452C593.269 518.158 592.602 517.868 592.036 517.582C591.479 517.288 591.046 516.933 590.737 516.514C590.437 516.096 590.286 515.553 590.286 514.885C590.286 513.865 590.697 513.083 591.519 512.54C592.348 511.99 593.434 511.714 594.778 511.714C595.504 511.714 596.183 511.788 596.814 511.935C597.453 512.074 598.047 512.265 598.597 512.507L597.981 513.971C597.482 513.758 596.95 513.579 596.385 513.432C595.82 513.285 595.244 513.212 594.656 513.212C593.812 513.212 593.163 513.351 592.708 513.63C592.26 513.909 592.036 514.29 592.036 514.775C592.036 515.149 592.139 515.457 592.345 515.7C592.557 515.942 592.895 516.169 593.357 516.382C593.82 516.595 594.429 516.844 595.185 517.131C595.941 517.41 596.594 517.699 597.144 518C597.695 518.294 598.117 518.654 598.41 519.079C598.711 519.498 598.862 520.037 598.862 520.697Z" fill="black"/>
<rect x="248.091" y="555.932" width="21.1364" height="21.1364" rx="3.52273" fill="#E8706D"/>
<path d="M284.188 575H282.404V563.595C282.404 563.162 282.404 562.792 282.404 562.483C282.412 562.168 282.419 561.882 282.426 561.625C282.441 561.36 282.459 561.093 282.482 560.821C282.254 561.056 282.041 561.258 281.843 561.426C281.645 561.588 281.399 561.79 281.105 562.032L279.267 563.507L278.309 562.263L282.669 558.906H284.188V575ZM298.785 557.871V562.99C298.785 563.283 298.778 563.58 298.763 563.881C298.748 564.175 298.723 564.446 298.686 564.696H298.807C299.057 564.27 299.372 563.914 299.754 563.628C300.143 563.335 300.583 563.114 301.075 562.968C301.567 562.814 302.088 562.737 302.638 562.737C303.607 562.737 304.414 562.891 305.06 563.199C305.713 563.507 306.201 563.984 306.524 564.63C306.854 565.276 307.02 566.112 307.02 567.14V575H305.214V567.261C305.214 566.256 304.983 565.503 304.521 565.004C304.066 564.505 303.365 564.256 302.418 564.256C301.523 564.256 300.807 564.428 300.271 564.773C299.743 565.111 299.361 565.61 299.126 566.27C298.899 566.931 298.785 567.738 298.785 568.692V575H296.958V557.871H298.785ZM321.187 568.945C321.187 569.936 321.059 570.82 320.802 571.598C320.545 572.376 320.175 573.033 319.69 573.569C319.206 574.105 318.619 574.516 317.929 574.802C317.246 575.081 316.472 575.22 315.606 575.22C314.799 575.22 314.058 575.081 313.382 574.802C312.715 574.516 312.135 574.105 311.643 573.569C311.159 573.033 310.781 572.376 310.509 571.598C310.245 570.82 310.113 569.936 310.113 568.945C310.113 567.624 310.337 566.501 310.784 565.577C311.232 564.645 311.871 563.936 312.7 563.452C313.537 562.96 314.531 562.714 315.683 562.714C316.784 562.714 317.745 562.96 318.567 563.452C319.397 563.944 320.039 564.656 320.494 565.588C320.956 566.512 321.187 567.632 321.187 568.945ZM312.006 568.945C312.006 569.914 312.135 570.754 312.392 571.466C312.649 572.178 313.045 572.729 313.581 573.118C314.116 573.507 314.806 573.701 315.65 573.701C316.487 573.701 317.173 573.507 317.709 573.118C318.252 572.729 318.652 572.178 318.909 571.466C319.166 570.754 319.294 569.914 319.294 568.945C319.294 567.984 319.166 567.155 318.909 566.457C318.652 565.753 318.256 565.21 317.72 564.828C317.184 564.446 316.491 564.256 315.639 564.256C314.384 564.256 313.463 564.67 312.876 565.5C312.296 566.329 312.006 567.478 312.006 568.945ZM334.31 562.935V575H332.812L332.548 573.305H332.449C332.2 573.723 331.877 574.075 331.48 574.362C331.084 574.648 330.636 574.861 330.137 575C329.646 575.147 329.121 575.22 328.563 575.22C327.609 575.22 326.809 575.066 326.163 574.758C325.517 574.45 325.029 573.973 324.699 573.327C324.376 572.681 324.215 571.852 324.215 570.839V562.935H326.064V570.707C326.064 571.712 326.292 572.464 326.747 572.963C327.202 573.455 327.895 573.701 328.827 573.701C329.723 573.701 330.435 573.532 330.963 573.195C331.499 572.857 331.884 572.362 332.119 571.708C332.354 571.048 332.471 570.241 332.471 569.287V562.935H334.31ZM343.656 562.714C343.898 562.714 344.151 562.729 344.415 562.759C344.68 562.781 344.915 562.814 345.12 562.858L344.889 564.553C344.691 564.502 344.471 564.461 344.228 564.432C343.986 564.402 343.759 564.388 343.546 564.388C343.061 564.388 342.603 564.487 342.17 564.685C341.744 564.876 341.37 565.155 341.047 565.522C340.724 565.881 340.471 566.318 340.287 566.832C340.104 567.338 340.012 567.903 340.012 568.527V575H338.174V562.935H339.693L339.891 565.158H339.968C340.218 564.711 340.518 564.303 340.871 563.936C341.223 563.562 341.63 563.265 342.093 563.045C342.562 562.825 343.083 562.714 343.656 562.714Z" fill="black"/>
<rect x="366.273" y="555.932" width="21.1364" height="21.1364" rx="3.52273" fill="#E5434B"/>
<path d="M402.37 575H400.586V563.595C400.586 563.162 400.586 562.792 400.586 562.483C400.594 562.168 400.601 561.882 400.608 561.625C400.623 561.36 400.641 561.093 400.663 560.821C400.436 561.056 400.223 561.258 400.025 561.426C399.827 561.588 399.581 561.79 399.287 562.032L397.449 563.507L396.491 562.263L400.851 558.906H402.37V575ZM414.534 566.303H419.07V567.8H414.534V572.468H413.026V567.8H408.49V566.303H413.026V561.614H414.534V566.303ZM429.869 557.871V562.99C429.869 563.283 429.862 563.58 429.847 563.881C429.832 564.175 429.807 564.446 429.77 564.696H429.891C430.141 564.27 430.456 563.914 430.838 563.628C431.227 563.335 431.667 563.114 432.159 562.968C432.65 562.814 433.172 562.737 433.722 562.737C434.691 562.737 435.498 562.891 436.144 563.199C436.797 563.507 437.285 563.984 437.608 564.63C437.938 565.276 438.103 566.112 438.103 567.14V575H436.298V567.261C436.298 566.256 436.067 565.503 435.604 565.004C435.149 564.505 434.449 564.256 433.502 564.256C432.606 564.256 431.891 564.428 431.355 564.773C430.827 565.111 430.445 565.61 430.21 566.27C429.983 566.931 429.869 567.738 429.869 568.692V575H428.042V557.871H429.869ZM452.271 568.945C452.271 569.936 452.143 570.82 451.886 571.598C451.629 572.376 451.259 573.033 450.774 573.569C450.29 574.105 449.703 574.516 449.013 574.802C448.33 575.081 447.556 575.22 446.69 575.22C445.883 575.22 445.141 575.081 444.466 574.802C443.798 574.516 443.219 574.105 442.727 573.569C442.243 573.033 441.865 572.376 441.593 571.598C441.329 570.82 441.197 569.936 441.197 568.945C441.197 567.624 441.421 566.501 441.868 565.577C442.316 564.645 442.954 563.936 443.784 563.452C444.62 562.96 445.615 562.714 446.767 562.714C447.868 562.714 448.829 562.96 449.651 563.452C450.481 563.944 451.123 564.656 451.578 565.588C452.04 566.512 452.271 567.632 452.271 568.945ZM443.09 568.945C443.09 569.914 443.219 570.754 443.476 571.466C443.732 572.178 444.129 572.729 444.664 573.118C445.2 573.507 445.89 573.701 446.734 573.701C447.571 573.701 448.257 573.507 448.793 573.118C449.336 572.729 449.736 572.178 449.993 571.466C450.249 570.754 450.378 569.914 450.378 568.945C450.378 567.984 450.249 567.155 449.993 566.457C449.736 565.753 449.339 565.21 448.804 564.828C448.268 564.446 447.574 564.256 446.723 564.256C445.468 564.256 444.547 564.67 443.96 565.5C443.38 566.329 443.09 567.478 443.09 568.945ZM465.394 562.935V575H463.896L463.632 573.305H463.533C463.284 573.723 462.961 574.075 462.564 574.362C462.168 574.648 461.72 574.861 461.221 575C460.73 575.147 460.205 575.22 459.647 575.22C458.693 575.22 457.893 575.066 457.247 574.758C456.601 574.45 456.113 573.973 455.783 573.327C455.46 572.681 455.299 571.852 455.299 570.839V562.935H457.148V570.707C457.148 571.712 457.376 572.464 457.831 572.963C458.286 573.455 458.979 573.701 459.911 573.701C460.807 573.701 461.519 573.532 462.047 573.195C462.583 572.857 462.968 572.362 463.203 571.708C463.438 571.048 463.555 570.241 463.555 569.287V562.935H465.394ZM474.74 562.714C474.982 562.714 475.235 562.729 475.499 562.759C475.764 562.781 475.998 562.814 476.204 562.858L475.973 564.553C475.775 564.502 475.554 564.461 475.312 564.432C475.07 564.402 474.842 564.388 474.63 564.388C474.145 564.388 473.687 564.487 473.254 564.685C472.828 564.876 472.454 565.155 472.131 565.522C471.808 565.881 471.555 566.318 471.371 566.832C471.188 567.338 471.096 567.903 471.096 568.527V575H469.258V562.935H470.777L470.975 565.158H471.052C471.301 564.711 471.602 564.303 471.955 563.936C472.307 563.562 472.714 563.265 473.177 563.045C473.646 562.825 474.167 562.714 474.74 562.714ZM486.288 571.697C486.288 572.468 486.093 573.118 485.704 573.646C485.323 574.167 484.772 574.56 484.053 574.824C483.341 575.088 482.49 575.22 481.499 575.22C480.655 575.22 479.925 575.154 479.308 575.022C478.692 574.89 478.152 574.703 477.69 574.461V572.776C478.182 573.018 478.769 573.239 479.451 573.437C480.134 573.635 480.831 573.734 481.543 573.734C482.585 573.734 483.341 573.565 483.811 573.228C484.28 572.89 484.515 572.431 484.515 571.852C484.515 571.521 484.42 571.231 484.229 570.982C484.046 570.725 483.734 570.479 483.293 570.244C482.853 570.002 482.244 569.738 481.466 569.452C480.695 569.158 480.028 568.868 479.462 568.582C478.905 568.288 478.472 567.933 478.163 567.514C477.862 567.096 477.712 566.553 477.712 565.885C477.712 564.865 478.123 564.083 478.945 563.54C479.774 562.99 480.86 562.714 482.204 562.714C482.93 562.714 483.609 562.788 484.24 562.935C484.879 563.074 485.473 563.265 486.023 563.507L485.407 564.971C484.908 564.758 484.376 564.579 483.811 564.432C483.246 564.285 482.67 564.212 482.082 564.212C481.238 564.212 480.589 564.351 480.134 564.63C479.686 564.909 479.462 565.29 479.462 565.775C479.462 566.149 479.565 566.457 479.771 566.7C479.983 566.942 480.321 567.169 480.783 567.382C481.246 567.595 481.855 567.844 482.611 568.131C483.367 568.41 484.02 568.699 484.57 569C485.121 569.294 485.543 569.654 485.836 570.079C486.137 570.498 486.288 571.037 486.288 571.697Z" fill="black"/>
</g>
<defs>
<clipPath id="clip0_7245_29882">
<rect width="735.545" height="582" fill="white"/>
</clipPath>
</defs>
</svg>
