<svg width="736" height="582" viewBox="0 0 736 582" fill="none" xmlns="http://www.w3.org/2000/svg">
<path d="M367.78 250.5V25.5C492.04 25.5 592.773 126.236 592.773 250.5C592.773 374.764 492.04 475.5 367.78 475.5C320.267 475.5 273.973 460.458 235.533 432.529L367.78 250.5Z" fill="#EF9F93" stroke="white"/>
<path d="M367.78 250.5L235.533 432.529C156.676 375.234 123.679 273.677 153.8 180.971L367.78 250.5Z" fill="#FDE3DF" stroke="white"/>
<path d="M367.78 250.5L153.8 180.971C183.921 88.2661 270.308 25.5 367.78 25.5V250.5Z" fill="#E5434B" stroke="white"/>
<path d="M447.585 268.734C447.585 267.359 447.679 266.016 447.866 264.703C448.064 263.391 448.392 262.172 448.851 261.047C449.309 259.911 449.934 258.917 450.726 258.062C451.517 257.208 452.502 256.542 453.679 256.062C454.866 255.573 456.288 255.328 457.945 255.328C458.413 255.328 458.919 255.354 459.46 255.406C460.002 255.448 460.45 255.521 460.804 255.625V257.859C460.419 257.724 459.976 257.625 459.476 257.562C458.986 257.5 458.491 257.469 457.991 257.469C456.054 257.469 454.528 257.891 453.413 258.734C452.309 259.578 451.512 260.724 451.023 262.172C450.533 263.609 450.252 265.229 450.179 267.031H450.351C450.674 266.51 451.085 266.042 451.585 265.625C452.085 265.198 452.689 264.859 453.398 264.609C454.116 264.359 454.95 264.234 455.898 264.234C457.231 264.234 458.392 264.505 459.382 265.047C460.382 265.589 461.153 266.375 461.695 267.406C462.247 268.438 462.523 269.688 462.523 271.156C462.523 272.729 462.231 274.089 461.648 275.234C461.064 276.38 460.231 277.266 459.148 277.891C458.075 278.505 456.794 278.812 455.304 278.812C454.189 278.812 453.163 278.599 452.226 278.172C451.288 277.745 450.471 277.109 449.773 276.266C449.085 275.422 448.549 274.375 448.163 273.125C447.778 271.865 447.585 270.401 447.585 268.734ZM455.273 276.625C456.689 276.625 457.825 276.172 458.679 275.266C459.533 274.359 459.96 272.99 459.96 271.156C459.96 269.656 459.58 268.469 458.82 267.594C458.059 266.719 456.913 266.281 455.382 266.281C454.34 266.281 453.434 266.5 452.663 266.938C451.892 267.365 451.294 267.906 450.866 268.562C450.439 269.219 450.226 269.885 450.226 270.562C450.226 271.25 450.325 271.948 450.523 272.656C450.731 273.365 451.044 274.021 451.46 274.625C451.877 275.229 452.403 275.714 453.038 276.078C453.674 276.443 454.419 276.625 455.273 276.625ZM480.757 267.047C480.757 268.901 480.616 270.557 480.335 272.016C480.054 273.474 479.611 274.708 479.007 275.719C478.403 276.729 477.622 277.5 476.663 278.031C475.705 278.552 474.554 278.812 473.21 278.812C471.512 278.812 470.106 278.349 468.991 277.422C467.887 276.495 467.059 275.156 466.507 273.406C465.965 271.646 465.695 269.526 465.695 267.047C465.695 264.609 465.939 262.516 466.429 260.766C466.929 259.005 467.731 257.656 468.835 256.719C469.939 255.771 471.398 255.297 473.21 255.297C474.929 255.297 476.346 255.766 477.46 256.703C478.575 257.63 479.403 258.974 479.945 260.734C480.486 262.484 480.757 264.589 480.757 267.047ZM468.304 267.047C468.304 269.172 468.465 270.943 468.788 272.359C469.111 273.776 469.632 274.839 470.351 275.547C471.08 276.245 472.033 276.594 473.21 276.594C474.387 276.594 475.335 276.245 476.054 275.547C476.783 274.849 477.309 273.792 477.632 272.375C477.965 270.958 478.132 269.182 478.132 267.047C478.132 264.953 477.971 263.203 477.648 261.797C477.325 260.38 476.804 259.318 476.085 258.609C475.366 257.891 474.408 257.531 473.21 257.531C472.012 257.531 471.054 257.891 470.335 258.609C469.616 259.318 469.096 260.38 468.773 261.797C468.46 263.203 468.304 264.953 468.304 267.047ZM488.632 255.328C490.195 255.328 491.377 255.953 492.179 257.203C492.991 258.443 493.398 260.198 493.398 262.469C493.398 264.74 493.007 266.51 492.226 267.781C491.445 269.042 490.247 269.672 488.632 269.672C487.132 269.672 485.981 269.042 485.179 267.781C484.387 266.51 483.991 264.74 483.991 262.469C483.991 260.198 484.372 258.443 485.132 257.203C485.892 255.953 487.059 255.328 488.632 255.328ZM488.632 257.188C487.788 257.188 487.169 257.63 486.773 258.516C486.377 259.391 486.179 260.708 486.179 262.469C486.179 264.229 486.377 265.557 486.773 266.453C487.169 267.349 487.788 267.797 488.632 267.797C489.507 267.797 490.158 267.349 490.585 266.453C491.012 265.557 491.226 264.229 491.226 262.469C491.226 260.719 491.012 259.401 490.585 258.516C490.169 257.63 489.517 257.188 488.632 257.188ZM503.101 255.656L490.429 278.5H488.148L500.82 255.656H503.101ZM502.491 264.484C504.044 264.484 505.226 265.109 506.038 266.359C506.851 267.599 507.257 269.354 507.257 271.625C507.257 273.885 506.866 275.651 506.085 276.922C505.304 278.182 504.106 278.812 502.491 278.812C500.981 278.812 499.83 278.182 499.038 276.922C498.247 275.651 497.851 273.885 497.851 271.625C497.851 269.354 498.226 267.599 498.976 266.359C499.736 265.109 500.908 264.484 502.491 264.484ZM502.491 266.359C501.648 266.359 501.028 266.797 500.632 267.672C500.236 268.547 500.038 269.865 500.038 271.625C500.038 273.385 500.236 274.714 500.632 275.609C501.028 276.495 501.648 276.938 502.491 276.938C503.366 276.938 504.017 276.5 504.445 275.625C504.872 274.74 505.085 273.406 505.085 271.625C505.085 269.875 504.872 268.562 504.445 267.688C504.028 266.802 503.377 266.359 502.491 266.359Z" fill="white"/>
<path d="M228.32 292H213.351V289.828L219.46 283.625C220.596 282.479 221.549 281.458 222.32 280.562C223.101 279.667 223.695 278.786 224.101 277.922C224.507 277.047 224.71 276.089 224.71 275.047C224.71 273.755 224.325 272.771 223.554 272.094C222.794 271.406 221.788 271.062 220.538 271.062C219.445 271.062 218.476 271.25 217.632 271.625C216.788 272 215.924 272.531 215.038 273.219L213.648 271.469C214.252 270.958 214.908 270.505 215.616 270.109C216.335 269.714 217.101 269.401 217.913 269.172C218.736 268.943 219.611 268.828 220.538 268.828C221.945 268.828 223.158 269.073 224.179 269.562C225.2 270.052 225.986 270.75 226.538 271.656C227.101 272.562 227.382 273.641 227.382 274.891C227.382 276.099 227.142 277.224 226.663 278.266C226.184 279.297 225.512 280.323 224.648 281.344C223.783 282.354 222.773 283.427 221.616 284.562L216.648 289.516V289.625H228.32V292ZM246.757 280.547C246.757 282.401 246.616 284.057 246.335 285.516C246.054 286.974 245.611 288.208 245.007 289.219C244.403 290.229 243.622 291 242.663 291.531C241.705 292.052 240.554 292.312 239.21 292.312C237.512 292.312 236.106 291.849 234.991 290.922C233.887 289.995 233.059 288.656 232.507 286.906C231.965 285.146 231.695 283.026 231.695 280.547C231.695 278.109 231.939 276.016 232.429 274.266C232.929 272.505 233.731 271.156 234.835 270.219C235.939 269.271 237.398 268.797 239.21 268.797C240.929 268.797 242.346 269.266 243.46 270.203C244.575 271.13 245.403 272.474 245.945 274.234C246.486 275.984 246.757 278.089 246.757 280.547ZM234.304 280.547C234.304 282.672 234.465 284.443 234.788 285.859C235.111 287.276 235.632 288.339 236.351 289.047C237.08 289.745 238.033 290.094 239.21 290.094C240.387 290.094 241.335 289.745 242.054 289.047C242.783 288.349 243.309 287.292 243.632 285.875C243.965 284.458 244.132 282.682 244.132 280.547C244.132 278.453 243.971 276.703 243.648 275.297C243.325 273.88 242.804 272.818 242.085 272.109C241.366 271.391 240.408 271.031 239.21 271.031C238.012 271.031 237.054 271.391 236.335 272.109C235.616 272.818 235.096 273.88 234.773 275.297C234.46 276.703 234.304 278.453 234.304 280.547ZM254.632 268.828C256.195 268.828 257.377 269.453 258.179 270.703C258.991 271.943 259.398 273.698 259.398 275.969C259.398 278.24 259.007 280.01 258.226 281.281C257.445 282.542 256.247 283.172 254.632 283.172C253.132 283.172 251.981 282.542 251.179 281.281C250.387 280.01 249.991 278.24 249.991 275.969C249.991 273.698 250.372 271.943 251.132 270.703C251.892 269.453 253.059 268.828 254.632 268.828ZM254.632 270.688C253.788 270.688 253.169 271.13 252.773 272.016C252.377 272.891 252.179 274.208 252.179 275.969C252.179 277.729 252.377 279.057 252.773 279.953C253.169 280.849 253.788 281.297 254.632 281.297C255.507 281.297 256.158 280.849 256.585 279.953C257.012 279.057 257.226 277.729 257.226 275.969C257.226 274.219 257.012 272.901 256.585 272.016C256.169 271.13 255.517 270.688 254.632 270.688ZM269.101 269.156L256.429 292H254.148L266.82 269.156H269.101ZM268.491 277.984C270.044 277.984 271.226 278.609 272.038 279.859C272.851 281.099 273.257 282.854 273.257 285.125C273.257 287.385 272.866 289.151 272.085 290.422C271.304 291.682 270.106 292.312 268.491 292.312C266.981 292.312 265.83 291.682 265.038 290.422C264.247 289.151 263.851 287.385 263.851 285.125C263.851 282.854 264.226 281.099 264.976 279.859C265.736 278.609 266.908 277.984 268.491 277.984ZM268.491 279.859C267.648 279.859 267.028 280.297 266.632 281.172C266.236 282.047 266.038 283.365 266.038 285.125C266.038 286.885 266.236 288.214 266.632 289.109C267.028 289.995 267.648 290.438 268.491 290.438C269.366 290.438 270.017 290 270.445 289.125C270.872 288.24 271.085 286.906 271.085 285.125C271.085 283.375 270.872 282.062 270.445 281.188C270.028 280.302 269.377 279.859 268.491 279.859Z" fill="#E5434B"/>
<path d="M277.82 146.5H262.851V144.328L268.96 138.125C270.096 136.979 271.049 135.958 271.82 135.062C272.601 134.167 273.195 133.286 273.601 132.422C274.007 131.547 274.21 130.589 274.21 129.547C274.21 128.255 273.825 127.271 273.054 126.594C272.294 125.906 271.288 125.562 270.038 125.562C268.945 125.562 267.976 125.75 267.132 126.125C266.288 126.5 265.424 127.031 264.538 127.719L263.148 125.969C263.752 125.458 264.408 125.005 265.116 124.609C265.835 124.214 266.601 123.901 267.413 123.672C268.236 123.443 269.111 123.328 270.038 123.328C271.445 123.328 272.658 123.573 273.679 124.062C274.7 124.552 275.486 125.25 276.038 126.156C276.601 127.062 276.882 128.141 276.882 129.391C276.882 130.599 276.642 131.724 276.163 132.766C275.684 133.797 275.012 134.823 274.148 135.844C273.283 136.854 272.273 137.927 271.116 139.062L266.148 144.016V144.125H277.82V146.5ZM296.257 135.047C296.257 136.901 296.116 138.557 295.835 140.016C295.554 141.474 295.111 142.708 294.507 143.719C293.903 144.729 293.122 145.5 292.163 146.031C291.205 146.552 290.054 146.812 288.71 146.812C287.012 146.812 285.606 146.349 284.491 145.422C283.387 144.495 282.559 143.156 282.007 141.406C281.465 139.646 281.195 137.526 281.195 135.047C281.195 132.609 281.439 130.516 281.929 128.766C282.429 127.005 283.231 125.656 284.335 124.719C285.439 123.771 286.898 123.297 288.71 123.297C290.429 123.297 291.846 123.766 292.96 124.703C294.075 125.63 294.903 126.974 295.445 128.734C295.986 130.484 296.257 132.589 296.257 135.047ZM283.804 135.047C283.804 137.172 283.965 138.943 284.288 140.359C284.611 141.776 285.132 142.839 285.851 143.547C286.58 144.245 287.533 144.594 288.71 144.594C289.887 144.594 290.835 144.245 291.554 143.547C292.283 142.849 292.809 141.792 293.132 140.375C293.465 138.958 293.632 137.182 293.632 135.047C293.632 132.953 293.471 131.203 293.148 129.797C292.825 128.38 292.304 127.318 291.585 126.609C290.866 125.891 289.908 125.531 288.71 125.531C287.512 125.531 286.554 125.891 285.835 126.609C285.116 127.318 284.596 128.38 284.273 129.797C283.96 131.203 283.804 132.953 283.804 135.047ZM304.132 123.328C305.695 123.328 306.877 123.953 307.679 125.203C308.491 126.443 308.898 128.198 308.898 130.469C308.898 132.74 308.507 134.51 307.726 135.781C306.945 137.042 305.747 137.672 304.132 137.672C302.632 137.672 301.481 137.042 300.679 135.781C299.887 134.51 299.491 132.74 299.491 130.469C299.491 128.198 299.872 126.443 300.632 125.203C301.392 123.953 302.559 123.328 304.132 123.328ZM304.132 125.188C303.288 125.188 302.669 125.63 302.273 126.516C301.877 127.391 301.679 128.708 301.679 130.469C301.679 132.229 301.877 133.557 302.273 134.453C302.669 135.349 303.288 135.797 304.132 135.797C305.007 135.797 305.658 135.349 306.085 134.453C306.512 133.557 306.726 132.229 306.726 130.469C306.726 128.719 306.512 127.401 306.085 126.516C305.669 125.63 305.017 125.188 304.132 125.188ZM318.601 123.656L305.929 146.5H303.648L316.32 123.656H318.601ZM317.991 132.484C319.544 132.484 320.726 133.109 321.538 134.359C322.351 135.599 322.757 137.354 322.757 139.625C322.757 141.885 322.366 143.651 321.585 144.922C320.804 146.182 319.606 146.812 317.991 146.812C316.481 146.812 315.33 146.182 314.538 144.922C313.747 143.651 313.351 141.885 313.351 139.625C313.351 137.354 313.726 135.599 314.476 134.359C315.236 133.109 316.408 132.484 317.991 132.484ZM317.991 134.359C317.148 134.359 316.528 134.797 316.132 135.672C315.736 136.547 315.538 137.865 315.538 139.625C315.538 141.385 315.736 142.714 316.132 143.609C316.528 144.495 317.148 144.938 317.991 144.938C318.866 144.938 319.517 144.5 319.945 143.625C320.372 142.74 320.585 141.406 320.585 139.625C320.585 137.875 320.372 136.562 319.945 135.688C319.528 134.802 318.877 134.359 317.991 134.359Z" fill="white"/>
<rect x="138" y="530.432" width="21.1364" height="21.1364" rx="3.52273" fill="#FDE3DF"/>
<path d="M168.384 533.406H172.941C174.952 533.406 176.464 533.706 177.477 534.308C178.489 534.91 178.996 535.934 178.996 537.38C178.996 538.003 178.875 538.565 178.633 539.064C178.398 539.556 178.053 539.963 177.598 540.286C177.143 540.609 176.581 540.833 175.913 540.957V541.067C176.618 541.178 177.242 541.379 177.785 541.673C178.328 541.967 178.754 542.377 179.062 542.906C179.37 543.434 179.524 544.106 179.524 544.92C179.524 545.911 179.293 546.748 178.831 547.43C178.376 548.113 177.73 548.63 176.893 548.983C176.057 549.328 175.066 549.5 173.921 549.5H168.384V533.406ZM170.255 540.308H173.337C174.739 540.308 175.708 540.077 176.244 539.614C176.787 539.152 177.058 538.477 177.058 537.589C177.058 536.671 176.735 536.011 176.09 535.607C175.451 535.204 174.431 535.002 173.029 535.002H170.255V540.308ZM170.255 541.882V547.904H173.602C175.033 547.904 176.046 547.625 176.64 547.067C177.234 546.502 177.532 545.742 177.532 544.788C177.532 544.179 177.396 543.658 177.124 543.225C176.86 542.792 176.427 542.462 175.825 542.234C175.231 542 174.435 541.882 173.437 541.882H170.255ZM187.329 537.214C188.357 537.214 189.237 537.442 189.971 537.897C190.705 538.352 191.267 538.991 191.656 539.813C192.045 540.627 192.239 541.581 192.239 542.675V543.809H183.906C183.928 545.225 184.28 546.304 184.962 547.045C185.645 547.786 186.606 548.157 187.847 548.157C188.61 548.157 189.285 548.087 189.872 547.948C190.459 547.808 191.068 547.603 191.7 547.331V548.939C191.091 549.21 190.485 549.408 189.883 549.533C189.289 549.658 188.584 549.72 187.77 549.72C186.61 549.72 185.597 549.485 184.731 549.016C183.873 548.539 183.205 547.841 182.728 546.924C182.251 546.007 182.012 544.884 182.012 543.555C182.012 542.256 182.229 541.134 182.662 540.187C183.102 539.233 183.718 538.499 184.511 537.985C185.311 537.471 186.25 537.214 187.329 537.214ZM187.307 538.712C186.331 538.712 185.553 539.031 184.973 539.669C184.394 540.308 184.049 541.2 183.939 542.344H190.324C190.316 541.625 190.202 540.994 189.982 540.451C189.769 539.901 189.443 539.475 189.003 539.174C188.562 538.866 187.997 538.712 187.307 538.712ZM198.712 554.916C197.127 554.916 195.905 554.619 195.046 554.025C194.188 553.437 193.758 552.612 193.758 551.548C193.758 550.792 193.997 550.146 194.474 549.61C194.958 549.074 195.626 548.718 196.477 548.542C196.162 548.395 195.89 548.175 195.663 547.882C195.443 547.588 195.332 547.251 195.332 546.869C195.332 546.429 195.454 546.043 195.696 545.713C195.945 545.375 196.323 545.053 196.83 544.744C196.198 544.487 195.685 544.054 195.288 543.445C194.899 542.829 194.705 542.113 194.705 541.299C194.705 540.433 194.885 539.695 195.244 539.086C195.604 538.469 196.125 538 196.808 537.677C197.49 537.354 198.316 537.192 199.285 537.192C199.497 537.192 199.71 537.203 199.923 537.225C200.143 537.24 200.352 537.266 200.55 537.303C200.749 537.332 200.921 537.369 201.068 537.413H205.207V538.591L202.983 538.866C203.204 539.152 203.387 539.497 203.534 539.901C203.681 540.304 203.754 540.752 203.754 541.244C203.754 542.447 203.347 543.405 202.532 544.117C201.717 544.821 200.598 545.174 199.174 545.174C198.837 545.174 198.492 545.144 198.14 545.086C197.78 545.284 197.505 545.504 197.314 545.746C197.131 545.988 197.039 546.267 197.039 546.583C197.039 546.818 197.108 547.005 197.248 547.144C197.395 547.284 197.604 547.386 197.875 547.452C198.147 547.511 198.474 547.54 198.855 547.54H200.98C202.294 547.54 203.299 547.816 203.996 548.366C204.701 548.917 205.053 549.72 205.053 550.777C205.053 552.113 204.51 553.136 203.424 553.848C202.338 554.56 200.767 554.916 198.712 554.916ZM198.767 553.485C199.765 553.485 200.591 553.382 201.244 553.177C201.905 552.979 202.396 552.689 202.719 552.307C203.049 551.933 203.215 551.485 203.215 550.964C203.215 550.48 203.104 550.113 202.884 549.863C202.664 549.621 202.341 549.46 201.916 549.379C201.49 549.291 200.969 549.247 200.352 549.247H198.261C197.718 549.247 197.244 549.331 196.841 549.5C196.437 549.669 196.125 549.918 195.905 550.249C195.692 550.579 195.586 550.99 195.586 551.482C195.586 552.135 195.861 552.63 196.411 552.968C196.962 553.313 197.747 553.485 198.767 553.485ZM199.24 543.842C200.114 543.842 200.771 543.621 201.211 543.181C201.651 542.741 201.872 542.099 201.872 541.255C201.872 540.352 201.648 539.677 201.2 539.229C200.752 538.774 200.092 538.547 199.218 538.547C198.382 538.547 197.736 538.781 197.281 539.251C196.833 539.713 196.609 540.392 196.609 541.288C196.609 542.11 196.837 542.741 197.292 543.181C197.747 543.621 198.396 543.842 199.24 543.842ZM209.412 537.435V549.5H207.585V537.435H209.412ZM208.521 532.921C208.822 532.921 209.078 533.02 209.291 533.218C209.511 533.409 209.622 533.71 209.622 534.121C209.622 534.525 209.511 534.826 209.291 535.024C209.078 535.222 208.822 535.321 208.521 535.321C208.205 535.321 207.941 535.222 207.728 535.024C207.523 534.826 207.42 534.525 207.42 534.121C207.42 533.71 207.523 533.409 207.728 533.218C207.941 533.02 208.205 532.921 208.521 532.921ZM219.001 537.214C220.432 537.214 221.514 537.567 222.248 538.271C222.982 538.969 223.349 540.091 223.349 541.64V549.5H221.544V541.761C221.544 540.756 221.313 540.003 220.85 539.504C220.395 539.005 219.694 538.756 218.748 538.756C217.412 538.756 216.472 539.134 215.929 539.89C215.386 540.645 215.115 541.743 215.115 543.181V549.5H213.287V537.435H214.762L215.038 539.174H215.137C215.394 538.748 215.72 538.392 216.117 538.106C216.513 537.813 216.957 537.592 217.449 537.446C217.94 537.292 218.458 537.214 219.001 537.214ZM232.827 537.214C234.259 537.214 235.341 537.567 236.075 538.271C236.809 538.969 237.176 540.091 237.176 541.64V549.5H235.37V541.761C235.37 540.756 235.139 540.003 234.677 539.504C234.222 539.005 233.521 538.756 232.574 538.756C231.239 538.756 230.299 539.134 229.756 539.89C229.213 540.645 228.941 541.743 228.941 543.181V549.5H227.114V537.435H228.589L228.864 539.174H228.963C229.22 538.748 229.547 538.392 229.943 538.106C230.34 537.813 230.784 537.592 231.275 537.446C231.767 537.292 232.284 537.214 232.827 537.214ZM245.586 537.214C246.614 537.214 247.494 537.442 248.228 537.897C248.962 538.352 249.524 538.991 249.913 539.813C250.302 540.627 250.496 541.581 250.496 542.675V543.809H242.163C242.185 545.225 242.537 546.304 243.22 547.045C243.902 547.786 244.863 548.157 246.104 548.157C246.867 548.157 247.542 548.087 248.129 547.948C248.716 547.808 249.326 547.603 249.957 547.331V548.939C249.348 549.21 248.742 549.408 248.14 549.533C247.546 549.658 246.841 549.72 246.027 549.72C244.867 549.72 243.854 549.485 242.988 549.016C242.13 548.539 241.462 547.841 240.985 546.924C240.508 546.007 240.269 544.884 240.269 543.555C240.269 542.256 240.486 541.134 240.919 540.187C241.359 539.233 241.976 538.499 242.768 537.985C243.568 537.471 244.508 537.214 245.586 537.214ZM245.564 538.712C244.588 538.712 243.81 539.031 243.231 539.669C242.651 540.308 242.306 541.2 242.196 542.344H248.581C248.573 541.625 248.46 540.994 248.239 540.451C248.027 539.901 247.7 539.475 247.26 539.174C246.819 538.866 246.254 538.712 245.564 538.712ZM259.083 537.214C259.325 537.214 259.578 537.229 259.842 537.259C260.107 537.281 260.341 537.314 260.547 537.358L260.316 539.053C260.118 539.002 259.897 538.961 259.655 538.932C259.413 538.902 259.186 538.888 258.973 538.888C258.488 538.888 258.03 538.987 257.597 539.185C257.171 539.376 256.797 539.655 256.474 540.022C256.151 540.381 255.898 540.818 255.714 541.332C255.531 541.838 255.439 542.403 255.439 543.027V549.5H253.601V537.435H255.12L255.318 539.658H255.395C255.644 539.211 255.945 538.803 256.298 538.436C256.65 538.062 257.057 537.765 257.52 537.545C257.989 537.325 258.51 537.214 259.083 537.214Z" fill="black"/>
<rect x="281.182" y="530.432" width="21.1364" height="21.1364" rx="3.52273" fill="#EF9F93"/>
<path d="M311.565 549.5V533.406H313.437V549.5H311.565ZM323.301 537.214C324.732 537.214 325.814 537.567 326.548 538.271C327.282 538.969 327.649 540.091 327.649 541.64V549.5H325.844V541.761C325.844 540.756 325.612 540.003 325.15 539.504C324.695 539.005 323.994 538.756 323.047 538.756C321.712 538.756 320.772 539.134 320.229 539.89C319.686 540.645 319.415 541.743 319.415 543.181V549.5H317.587V537.435H319.062L319.337 539.174H319.437C319.693 538.748 320.02 538.392 320.416 538.106C320.813 537.813 321.257 537.592 321.748 537.446C322.24 537.292 322.757 537.214 323.301 537.214ZM335.311 548.223C335.612 548.223 335.92 548.197 336.236 548.146C336.551 548.095 336.808 548.032 337.006 547.959V549.379C336.793 549.474 336.496 549.555 336.114 549.621C335.74 549.687 335.373 549.72 335.014 549.72C334.375 549.72 333.795 549.61 333.274 549.39C332.753 549.162 332.335 548.781 332.019 548.245C331.711 547.709 331.557 546.968 331.557 546.021V538.866H329.84V537.974L331.568 537.259L332.295 534.638H333.395V537.435H336.929V538.866H333.395V545.966C333.395 546.722 333.568 547.287 333.913 547.662C334.265 548.036 334.731 548.223 335.311 548.223ZM344.096 537.214C345.123 537.214 346.004 537.442 346.738 537.897C347.472 538.352 348.033 538.991 348.422 539.813C348.811 540.627 349.005 541.581 349.005 542.675V543.809H340.672C340.694 545.225 341.046 546.304 341.729 547.045C342.411 547.786 343.373 548.157 344.613 548.157C345.376 548.157 346.052 548.087 346.639 547.948C347.226 547.808 347.835 547.603 348.466 547.331V548.939C347.857 549.21 347.251 549.408 346.65 549.533C346.055 549.658 345.351 549.72 344.536 549.72C343.376 549.72 342.364 549.485 341.498 549.016C340.639 548.539 339.971 547.841 339.494 546.924C339.017 546.007 338.779 544.884 338.779 543.555C338.779 542.256 338.995 541.134 339.428 540.187C339.868 539.233 340.485 538.499 341.277 537.985C342.077 537.471 343.017 537.214 344.096 537.214ZM344.074 538.712C343.098 538.712 342.32 539.031 341.74 539.669C341.16 540.308 340.815 541.2 340.705 542.344H347.09C347.083 541.625 346.969 540.994 346.749 540.451C346.536 539.901 346.209 539.475 345.769 539.174C345.329 538.866 344.764 538.712 344.074 538.712ZM357.592 537.214C357.834 537.214 358.087 537.229 358.352 537.259C358.616 537.281 358.851 537.314 359.056 537.358L358.825 539.053C358.627 539.002 358.407 538.961 358.165 538.932C357.922 538.902 357.695 538.888 357.482 538.888C356.998 538.888 356.539 538.987 356.106 539.185C355.68 539.376 355.306 539.655 354.983 540.022C354.66 540.381 354.407 540.818 354.224 541.332C354.04 541.838 353.948 542.403 353.948 543.027V549.5H352.11V537.435H353.629L353.827 539.658H353.904C354.154 539.211 354.455 538.803 354.807 538.436C355.159 538.062 355.567 537.765 356.029 537.545C356.499 537.325 357.02 537.214 357.592 537.214ZM374.435 537.214C375.764 537.214 376.765 537.563 377.44 538.26C378.116 538.95 378.453 540.062 378.453 541.596V549.5H376.648V541.684C376.648 540.708 376.435 539.978 376.009 539.493C375.591 539.002 374.967 538.756 374.138 538.756C372.971 538.756 372.123 539.093 371.595 539.768C371.067 540.444 370.802 541.438 370.802 542.752V549.5H368.986V541.684C368.986 541.031 368.891 540.488 368.7 540.055C368.516 539.622 368.237 539.299 367.863 539.086C367.496 538.866 367.03 538.756 366.465 538.756C365.665 538.756 365.023 538.921 364.538 539.251C364.054 539.581 363.702 540.073 363.482 540.726C363.269 541.372 363.162 542.168 363.162 543.115V549.5H361.335V537.435H362.81L363.085 539.141H363.184C363.427 538.723 363.731 538.37 364.098 538.084C364.465 537.798 364.876 537.581 365.331 537.435C365.786 537.288 366.27 537.214 366.784 537.214C367.702 537.214 368.469 537.387 369.085 537.732C369.709 538.069 370.16 538.587 370.439 539.284H370.538C370.934 538.587 371.478 538.069 372.167 537.732C372.857 537.387 373.613 537.214 374.435 537.214ZM386.853 537.214C387.88 537.214 388.761 537.442 389.495 537.897C390.229 538.352 390.79 538.991 391.179 539.813C391.568 540.627 391.763 541.581 391.763 542.675V543.809H383.429C383.451 545.225 383.803 546.304 384.486 547.045C385.168 547.786 386.13 548.157 387.37 548.157C388.133 548.157 388.809 548.087 389.396 547.948C389.983 547.808 390.592 547.603 391.223 547.331V548.939C390.614 549.21 390.009 549.408 389.407 549.533C388.812 549.658 388.108 549.72 387.293 549.72C386.134 549.72 385.121 549.485 384.255 549.016C383.396 548.539 382.728 547.841 382.251 546.924C381.774 546.007 381.536 544.884 381.536 543.555C381.536 542.256 381.752 541.134 382.185 540.187C382.625 539.233 383.242 538.499 384.035 537.985C384.835 537.471 385.774 537.214 386.853 537.214ZM386.831 538.712C385.855 538.712 385.077 539.031 384.497 539.669C383.917 540.308 383.572 541.2 383.462 542.344H389.847C389.84 541.625 389.726 540.994 389.506 540.451C389.293 539.901 388.966 539.475 388.526 539.174C388.086 538.866 387.521 538.712 386.831 538.712ZM399.16 549.72C397.634 549.72 396.423 549.199 395.527 548.157C394.639 547.115 394.195 545.566 394.195 543.511C394.195 541.434 394.65 539.868 395.56 538.811C396.471 537.747 397.681 537.214 399.193 537.214C399.832 537.214 400.39 537.299 400.867 537.468C401.344 537.636 401.755 537.864 402.1 538.15C402.444 538.429 402.734 538.748 402.969 539.108H403.101C403.072 538.88 403.043 538.569 403.013 538.172C402.984 537.776 402.969 537.453 402.969 537.203V532.371H404.797V549.5H403.322L403.046 547.783H402.969C402.742 548.142 402.452 548.469 402.1 548.762C401.755 549.056 401.34 549.291 400.856 549.467C400.379 549.636 399.813 549.72 399.16 549.72ZM399.447 548.201C400.738 548.201 401.652 547.834 402.188 547.1C402.723 546.366 402.991 545.276 402.991 543.831V543.5C402.991 541.967 402.734 540.789 402.221 539.967C401.714 539.145 400.79 538.734 399.447 538.734C398.324 538.734 397.483 539.167 396.926 540.033C396.368 540.891 396.089 542.066 396.089 543.555C396.089 545.038 396.364 546.183 396.915 546.99C397.472 547.797 398.316 548.201 399.447 548.201ZM410.499 537.435V549.5H408.672V537.435H410.499ZM409.607 532.921C409.908 532.921 410.165 533.02 410.378 533.218C410.598 533.409 410.708 533.71 410.708 534.121C410.708 534.525 410.598 534.826 410.378 535.024C410.165 535.222 409.908 535.321 409.607 535.321C409.292 535.321 409.028 535.222 408.815 535.024C408.609 534.826 408.507 534.525 408.507 534.121C408.507 533.71 408.609 533.409 408.815 533.218C409.028 533.02 409.292 532.921 409.607 532.921ZM418.888 537.237C420.326 537.237 421.394 537.559 422.091 538.205C422.788 538.851 423.137 539.882 423.137 541.299V549.5H421.805L421.453 547.717H421.364C421.027 548.157 420.675 548.528 420.308 548.828C419.941 549.122 419.515 549.346 419.031 549.5C418.554 549.647 417.967 549.72 417.269 549.72C416.535 549.72 415.882 549.592 415.31 549.335C414.745 549.078 414.297 548.689 413.967 548.168C413.644 547.647 413.482 546.986 413.482 546.186C413.482 544.983 413.959 544.058 414.913 543.412C415.868 542.766 417.321 542.414 419.273 542.355L421.353 542.267V541.53C421.353 540.488 421.13 539.757 420.682 539.339C420.234 538.921 419.603 538.712 418.788 538.712C418.157 538.712 417.556 538.803 416.983 538.987C416.411 539.17 415.868 539.387 415.354 539.636L414.792 538.249C415.335 537.97 415.959 537.732 416.664 537.534C417.368 537.336 418.11 537.237 418.888 537.237ZM421.331 543.555L419.493 543.632C417.989 543.691 416.928 543.937 416.312 544.37C415.695 544.803 415.387 545.416 415.387 546.208C415.387 546.898 415.596 547.408 416.014 547.739C416.433 548.069 416.987 548.234 417.677 548.234C418.748 548.234 419.625 547.937 420.308 547.342C420.99 546.748 421.331 545.856 421.331 544.667V543.555ZM430.799 548.223C431.1 548.223 431.408 548.197 431.723 548.146C432.039 548.095 432.296 548.032 432.494 547.959V549.379C432.281 549.474 431.984 549.555 431.602 549.621C431.228 549.687 430.861 549.72 430.502 549.72C429.863 549.72 429.283 549.61 428.762 549.39C428.241 549.162 427.823 548.781 427.507 548.245C427.199 547.709 427.045 546.968 427.045 546.021V538.866H425.328V537.974L427.056 537.259L427.782 534.638H428.883V537.435H432.417V538.866H428.883V545.966C428.883 546.722 429.056 547.287 429.401 547.662C429.753 548.036 430.219 548.223 430.799 548.223ZM439.584 537.214C440.611 537.214 441.492 537.442 442.226 537.897C442.96 538.352 443.521 538.991 443.91 539.813C444.299 540.627 444.493 541.581 444.493 542.675V543.809H436.16C436.182 545.225 436.534 546.304 437.217 547.045C437.899 547.786 438.861 548.157 440.101 548.157C440.864 548.157 441.539 548.087 442.127 547.948C442.714 547.808 443.323 547.603 443.954 547.331V548.939C443.345 549.21 442.739 549.408 442.138 549.533C441.543 549.658 440.839 549.72 440.024 549.72C438.864 549.72 437.852 549.485 436.986 549.016C436.127 548.539 435.459 547.841 434.982 546.924C434.505 546.007 434.266 544.884 434.266 543.555C434.266 542.256 434.483 541.134 434.916 540.187C435.356 539.233 435.973 538.499 436.765 537.985C437.565 537.471 438.505 537.214 439.584 537.214ZM439.562 538.712C438.585 538.712 437.808 539.031 437.228 539.669C436.648 540.308 436.303 541.2 436.193 542.344H442.578C442.571 541.625 442.457 540.994 442.237 540.451C442.024 539.901 441.697 539.475 441.257 539.174C440.817 538.866 440.251 538.712 439.562 538.712Z" fill="black"/>
<rect x="466.364" y="530.432" width="21.1364" height="21.1364" rx="3.52273" fill="#E5434B"/>
<path d="M506.842 549.5L504.861 544.392H498.41L496.439 549.5H494.546L500.843 533.339H502.527L508.78 549.5H506.842ZM504.299 542.73L502.417 537.655C502.373 537.523 502.299 537.306 502.197 537.005C502.101 536.704 502.002 536.393 501.899 536.07C501.797 535.747 501.712 535.486 501.646 535.288C501.573 535.589 501.492 535.89 501.404 536.191C501.323 536.484 501.243 536.759 501.162 537.016C501.081 537.266 501.011 537.479 500.953 537.655L499.037 542.73H504.299ZM515.033 549.72C513.506 549.72 512.295 549.199 511.4 548.157C510.512 547.115 510.068 545.566 510.068 543.511C510.068 541.434 510.523 539.868 511.433 538.811C512.343 537.747 513.554 537.214 515.066 537.214C515.704 537.214 516.262 537.299 516.739 537.468C517.216 537.636 517.627 537.864 517.972 538.15C518.317 538.429 518.607 538.748 518.841 539.108H518.974C518.944 538.88 518.915 538.569 518.885 538.172C518.856 537.776 518.841 537.453 518.841 537.203V532.371H520.669V549.5H519.194L518.919 547.783H518.841C518.614 548.142 518.324 548.469 517.972 548.762C517.627 549.056 517.212 549.291 516.728 549.467C516.251 549.636 515.686 549.72 515.033 549.72ZM515.319 548.201C516.61 548.201 517.524 547.834 518.06 547.1C518.596 546.366 518.863 545.276 518.863 543.831V543.5C518.863 541.967 518.607 540.789 518.093 539.967C517.586 539.145 516.662 538.734 515.319 538.734C514.196 538.734 513.356 539.167 512.798 540.033C512.24 540.891 511.961 542.066 511.961 543.555C511.961 545.038 512.236 546.183 512.787 546.99C513.345 547.797 514.189 548.201 515.319 548.201ZM527.197 549.5L522.617 537.435H524.577L527.23 544.733C527.413 545.232 527.601 545.783 527.791 546.385C527.982 546.986 528.114 547.471 528.188 547.838H528.265C528.353 547.471 528.5 546.986 528.705 546.385C528.911 545.775 529.098 545.225 529.267 544.733L531.92 537.435H533.879L529.289 549.5H527.197ZM540.33 537.237C541.769 537.237 542.836 537.559 543.534 538.205C544.231 538.851 544.579 539.882 544.579 541.299V549.5H543.247L542.895 547.717H542.807C542.469 548.157 542.117 548.528 541.75 548.828C541.383 549.122 540.958 549.346 540.473 549.5C539.996 549.647 539.409 549.72 538.712 549.72C537.978 549.72 537.325 549.592 536.752 549.335C536.187 549.078 535.74 548.689 535.409 548.168C535.086 547.647 534.925 546.986 534.925 546.186C534.925 544.983 535.402 544.058 536.356 543.412C537.31 542.766 538.763 542.414 540.715 542.355L542.796 542.267V541.53C542.796 540.488 542.572 539.757 542.124 539.339C541.677 538.921 541.046 538.712 540.231 538.712C539.6 538.712 538.998 538.803 538.426 538.987C537.853 539.17 537.31 539.387 536.796 539.636L536.235 538.249C536.778 537.97 537.402 537.732 538.106 537.534C538.811 537.336 539.552 537.237 540.33 537.237ZM542.774 543.555L540.936 543.632C539.431 543.691 538.371 543.937 537.754 544.37C537.138 544.803 536.829 545.416 536.829 546.208C536.829 546.898 537.039 547.408 537.457 547.739C537.875 548.069 538.429 548.234 539.119 548.234C540.191 548.234 541.068 547.937 541.75 547.342C542.433 546.748 542.774 545.856 542.774 544.667V543.555ZM554.058 537.214C555.489 537.214 556.571 537.567 557.305 538.271C558.039 538.969 558.406 540.091 558.406 541.64V549.5H556.601V541.761C556.601 540.756 556.37 540.003 555.907 539.504C555.452 539.005 554.751 538.756 553.805 538.756C552.469 538.756 551.529 539.134 550.986 539.89C550.443 540.645 550.172 541.743 550.172 543.181V549.5H548.344V537.435H549.819L550.095 539.174H550.194C550.451 538.748 550.777 538.392 551.173 538.106C551.57 537.813 552.014 537.592 552.506 537.446C552.997 537.292 553.515 537.214 554.058 537.214ZM567.004 549.72C565.918 549.72 564.96 549.496 564.131 549.049C563.301 548.601 562.655 547.918 562.193 547.001C561.731 546.084 561.499 544.928 561.499 543.533C561.499 542.073 561.742 540.88 562.226 539.956C562.718 539.024 563.393 538.334 564.252 537.886C565.11 537.438 566.086 537.214 567.18 537.214C567.782 537.214 568.361 537.277 568.919 537.402C569.484 537.519 569.947 537.67 570.306 537.853L569.756 539.383C569.389 539.236 568.963 539.104 568.479 538.987C568.002 538.869 567.554 538.811 567.136 538.811C566.299 538.811 565.602 538.991 565.044 539.35C564.494 539.71 564.079 540.238 563.8 540.935C563.529 541.633 563.393 542.491 563.393 543.511C563.393 544.487 563.525 545.32 563.789 546.01C564.061 546.7 564.461 547.229 564.989 547.596C565.525 547.955 566.193 548.135 566.993 548.135C567.631 548.135 568.207 548.069 568.721 547.937C569.235 547.797 569.701 547.636 570.119 547.452V549.082C569.716 549.287 569.264 549.445 568.765 549.555C568.273 549.665 567.686 549.72 567.004 549.72ZM577.627 537.214C578.654 537.214 579.535 537.442 580.269 537.897C581.003 538.352 581.564 538.991 581.953 539.813C582.342 540.627 582.537 541.581 582.537 542.675V543.809H574.203C574.225 545.225 574.578 546.304 575.26 547.045C575.943 547.786 576.904 548.157 578.144 548.157C578.908 548.157 579.583 548.087 580.17 547.948C580.757 547.808 581.366 547.603 581.997 547.331V548.939C581.388 549.21 580.783 549.408 580.181 549.533C579.586 549.658 578.882 549.72 578.067 549.72C576.908 549.72 575.895 549.485 575.029 549.016C574.17 548.539 573.502 547.841 573.025 546.924C572.548 546.007 572.31 544.884 572.31 543.555C572.31 542.256 572.526 541.134 572.959 540.187C573.4 539.233 574.016 538.499 574.809 537.985C575.609 537.471 576.548 537.214 577.627 537.214ZM577.605 538.712C576.629 538.712 575.851 539.031 575.271 539.669C574.691 540.308 574.346 541.2 574.236 542.344H580.621C580.614 541.625 580.5 540.994 580.28 540.451C580.067 539.901 579.741 539.475 579.3 539.174C578.86 538.866 578.295 538.712 577.605 538.712ZM589.934 549.72C588.408 549.72 587.197 549.199 586.302 548.157C585.414 547.115 584.97 545.566 584.97 543.511C584.97 541.434 585.425 539.868 586.335 538.811C587.245 537.747 588.456 537.214 589.968 537.214C590.606 537.214 591.164 537.299 591.641 537.468C592.118 537.636 592.529 537.864 592.874 538.15C593.219 538.429 593.509 538.748 593.743 539.108H593.876C593.846 538.88 593.817 538.569 593.787 538.172C593.758 537.776 593.743 537.453 593.743 537.203V532.371H595.571V549.5H594.096L593.821 547.783H593.743C593.516 548.142 593.226 548.469 592.874 548.762C592.529 549.056 592.114 549.291 591.63 549.467C591.153 549.636 590.588 549.72 589.934 549.72ZM590.221 548.201C591.512 548.201 592.426 547.834 592.962 547.1C593.498 546.366 593.765 545.276 593.765 543.831V543.5C593.765 541.967 593.509 540.789 592.995 539.967C592.488 539.145 591.564 538.734 590.221 538.734C589.098 538.734 588.258 539.167 587.7 540.033C587.142 540.891 586.863 542.066 586.863 543.555C586.863 545.038 587.138 546.183 587.689 546.99C588.247 547.797 589.091 548.201 590.221 548.201Z" fill="black"/>
</svg>
