<svg width="736" height="582" viewBox="0 0 736 582" fill="none" xmlns="http://www.w3.org/2000/svg">
<g clip-path="url(#clip0_7245_29544)">
<path d="M367.781 224.986L367.781 0C476.958 0 570.375 78.3919 589.333 185.917L367.781 224.986Z" fill="#FDE3DF" stroke="white" stroke-width="1.53992"/>
<path d="M367.781 224.986L589.333 185.917C608.292 293.443 547.318 399.06 444.725 436.403L367.781 224.986Z" fill="#F4C3C1" stroke="white" stroke-width="1.53992"/>
<path d="M367.781 224.986L444.725 436.403C342.133 473.746 227.539 432.035 172.951 337.479L367.781 224.986Z" fill="#E8706D" stroke="white" stroke-width="1.53992"/>
<path d="M367.781 224.986L172.951 337.478C110.827 229.869 147.694 92.2704 255.296 30.1423C289.495 10.3957 328.29 0 367.781 0V224.986Z" fill="#E5434B" stroke="white" stroke-width="1.53992"/>
<path d="M438.32 131.5H423.351V129.328L429.46 123.125C430.596 121.979 431.549 120.958 432.32 120.062C433.101 119.167 433.695 118.286 434.101 117.422C434.507 116.547 434.71 115.589 434.71 114.547C434.71 113.255 434.325 112.271 433.554 111.594C432.794 110.906 431.788 110.562 430.538 110.562C429.445 110.562 428.476 110.75 427.632 111.125C426.788 111.5 425.924 112.031 425.038 112.719L423.648 110.969C424.252 110.458 424.908 110.005 425.616 109.609C426.335 109.214 427.101 108.901 427.913 108.672C428.736 108.443 429.611 108.328 430.538 108.328C431.945 108.328 433.158 108.573 434.179 109.062C435.2 109.552 435.986 110.25 436.538 111.156C437.101 112.062 437.382 113.141 437.382 114.391C437.382 115.599 437.142 116.724 436.663 117.766C436.184 118.797 435.512 119.823 434.648 120.844C433.783 121.854 432.773 122.927 431.616 124.062L426.648 129.016V129.125H438.32V131.5ZM456.757 120.047C456.757 121.901 456.616 123.557 456.335 125.016C456.054 126.474 455.611 127.708 455.007 128.719C454.403 129.729 453.622 130.5 452.663 131.031C451.705 131.552 450.554 131.812 449.21 131.812C447.512 131.812 446.106 131.349 444.991 130.422C443.887 129.495 443.059 128.156 442.507 126.406C441.965 124.646 441.695 122.526 441.695 120.047C441.695 117.609 441.939 115.516 442.429 113.766C442.929 112.005 443.731 110.656 444.835 109.719C445.939 108.771 447.398 108.297 449.21 108.297C450.929 108.297 452.346 108.766 453.46 109.703C454.575 110.63 455.403 111.974 455.945 113.734C456.486 115.484 456.757 117.589 456.757 120.047ZM444.304 120.047C444.304 122.172 444.465 123.943 444.788 125.359C445.111 126.776 445.632 127.839 446.351 128.547C447.08 129.245 448.033 129.594 449.21 129.594C450.387 129.594 451.335 129.245 452.054 128.547C452.783 127.849 453.309 126.792 453.632 125.375C453.965 123.958 454.132 122.182 454.132 120.047C454.132 117.953 453.971 116.203 453.648 114.797C453.325 113.38 452.804 112.318 452.085 111.609C451.366 110.891 450.408 110.531 449.21 110.531C448.012 110.531 447.054 110.891 446.335 111.609C445.616 112.318 445.096 113.38 444.773 114.797C444.46 116.203 444.304 117.953 444.304 120.047ZM464.632 108.328C466.195 108.328 467.377 108.953 468.179 110.203C468.991 111.443 469.398 113.198 469.398 115.469C469.398 117.74 469.007 119.51 468.226 120.781C467.445 122.042 466.247 122.672 464.632 122.672C463.132 122.672 461.981 122.042 461.179 120.781C460.387 119.51 459.991 117.74 459.991 115.469C459.991 113.198 460.372 111.443 461.132 110.203C461.892 108.953 463.059 108.328 464.632 108.328ZM464.632 110.188C463.788 110.188 463.169 110.63 462.773 111.516C462.377 112.391 462.179 113.708 462.179 115.469C462.179 117.229 462.377 118.557 462.773 119.453C463.169 120.349 463.788 120.797 464.632 120.797C465.507 120.797 466.158 120.349 466.585 119.453C467.012 118.557 467.226 117.229 467.226 115.469C467.226 113.719 467.012 112.401 466.585 111.516C466.169 110.63 465.517 110.188 464.632 110.188ZM479.101 108.656L466.429 131.5H464.148L476.82 108.656H479.101ZM478.491 117.484C480.044 117.484 481.226 118.109 482.038 119.359C482.851 120.599 483.257 122.354 483.257 124.625C483.257 126.885 482.866 128.651 482.085 129.922C481.304 131.182 480.106 131.812 478.491 131.812C476.981 131.812 475.83 131.182 475.038 129.922C474.247 128.651 473.851 126.885 473.851 124.625C473.851 122.354 474.226 120.599 474.976 119.359C475.736 118.109 476.908 117.484 478.491 117.484ZM478.491 119.359C477.648 119.359 477.028 119.797 476.632 120.672C476.236 121.547 476.038 122.865 476.038 124.625C476.038 126.385 476.236 127.714 476.632 128.609C477.028 129.495 477.648 129.938 478.491 129.938C479.366 129.938 480.017 129.5 480.445 128.625C480.872 127.74 481.085 126.406 481.085 124.625C481.085 122.875 480.872 121.562 480.445 120.688C480.028 119.802 479.377 119.359 478.491 119.359Z" fill="#E5434B"/>
<path d="M472.82 295H457.851V292.828L463.96 286.625C465.096 285.479 466.049 284.458 466.82 283.562C467.601 282.667 468.195 281.786 468.601 280.922C469.007 280.047 469.21 279.089 469.21 278.047C469.21 276.755 468.825 275.771 468.054 275.094C467.294 274.406 466.288 274.062 465.038 274.062C463.945 274.062 462.976 274.25 462.132 274.625C461.288 275 460.424 275.531 459.538 276.219L458.148 274.469C458.752 273.958 459.408 273.505 460.116 273.109C460.835 272.714 461.601 272.401 462.413 272.172C463.236 271.943 464.111 271.828 465.038 271.828C466.445 271.828 467.658 272.073 468.679 272.562C469.7 273.052 470.486 273.75 471.038 274.656C471.601 275.562 471.882 276.641 471.882 277.891C471.882 279.099 471.642 280.224 471.163 281.266C470.684 282.297 470.012 283.323 469.148 284.344C468.283 285.354 467.273 286.427 466.116 287.562L461.148 292.516V292.625H472.82V295ZM491.257 283.547C491.257 285.401 491.116 287.057 490.835 288.516C490.554 289.974 490.111 291.208 489.507 292.219C488.903 293.229 488.122 294 487.163 294.531C486.205 295.052 485.054 295.312 483.71 295.312C482.012 295.312 480.606 294.849 479.491 293.922C478.387 292.995 477.559 291.656 477.007 289.906C476.465 288.146 476.195 286.026 476.195 283.547C476.195 281.109 476.439 279.016 476.929 277.266C477.429 275.505 478.231 274.156 479.335 273.219C480.439 272.271 481.898 271.797 483.71 271.797C485.429 271.797 486.846 272.266 487.96 273.203C489.075 274.13 489.903 275.474 490.445 277.234C490.986 278.984 491.257 281.089 491.257 283.547ZM478.804 283.547C478.804 285.672 478.965 287.443 479.288 288.859C479.611 290.276 480.132 291.339 480.851 292.047C481.58 292.745 482.533 293.094 483.71 293.094C484.887 293.094 485.835 292.745 486.554 292.047C487.283 291.349 487.809 290.292 488.132 288.875C488.465 287.458 488.632 285.682 488.632 283.547C488.632 281.453 488.471 279.703 488.148 278.297C487.825 276.88 487.304 275.818 486.585 275.109C485.866 274.391 484.908 274.031 483.71 274.031C482.512 274.031 481.554 274.391 480.835 275.109C480.116 275.818 479.596 276.88 479.273 278.297C478.96 279.703 478.804 281.453 478.804 283.547ZM499.132 271.828C500.695 271.828 501.877 272.453 502.679 273.703C503.491 274.943 503.898 276.698 503.898 278.969C503.898 281.24 503.507 283.01 502.726 284.281C501.945 285.542 500.747 286.172 499.132 286.172C497.632 286.172 496.481 285.542 495.679 284.281C494.887 283.01 494.491 281.24 494.491 278.969C494.491 276.698 494.872 274.943 495.632 273.703C496.392 272.453 497.559 271.828 499.132 271.828ZM499.132 273.688C498.288 273.688 497.669 274.13 497.273 275.016C496.877 275.891 496.679 277.208 496.679 278.969C496.679 280.729 496.877 282.057 497.273 282.953C497.669 283.849 498.288 284.297 499.132 284.297C500.007 284.297 500.658 283.849 501.085 282.953C501.512 282.057 501.726 280.729 501.726 278.969C501.726 277.219 501.512 275.901 501.085 275.016C500.669 274.13 500.017 273.688 499.132 273.688ZM513.601 272.156L500.929 295H498.648L511.32 272.156H513.601ZM512.991 280.984C514.544 280.984 515.726 281.609 516.538 282.859C517.351 284.099 517.757 285.854 517.757 288.125C517.757 290.385 517.366 292.151 516.585 293.422C515.804 294.682 514.606 295.312 512.991 295.312C511.481 295.312 510.33 294.682 509.538 293.422C508.747 292.151 508.351 290.385 508.351 288.125C508.351 285.854 508.726 284.099 509.476 282.859C510.236 281.609 511.408 280.984 512.991 280.984ZM512.991 282.859C512.148 282.859 511.528 283.297 511.132 284.172C510.736 285.047 510.538 286.365 510.538 288.125C510.538 289.885 510.736 291.214 511.132 292.109C511.528 292.995 512.148 293.438 512.991 293.438C513.866 293.438 514.517 293 514.945 292.125C515.372 291.24 515.585 289.906 515.585 288.125C515.585 286.375 515.372 285.062 514.945 284.188C514.528 283.302 513.877 282.859 512.991 282.859Z" fill="white"/>
<path d="M312.32 353.5H297.351V351.328L303.46 345.125C304.596 343.979 305.549 342.958 306.32 342.062C307.101 341.167 307.695 340.286 308.101 339.422C308.507 338.547 308.71 337.589 308.71 336.547C308.71 335.255 308.325 334.271 307.554 333.594C306.794 332.906 305.788 332.562 304.538 332.562C303.445 332.562 302.476 332.75 301.632 333.125C300.788 333.5 299.924 334.031 299.038 334.719L297.648 332.969C298.252 332.458 298.908 332.005 299.616 331.609C300.335 331.214 301.101 330.901 301.913 330.672C302.736 330.443 303.611 330.328 304.538 330.328C305.945 330.328 307.158 330.573 308.179 331.062C309.2 331.552 309.986 332.25 310.538 333.156C311.101 334.062 311.382 335.141 311.382 336.391C311.382 337.599 311.142 338.724 310.663 339.766C310.184 340.797 309.512 341.823 308.648 342.844C307.783 343.854 306.773 344.927 305.616 346.062L300.648 351.016V351.125H312.32V353.5ZM330.757 342.047C330.757 343.901 330.616 345.557 330.335 347.016C330.054 348.474 329.611 349.708 329.007 350.719C328.403 351.729 327.622 352.5 326.663 353.031C325.705 353.552 324.554 353.812 323.21 353.812C321.512 353.812 320.106 353.349 318.991 352.422C317.887 351.495 317.059 350.156 316.507 348.406C315.965 346.646 315.695 344.526 315.695 342.047C315.695 339.609 315.939 337.516 316.429 335.766C316.929 334.005 317.731 332.656 318.835 331.719C319.939 330.771 321.398 330.297 323.21 330.297C324.929 330.297 326.346 330.766 327.46 331.703C328.575 332.63 329.403 333.974 329.945 335.734C330.486 337.484 330.757 339.589 330.757 342.047ZM318.304 342.047C318.304 344.172 318.465 345.943 318.788 347.359C319.111 348.776 319.632 349.839 320.351 350.547C321.08 351.245 322.033 351.594 323.21 351.594C324.387 351.594 325.335 351.245 326.054 350.547C326.783 349.849 327.309 348.792 327.632 347.375C327.965 345.958 328.132 344.182 328.132 342.047C328.132 339.953 327.971 338.203 327.648 336.797C327.325 335.38 326.804 334.318 326.085 333.609C325.366 332.891 324.408 332.531 323.21 332.531C322.012 332.531 321.054 332.891 320.335 333.609C319.616 334.318 319.096 335.38 318.773 336.797C318.46 338.203 318.304 339.953 318.304 342.047ZM338.632 330.328C340.195 330.328 341.377 330.953 342.179 332.203C342.991 333.443 343.398 335.198 343.398 337.469C343.398 339.74 343.007 341.51 342.226 342.781C341.445 344.042 340.247 344.672 338.632 344.672C337.132 344.672 335.981 344.042 335.179 342.781C334.387 341.51 333.991 339.74 333.991 337.469C333.991 335.198 334.372 333.443 335.132 332.203C335.892 330.953 337.059 330.328 338.632 330.328ZM338.632 332.188C337.788 332.188 337.169 332.63 336.773 333.516C336.377 334.391 336.179 335.708 336.179 337.469C336.179 339.229 336.377 340.557 336.773 341.453C337.169 342.349 337.788 342.797 338.632 342.797C339.507 342.797 340.158 342.349 340.585 341.453C341.012 340.557 341.226 339.229 341.226 337.469C341.226 335.719 341.012 334.401 340.585 333.516C340.169 332.63 339.517 332.188 338.632 332.188ZM353.101 330.656L340.429 353.5H338.148L350.82 330.656H353.101ZM352.491 339.484C354.044 339.484 355.226 340.109 356.038 341.359C356.851 342.599 357.257 344.354 357.257 346.625C357.257 348.885 356.866 350.651 356.085 351.922C355.304 353.182 354.106 353.812 352.491 353.812C350.981 353.812 349.83 353.182 349.038 351.922C348.247 350.651 347.851 348.885 347.851 346.625C347.851 344.354 348.226 342.599 348.976 341.359C349.736 340.109 350.908 339.484 352.491 339.484ZM352.491 341.359C351.648 341.359 351.028 341.797 350.632 342.672C350.236 343.547 350.038 344.865 350.038 346.625C350.038 348.385 350.236 349.714 350.632 350.609C351.028 351.495 351.648 351.938 352.491 351.938C353.366 351.938 354.017 351.5 354.445 350.625C354.872 349.74 355.085 348.406 355.085 346.625C355.085 344.875 354.872 343.562 354.445 342.688C354.028 341.802 353.377 341.359 352.491 341.359Z" fill="white"/>
<path d="M240.976 152.984C240.976 154.005 240.778 154.891 240.382 155.641C239.986 156.391 239.434 157.005 238.726 157.484C238.017 157.953 237.184 158.281 236.226 158.469V158.594C238.038 158.823 239.398 159.406 240.304 160.344C241.221 161.281 241.679 162.51 241.679 164.031C241.679 165.354 241.366 166.526 240.741 167.547C240.127 168.568 239.179 169.37 237.898 169.953C236.627 170.526 234.997 170.812 233.007 170.812C231.799 170.812 230.679 170.714 229.648 170.516C228.627 170.328 227.648 170.01 226.71 169.562V167.125C227.658 167.594 228.689 167.964 229.804 168.234C230.919 168.495 231.997 168.625 233.038 168.625C235.122 168.625 236.627 168.214 237.554 167.391C238.481 166.557 238.945 165.422 238.945 163.984C238.945 162.995 238.684 162.198 238.163 161.594C237.653 160.979 236.913 160.531 235.945 160.25C234.986 159.958 233.83 159.812 232.476 159.812H230.195V157.594H232.491C233.731 157.594 234.783 157.411 235.648 157.047C236.512 156.682 237.169 156.172 237.616 155.516C238.075 154.849 238.304 154.062 238.304 153.156C238.304 152 237.919 151.109 237.148 150.484C236.377 149.849 235.33 149.531 234.007 149.531C233.195 149.531 232.455 149.615 231.788 149.781C231.122 149.948 230.497 150.177 229.913 150.469C229.33 150.76 228.747 151.099 228.163 151.484L226.851 149.703C227.684 149.057 228.7 148.5 229.898 148.031C231.096 147.562 232.455 147.328 233.976 147.328C236.309 147.328 238.059 147.859 239.226 148.922C240.392 149.984 240.976 151.339 240.976 152.984ZM260.257 159.047C260.257 160.901 260.116 162.557 259.835 164.016C259.554 165.474 259.111 166.708 258.507 167.719C257.903 168.729 257.122 169.5 256.163 170.031C255.205 170.552 254.054 170.812 252.71 170.812C251.012 170.812 249.606 170.349 248.491 169.422C247.387 168.495 246.559 167.156 246.007 165.406C245.465 163.646 245.195 161.526 245.195 159.047C245.195 156.609 245.439 154.516 245.929 152.766C246.429 151.005 247.231 149.656 248.335 148.719C249.439 147.771 250.898 147.297 252.71 147.297C254.429 147.297 255.846 147.766 256.96 148.703C258.075 149.63 258.903 150.974 259.445 152.734C259.986 154.484 260.257 156.589 260.257 159.047ZM247.804 159.047C247.804 161.172 247.965 162.943 248.288 164.359C248.611 165.776 249.132 166.839 249.851 167.547C250.58 168.245 251.533 168.594 252.71 168.594C253.887 168.594 254.835 168.245 255.554 167.547C256.283 166.849 256.809 165.792 257.132 164.375C257.465 162.958 257.632 161.182 257.632 159.047C257.632 156.953 257.471 155.203 257.148 153.797C256.825 152.38 256.304 151.318 255.585 150.609C254.866 149.891 253.908 149.531 252.71 149.531C251.512 149.531 250.554 149.891 249.835 150.609C249.116 151.318 248.596 152.38 248.273 153.797C247.96 155.203 247.804 156.953 247.804 159.047ZM268.132 147.328C269.695 147.328 270.877 147.953 271.679 149.203C272.491 150.443 272.898 152.198 272.898 154.469C272.898 156.74 272.507 158.51 271.726 159.781C270.945 161.042 269.747 161.672 268.132 161.672C266.632 161.672 265.481 161.042 264.679 159.781C263.887 158.51 263.491 156.74 263.491 154.469C263.491 152.198 263.872 150.443 264.632 149.203C265.392 147.953 266.559 147.328 268.132 147.328ZM268.132 149.188C267.288 149.188 266.669 149.63 266.273 150.516C265.877 151.391 265.679 152.708 265.679 154.469C265.679 156.229 265.877 157.557 266.273 158.453C266.669 159.349 267.288 159.797 268.132 159.797C269.007 159.797 269.658 159.349 270.085 158.453C270.512 157.557 270.726 156.229 270.726 154.469C270.726 152.719 270.512 151.401 270.085 150.516C269.669 149.63 269.017 149.188 268.132 149.188ZM282.601 147.656L269.929 170.5H267.648L280.32 147.656H282.601ZM281.991 156.484C283.544 156.484 284.726 157.109 285.538 158.359C286.351 159.599 286.757 161.354 286.757 163.625C286.757 165.885 286.366 167.651 285.585 168.922C284.804 170.182 283.606 170.812 281.991 170.812C280.481 170.812 279.33 170.182 278.538 168.922C277.747 167.651 277.351 165.885 277.351 163.625C277.351 161.354 277.726 159.599 278.476 158.359C279.236 157.109 280.408 156.484 281.991 156.484ZM281.991 158.359C281.148 158.359 280.528 158.797 280.132 159.672C279.736 160.547 279.538 161.865 279.538 163.625C279.538 165.385 279.736 166.714 280.132 167.609C280.528 168.495 281.148 168.938 281.991 168.938C282.866 168.938 283.517 168.5 283.945 167.625C284.372 166.74 284.585 165.406 284.585 163.625C284.585 161.875 284.372 160.562 283.945 159.688C283.528 158.802 282.877 158.359 281.991 158.359Z" fill="white"/>
<rect x="111.5" y="504.932" width="21.1364" height="21.1364" rx="3.52273" fill="#FDE3DF"/>
<path d="M147.597 524H145.814V512.595C145.814 512.162 145.814 511.792 145.814 511.483C145.821 511.168 145.828 510.882 145.836 510.625C145.85 510.36 145.869 510.093 145.891 509.821C145.663 510.056 145.45 510.258 145.252 510.426C145.054 510.588 144.808 510.79 144.515 511.032L142.676 512.507L141.718 511.263L146.078 507.906H147.597V524ZM159.343 517.824C159.343 516.584 159.461 515.377 159.695 514.202C159.938 513.028 160.305 511.909 160.796 510.845C161.288 509.781 161.908 508.801 162.657 507.906H164.407C163.343 509.3 162.543 510.848 162.007 512.551C161.471 514.254 161.204 516.004 161.204 517.802C161.204 518.976 161.321 520.136 161.556 521.281C161.798 522.418 162.154 523.516 162.624 524.572C163.101 525.629 163.688 526.627 164.385 527.567H162.657C161.908 526.686 161.288 525.725 160.796 524.683C160.305 523.648 159.938 522.551 159.695 521.391C159.461 520.231 159.343 519.042 159.343 517.824ZM179.874 524H177.716L168.943 510.482H168.854C168.876 510.841 168.902 511.252 168.932 511.714C168.961 512.17 168.983 512.658 168.998 513.179C169.02 513.692 169.031 514.217 169.031 514.753V524H167.291V507.906H169.438L178.179 521.38H178.256C178.241 521.123 178.223 520.76 178.201 520.29C178.179 519.813 178.157 519.303 178.135 518.76C178.12 518.21 178.113 517.699 178.113 517.23V507.906H179.874V524ZM194.394 517.945C194.394 518.936 194.266 519.82 194.009 520.598C193.752 521.376 193.381 522.033 192.897 522.569C192.413 523.105 191.826 523.516 191.136 523.802C190.453 524.081 189.679 524.22 188.813 524.22C188.006 524.22 187.264 524.081 186.589 523.802C185.921 523.516 185.342 523.105 184.85 522.569C184.365 522.033 183.988 521.376 183.716 520.598C183.452 519.82 183.32 518.936 183.32 517.945C183.32 516.624 183.544 515.501 183.991 514.577C184.439 513.645 185.077 512.936 185.907 512.452C186.743 511.96 187.738 511.714 188.89 511.714C189.991 511.714 190.952 511.96 191.774 512.452C192.604 512.944 193.246 513.656 193.701 514.588C194.163 515.512 194.394 516.632 194.394 517.945ZM185.213 517.945C185.213 518.914 185.342 519.754 185.598 520.466C185.855 521.178 186.252 521.729 186.787 522.118C187.323 522.507 188.013 522.701 188.857 522.701C189.694 522.701 190.38 522.507 190.916 522.118C191.459 521.729 191.859 521.178 192.115 520.466C192.372 519.754 192.501 518.914 192.501 517.945C192.501 516.984 192.372 516.155 192.115 515.457C191.859 514.753 191.462 514.21 190.927 513.828C190.391 513.446 189.697 513.256 188.846 513.256C187.591 513.256 186.67 513.67 186.083 514.5C185.503 515.329 185.213 516.478 185.213 517.945ZM201.451 522.723C201.752 522.723 202.06 522.697 202.375 522.646C202.691 522.595 202.948 522.532 203.146 522.459V523.879C202.933 523.974 202.636 524.055 202.254 524.121C201.88 524.187 201.513 524.22 201.153 524.22C200.515 524.22 199.935 524.11 199.414 523.89C198.893 523.662 198.475 523.281 198.159 522.745C197.851 522.209 197.697 521.468 197.697 520.521V513.366H195.979V512.474L197.708 511.759L198.434 509.138H199.535V511.935H203.069V513.366H199.535V520.466C199.535 521.222 199.708 521.787 200.053 522.162C200.405 522.536 200.871 522.723 201.451 522.723ZM215.96 511.737C217.398 511.737 218.466 512.059 219.163 512.705C219.861 513.351 220.209 514.382 220.209 515.799V524H218.877L218.525 522.217H218.437C218.099 522.657 217.747 523.028 217.38 523.328C217.013 523.622 216.587 523.846 216.103 524C215.626 524.147 215.039 524.22 214.342 524.22C213.608 524.22 212.955 524.092 212.382 523.835C211.817 523.578 211.369 523.189 211.039 522.668C210.716 522.147 210.555 521.486 210.555 520.686C210.555 519.483 211.032 518.558 211.986 517.912C212.94 517.266 214.393 516.914 216.345 516.855L218.426 516.767V516.03C218.426 514.988 218.202 514.257 217.754 513.839C217.307 513.421 216.675 513.212 215.861 513.212C215.23 513.212 214.628 513.303 214.055 513.487C213.483 513.67 212.94 513.887 212.426 514.136L211.865 512.749C212.408 512.47 213.032 512.232 213.736 512.034C214.441 511.836 215.182 511.737 215.96 511.737ZM218.404 518.055L216.565 518.132C215.061 518.191 214 518.437 213.384 518.87C212.767 519.303 212.459 519.916 212.459 520.708C212.459 521.398 212.668 521.908 213.087 522.239C213.505 522.569 214.059 522.734 214.749 522.734C215.82 522.734 216.698 522.437 217.38 521.842C218.063 521.248 218.404 520.356 218.404 519.167V518.055ZM227.871 522.723C228.172 522.723 228.48 522.697 228.796 522.646C229.111 522.595 229.368 522.532 229.566 522.459V523.879C229.354 523.974 229.056 524.055 228.675 524.121C228.3 524.187 227.934 524.22 227.574 524.22C226.935 524.22 226.356 524.11 225.835 523.89C225.314 523.662 224.895 523.281 224.58 522.745C224.271 522.209 224.117 521.468 224.117 520.521V513.366H222.4V512.474L224.128 511.759L224.855 509.138H225.956V511.935H229.489V513.366H225.956V520.466C225.956 521.222 226.128 521.787 226.473 522.162C226.825 522.536 227.291 522.723 227.871 522.723ZM248.237 524L246.255 518.892H239.804L237.834 524H235.94L242.237 507.839H243.922L250.174 524H248.237ZM245.694 517.23L243.812 512.155C243.767 512.023 243.694 511.806 243.591 511.505C243.496 511.204 243.397 510.893 243.294 510.57C243.191 510.247 243.107 509.986 243.041 509.788C242.968 510.089 242.887 510.39 242.799 510.691C242.718 510.984 242.637 511.259 242.557 511.516C242.476 511.766 242.406 511.979 242.347 512.155L240.432 517.23H245.694ZM253.972 524H252.134V506.871H253.972V524ZM259.675 524H257.836V506.871H259.675V524ZM267.359 517.802C267.359 519.028 267.238 520.224 266.995 521.391C266.761 522.551 266.397 523.651 265.906 524.694C265.421 525.736 264.801 526.693 264.045 527.567H262.317C263.021 526.635 263.608 525.637 264.078 524.572C264.555 523.508 264.911 522.407 265.146 521.27C265.388 520.125 265.509 518.965 265.509 517.791C265.509 516.595 265.388 515.417 265.146 514.257C264.904 513.098 264.544 511.982 264.067 510.911C263.597 509.839 263.007 508.838 262.295 507.906H264.045C264.801 508.808 265.421 509.792 265.906 510.856C266.397 511.913 266.761 513.028 266.995 514.202C267.238 515.369 267.359 516.569 267.359 517.802Z" fill="black"/>
<rect x="288.682" y="504.932" width="21.1364" height="21.1364" rx="3.52273" fill="#F4C3C1"/>
<path d="M328.522 524H317.976V522.47L322.28 518.099C323.08 517.292 323.751 516.573 324.295 515.942C324.845 515.311 325.263 514.69 325.549 514.081C325.836 513.465 325.979 512.79 325.979 512.056C325.979 511.146 325.707 510.452 325.164 509.975C324.628 509.491 323.92 509.249 323.04 509.249C322.269 509.249 321.586 509.381 320.992 509.645C320.398 509.909 319.788 510.283 319.165 510.768L318.185 509.535C318.61 509.175 319.073 508.856 319.572 508.577C320.078 508.298 320.618 508.078 321.19 507.917C321.77 507.755 322.386 507.674 323.04 507.674C324.03 507.674 324.885 507.847 325.605 508.192C326.324 508.537 326.878 509.028 327.267 509.667C327.663 510.305 327.861 511.065 327.861 511.946C327.861 512.797 327.692 513.59 327.355 514.324C327.017 515.05 326.544 515.773 325.935 516.492C325.326 517.204 324.614 517.96 323.799 518.76L320.298 522.25V522.327H328.522V524ZM336.525 517.824C336.525 516.584 336.642 515.377 336.877 514.202C337.119 513.028 337.486 511.909 337.978 510.845C338.47 509.781 339.09 508.801 339.839 507.906H341.589C340.525 509.3 339.725 510.848 339.189 512.551C338.653 514.254 338.385 516.004 338.385 517.802C338.385 518.976 338.503 520.136 338.738 521.281C338.98 522.418 339.336 523.516 339.806 524.572C340.283 525.629 340.87 526.627 341.567 527.567H339.839C339.09 526.686 338.47 525.725 337.978 524.683C337.486 523.648 337.119 522.551 336.877 521.391C336.642 520.231 336.525 519.042 336.525 517.824ZM353.555 519.718C353.555 520.672 353.317 521.486 352.84 522.162C352.37 522.829 351.709 523.339 350.858 523.692C350.007 524.044 349.005 524.22 347.853 524.22C347.244 524.22 346.668 524.191 346.124 524.132C345.581 524.073 345.082 523.989 344.627 523.879C344.172 523.769 343.772 523.633 343.427 523.472V521.677C343.978 521.905 344.649 522.118 345.442 522.316C346.235 522.507 347.064 522.602 347.93 522.602C348.737 522.602 349.42 522.496 349.977 522.283C350.535 522.063 350.957 521.751 351.243 521.347C351.537 520.936 351.684 520.444 351.684 519.872C351.684 519.321 351.563 518.863 351.32 518.496C351.078 518.121 350.675 517.784 350.11 517.483C349.552 517.175 348.788 516.848 347.82 516.503C347.137 516.261 346.535 515.997 346.014 515.711C345.493 515.417 345.057 515.087 344.704 514.72C344.352 514.353 344.084 513.927 343.901 513.443C343.725 512.958 343.636 512.404 343.636 511.781C343.636 510.922 343.853 510.188 344.286 509.579C344.726 508.962 345.332 508.493 346.102 508.17C346.88 507.839 347.772 507.674 348.777 507.674C349.636 507.674 350.429 507.755 351.155 507.917C351.889 508.078 352.561 508.295 353.17 508.566L352.586 510.173C352.007 509.931 351.39 509.729 350.737 509.568C350.091 509.406 349.423 509.326 348.733 509.326C348.044 509.326 347.46 509.428 346.983 509.634C346.513 509.832 346.154 510.115 345.904 510.482C345.655 510.848 345.53 511.285 345.53 511.792C345.53 512.357 345.647 512.826 345.882 513.201C346.124 513.575 346.506 513.909 347.027 514.202C347.556 514.489 348.253 514.79 349.119 515.105C350.065 515.45 350.869 515.817 351.53 516.206C352.19 516.588 352.693 517.057 353.038 517.615C353.383 518.165 353.555 518.866 353.555 519.718ZM358.41 524H356.572V506.871H358.41V524ZM364.101 511.935V524H362.274V511.935H364.101ZM363.21 507.421C363.511 507.421 363.767 507.52 363.98 507.718C364.2 507.909 364.31 508.21 364.31 508.621C364.31 509.025 364.2 509.326 363.98 509.524C363.767 509.722 363.511 509.821 363.21 509.821C362.894 509.821 362.63 509.722 362.417 509.524C362.212 509.326 362.109 509.025 362.109 508.621C362.109 508.21 362.212 507.909 362.417 507.718C362.63 507.52 362.894 507.421 363.21 507.421ZM371.345 529.416C369.76 529.416 368.538 529.119 367.679 528.525C366.82 527.937 366.391 527.112 366.391 526.048C366.391 525.292 366.63 524.646 367.107 524.11C367.591 523.574 368.259 523.218 369.11 523.042C368.795 522.895 368.523 522.675 368.296 522.382C368.075 522.088 367.965 521.751 367.965 521.369C367.965 520.929 368.086 520.543 368.329 520.213C368.578 519.875 368.956 519.553 369.462 519.244C368.831 518.987 368.318 518.554 367.921 517.945C367.532 517.329 367.338 516.613 367.338 515.799C367.338 514.933 367.518 514.195 367.877 513.586C368.237 512.969 368.758 512.5 369.44 512.177C370.123 511.854 370.949 511.692 371.917 511.692C372.13 511.692 372.343 511.703 372.556 511.725C372.776 511.74 372.985 511.766 373.183 511.803C373.382 511.832 373.554 511.869 373.701 511.913H377.84V513.091L375.616 513.366C375.836 513.652 376.02 513.997 376.167 514.401C376.313 514.804 376.387 515.252 376.387 515.744C376.387 516.947 375.98 517.905 375.165 518.617C374.35 519.321 373.231 519.674 371.807 519.674C371.47 519.674 371.125 519.644 370.773 519.586C370.413 519.784 370.138 520.004 369.947 520.246C369.763 520.488 369.672 520.767 369.672 521.083C369.672 521.318 369.741 521.505 369.881 521.644C370.028 521.784 370.237 521.886 370.508 521.952C370.78 522.011 371.106 522.04 371.488 522.04H373.613C374.926 522.04 375.932 522.316 376.629 522.866C377.334 523.417 377.686 524.22 377.686 525.277C377.686 526.613 377.143 527.636 376.057 528.348C374.97 529.06 373.4 529.416 371.345 529.416ZM371.4 527.985C372.398 527.985 373.224 527.882 373.877 527.677C374.537 527.479 375.029 527.189 375.352 526.807C375.682 526.433 375.847 525.985 375.847 525.464C375.847 524.98 375.737 524.613 375.517 524.363C375.297 524.121 374.974 523.96 374.548 523.879C374.123 523.791 373.602 523.747 372.985 523.747H370.894C370.351 523.747 369.877 523.831 369.473 524C369.07 524.169 368.758 524.418 368.538 524.749C368.325 525.079 368.219 525.49 368.219 525.982C368.219 526.635 368.494 527.13 369.044 527.468C369.595 527.813 370.38 527.985 371.4 527.985ZM371.873 518.342C372.747 518.342 373.404 518.121 373.844 517.681C374.284 517.241 374.504 516.599 374.504 515.755C374.504 514.852 374.281 514.177 373.833 513.729C373.385 513.274 372.725 513.047 371.851 513.047C371.015 513.047 370.369 513.281 369.914 513.751C369.466 514.213 369.242 514.892 369.242 515.788C369.242 516.61 369.47 517.241 369.925 517.681C370.38 518.121 371.029 518.342 371.873 518.342ZM382.045 506.871V511.99C382.045 512.283 382.038 512.58 382.023 512.881C382.009 513.175 381.983 513.446 381.946 513.696H382.067C382.317 513.27 382.632 512.914 383.014 512.628C383.403 512.335 383.843 512.114 384.335 511.968C384.827 511.814 385.348 511.737 385.898 511.737C386.867 511.737 387.674 511.891 388.32 512.199C388.973 512.507 389.461 512.984 389.784 513.63C390.114 514.276 390.28 515.112 390.28 516.14V524H388.474V516.261C388.474 515.256 388.243 514.503 387.781 514.004C387.326 513.505 386.625 513.256 385.678 513.256C384.783 513.256 384.067 513.428 383.531 513.773C383.003 514.111 382.621 514.61 382.386 515.27C382.159 515.931 382.045 516.738 382.045 517.692V524H380.218V506.871H382.045ZM397.942 522.723C398.242 522.723 398.551 522.697 398.866 522.646C399.182 522.595 399.439 522.532 399.637 522.459V523.879C399.424 523.974 399.127 524.055 398.745 524.121C398.371 524.187 398.004 524.22 397.644 524.22C397.006 524.22 396.426 524.11 395.905 523.89C395.384 523.662 394.966 523.281 394.65 522.745C394.342 522.209 394.188 521.468 394.188 520.521V513.366H392.47V512.474L394.199 511.759L394.925 509.138H396.026V511.935H399.56V513.366H396.026V520.466C396.026 521.222 396.199 521.787 396.543 522.162C396.896 522.536 397.362 522.723 397.942 522.723ZM403.919 524H402.081V506.871H403.919V524ZM405.879 511.935H407.838L410.502 518.936C410.656 519.347 410.799 519.743 410.932 520.125C411.064 520.499 411.181 520.859 411.284 521.204C411.387 521.549 411.467 521.883 411.526 522.206H411.603C411.706 521.839 411.853 521.358 412.043 520.763C412.234 520.162 412.44 519.549 412.66 518.925L415.181 511.935H417.151L411.9 525.772C411.621 526.514 411.295 527.159 410.921 527.71C410.554 528.26 410.106 528.682 409.578 528.976C409.049 529.277 408.411 529.427 407.662 529.427C407.317 529.427 407.013 529.405 406.748 529.361C406.484 529.324 406.257 529.28 406.066 529.229V527.765C406.227 527.802 406.422 527.835 406.649 527.864C406.884 527.893 407.126 527.908 407.376 527.908C407.831 527.908 408.223 527.82 408.554 527.644C408.891 527.475 409.181 527.225 409.423 526.895C409.666 526.565 409.875 526.172 410.051 525.717L410.711 524.022L405.879 511.935ZM422.898 517.802C422.898 519.028 422.777 520.224 422.535 521.391C422.3 522.551 421.936 523.651 421.445 524.694C420.96 525.736 420.34 526.693 419.584 527.567H417.856C418.56 526.635 419.148 525.637 419.617 524.572C420.094 523.508 420.45 522.407 420.685 521.27C420.927 520.125 421.048 518.965 421.048 517.791C421.048 516.595 420.927 515.417 420.685 514.257C420.443 513.098 420.083 511.982 419.606 510.911C419.137 509.839 418.546 508.838 417.834 507.906H419.584C420.34 508.808 420.96 509.792 421.445 510.856C421.936 511.913 422.3 513.028 422.535 514.202C422.777 515.369 422.898 516.569 422.898 517.802Z" fill="black"/>
<rect x="443.864" y="504.932" width="21.1364" height="21.1364" rx="3.52273" fill="#EF9F93"/>
<path d="M483.109 511.659C483.109 512.379 482.97 513.002 482.691 513.531C482.412 514.059 482.023 514.492 481.524 514.83C481.025 515.16 480.438 515.391 479.763 515.523V515.612C481.04 515.773 481.997 516.184 482.636 516.844C483.282 517.505 483.605 518.371 483.605 519.442C483.605 520.375 483.384 521.2 482.944 521.919C482.511 522.639 481.843 523.204 480.941 523.615C480.045 524.018 478.897 524.22 477.495 524.22C476.644 524.22 475.855 524.15 475.128 524.011C474.409 523.879 473.719 523.655 473.058 523.339V521.622C473.726 521.952 474.453 522.213 475.238 522.404C476.023 522.587 476.783 522.679 477.517 522.679C478.985 522.679 480.045 522.389 480.698 521.809C481.352 521.222 481.678 520.422 481.678 519.409C481.678 518.712 481.495 518.151 481.128 517.725C480.768 517.292 480.247 516.977 479.564 516.778C478.889 516.573 478.075 516.47 477.121 516.47H475.513V514.907H477.132C478.005 514.907 478.746 514.779 479.355 514.522C479.964 514.265 480.427 513.905 480.742 513.443C481.065 512.973 481.227 512.419 481.227 511.781C481.227 510.966 480.955 510.338 480.412 509.898C479.869 509.45 479.131 509.227 478.199 509.227C477.627 509.227 477.106 509.285 476.636 509.403C476.167 509.52 475.726 509.682 475.315 509.887C474.904 510.093 474.493 510.331 474.082 510.603L473.158 509.348C473.745 508.893 474.46 508.5 475.304 508.17C476.148 507.839 477.106 507.674 478.177 507.674C479.821 507.674 481.054 508.049 481.876 508.797C482.698 509.546 483.109 510.5 483.109 511.659ZM491.707 517.824C491.707 516.584 491.824 515.377 492.059 514.202C492.301 513.028 492.668 511.909 493.16 510.845C493.652 509.781 494.272 508.801 495.02 507.906H496.771C495.707 509.3 494.907 510.848 494.371 512.551C493.835 514.254 493.567 516.004 493.567 517.802C493.567 518.976 493.685 520.136 493.92 521.281C494.162 522.418 494.518 523.516 494.987 524.572C495.464 525.629 496.052 526.627 496.749 527.567H495.02C494.272 526.686 493.652 525.725 493.16 524.683C492.668 523.648 492.301 522.551 492.059 521.391C491.824 520.231 491.707 519.042 491.707 517.824ZM506.734 524L501.328 509.755H501.24C501.27 510.056 501.295 510.423 501.317 510.856C501.339 511.289 501.358 511.762 501.372 512.276C501.387 512.782 501.394 513.3 501.394 513.828V524H499.655V507.906H502.429L507.526 521.292H507.603L512.777 507.906H515.529V524H513.68V513.696C513.68 513.219 513.687 512.742 513.702 512.265C513.717 511.781 513.735 511.326 513.757 510.9C513.779 510.467 513.801 510.093 513.823 509.777H513.735L508.264 524H506.734ZM530.061 517.945C530.061 518.936 529.932 519.82 529.675 520.598C529.418 521.376 529.048 522.033 528.563 522.569C528.079 523.105 527.492 523.516 526.802 523.802C526.12 524.081 525.345 524.22 524.479 524.22C523.672 524.22 522.931 524.081 522.256 523.802C521.588 523.516 521.008 523.105 520.516 522.569C520.032 522.033 519.654 521.376 519.382 520.598C519.118 519.82 518.986 518.936 518.986 517.945C518.986 516.624 519.21 515.501 519.658 514.577C520.105 513.645 520.744 512.936 521.573 512.452C522.41 511.96 523.404 511.714 524.556 511.714C525.657 511.714 526.619 511.96 527.441 512.452C528.27 512.944 528.912 513.656 529.367 514.588C529.829 515.512 530.061 516.632 530.061 517.945ZM520.879 517.945C520.879 518.914 521.008 519.754 521.265 520.466C521.522 521.178 521.918 521.729 522.454 522.118C522.989 522.507 523.679 522.701 524.523 522.701C525.36 522.701 526.046 522.507 526.582 522.118C527.125 521.729 527.525 521.178 527.782 520.466C528.039 519.754 528.167 518.914 528.167 517.945C528.167 516.984 528.039 516.155 527.782 515.457C527.525 514.753 527.129 514.21 526.593 513.828C526.057 513.446 525.364 513.256 524.512 513.256C523.257 513.256 522.336 513.67 521.749 514.5C521.169 515.329 520.879 516.478 520.879 517.945ZM537.513 524.22C535.987 524.22 534.776 523.699 533.881 522.657C532.993 521.615 532.548 520.066 532.548 518.011C532.548 515.934 533.004 514.368 533.914 513.311C534.824 512.247 536.035 511.714 537.546 511.714C538.185 511.714 538.743 511.799 539.22 511.968C539.697 512.136 540.108 512.364 540.453 512.65C540.798 512.929 541.087 513.248 541.322 513.608H541.454C541.425 513.38 541.396 513.069 541.366 512.672C541.337 512.276 541.322 511.953 541.322 511.703V506.871H543.15V524H541.675L541.399 522.283H541.322C541.095 522.642 540.805 522.969 540.453 523.262C540.108 523.556 539.693 523.791 539.209 523.967C538.732 524.136 538.167 524.22 537.513 524.22ZM537.8 522.701C539.091 522.701 540.005 522.334 540.541 521.6C541.076 520.866 541.344 519.776 541.344 518.331V518C541.344 516.467 541.087 515.289 540.574 514.467C540.067 513.645 539.143 513.234 537.8 513.234C536.677 513.234 535.836 513.667 535.279 514.533C534.721 515.391 534.442 516.566 534.442 518.055C534.442 519.538 534.717 520.683 535.268 521.49C535.825 522.297 536.669 522.701 537.8 522.701ZM551.67 511.714C552.698 511.714 553.578 511.942 554.312 512.397C555.046 512.852 555.608 513.491 555.997 514.313C556.386 515.127 556.58 516.081 556.58 517.175V518.309H548.247C548.269 519.725 548.621 520.804 549.303 521.545C549.986 522.286 550.947 522.657 552.188 522.657C552.951 522.657 553.626 522.587 554.213 522.448C554.8 522.308 555.41 522.103 556.041 521.831V523.439C555.432 523.71 554.826 523.908 554.224 524.033C553.63 524.158 552.925 524.22 552.111 524.22C550.951 524.22 549.938 523.985 549.072 523.516C548.214 523.039 547.546 522.341 547.069 521.424C546.592 520.507 546.353 519.384 546.353 518.055C546.353 516.756 546.57 515.634 547.003 514.687C547.443 513.733 548.06 512.999 548.852 512.485C549.652 511.971 550.591 511.714 551.67 511.714ZM551.648 513.212C550.672 513.212 549.894 513.531 549.314 514.169C548.735 514.808 548.39 515.7 548.28 516.844H554.665C554.657 516.125 554.544 515.494 554.323 514.951C554.111 514.401 553.784 513.975 553.344 513.674C552.903 513.366 552.338 513.212 551.648 513.212ZM565.167 511.714C565.409 511.714 565.662 511.729 565.926 511.759C566.191 511.781 566.425 511.814 566.631 511.858L566.4 513.553C566.202 513.502 565.981 513.461 565.739 513.432C565.497 513.402 565.269 513.388 565.057 513.388C564.572 513.388 564.114 513.487 563.681 513.685C563.255 513.876 562.881 514.155 562.558 514.522C562.235 514.881 561.982 515.318 561.798 515.832C561.615 516.338 561.523 516.903 561.523 517.527V524H559.685V511.935H561.204L561.402 514.158H561.479C561.728 513.711 562.029 513.303 562.382 512.936C562.734 512.562 563.141 512.265 563.604 512.045C564.073 511.825 564.594 511.714 565.167 511.714ZM573.423 511.737C574.862 511.737 575.929 512.059 576.627 512.705C577.324 513.351 577.672 514.382 577.672 515.799V524H576.34L575.988 522.217H575.9C575.562 522.657 575.21 523.028 574.843 523.328C574.476 523.622 574.051 523.846 573.566 524C573.089 524.147 572.502 524.22 571.805 524.22C571.071 524.22 570.418 524.092 569.845 523.835C569.28 523.578 568.833 523.189 568.502 522.668C568.179 522.147 568.018 521.486 568.018 520.686C568.018 519.483 568.495 518.558 569.449 517.912C570.403 517.266 571.856 516.914 573.808 516.855L575.889 516.767V516.03C575.889 514.988 575.665 514.257 575.218 513.839C574.77 513.421 574.139 513.212 573.324 513.212C572.693 513.212 572.091 513.303 571.519 513.487C570.946 513.67 570.403 513.887 569.889 514.136L569.328 512.749C569.871 512.47 570.495 512.232 571.199 512.034C571.904 511.836 572.645 511.737 573.423 511.737ZM575.867 518.055L574.029 518.132C572.524 518.191 571.464 518.437 570.847 518.87C570.231 519.303 569.922 519.916 569.922 520.708C569.922 521.398 570.132 521.908 570.55 522.239C570.968 522.569 571.522 522.734 572.212 522.734C573.284 522.734 574.161 522.437 574.843 521.842C575.526 521.248 575.867 520.356 575.867 519.167V518.055ZM585.334 522.723C585.635 522.723 585.943 522.697 586.259 522.646C586.575 522.595 586.832 522.532 587.03 522.459V523.879C586.817 523.974 586.52 524.055 586.138 524.121C585.764 524.187 585.397 524.22 585.037 524.22C584.399 524.22 583.819 524.11 583.298 523.89C582.777 523.662 582.358 523.281 582.043 522.745C581.735 522.209 581.58 521.468 581.58 520.521V513.366H579.863V512.474L581.591 511.759L582.318 509.138H583.419V511.935H586.953V513.366H583.419V520.466C583.419 521.222 583.591 521.787 583.936 522.162C584.289 522.536 584.755 522.723 585.334 522.723ZM594.119 511.714C595.147 511.714 596.027 511.942 596.761 512.397C597.495 512.852 598.057 513.491 598.446 514.313C598.834 515.127 599.029 516.081 599.029 517.175V518.309H590.696C590.718 519.725 591.07 520.804 591.752 521.545C592.435 522.286 593.396 522.657 594.637 522.657C595.4 522.657 596.075 522.587 596.662 522.448C597.249 522.308 597.858 522.103 598.49 521.831V523.439C597.88 523.71 597.275 523.908 596.673 524.033C596.079 524.158 595.374 524.22 594.56 524.22C593.4 524.22 592.387 523.985 591.521 523.516C590.662 523.039 589.995 522.341 589.518 521.424C589.041 520.507 588.802 519.384 588.802 518.055C588.802 516.756 589.019 515.634 589.452 514.687C589.892 513.733 590.508 512.999 591.301 512.485C592.101 511.971 593.04 511.714 594.119 511.714ZM594.097 513.212C593.121 513.212 592.343 513.531 591.763 514.169C591.184 514.808 590.839 515.7 590.729 516.844H597.113C597.106 516.125 596.992 515.494 596.772 514.951C596.559 514.401 596.233 513.975 595.792 513.674C595.352 513.366 594.787 513.212 594.097 513.212ZM603.972 524H602.133V506.871H603.972V524ZM605.931 511.935H607.891L610.555 518.936C610.709 519.347 610.852 519.743 610.984 520.125C611.116 520.499 611.234 520.859 611.336 521.204C611.439 521.549 611.52 521.883 611.579 522.206H611.656C611.758 521.839 611.905 521.358 612.096 520.763C612.287 520.162 612.492 519.549 612.713 518.925L615.234 511.935H617.204L611.953 525.772C611.674 526.514 611.347 527.159 610.973 527.71C610.606 528.26 610.159 528.682 609.63 528.976C609.102 529.277 608.463 529.427 607.715 529.427C607.37 529.427 607.065 529.405 606.801 529.361C606.537 529.324 606.309 529.28 606.118 529.229V527.765C606.28 527.802 606.474 527.835 606.702 527.864C606.937 527.893 607.179 527.908 607.428 527.908C607.883 527.908 608.276 527.82 608.606 527.644C608.944 527.475 609.234 527.225 609.476 526.895C609.718 526.565 609.927 526.172 610.104 525.717L610.764 524.022L605.931 511.935ZM622.95 517.802C622.95 519.028 622.829 520.224 622.587 521.391C622.352 522.551 621.989 523.651 621.497 524.694C621.013 525.736 620.393 526.693 619.637 527.567H617.909C618.613 526.635 619.2 525.637 619.67 524.572C620.147 523.508 620.503 522.407 620.738 521.27C620.98 520.125 621.101 518.965 621.101 517.791C621.101 516.595 620.98 515.417 620.738 514.257C620.496 513.098 620.136 511.982 619.659 510.911C619.189 509.839 618.598 508.838 617.887 507.906H619.637C620.393 508.808 621.013 509.792 621.497 510.856C621.989 511.913 622.352 513.028 622.587 514.202C622.829 515.369 622.95 516.569 622.95 517.802Z" fill="black"/>
<rect x="221.091" y="555.932" width="21.1364" height="21.1364" rx="3.52273" fill="#E8706D"/>
<path d="M261.734 571.268H259.323V575H257.54V571.268H249.757V569.727L257.419 558.817H259.323V569.617H261.734V571.268ZM257.54 569.617V564.355C257.54 563.951 257.544 563.588 257.551 563.265C257.558 562.935 257.569 562.63 257.584 562.351C257.599 562.065 257.61 561.793 257.617 561.537C257.632 561.28 257.643 561.027 257.65 560.777H257.562C257.423 561.071 257.261 561.382 257.078 561.713C256.902 562.036 256.722 562.326 256.538 562.582L251.573 569.617H257.54ZM268.934 568.824C268.934 567.584 269.051 566.377 269.286 565.202C269.528 564.028 269.895 562.909 270.387 561.845C270.879 560.781 271.499 559.801 272.247 558.906H273.998C272.934 560.3 272.134 561.848 271.598 563.551C271.062 565.254 270.794 567.004 270.794 568.802C270.794 569.976 270.912 571.136 271.147 572.281C271.389 573.418 271.745 574.516 272.214 575.572C272.692 576.629 273.279 577.627 273.976 578.567H272.247C271.499 577.686 270.879 576.725 270.387 575.683C269.895 574.648 269.528 573.551 269.286 572.391C269.051 571.231 268.934 570.042 268.934 568.824ZM288.122 558.906L282.342 575H280.46L274.68 558.906H276.64L280.405 569.507C280.559 569.932 280.695 570.34 280.812 570.729C280.937 571.118 281.047 571.492 281.142 571.852C281.238 572.211 281.322 572.56 281.396 572.897C281.469 572.56 281.553 572.211 281.649 571.852C281.744 571.485 281.854 571.107 281.979 570.718C282.104 570.321 282.243 569.907 282.397 569.474L286.14 558.906H288.122ZM294.705 562.714C295.732 562.714 296.613 562.942 297.347 563.397C298.081 563.852 298.642 564.491 299.031 565.313C299.42 566.127 299.615 567.081 299.615 568.175V569.309H291.281C291.303 570.725 291.656 571.804 292.338 572.545C293.021 573.286 293.982 573.657 295.222 573.657C295.986 573.657 296.661 573.587 297.248 573.448C297.835 573.308 298.444 573.103 299.075 572.831V574.439C298.466 574.71 297.861 574.908 297.259 575.033C296.664 575.158 295.96 575.22 295.145 575.22C293.986 575.22 292.973 574.985 292.107 574.516C291.248 574.039 290.58 573.341 290.103 572.424C289.626 571.507 289.388 570.384 289.388 569.055C289.388 567.756 289.604 566.634 290.037 565.687C290.478 564.733 291.094 563.999 291.887 563.485C292.687 562.971 293.626 562.714 294.705 562.714ZM294.683 564.212C293.707 564.212 292.929 564.531 292.349 565.169C291.769 565.808 291.424 566.7 291.314 567.844H297.699C297.692 567.125 297.578 566.494 297.358 565.951C297.145 565.401 296.819 564.975 296.378 564.674C295.938 564.366 295.373 564.212 294.683 564.212ZM308.201 562.714C308.444 562.714 308.697 562.729 308.961 562.759C309.225 562.781 309.46 562.814 309.665 562.858L309.434 564.553C309.236 564.502 309.016 564.461 308.774 564.432C308.532 564.402 308.304 564.388 308.091 564.388C307.607 564.388 307.148 564.487 306.715 564.685C306.29 564.876 305.915 565.155 305.592 565.522C305.269 565.881 305.016 566.318 304.833 566.832C304.649 567.338 304.558 567.903 304.558 568.527V575H302.719V562.935H304.238L304.436 565.158H304.513C304.763 564.711 305.064 564.303 305.416 563.936C305.768 563.562 306.176 563.265 306.638 563.045C307.108 562.825 307.629 562.714 308.201 562.714ZM310.04 562.935H311.999L314.663 569.936C314.817 570.347 314.961 570.743 315.093 571.125C315.225 571.499 315.342 571.859 315.445 572.204C315.548 572.549 315.628 572.883 315.687 573.206H315.764C315.867 572.839 316.014 572.358 316.205 571.763C316.395 571.162 316.601 570.549 316.821 569.925L319.342 562.935H321.312L316.061 576.772C315.783 577.514 315.456 578.159 315.082 578.71C314.715 579.26 314.267 579.682 313.739 579.976C313.21 580.277 312.572 580.427 311.823 580.427C311.478 580.427 311.174 580.405 310.909 580.361C310.645 580.324 310.418 580.28 310.227 580.229V578.765C310.388 578.802 310.583 578.835 310.81 578.864C311.045 578.893 311.287 578.908 311.537 578.908C311.992 578.908 312.385 578.82 312.715 578.644C313.052 578.475 313.342 578.225 313.584 577.895C313.827 577.565 314.036 577.172 314.212 576.717L314.872 575.022L310.04 562.935ZM327.059 568.802C327.059 570.028 326.938 571.224 326.696 572.391C326.461 573.551 326.098 574.651 325.606 575.694C325.121 576.736 324.501 577.693 323.745 578.567H322.017C322.722 577.635 323.309 576.637 323.778 575.572C324.255 574.508 324.611 573.407 324.846 572.27C325.088 571.125 325.209 569.965 325.209 568.791C325.209 567.595 325.088 566.417 324.846 565.257C324.604 564.098 324.244 562.982 323.767 561.911C323.298 560.839 322.707 559.838 321.995 558.906H323.745C324.501 559.808 325.121 560.792 325.606 561.856C326.098 562.913 326.461 564.028 326.696 565.202C326.938 566.369 327.059 567.569 327.059 568.802Z" fill="black"/>
<rect x="348.273" y="555.932" width="21.1364" height="21.1364" rx="3.52273" fill="#E5434B"/>
<path d="M382.652 565.158C383.746 565.158 384.696 565.346 385.504 565.72C386.311 566.087 386.935 566.623 387.375 567.327C387.823 568.032 388.047 568.887 388.047 569.892C388.047 570.993 387.808 571.943 387.331 572.743C386.854 573.536 386.168 574.149 385.272 574.582C384.377 575.007 383.306 575.22 382.058 575.22C381.221 575.22 380.443 575.147 379.724 575C379.005 574.853 378.399 574.633 377.908 574.339V572.6C378.443 572.923 379.093 573.18 379.856 573.371C380.619 573.562 381.361 573.657 382.08 573.657C382.895 573.657 383.606 573.529 384.216 573.272C384.832 573.007 385.309 572.611 385.647 572.083C385.992 571.547 386.164 570.875 386.164 570.068C386.164 568.997 385.834 568.171 385.173 567.591C384.52 567.004 383.485 566.711 382.069 566.711C381.614 566.711 381.115 566.747 380.572 566.821C380.029 566.894 379.581 566.975 379.229 567.063L378.304 566.457L378.92 558.906H386.924V560.579H380.484L380.076 565.434C380.355 565.375 380.715 565.316 381.155 565.257C381.596 565.191 382.095 565.158 382.652 565.158ZM396.116 568.824C396.116 567.584 396.233 566.377 396.468 565.202C396.71 564.028 397.077 562.909 397.569 561.845C398.061 560.781 398.681 559.801 399.429 558.906H401.18C400.116 560.3 399.316 561.848 398.78 563.551C398.244 565.254 397.976 567.004 397.976 568.802C397.976 569.976 398.094 571.136 398.329 572.281C398.571 573.418 398.927 574.516 399.396 575.572C399.873 576.629 400.461 577.627 401.158 578.567H399.429C398.681 577.686 398.061 576.725 397.569 575.683C397.077 574.648 396.71 573.551 396.468 572.391C396.233 571.231 396.116 570.042 396.116 568.824ZM415.304 558.906L409.524 575H407.642L401.862 558.906H403.822L407.587 569.507C407.741 569.932 407.877 570.34 407.994 570.729C408.119 571.118 408.229 571.492 408.324 571.852C408.42 572.211 408.504 572.56 408.577 572.897C408.651 572.56 408.735 572.211 408.831 571.852C408.926 571.485 409.036 571.107 409.161 570.718C409.286 570.321 409.425 569.907 409.579 569.474L413.322 558.906H415.304ZM421.887 562.714C422.914 562.714 423.795 562.942 424.529 563.397C425.263 563.852 425.824 564.491 426.213 565.313C426.602 566.127 426.797 567.081 426.797 568.175V569.309H418.463C418.485 570.725 418.837 571.804 419.52 572.545C420.202 573.286 421.164 573.657 422.404 573.657C423.167 573.657 423.843 573.587 424.43 573.448C425.017 573.308 425.626 573.103 426.257 572.831V574.439C425.648 574.71 425.043 574.908 424.441 575.033C423.846 575.158 423.142 575.22 422.327 575.22C421.168 575.22 420.155 574.985 419.289 574.516C418.43 574.039 417.762 573.341 417.285 572.424C416.808 571.507 416.57 570.384 416.57 569.055C416.57 567.756 416.786 566.634 417.219 565.687C417.659 564.733 418.276 563.999 419.069 563.485C419.869 562.971 420.808 562.714 421.887 562.714ZM421.865 564.212C420.889 564.212 420.111 564.531 419.531 565.169C418.951 565.808 418.606 566.7 418.496 567.844H424.881C424.874 567.125 424.76 566.494 424.54 565.951C424.327 565.401 424 564.975 423.56 564.674C423.12 564.366 422.555 564.212 421.865 564.212ZM435.383 562.714C435.625 562.714 435.879 562.729 436.143 562.759C436.407 562.781 436.642 562.814 436.847 562.858L436.616 564.553C436.418 564.502 436.198 564.461 435.956 564.432C435.713 564.402 435.486 564.388 435.273 564.388C434.789 564.388 434.33 564.487 433.897 564.685C433.471 564.876 433.097 565.155 432.774 565.522C432.451 565.881 432.198 566.318 432.015 566.832C431.831 567.338 431.739 567.903 431.739 568.527V575H429.901V562.935H431.42L431.618 565.158H431.695C431.945 564.711 432.246 564.303 432.598 563.936C432.95 563.562 433.358 563.265 433.82 563.045C434.29 562.825 434.811 562.714 435.383 562.714ZM437.222 562.935H439.181L441.845 569.936C441.999 570.347 442.142 570.743 442.275 571.125C442.407 571.499 442.524 571.859 442.627 572.204C442.73 572.549 442.81 572.883 442.869 573.206H442.946C443.049 572.839 443.196 572.358 443.386 571.763C443.577 571.162 443.783 570.549 444.003 569.925L446.524 562.935H448.494L443.243 576.772C442.964 577.514 442.638 578.159 442.264 578.71C441.897 579.26 441.449 579.682 440.92 579.976C440.392 580.277 439.754 580.427 439.005 580.427C438.66 580.427 438.356 580.405 438.091 580.361C437.827 580.324 437.6 580.28 437.409 580.229V578.765C437.57 578.802 437.765 578.835 437.992 578.864C438.227 578.893 438.469 578.908 438.719 578.908C439.174 578.908 439.566 578.82 439.897 578.644C440.234 578.475 440.524 578.225 440.766 577.895C441.009 577.565 441.218 577.172 441.394 576.717L442.054 575.022L437.222 562.935ZM458.116 575H456.277V557.871H458.116V575ZM463.807 562.935V575H461.98V562.935H463.807ZM462.916 558.421C463.216 558.421 463.473 558.52 463.686 558.718C463.906 558.909 464.016 559.21 464.016 559.621C464.016 560.025 463.906 560.326 463.686 560.524C463.473 560.722 463.216 560.821 462.916 560.821C462.6 560.821 462.336 560.722 462.123 560.524C461.917 560.326 461.815 560.025 461.815 559.621C461.815 559.21 461.917 558.909 462.123 558.718C462.336 558.52 462.6 558.421 462.916 558.421ZM469.499 557.871V566.766C469.499 567.059 469.488 567.419 469.466 567.844C469.444 568.263 469.425 568.633 469.411 568.956H469.488C469.642 568.766 469.866 568.483 470.159 568.109C470.46 567.734 470.713 567.433 470.919 567.206L474.926 562.935H477.072L472.218 568.087L477.425 575H475.223L470.963 569.287L469.499 570.63V575H467.682V557.871H469.499ZM484.173 562.714C485.2 562.714 486.081 562.942 486.815 563.397C487.549 563.852 488.11 564.491 488.499 565.313C488.888 566.127 489.083 567.081 489.083 568.175V569.309H480.749C480.771 570.725 481.124 571.804 481.806 572.545C482.489 573.286 483.45 573.657 484.69 573.657C485.454 573.657 486.129 573.587 486.716 573.448C487.303 573.308 487.912 573.103 488.543 572.831V574.439C487.934 574.71 487.329 574.908 486.727 575.033C486.132 575.158 485.428 575.22 484.613 575.22C483.454 575.22 482.441 574.985 481.575 574.516C480.716 574.039 480.048 573.341 479.571 572.424C479.094 571.507 478.856 570.384 478.856 569.055C478.856 567.756 479.072 566.634 479.505 565.687C479.946 564.733 480.562 563.999 481.355 563.485C482.155 562.971 483.094 562.714 484.173 562.714ZM484.151 564.212C483.175 564.212 482.397 564.531 481.817 565.169C481.237 565.808 480.892 566.7 480.782 567.844H487.167C487.16 567.125 487.046 566.494 486.826 565.951C486.613 565.401 486.287 564.975 485.846 564.674C485.406 564.366 484.841 564.212 484.151 564.212ZM494.026 575H492.187V557.871H494.026V575ZM495.985 562.935H497.945L500.609 569.936C500.763 570.347 500.906 570.743 501.038 571.125C501.17 571.499 501.288 571.859 501.39 572.204C501.493 572.549 501.574 572.883 501.633 573.206H501.71C501.812 572.839 501.959 572.358 502.15 571.763C502.341 571.162 502.546 570.549 502.766 569.925L505.287 562.935H507.258L502.007 576.772C501.728 577.514 501.401 578.159 501.027 578.71C500.66 579.26 500.212 579.682 499.684 579.976C499.156 580.277 498.517 580.427 497.769 580.427C497.424 580.427 497.119 580.405 496.855 580.361C496.591 580.324 496.363 580.28 496.172 580.229V578.765C496.334 578.802 496.528 578.835 496.756 578.864C496.991 578.893 497.233 578.908 497.482 578.908C497.937 578.908 498.33 578.82 498.66 578.644C498.998 578.475 499.288 578.225 499.53 577.895C499.772 577.565 499.981 577.172 500.157 576.717L500.818 575.022L495.985 562.935ZM513.004 568.802C513.004 570.028 512.883 571.224 512.641 572.391C512.406 573.551 512.043 574.651 511.551 575.694C511.067 576.736 510.447 577.693 509.691 578.567H507.962C508.667 577.635 509.254 576.637 509.724 575.572C510.201 574.508 510.557 573.407 510.792 572.27C511.034 571.125 511.155 569.965 511.155 568.791C511.155 567.595 511.034 566.417 510.792 565.257C510.549 564.098 510.19 562.982 509.713 561.911C509.243 560.839 508.652 559.838 507.94 558.906H509.691C510.447 559.808 511.067 560.792 511.551 561.856C512.043 562.913 512.406 564.028 512.641 565.202C512.883 566.369 513.004 567.569 513.004 568.802Z" fill="black"/>
</g>
<defs>
<clipPath id="clip0_7245_29544">
<rect width="735.545" height="582" fill="white"/>
</clipPath>
</defs>
</svg>
