<svg width="736" height="582" viewBox="0 0 736 582" fill="none" xmlns="http://www.w3.org/2000/svg">
<g clip-path="url(#clip0_7245_29947)">
<path d="M367.803 224.97L367.803 0C492.051 0 592.773 100.722 592.773 224.97C592.773 248.577 589.057 272.037 581.762 294.489L367.803 224.97Z" fill="#FDE3DF" stroke="white"/>
<path d="M367.803 224.97L581.762 294.489C543.367 412.655 416.45 477.323 298.284 438.928C180.117 400.534 115.45 273.616 153.844 155.45C168.525 110.266 197.134 70.8903 235.569 42.9653L367.803 224.97Z" fill="#F4C3C1" stroke="white"/>
<path d="M367.803 224.97L235.569 42.9654C274.005 15.0403 320.294 0 367.803 0V224.97Z" fill="#E8706D" stroke="white"/>
<path d="M290.507 77.5H287.976V61.3125C287.976 60.6979 287.976 60.1719 287.976 59.7344C287.986 59.2865 287.997 58.8802 288.007 58.5156C288.028 58.1406 288.054 57.7604 288.085 57.375C287.762 57.7083 287.46 57.9948 287.179 58.2344C286.898 58.4635 286.549 58.75 286.132 59.0938L283.523 61.1875L282.163 59.4219L288.351 54.6562H290.507V77.5ZM314.257 66.0469C314.257 67.901 314.116 69.5573 313.835 71.0156C313.554 72.474 313.111 73.7083 312.507 74.7188C311.903 75.7292 311.122 76.5 310.163 77.0312C309.205 77.5521 308.054 77.8125 306.71 77.8125C305.012 77.8125 303.606 77.349 302.491 76.4219C301.387 75.4948 300.559 74.1562 300.007 72.4062C299.465 70.6458 299.195 68.526 299.195 66.0469C299.195 63.6094 299.439 61.5156 299.929 59.7656C300.429 58.0052 301.231 56.6562 302.335 55.7188C303.439 54.7708 304.898 54.2969 306.71 54.2969C308.429 54.2969 309.846 54.7656 310.96 55.7031C312.075 56.6302 312.903 57.974 313.445 59.7344C313.986 61.4844 314.257 63.5885 314.257 66.0469ZM301.804 66.0469C301.804 68.1719 301.965 69.9427 302.288 71.3594C302.611 72.776 303.132 73.8385 303.851 74.5469C304.58 75.2448 305.533 75.5938 306.71 75.5938C307.887 75.5938 308.835 75.2448 309.554 74.5469C310.283 73.849 310.809 72.7917 311.132 71.375C311.465 69.9583 311.632 68.1823 311.632 66.0469C311.632 63.9531 311.471 62.2031 311.148 60.7969C310.825 59.3802 310.304 58.3177 309.585 57.6094C308.866 56.8906 307.908 56.5312 306.71 56.5312C305.512 56.5312 304.554 56.8906 303.835 57.6094C303.116 58.3177 302.596 59.3802 302.273 60.7969C301.96 62.2031 301.804 63.9531 301.804 66.0469ZM322.132 54.3281C323.695 54.3281 324.877 54.9531 325.679 56.2031C326.491 57.4427 326.898 59.1979 326.898 61.4688C326.898 63.7396 326.507 65.5104 325.726 66.7812C324.945 68.0417 323.747 68.6719 322.132 68.6719C320.632 68.6719 319.481 68.0417 318.679 66.7812C317.887 65.5104 317.491 63.7396 317.491 61.4688C317.491 59.1979 317.872 57.4427 318.632 56.2031C319.392 54.9531 320.559 54.3281 322.132 54.3281ZM322.132 56.1875C321.288 56.1875 320.669 56.6302 320.273 57.5156C319.877 58.3906 319.679 59.7083 319.679 61.4688C319.679 63.2292 319.877 64.5573 320.273 65.4531C320.669 66.349 321.288 66.7969 322.132 66.7969C323.007 66.7969 323.658 66.349 324.085 65.4531C324.512 64.5573 324.726 63.2292 324.726 61.4688C324.726 59.7188 324.512 58.401 324.085 57.5156C323.669 56.6302 323.017 56.1875 322.132 56.1875ZM336.601 54.6562L323.929 77.5H321.648L334.32 54.6562H336.601ZM335.991 63.4844C337.544 63.4844 338.726 64.1094 339.538 65.3594C340.351 66.599 340.757 68.3542 340.757 70.625C340.757 72.8854 340.366 74.651 339.585 75.9219C338.804 77.1823 337.606 77.8125 335.991 77.8125C334.481 77.8125 333.33 77.1823 332.538 75.9219C331.747 74.651 331.351 72.8854 331.351 70.625C331.351 68.3542 331.726 66.599 332.476 65.3594C333.236 64.1094 334.408 63.4844 335.991 63.4844ZM335.991 65.3594C335.148 65.3594 334.528 65.7969 334.132 66.6719C333.736 67.5469 333.538 68.8646 333.538 70.625C333.538 72.3854 333.736 73.7135 334.132 74.6094C334.528 75.4948 335.148 75.9375 335.991 75.9375C336.866 75.9375 337.517 75.5 337.945 74.625C338.372 73.7396 338.585 72.4062 338.585 70.625C338.585 68.875 338.372 67.5625 337.945 66.6875C337.528 65.8021 336.877 65.3594 335.991 65.3594Z" fill="white"/>
<path d="M459.976 148.484C459.976 149.505 459.778 150.391 459.382 151.141C458.986 151.891 458.434 152.505 457.726 152.984C457.017 153.453 456.184 153.781 455.226 153.969V154.094C457.038 154.323 458.398 154.906 459.304 155.844C460.221 156.781 460.679 158.01 460.679 159.531C460.679 160.854 460.366 162.026 459.741 163.047C459.127 164.068 458.179 164.87 456.898 165.453C455.627 166.026 453.997 166.312 452.007 166.312C450.799 166.312 449.679 166.214 448.648 166.016C447.627 165.828 446.648 165.51 445.71 165.062V162.625C446.658 163.094 447.689 163.464 448.804 163.734C449.919 163.995 450.997 164.125 452.038 164.125C454.122 164.125 455.627 163.714 456.554 162.891C457.481 162.057 457.945 160.922 457.945 159.484C457.945 158.495 457.684 157.698 457.163 157.094C456.653 156.479 455.913 156.031 454.945 155.75C453.986 155.458 452.83 155.312 451.476 155.312H449.195V153.094H451.491C452.731 153.094 453.783 152.911 454.648 152.547C455.512 152.182 456.169 151.672 456.616 151.016C457.075 150.349 457.304 149.562 457.304 148.656C457.304 147.5 456.919 146.609 456.148 145.984C455.377 145.349 454.33 145.031 453.007 145.031C452.195 145.031 451.455 145.115 450.788 145.281C450.122 145.448 449.497 145.677 448.913 145.969C448.33 146.26 447.747 146.599 447.163 146.984L445.851 145.203C446.684 144.557 447.7 144 448.898 143.531C450.096 143.062 451.455 142.828 452.976 142.828C455.309 142.828 457.059 143.359 458.226 144.422C459.392 145.484 459.976 146.839 459.976 148.484ZM479.257 154.547C479.257 156.401 479.116 158.057 478.835 159.516C478.554 160.974 478.111 162.208 477.507 163.219C476.903 164.229 476.122 165 475.163 165.531C474.205 166.052 473.054 166.312 471.71 166.312C470.012 166.312 468.606 165.849 467.491 164.922C466.387 163.995 465.559 162.656 465.007 160.906C464.465 159.146 464.195 157.026 464.195 154.547C464.195 152.109 464.439 150.016 464.929 148.266C465.429 146.505 466.231 145.156 467.335 144.219C468.439 143.271 469.898 142.797 471.71 142.797C473.429 142.797 474.846 143.266 475.96 144.203C477.075 145.13 477.903 146.474 478.445 148.234C478.986 149.984 479.257 152.089 479.257 154.547ZM466.804 154.547C466.804 156.672 466.965 158.443 467.288 159.859C467.611 161.276 468.132 162.339 468.851 163.047C469.58 163.745 470.533 164.094 471.71 164.094C472.887 164.094 473.835 163.745 474.554 163.047C475.283 162.349 475.809 161.292 476.132 159.875C476.465 158.458 476.632 156.682 476.632 154.547C476.632 152.453 476.471 150.703 476.148 149.297C475.825 147.88 475.304 146.818 474.585 146.109C473.866 145.391 472.908 145.031 471.71 145.031C470.512 145.031 469.554 145.391 468.835 146.109C468.116 146.818 467.596 147.88 467.273 149.297C466.96 150.703 466.804 152.453 466.804 154.547ZM487.132 142.828C488.695 142.828 489.877 143.453 490.679 144.703C491.491 145.943 491.898 147.698 491.898 149.969C491.898 152.24 491.507 154.01 490.726 155.281C489.945 156.542 488.747 157.172 487.132 157.172C485.632 157.172 484.481 156.542 483.679 155.281C482.887 154.01 482.491 152.24 482.491 149.969C482.491 147.698 482.872 145.943 483.632 144.703C484.392 143.453 485.559 142.828 487.132 142.828ZM487.132 144.688C486.288 144.688 485.669 145.13 485.273 146.016C484.877 146.891 484.679 148.208 484.679 149.969C484.679 151.729 484.877 153.057 485.273 153.953C485.669 154.849 486.288 155.297 487.132 155.297C488.007 155.297 488.658 154.849 489.085 153.953C489.512 153.057 489.726 151.729 489.726 149.969C489.726 148.219 489.512 146.901 489.085 146.016C488.669 145.13 488.017 144.688 487.132 144.688ZM501.601 143.156L488.929 166H486.648L499.32 143.156H501.601ZM500.991 151.984C502.544 151.984 503.726 152.609 504.538 153.859C505.351 155.099 505.757 156.854 505.757 159.125C505.757 161.385 505.366 163.151 504.585 164.422C503.804 165.682 502.606 166.312 500.991 166.312C499.481 166.312 498.33 165.682 497.538 164.422C496.747 163.151 496.351 161.385 496.351 159.125C496.351 156.854 496.726 155.099 497.476 153.859C498.236 152.609 499.408 151.984 500.991 151.984ZM500.991 153.859C500.148 153.859 499.528 154.297 499.132 155.172C498.736 156.047 498.538 157.365 498.538 159.125C498.538 160.885 498.736 162.214 499.132 163.109C499.528 163.995 500.148 164.438 500.991 164.438C501.866 164.438 502.517 164 502.945 163.125C503.372 162.24 503.585 160.906 503.585 159.125C503.585 157.375 503.372 156.062 502.945 155.188C502.528 154.302 501.877 153.859 500.991 153.859Z" fill="#E5434B"/>
<path d="M282.585 300.234C282.585 298.859 282.679 297.516 282.866 296.203C283.064 294.891 283.392 293.672 283.851 292.547C284.309 291.411 284.934 290.417 285.726 289.562C286.517 288.708 287.502 288.042 288.679 287.562C289.866 287.073 291.288 286.828 292.945 286.828C293.413 286.828 293.919 286.854 294.46 286.906C295.002 286.948 295.45 287.021 295.804 287.125V289.359C295.419 289.224 294.976 289.125 294.476 289.062C293.986 289 293.491 288.969 292.991 288.969C291.054 288.969 289.528 289.391 288.413 290.234C287.309 291.078 286.512 292.224 286.023 293.672C285.533 295.109 285.252 296.729 285.179 298.531H285.351C285.674 298.01 286.085 297.542 286.585 297.125C287.085 296.698 287.689 296.359 288.398 296.109C289.116 295.859 289.95 295.734 290.898 295.734C292.231 295.734 293.392 296.005 294.382 296.547C295.382 297.089 296.153 297.875 296.695 298.906C297.247 299.938 297.523 301.188 297.523 302.656C297.523 304.229 297.231 305.589 296.648 306.734C296.064 307.88 295.231 308.766 294.148 309.391C293.075 310.005 291.794 310.312 290.304 310.312C289.189 310.312 288.163 310.099 287.226 309.672C286.288 309.245 285.471 308.609 284.773 307.766C284.085 306.922 283.549 305.875 283.163 304.625C282.778 303.365 282.585 301.901 282.585 300.234ZM290.273 308.125C291.689 308.125 292.825 307.672 293.679 306.766C294.533 305.859 294.96 304.49 294.96 302.656C294.96 301.156 294.58 299.969 293.82 299.094C293.059 298.219 291.913 297.781 290.382 297.781C289.34 297.781 288.434 298 287.663 298.438C286.892 298.865 286.294 299.406 285.866 300.062C285.439 300.719 285.226 301.385 285.226 302.062C285.226 302.75 285.325 303.448 285.523 304.156C285.731 304.865 286.044 305.521 286.46 306.125C286.877 306.729 287.403 307.214 288.038 307.578C288.674 307.943 289.419 308.125 290.273 308.125ZM315.757 298.547C315.757 300.401 315.616 302.057 315.335 303.516C315.054 304.974 314.611 306.208 314.007 307.219C313.403 308.229 312.622 309 311.663 309.531C310.705 310.052 309.554 310.312 308.21 310.312C306.512 310.312 305.106 309.849 303.991 308.922C302.887 307.995 302.059 306.656 301.507 304.906C300.965 303.146 300.695 301.026 300.695 298.547C300.695 296.109 300.939 294.016 301.429 292.266C301.929 290.505 302.731 289.156 303.835 288.219C304.939 287.271 306.398 286.797 308.21 286.797C309.929 286.797 311.346 287.266 312.46 288.203C313.575 289.13 314.403 290.474 314.945 292.234C315.486 293.984 315.757 296.089 315.757 298.547ZM303.304 298.547C303.304 300.672 303.465 302.443 303.788 303.859C304.111 305.276 304.632 306.339 305.351 307.047C306.08 307.745 307.033 308.094 308.21 308.094C309.387 308.094 310.335 307.745 311.054 307.047C311.783 306.349 312.309 305.292 312.632 303.875C312.965 302.458 313.132 300.682 313.132 298.547C313.132 296.453 312.971 294.703 312.648 293.297C312.325 291.88 311.804 290.818 311.085 290.109C310.366 289.391 309.408 289.031 308.21 289.031C307.012 289.031 306.054 289.391 305.335 290.109C304.616 290.818 304.096 291.88 303.773 293.297C303.46 294.703 303.304 296.453 303.304 298.547ZM323.632 286.828C325.195 286.828 326.377 287.453 327.179 288.703C327.991 289.943 328.398 291.698 328.398 293.969C328.398 296.24 328.007 298.01 327.226 299.281C326.445 300.542 325.247 301.172 323.632 301.172C322.132 301.172 320.981 300.542 320.179 299.281C319.387 298.01 318.991 296.24 318.991 293.969C318.991 291.698 319.372 289.943 320.132 288.703C320.892 287.453 322.059 286.828 323.632 286.828ZM323.632 288.688C322.788 288.688 322.169 289.13 321.773 290.016C321.377 290.891 321.179 292.208 321.179 293.969C321.179 295.729 321.377 297.057 321.773 297.953C322.169 298.849 322.788 299.297 323.632 299.297C324.507 299.297 325.158 298.849 325.585 297.953C326.012 297.057 326.226 295.729 326.226 293.969C326.226 292.219 326.012 290.901 325.585 290.016C325.169 289.13 324.517 288.688 323.632 288.688ZM338.101 287.156L325.429 310H323.148L335.82 287.156H338.101ZM337.491 295.984C339.044 295.984 340.226 296.609 341.038 297.859C341.851 299.099 342.257 300.854 342.257 303.125C342.257 305.385 341.866 307.151 341.085 308.422C340.304 309.682 339.106 310.312 337.491 310.312C335.981 310.312 334.83 309.682 334.038 308.422C333.247 307.151 332.851 305.385 332.851 303.125C332.851 300.854 333.226 299.099 333.976 297.859C334.736 296.609 335.908 295.984 337.491 295.984ZM337.491 297.859C336.648 297.859 336.028 298.297 335.632 299.172C335.236 300.047 335.038 301.365 335.038 303.125C335.038 304.885 335.236 306.214 335.632 307.109C336.028 307.995 336.648 308.438 337.491 308.438C338.366 308.438 339.017 308 339.445 307.125C339.872 306.24 340.085 304.906 340.085 303.125C340.085 301.375 339.872 300.062 339.445 299.188C339.028 298.302 338.377 297.859 337.491 297.859Z" fill="white"/>
<rect x="181.591" y="504.932" width="21.1364" height="21.1364" rx="3.52273" fill="#FDE3DF"/>
<path d="M220.935 524H211.974V507.906H220.935V509.557H213.846V514.764H220.528V516.393H213.846V522.349H220.935V524ZM229.94 511.714C231.371 511.714 232.454 512.067 233.188 512.771C233.922 513.469 234.289 514.591 234.289 516.14V524H232.483V516.261C232.483 515.256 232.252 514.503 231.79 514.004C231.335 513.505 230.634 513.256 229.687 513.256C228.351 513.256 227.412 513.634 226.869 514.39C226.326 515.145 226.054 516.243 226.054 517.681V524H224.227V511.935H225.702L225.977 513.674H226.076C226.333 513.248 226.66 512.892 227.056 512.606C227.452 512.313 227.896 512.092 228.388 511.946C228.88 511.792 229.397 511.714 229.94 511.714ZM242.347 524.22C240.82 524.22 239.609 523.699 238.714 522.657C237.826 521.615 237.382 520.066 237.382 518.011C237.382 515.934 237.837 514.368 238.747 513.311C239.657 512.247 240.868 511.714 242.38 511.714C243.018 511.714 243.576 511.799 244.053 511.968C244.53 512.136 244.941 512.364 245.286 512.65C245.631 512.929 245.921 513.248 246.156 513.608H246.288C246.259 513.38 246.229 513.069 246.2 512.672C246.171 512.276 246.156 511.953 246.156 511.703V506.871H247.983V524H246.508L246.233 522.283H246.156C245.928 522.642 245.638 522.969 245.286 523.262C244.941 523.556 244.527 523.791 244.042 523.967C243.565 524.136 243 524.22 242.347 524.22ZM242.633 522.701C243.925 522.701 244.839 522.334 245.374 521.6C245.91 520.866 246.178 519.776 246.178 518.331V518C246.178 516.467 245.921 515.289 245.407 514.467C244.901 513.645 243.976 513.234 242.633 513.234C241.51 513.234 240.67 513.667 240.112 514.533C239.554 515.391 239.276 516.566 239.276 518.055C239.276 519.538 239.551 520.683 240.101 521.49C240.659 522.297 241.503 522.701 242.633 522.701ZM261.821 511.935V524H260.324L260.06 522.305H259.961C259.711 522.723 259.388 523.075 258.992 523.362C258.596 523.648 258.148 523.861 257.649 524C257.157 524.147 256.632 524.22 256.075 524.22C255.12 524.22 254.321 524.066 253.675 523.758C253.029 523.45 252.541 522.973 252.211 522.327C251.888 521.681 251.726 520.852 251.726 519.839V511.935H253.576V519.707C253.576 520.712 253.803 521.464 254.258 521.963C254.713 522.455 255.407 522.701 256.339 522.701C257.234 522.701 257.946 522.532 258.474 522.195C259.01 521.857 259.395 521.362 259.63 520.708C259.865 520.048 259.983 519.241 259.983 518.287V511.935H261.821ZM271.167 511.714C271.409 511.714 271.663 511.729 271.927 511.759C272.191 511.781 272.426 511.814 272.631 511.858L272.4 513.553C272.202 513.502 271.982 513.461 271.74 513.432C271.497 513.402 271.27 513.388 271.057 513.388C270.573 513.388 270.114 513.487 269.681 513.685C269.255 513.876 268.881 514.155 268.558 514.522C268.235 514.881 267.982 515.318 267.799 515.832C267.615 516.338 267.523 516.903 267.523 517.527V524H265.685V511.935H267.204L267.402 514.158H267.479C267.729 513.711 268.03 513.303 268.382 512.936C268.734 512.562 269.142 512.265 269.604 512.045C270.074 511.825 270.595 511.714 271.167 511.714ZM279.424 511.737C280.862 511.737 281.93 512.059 282.627 512.705C283.324 513.351 283.673 514.382 283.673 515.799V524H282.341L281.989 522.217H281.901C281.563 522.657 281.211 523.028 280.844 523.328C280.477 523.622 280.051 523.846 279.567 524C279.09 524.147 278.503 524.22 277.805 524.22C277.071 524.22 276.418 524.092 275.846 523.835C275.281 523.578 274.833 523.189 274.503 522.668C274.18 522.147 274.018 521.486 274.018 520.686C274.018 519.483 274.495 518.558 275.45 517.912C276.404 517.266 277.857 516.914 279.809 516.855L281.89 516.767V516.03C281.89 514.988 281.666 514.257 281.218 513.839C280.77 513.421 280.139 513.212 279.325 513.212C278.693 513.212 278.092 513.303 277.519 513.487C276.947 513.67 276.404 513.887 275.89 514.136L275.328 512.749C275.872 512.47 276.495 512.232 277.2 512.034C277.904 511.836 278.646 511.737 279.424 511.737ZM281.868 518.055L280.029 518.132C278.525 518.191 277.464 518.437 276.848 518.87C276.231 519.303 275.923 519.916 275.923 520.708C275.923 521.398 276.132 521.908 276.55 522.239C276.969 522.569 277.523 522.734 278.213 522.734C279.284 522.734 280.161 522.437 280.844 521.842C281.526 521.248 281.868 520.356 281.868 519.167V518.055ZM293.151 511.714C294.582 511.714 295.665 512.067 296.399 512.771C297.133 513.469 297.5 514.591 297.5 516.14V524H295.694V516.261C295.694 515.256 295.463 514.503 295.001 514.004C294.546 513.505 293.845 513.256 292.898 513.256C291.562 513.256 290.623 513.634 290.08 514.39C289.537 515.145 289.265 516.243 289.265 517.681V524H287.438V511.935H288.913L289.188 513.674H289.287C289.544 513.248 289.871 512.892 290.267 512.606C290.663 512.313 291.107 512.092 291.599 511.946C292.091 511.792 292.608 511.714 293.151 511.714ZM306.097 524.22C305.011 524.22 304.053 523.996 303.224 523.549C302.395 523.101 301.749 522.418 301.287 521.501C300.824 520.584 300.593 519.428 300.593 518.033C300.593 516.573 300.835 515.38 301.32 514.456C301.811 513.524 302.486 512.834 303.345 512.386C304.204 511.938 305.18 511.714 306.273 511.714C306.875 511.714 307.455 511.777 308.013 511.902C308.578 512.019 309.04 512.17 309.4 512.353L308.849 513.883C308.482 513.736 308.057 513.604 307.572 513.487C307.095 513.369 306.648 513.311 306.229 513.311C305.393 513.311 304.696 513.491 304.138 513.85C303.587 514.21 303.173 514.738 302.894 515.435C302.622 516.133 302.486 516.991 302.486 518.011C302.486 518.987 302.619 519.82 302.883 520.51C303.154 521.2 303.554 521.729 304.083 522.096C304.618 522.455 305.286 522.635 306.086 522.635C306.725 522.635 307.301 522.569 307.815 522.437C308.328 522.297 308.794 522.136 309.213 521.952V523.582C308.809 523.787 308.358 523.945 307.859 524.055C307.367 524.165 306.78 524.22 306.097 524.22ZM316.721 511.714C317.748 511.714 318.629 511.942 319.363 512.397C320.096 512.852 320.658 513.491 321.047 514.313C321.436 515.127 321.63 516.081 321.63 517.175V518.309H313.297C313.319 519.725 313.671 520.804 314.354 521.545C315.036 522.286 315.998 522.657 317.238 522.657C318.001 522.657 318.676 522.587 319.263 522.448C319.851 522.308 320.46 522.103 321.091 521.831V523.439C320.482 523.71 319.876 523.908 319.274 524.033C318.68 524.158 317.975 524.22 317.161 524.22C316.001 524.22 314.988 523.985 314.122 523.516C313.264 523.039 312.596 522.341 312.119 521.424C311.642 520.507 311.403 519.384 311.403 518.055C311.403 516.756 311.62 515.634 312.053 514.687C312.493 513.733 313.11 512.999 313.902 512.485C314.702 511.971 315.642 511.714 316.721 511.714ZM316.698 513.212C315.722 513.212 314.944 513.531 314.365 514.169C313.785 514.808 313.44 515.7 313.33 516.844H319.715C319.707 516.125 319.594 515.494 319.374 514.951C319.161 514.401 318.834 513.975 318.394 513.674C317.953 513.366 317.388 513.212 316.698 513.212Z" fill="black"/>
<rect x="343.773" y="504.932" width="21.1364" height="21.1364" rx="3.52273" fill="#F4C3C1"/>
<path d="M383.238 519.718C383.238 520.672 383 521.486 382.523 522.162C382.053 522.829 381.393 523.339 380.541 523.692C379.69 524.044 378.688 524.22 377.536 524.22C376.927 524.22 376.351 524.191 375.808 524.132C375.264 524.073 374.765 523.989 374.31 523.879C373.855 523.769 373.455 523.633 373.11 523.472V521.677C373.661 521.905 374.332 522.118 375.125 522.316C375.918 522.507 376.747 522.602 377.613 522.602C378.42 522.602 379.103 522.496 379.661 522.283C380.218 522.063 380.64 521.751 380.927 521.347C381.22 520.936 381.367 520.444 381.367 519.872C381.367 519.321 381.246 518.863 381.004 518.496C380.761 518.121 380.358 517.784 379.793 517.483C379.235 517.175 378.472 516.848 377.503 516.503C376.82 516.261 376.219 515.997 375.697 515.711C375.176 515.417 374.74 515.087 374.387 514.72C374.035 514.353 373.767 513.927 373.584 513.443C373.408 512.958 373.32 512.404 373.32 511.781C373.32 510.922 373.536 510.188 373.969 509.579C374.409 508.962 375.015 508.493 375.786 508.17C376.563 507.839 377.455 507.674 378.461 507.674C379.319 507.674 380.112 507.755 380.838 507.917C381.572 508.078 382.244 508.295 382.853 508.566L382.27 510.173C381.69 509.931 381.073 509.729 380.42 509.568C379.774 509.406 379.106 509.326 378.417 509.326C377.727 509.326 377.143 509.428 376.666 509.634C376.197 509.832 375.837 510.115 375.587 510.482C375.338 510.848 375.213 511.285 375.213 511.792C375.213 512.357 375.331 512.826 375.565 513.201C375.808 513.575 376.189 513.909 376.71 514.202C377.239 514.489 377.936 514.79 378.802 515.105C379.749 515.45 380.552 515.817 381.213 516.206C381.873 516.588 382.376 517.057 382.721 517.615C383.066 518.165 383.238 518.866 383.238 519.718ZM390.152 522.723C390.453 522.723 390.761 522.697 391.076 522.646C391.392 522.595 391.649 522.532 391.847 522.459V523.879C391.634 523.974 391.337 524.055 390.955 524.121C390.581 524.187 390.214 524.22 389.854 524.22C389.216 524.22 388.636 524.11 388.115 523.89C387.594 523.662 387.176 523.281 386.86 522.745C386.552 522.209 386.398 521.468 386.398 520.521V513.366H384.68V512.474L386.409 511.759L387.135 509.138H388.236V511.935H391.77V513.366H388.236V520.466C388.236 521.222 388.409 521.787 388.754 522.162C389.106 522.536 389.572 522.723 390.152 522.723ZM399.773 511.714C400.015 511.714 400.269 511.729 400.533 511.759C400.797 511.781 401.032 511.814 401.237 511.858L401.006 513.553C400.808 513.502 400.588 513.461 400.346 513.432C400.103 513.402 399.876 513.388 399.663 513.388C399.179 513.388 398.72 513.487 398.287 513.685C397.861 513.876 397.487 514.155 397.164 514.522C396.841 514.881 396.588 515.318 396.405 515.832C396.221 516.338 396.129 516.903 396.129 517.527V524H394.291V511.935H395.81L396.008 514.158H396.085C396.335 513.711 396.636 513.303 396.988 512.936C397.34 512.562 397.748 512.265 398.21 512.045C398.68 511.825 399.201 511.714 399.773 511.714ZM408.162 511.714C409.189 511.714 410.07 511.942 410.804 512.397C411.538 512.852 412.099 513.491 412.488 514.313C412.877 515.127 413.071 516.081 413.071 517.175V518.309H404.738C404.76 519.725 405.112 520.804 405.795 521.545C406.477 522.286 407.439 522.657 408.679 522.657C409.442 522.657 410.117 522.587 410.705 522.448C411.292 522.308 411.901 522.103 412.532 521.831V523.439C411.923 523.71 411.317 523.908 410.716 524.033C410.121 524.158 409.417 524.22 408.602 524.22C407.442 524.22 406.43 523.985 405.564 523.516C404.705 523.039 404.037 522.341 403.56 521.424C403.083 520.507 402.845 519.384 402.845 518.055C402.845 516.756 403.061 515.634 403.494 514.687C403.934 513.733 404.551 512.999 405.343 512.485C406.143 511.971 407.083 511.714 408.162 511.714ZM408.14 513.212C407.164 513.212 406.386 513.531 405.806 514.169C405.226 514.808 404.881 515.7 404.771 516.844H411.156C411.149 516.125 411.035 515.494 410.815 514.951C410.602 514.401 410.275 513.975 409.835 513.674C409.395 513.366 408.829 513.212 408.14 513.212ZM421.889 511.714C423.32 511.714 424.403 512.067 425.137 512.771C425.871 513.469 426.238 514.591 426.238 516.14V524H424.432V516.261C424.432 515.256 424.201 514.503 423.739 514.004C423.284 513.505 422.583 513.256 421.636 513.256C420.3 513.256 419.361 513.634 418.818 514.39C418.275 515.145 418.003 516.243 418.003 517.681V524H416.176V511.935H417.651L417.926 513.674H418.025C418.282 513.248 418.609 512.892 419.005 512.606C419.401 512.313 419.845 512.092 420.337 511.946C420.829 511.792 421.346 511.714 421.889 511.714ZM433.371 529.416C431.786 529.416 430.564 529.119 429.705 528.525C428.847 527.937 428.417 527.112 428.417 526.048C428.417 525.292 428.656 524.646 429.133 524.11C429.617 523.574 430.285 523.218 431.136 523.042C430.821 522.895 430.549 522.675 430.322 522.382C430.102 522.088 429.992 521.751 429.992 521.369C429.992 520.929 430.113 520.543 430.355 520.213C430.604 519.875 430.982 519.553 431.489 519.244C430.858 518.987 430.344 518.554 429.947 517.945C429.559 517.329 429.364 516.613 429.364 515.799C429.364 514.933 429.544 514.195 429.903 513.586C430.263 512.969 430.784 512.5 431.467 512.177C432.149 511.854 432.975 511.692 433.944 511.692C434.156 511.692 434.369 511.703 434.582 511.725C434.802 511.74 435.011 511.766 435.21 511.803C435.408 511.832 435.58 511.869 435.727 511.913H439.866V513.091L437.642 513.366C437.863 513.652 438.046 513.997 438.193 514.401C438.34 514.804 438.413 515.252 438.413 515.744C438.413 516.947 438.006 517.905 437.191 518.617C436.376 519.321 435.257 519.674 433.833 519.674C433.496 519.674 433.151 519.644 432.799 519.586C432.439 519.784 432.164 520.004 431.973 520.246C431.79 520.488 431.698 520.767 431.698 521.083C431.698 521.318 431.768 521.505 431.907 521.644C432.054 521.784 432.263 521.886 432.534 521.952C432.806 522.011 433.133 522.04 433.514 522.04H435.639C436.953 522.04 437.958 522.316 438.655 522.866C439.36 523.417 439.712 524.22 439.712 525.277C439.712 526.613 439.169 527.636 438.083 528.348C436.997 529.06 435.426 529.416 433.371 529.416ZM433.426 527.985C434.424 527.985 435.25 527.882 435.903 527.677C436.564 527.479 437.055 527.189 437.378 526.807C437.708 526.433 437.874 525.985 437.874 525.464C437.874 524.98 437.764 524.613 437.543 524.363C437.323 524.121 437 523.96 436.575 523.879C436.149 523.791 435.628 523.747 435.011 523.747H432.92C432.377 523.747 431.903 523.831 431.5 524C431.096 524.169 430.784 524.418 430.564 524.749C430.351 525.079 430.245 525.49 430.245 525.982C430.245 526.635 430.52 527.13 431.07 527.468C431.621 527.813 432.406 527.985 433.426 527.985ZM433.9 518.342C434.773 518.342 435.43 518.121 435.87 517.681C436.31 517.241 436.531 516.599 436.531 515.755C436.531 514.852 436.307 514.177 435.859 513.729C435.411 513.274 434.751 513.047 433.878 513.047C433.041 513.047 432.395 513.281 431.94 513.751C431.492 514.213 431.269 514.892 431.269 515.788C431.269 516.61 431.496 517.241 431.951 517.681C432.406 518.121 433.056 518.342 433.9 518.342ZM446.141 522.723C446.442 522.723 446.75 522.697 447.066 522.646C447.381 522.595 447.638 522.532 447.836 522.459V523.879C447.624 523.974 447.326 524.055 446.945 524.121C446.57 524.187 446.203 524.22 445.844 524.22C445.205 524.22 444.626 524.11 444.104 523.89C443.583 523.662 443.165 523.281 442.849 522.745C442.541 522.209 442.387 521.468 442.387 520.521V513.366H440.67V512.474L442.398 511.759L443.125 509.138H444.226V511.935H447.759V513.366H444.226V520.466C444.226 521.222 444.398 521.787 444.743 522.162C445.095 522.536 445.561 522.723 446.141 522.723ZM452.108 506.871V511.99C452.108 512.283 452.1 512.58 452.086 512.881C452.071 513.175 452.045 513.446 452.009 513.696H452.13C452.379 513.27 452.695 512.914 453.076 512.628C453.465 512.335 453.906 512.114 454.397 511.968C454.889 511.814 455.41 511.737 455.961 511.737C456.929 511.737 457.737 511.891 458.383 512.199C459.036 512.507 459.524 512.984 459.847 513.63C460.177 514.276 460.342 515.112 460.342 516.14V524H458.537V516.261C458.537 515.256 458.305 514.503 457.843 514.004C457.388 513.505 456.687 513.256 455.74 513.256C454.845 513.256 454.13 513.428 453.594 513.773C453.065 514.111 452.684 514.61 452.449 515.27C452.221 515.931 452.108 516.738 452.108 517.692V524H450.28V506.871H452.108ZM475.182 524H473.299V509.557H468.235V507.906H480.223V509.557H475.182V524ZM487.863 511.714C488.106 511.714 488.359 511.729 488.623 511.759C488.887 511.781 489.122 511.814 489.327 511.858L489.096 513.553C488.898 513.502 488.678 513.461 488.436 513.432C488.194 513.402 487.966 513.388 487.753 513.388C487.269 513.388 486.81 513.487 486.377 513.685C485.952 513.876 485.577 514.155 485.254 514.522C484.931 514.881 484.678 515.318 484.495 515.832C484.311 516.338 484.22 516.903 484.22 517.527V524H482.381V511.935H483.9L484.098 514.158H484.175C484.425 513.711 484.726 513.303 485.078 512.936C485.43 512.562 485.838 512.265 486.3 512.045C486.77 511.825 487.291 511.714 487.863 511.714ZM496.12 511.737C497.558 511.737 498.626 512.059 499.323 512.705C500.02 513.351 500.369 514.382 500.369 515.799V524H499.037L498.685 522.217H498.597C498.259 522.657 497.907 523.028 497.54 523.328C497.173 523.622 496.747 523.846 496.263 524C495.786 524.147 495.199 524.22 494.501 524.22C493.768 524.22 493.114 524.092 492.542 523.835C491.977 523.578 491.529 523.189 491.199 522.668C490.876 522.147 490.715 521.486 490.715 520.686C490.715 519.483 491.192 518.558 492.146 517.912C493.1 517.266 494.553 516.914 496.505 516.855L498.586 516.767V516.03C498.586 514.988 498.362 514.257 497.914 513.839C497.466 513.421 496.835 513.212 496.021 513.212C495.389 513.212 494.788 513.303 494.215 513.487C493.643 513.67 493.1 513.887 492.586 514.136L492.025 512.749C492.568 512.47 493.191 512.232 493.896 512.034C494.601 511.836 495.342 511.737 496.12 511.737ZM498.564 518.055L496.725 518.132C495.221 518.191 494.16 518.437 493.544 518.87C492.927 519.303 492.619 519.916 492.619 520.708C492.619 521.398 492.828 521.908 493.246 522.239C493.665 522.569 494.219 522.734 494.909 522.734C495.98 522.734 496.857 522.437 497.54 521.842C498.222 521.248 498.564 520.356 498.564 519.167V518.055ZM505.961 511.935V524H504.134V511.935H505.961ZM505.07 507.421C505.371 507.421 505.627 507.52 505.84 507.718C506.06 507.909 506.17 508.21 506.17 508.621C506.17 509.025 506.06 509.326 505.84 509.524C505.627 509.722 505.371 509.821 505.07 509.821C504.754 509.821 504.49 509.722 504.277 509.524C504.072 509.326 503.969 509.025 503.969 508.621C503.969 508.21 504.072 507.909 504.277 507.718C504.49 507.52 504.754 507.421 505.07 507.421ZM515.55 511.714C516.981 511.714 518.063 512.067 518.797 512.771C519.531 513.469 519.898 514.591 519.898 516.14V524H518.093V516.261C518.093 515.256 517.862 514.503 517.399 514.004C516.944 513.505 516.243 513.256 515.297 513.256C513.961 513.256 513.021 513.634 512.478 514.39C511.935 515.145 511.664 516.243 511.664 517.681V524H509.836V511.935H511.311L511.587 513.674H511.686C511.943 513.248 512.269 512.892 512.666 512.606C513.062 512.313 513.506 512.092 513.998 511.946C514.489 511.792 515.007 511.714 515.55 511.714ZM525.49 511.935V524H523.663V511.935H525.49ZM524.599 507.421C524.9 507.421 525.157 507.52 525.369 507.718C525.59 507.909 525.7 508.21 525.7 508.621C525.7 509.025 525.59 509.326 525.369 509.524C525.157 509.722 524.9 509.821 524.599 509.821C524.283 509.821 524.019 509.722 523.806 509.524C523.601 509.326 523.498 509.025 523.498 508.621C523.498 508.21 523.601 507.909 523.806 507.718C524.019 507.52 524.283 507.421 524.599 507.421ZM535.079 511.714C536.51 511.714 537.592 512.067 538.326 512.771C539.06 513.469 539.427 514.591 539.427 516.14V524H537.622V516.261C537.622 515.256 537.391 514.503 536.928 514.004C536.473 513.505 535.772 513.256 534.826 513.256C533.49 513.256 532.551 513.634 532.008 514.39C531.464 515.145 531.193 516.243 531.193 517.681V524H529.365V511.935H530.841L531.116 513.674H531.215C531.472 513.248 531.798 512.892 532.195 512.606C532.591 512.313 533.035 512.092 533.527 511.946C534.018 511.792 534.536 511.714 535.079 511.714ZM546.561 529.416C544.976 529.416 543.754 529.119 542.895 528.525C542.036 527.937 541.607 527.112 541.607 526.048C541.607 525.292 541.845 524.646 542.322 524.11C542.807 523.574 543.475 523.218 544.326 523.042C544.01 522.895 543.739 522.675 543.511 522.382C543.291 522.088 543.181 521.751 543.181 521.369C543.181 520.929 543.302 520.543 543.544 520.213C543.794 519.875 544.172 519.553 544.678 519.244C544.047 518.987 543.533 518.554 543.137 517.945C542.748 517.329 542.554 516.613 542.554 515.799C542.554 514.933 542.733 514.195 543.093 513.586C543.453 512.969 543.974 512.5 544.656 512.177C545.339 511.854 546.164 511.692 547.133 511.692C547.346 511.692 547.559 511.703 547.772 511.725C547.992 511.74 548.201 511.766 548.399 511.803C548.597 511.832 548.77 511.869 548.917 511.913H553.056V513.091L550.832 513.366C551.052 513.652 551.236 513.997 551.382 514.401C551.529 514.804 551.603 515.252 551.603 515.744C551.603 516.947 551.195 517.905 550.381 518.617C549.566 519.321 548.447 519.674 547.023 519.674C546.686 519.674 546.341 519.644 545.988 519.586C545.629 519.784 545.353 520.004 545.163 520.246C544.979 520.488 544.887 520.767 544.887 521.083C544.887 521.318 544.957 521.505 545.097 521.644C545.243 521.784 545.453 521.886 545.724 521.952C545.996 522.011 546.322 522.04 546.704 522.04H548.829C550.142 522.04 551.148 522.316 551.845 522.866C552.549 523.417 552.902 524.22 552.902 525.277C552.902 526.613 552.359 527.636 551.272 528.348C550.186 529.06 548.616 529.416 546.561 529.416ZM546.616 527.985C547.614 527.985 548.44 527.882 549.093 527.677C549.753 527.479 550.245 527.189 550.568 526.807C550.898 526.433 551.063 525.985 551.063 525.464C551.063 524.98 550.953 524.613 550.733 524.363C550.513 524.121 550.19 523.96 549.764 523.879C549.339 523.791 548.818 523.747 548.201 523.747H546.109C545.566 523.747 545.093 523.831 544.689 524C544.286 524.169 543.974 524.418 543.754 524.749C543.541 525.079 543.434 525.49 543.434 525.982C543.434 526.635 543.71 527.13 544.26 527.468C544.81 527.813 545.596 527.985 546.616 527.985ZM547.089 518.342C547.963 518.342 548.619 518.121 549.06 517.681C549.5 517.241 549.72 516.599 549.72 515.755C549.72 514.852 549.496 514.177 549.049 513.729C548.601 513.274 547.94 513.047 547.067 513.047C546.23 513.047 545.585 513.281 545.13 513.751C544.682 514.213 544.458 514.892 544.458 515.788C544.458 516.61 544.686 517.241 545.141 517.681C545.596 518.121 546.245 518.342 547.089 518.342Z" fill="black"/>
<rect x="239.091" y="555.932" width="21.1364" height="21.1364" rx="3.52273" fill="#E8706D"/>
<path d="M271.346 575H269.474V558.906H278.435V560.557H271.346V566.457H278.006V568.098H271.346V575ZM282.685 575H280.846V557.871H282.685V575ZM291.194 562.714C292.222 562.714 293.102 562.942 293.836 563.397C294.57 563.852 295.132 564.491 295.521 565.313C295.91 566.127 296.104 567.081 296.104 568.175V569.309H287.771C287.793 570.725 288.145 571.804 288.827 572.545C289.51 573.286 290.471 573.657 291.712 573.657C292.475 573.657 293.15 573.587 293.737 573.448C294.324 573.308 294.933 573.103 295.565 572.831V574.439C294.955 574.71 294.35 574.908 293.748 575.033C293.154 575.158 292.449 575.22 291.635 575.22C290.475 575.22 289.462 574.985 288.596 574.516C287.738 574.039 287.07 573.341 286.593 572.424C286.116 571.507 285.877 570.384 285.877 569.055C285.877 567.756 286.094 566.634 286.527 565.687C286.967 564.733 287.583 563.999 288.376 563.485C289.176 562.971 290.115 562.714 291.194 562.714ZM291.172 564.212C290.196 564.212 289.418 564.531 288.838 565.169C288.259 565.808 287.914 566.7 287.804 567.844H294.189C294.181 567.125 294.067 566.494 293.847 565.951C293.634 565.401 293.308 564.975 292.868 564.674C292.427 564.366 291.862 564.212 291.172 564.212ZM302.082 568.824L297.909 562.935H300.001L303.183 567.58L306.353 562.935H308.423L304.25 568.824L308.654 575H306.562L303.183 570.079L299.781 575H297.711L302.082 568.824ZM312.837 562.935V575H311.01V562.935H312.837ZM311.945 558.421C312.246 558.421 312.503 558.52 312.716 558.718C312.936 558.909 313.046 559.21 313.046 559.621C313.046 560.025 312.936 560.326 312.716 560.524C312.503 560.722 312.246 560.821 311.945 560.821C311.63 560.821 311.366 560.722 311.153 560.524C310.947 560.326 310.844 560.025 310.844 559.621C310.844 559.21 310.947 558.909 311.153 558.718C311.366 558.52 311.63 558.421 311.945 558.421ZM318.539 557.871V562.153C318.539 562.645 318.525 563.122 318.495 563.584C318.473 564.047 318.455 564.406 318.44 564.663H318.539C318.87 564.12 319.347 563.661 319.971 563.287C320.594 562.913 321.391 562.725 322.359 562.725C323.871 562.725 325.075 563.25 325.97 564.3C326.873 565.342 327.324 566.894 327.324 568.956C327.324 570.314 327.119 571.459 326.708 572.391C326.297 573.323 325.717 574.028 324.968 574.505C324.22 574.982 323.335 575.22 322.315 575.22C321.361 575.22 320.576 575.044 319.959 574.692C319.35 574.332 318.881 573.895 318.55 573.382H318.407L318.033 575H316.712V557.871H318.539ZM322.062 564.256C321.189 564.256 320.495 564.428 319.982 564.773C319.468 565.111 319.097 565.624 318.87 566.314C318.649 566.997 318.539 567.863 318.539 568.912V569.011C318.539 570.531 318.793 571.694 319.299 572.501C319.805 573.301 320.726 573.701 322.062 573.701C323.185 573.701 324.025 573.29 324.583 572.468C325.148 571.646 325.431 570.472 325.431 568.945C325.431 567.389 325.152 566.219 324.594 565.434C324.044 564.648 323.2 564.256 322.062 564.256ZM332.344 562.935V575H330.517V562.935H332.344ZM331.452 558.421C331.753 558.421 332.01 558.52 332.223 558.718C332.443 558.909 332.553 559.21 332.553 559.621C332.553 560.025 332.443 560.326 332.223 560.524C332.01 560.722 331.753 560.821 331.452 560.821C331.137 560.821 330.873 560.722 330.66 560.524C330.454 560.326 330.352 560.025 330.352 559.621C330.352 559.21 330.454 558.909 330.66 558.718C330.873 558.52 331.137 558.421 331.452 558.421ZM338.058 575H336.219V557.871H338.058V575ZM343.749 562.935V575H341.921V562.935H343.749ZM342.857 558.421C343.158 558.421 343.415 558.52 343.628 558.718C343.848 558.909 343.958 559.21 343.958 559.621C343.958 560.025 343.848 560.326 343.628 560.524C343.415 560.722 343.158 560.821 342.857 560.821C342.542 560.821 342.277 560.722 342.065 560.524C341.859 560.326 341.756 560.025 341.756 559.621C341.756 559.21 341.859 558.909 342.065 558.718C342.277 558.52 342.542 558.421 342.857 558.421ZM351.521 573.723C351.822 573.723 352.13 573.697 352.446 573.646C352.761 573.595 353.018 573.532 353.216 573.459V574.879C353.003 574.974 352.706 575.055 352.325 575.121C351.95 575.187 351.583 575.22 351.224 575.22C350.585 575.22 350.005 575.11 349.484 574.89C348.963 574.662 348.545 574.281 348.229 573.745C347.921 573.209 347.767 572.468 347.767 571.521V564.366H346.05V563.474L347.778 562.759L348.505 560.138H349.605V562.935H353.139V564.366H349.605V571.466C349.605 572.222 349.778 572.787 350.123 573.162C350.475 573.536 350.941 573.723 351.521 573.723ZM353.756 562.935H355.715L358.379 569.936C358.533 570.347 358.676 570.743 358.809 571.125C358.941 571.499 359.058 571.859 359.161 572.204C359.264 572.549 359.344 572.883 359.403 573.206H359.48C359.583 572.839 359.73 572.358 359.92 571.763C360.111 571.162 360.317 570.549 360.537 569.925L363.058 562.935H365.028L359.777 576.772C359.498 577.514 359.172 578.159 358.798 578.71C358.431 579.26 357.983 579.682 357.455 579.976C356.926 580.277 356.288 580.427 355.539 580.427C355.194 580.427 354.89 580.405 354.625 580.361C354.361 580.324 354.134 580.28 353.943 580.229V578.765C354.104 578.802 354.299 578.835 354.526 578.864C354.761 578.893 355.003 578.908 355.253 578.908C355.708 578.908 356.1 578.82 356.431 578.644C356.768 578.475 357.058 578.225 357.3 577.895C357.543 577.565 357.752 577.172 357.928 576.717L358.588 575.022L353.756 562.935Z" fill="black"/>
<rect x="385.273" y="555.932" width="21.1364" height="21.1364" rx="3.52273" fill="#E5434B"/>
<path d="M415.656 558.906H420.214C422.225 558.906 423.737 559.206 424.749 559.808C425.762 560.41 426.269 561.434 426.269 562.88C426.269 563.503 426.147 564.065 425.905 564.564C425.67 565.056 425.325 565.463 424.87 565.786C424.415 566.109 423.854 566.333 423.186 566.457V566.567C423.891 566.678 424.514 566.879 425.058 567.173C425.601 567.467 426.026 567.877 426.335 568.406C426.643 568.934 426.797 569.606 426.797 570.42C426.797 571.411 426.566 572.248 426.103 572.93C425.648 573.613 425.003 574.13 424.166 574.483C423.329 574.828 422.338 575 421.194 575H415.656V558.906ZM417.528 565.808H420.61C422.012 565.808 422.981 565.577 423.516 565.114C424.059 564.652 424.331 563.977 424.331 563.089C424.331 562.171 424.008 561.511 423.362 561.107C422.724 560.704 421.704 560.502 420.302 560.502H417.528V565.808ZM417.528 567.382V573.404H420.874C422.305 573.404 423.318 573.125 423.913 572.567C424.507 572.002 424.804 571.242 424.804 570.288C424.804 569.679 424.669 569.158 424.397 568.725C424.133 568.292 423.7 567.962 423.098 567.734C422.504 567.5 421.707 567.382 420.709 567.382H417.528ZM434.47 562.737C435.908 562.737 436.976 563.059 437.673 563.705C438.371 564.351 438.719 565.382 438.719 566.799V575H437.387L437.035 573.217H436.947C436.609 573.657 436.257 574.028 435.89 574.328C435.523 574.622 435.097 574.846 434.613 575C434.136 575.147 433.549 575.22 432.852 575.22C432.118 575.22 431.465 575.092 430.892 574.835C430.327 574.578 429.879 574.189 429.549 573.668C429.226 573.147 429.065 572.486 429.065 571.686C429.065 570.483 429.542 569.558 430.496 568.912C431.45 568.266 432.903 567.914 434.855 567.855L436.936 567.767V567.03C436.936 565.988 436.712 565.257 436.264 564.839C435.817 564.421 435.185 564.212 434.371 564.212C433.74 564.212 433.138 564.303 432.565 564.487C431.993 564.67 431.45 564.887 430.936 565.136L430.375 563.749C430.918 563.47 431.542 563.232 432.246 563.034C432.951 562.836 433.692 562.737 434.47 562.737ZM436.914 569.055L435.075 569.132C433.571 569.191 432.51 569.437 431.894 569.87C431.277 570.303 430.969 570.916 430.969 571.708C430.969 572.398 431.178 572.908 431.597 573.239C432.015 573.569 432.569 573.734 433.259 573.734C434.33 573.734 435.207 573.437 435.89 572.842C436.572 572.248 436.914 571.356 436.914 570.167V569.055ZM444.322 575H442.484V557.871H444.322V575ZM452.7 562.737C454.138 562.737 455.206 563.059 455.903 563.705C456.601 564.351 456.949 565.382 456.949 566.799V575H455.617L455.265 573.217H455.177C454.839 573.657 454.487 574.028 454.12 574.328C453.753 574.622 453.327 574.846 452.843 575C452.366 575.147 451.779 575.22 451.082 575.22C450.348 575.22 449.695 575.092 449.122 574.835C448.557 574.578 448.109 574.189 447.779 573.668C447.456 573.147 447.295 572.486 447.295 571.686C447.295 570.483 447.772 569.558 448.726 568.912C449.68 568.266 451.133 567.914 453.085 567.855L455.166 567.767V567.03C455.166 565.988 454.942 565.257 454.494 564.839C454.047 564.421 453.416 564.212 452.601 564.212C451.97 564.212 451.368 564.303 450.795 564.487C450.223 564.67 449.68 564.887 449.166 565.136L448.605 563.749C449.148 563.47 449.772 563.232 450.476 563.034C451.181 562.836 451.922 562.737 452.7 562.737ZM455.144 569.055L453.305 569.132C451.801 569.191 450.74 569.437 450.124 569.87C449.508 570.303 449.199 570.916 449.199 571.708C449.199 572.398 449.408 572.908 449.827 573.239C450.245 573.569 450.799 573.734 451.489 573.734C452.561 573.734 453.438 573.437 454.12 572.842C454.803 572.248 455.144 571.356 455.144 570.167V569.055ZM466.428 562.714C467.859 562.714 468.941 563.067 469.675 563.771C470.409 564.469 470.776 565.591 470.776 567.14V575H468.971V567.261C468.971 566.256 468.739 565.503 468.277 565.004C467.822 564.505 467.121 564.256 466.174 564.256C464.839 564.256 463.899 564.634 463.356 565.39C462.813 566.145 462.542 567.243 462.542 568.681V575H460.714V562.935H462.189L462.465 564.674H462.564C462.82 564.248 463.147 563.892 463.543 563.606C463.94 563.313 464.384 563.092 464.875 562.946C465.367 562.792 465.885 562.714 466.428 562.714ZM479.374 575.22C478.287 575.22 477.33 574.996 476.5 574.549C475.671 574.101 475.025 573.418 474.563 572.501C474.101 571.584 473.869 570.428 473.869 569.033C473.869 567.573 474.112 566.38 474.596 565.456C475.088 564.524 475.763 563.834 476.621 563.386C477.48 562.938 478.456 562.714 479.55 562.714C480.152 562.714 480.731 562.777 481.289 562.902C481.854 563.019 482.317 563.17 482.676 563.353L482.126 564.883C481.759 564.736 481.333 564.604 480.849 564.487C480.372 564.369 479.924 564.311 479.506 564.311C478.669 564.311 477.972 564.491 477.414 564.85C476.864 565.21 476.449 565.738 476.17 566.435C475.899 567.133 475.763 567.991 475.763 569.011C475.763 569.987 475.895 570.82 476.159 571.51C476.431 572.2 476.831 572.729 477.359 573.096C477.895 573.455 478.563 573.635 479.363 573.635C480.001 573.635 480.577 573.569 481.091 573.437C481.605 573.297 482.071 573.136 482.489 572.952V574.582C482.085 574.787 481.634 574.945 481.135 575.055C480.643 575.165 480.056 575.22 479.374 575.22ZM489.997 562.714C491.024 562.714 491.905 562.942 492.639 563.397C493.373 563.852 493.934 564.491 494.323 565.313C494.712 566.127 494.907 567.081 494.907 568.175V569.309H486.573C486.595 570.725 486.947 571.804 487.63 572.545C488.313 573.286 489.274 573.657 490.514 573.657C491.278 573.657 491.953 573.587 492.54 573.448C493.127 573.308 493.736 573.103 494.367 572.831V574.439C493.758 574.71 493.153 574.908 492.551 575.033C491.956 575.158 491.252 575.22 490.437 575.22C489.278 575.22 488.265 574.985 487.399 574.516C486.54 574.039 485.872 573.341 485.395 572.424C484.918 571.507 484.68 570.384 484.68 569.055C484.68 567.756 484.896 566.634 485.329 565.687C485.77 564.733 486.386 563.999 487.179 563.485C487.979 562.971 488.918 562.714 489.997 562.714ZM489.975 564.212C488.999 564.212 488.221 564.531 487.641 565.169C487.061 565.808 486.716 566.7 486.606 567.844H492.991C492.984 567.125 492.87 566.494 492.65 565.951C492.437 565.401 492.11 564.975 491.67 564.674C491.23 564.366 490.665 564.212 489.975 564.212Z" fill="black"/>
</g>
<defs>
<clipPath id="clip0_7245_29947">
<rect width="735.545" height="582" fill="white"/>
</clipPath>
</defs>
</svg>
