<svg width="736" height="582" viewBox="0 0 736 582" fill="none" xmlns="http://www.w3.org/2000/svg">
<g clip-path="url(#clip0_7243_29000)">
<path d="M367.773 224.992L367.773 0C415.285 0 461.577 15.0418 500.015 42.9697L367.773 224.992Z" fill="#EF9F93" stroke="white"/>
<path d="M367.773 224.992L500.015 42.9695C600.54 116.007 622.824 256.711 549.789 357.239C476.753 457.767 336.055 480.052 235.53 407.014L367.773 224.992Z" fill="#E8706D" stroke="white"/>
<path d="M367.773 224.992L235.53 407.014C135.006 333.976 112.721 193.273 185.757 92.745C228.088 34.4788 295.754 0 367.773 0V224.992Z" fill="#E5434B" stroke="white"/>
<path d="M436.57 284.031C438.122 284.031 439.471 284.297 440.616 284.828C441.762 285.349 442.648 286.109 443.273 287.109C443.908 288.109 444.226 289.323 444.226 290.75C444.226 292.312 443.887 293.661 443.21 294.797C442.533 295.922 441.559 296.792 440.288 297.406C439.017 298.01 437.497 298.312 435.726 298.312C434.538 298.312 433.434 298.208 432.413 298C431.392 297.792 430.533 297.479 429.835 297.062V294.594C430.596 295.052 431.517 295.417 432.601 295.688C433.684 295.958 434.736 296.094 435.757 296.094C436.913 296.094 437.924 295.911 438.788 295.547C439.663 295.172 440.34 294.609 440.82 293.859C441.309 293.099 441.554 292.146 441.554 291C441.554 289.479 441.085 288.307 440.148 287.484C439.221 286.651 437.752 286.234 435.741 286.234C435.096 286.234 434.387 286.286 433.616 286.391C432.846 286.495 432.21 286.609 431.71 286.734L430.398 285.875L431.273 275.156H442.632V277.531H433.491L432.913 284.422C433.309 284.339 433.82 284.255 434.445 284.172C435.07 284.078 435.778 284.031 436.57 284.031ZM462.757 286.547C462.757 288.401 462.616 290.057 462.335 291.516C462.054 292.974 461.611 294.208 461.007 295.219C460.403 296.229 459.622 297 458.663 297.531C457.705 298.052 456.554 298.312 455.21 298.312C453.512 298.312 452.106 297.849 450.991 296.922C449.887 295.995 449.059 294.656 448.507 292.906C447.965 291.146 447.695 289.026 447.695 286.547C447.695 284.109 447.939 282.016 448.429 280.266C448.929 278.505 449.731 277.156 450.835 276.219C451.939 275.271 453.398 274.797 455.21 274.797C456.929 274.797 458.346 275.266 459.46 276.203C460.575 277.13 461.403 278.474 461.945 280.234C462.486 281.984 462.757 284.089 462.757 286.547ZM450.304 286.547C450.304 288.672 450.465 290.443 450.788 291.859C451.111 293.276 451.632 294.339 452.351 295.047C453.08 295.745 454.033 296.094 455.21 296.094C456.387 296.094 457.335 295.745 458.054 295.047C458.783 294.349 459.309 293.292 459.632 291.875C459.965 290.458 460.132 288.682 460.132 286.547C460.132 284.453 459.971 282.703 459.648 281.297C459.325 279.88 458.804 278.818 458.085 278.109C457.366 277.391 456.408 277.031 455.21 277.031C454.012 277.031 453.054 277.391 452.335 278.109C451.616 278.818 451.096 279.88 450.773 281.297C450.46 282.703 450.304 284.453 450.304 286.547ZM470.632 274.828C472.195 274.828 473.377 275.453 474.179 276.703C474.991 277.943 475.398 279.698 475.398 281.969C475.398 284.24 475.007 286.01 474.226 287.281C473.445 288.542 472.247 289.172 470.632 289.172C469.132 289.172 467.981 288.542 467.179 287.281C466.387 286.01 465.991 284.24 465.991 281.969C465.991 279.698 466.372 277.943 467.132 276.703C467.892 275.453 469.059 274.828 470.632 274.828ZM470.632 276.688C469.788 276.688 469.169 277.13 468.773 278.016C468.377 278.891 468.179 280.208 468.179 281.969C468.179 283.729 468.377 285.057 468.773 285.953C469.169 286.849 469.788 287.297 470.632 287.297C471.507 287.297 472.158 286.849 472.585 285.953C473.012 285.057 473.226 283.729 473.226 281.969C473.226 280.219 473.012 278.901 472.585 278.016C472.169 277.13 471.517 276.688 470.632 276.688ZM485.101 275.156L472.429 298H470.148L482.82 275.156H485.101ZM484.491 283.984C486.044 283.984 487.226 284.609 488.038 285.859C488.851 287.099 489.257 288.854 489.257 291.125C489.257 293.385 488.866 295.151 488.085 296.422C487.304 297.682 486.106 298.312 484.491 298.312C482.981 298.312 481.83 297.682 481.038 296.422C480.247 295.151 479.851 293.385 479.851 291.125C479.851 288.854 480.226 287.099 480.976 285.859C481.736 284.609 482.908 283.984 484.491 283.984ZM484.491 285.859C483.648 285.859 483.028 286.297 482.632 287.172C482.236 288.047 482.038 289.365 482.038 291.125C482.038 292.885 482.236 294.214 482.632 295.109C483.028 295.995 483.648 296.438 484.491 296.438C485.366 296.438 486.017 296 486.445 295.125C486.872 294.24 487.085 292.906 487.085 291.125C487.085 289.375 486.872 288.062 486.445 287.188C486.028 286.302 485.377 285.859 484.491 285.859Z" fill="white"/>
<path d="M389.507 97H386.976V80.8125C386.976 80.1979 386.976 79.6719 386.976 79.2344C386.986 78.7865 386.997 78.3802 387.007 78.0156C387.028 77.6406 387.054 77.2604 387.085 76.875C386.762 77.2083 386.46 77.4948 386.179 77.7344C385.898 77.9635 385.549 78.25 385.132 78.5938L382.523 80.6875L381.163 78.9219L387.351 74.1562H389.507V97ZM413.257 85.5469C413.257 87.401 413.116 89.0573 412.835 90.5156C412.554 91.974 412.111 93.2083 411.507 94.2188C410.903 95.2292 410.122 96 409.163 96.5312C408.205 97.0521 407.054 97.3125 405.71 97.3125C404.012 97.3125 402.606 96.849 401.491 95.9219C400.387 94.9948 399.559 93.6562 399.007 91.9062C398.465 90.1458 398.195 88.026 398.195 85.5469C398.195 83.1094 398.439 81.0156 398.929 79.2656C399.429 77.5052 400.231 76.1562 401.335 75.2188C402.439 74.2708 403.898 73.7969 405.71 73.7969C407.429 73.7969 408.846 74.2656 409.96 75.2031C411.075 76.1302 411.903 77.474 412.445 79.2344C412.986 80.9844 413.257 83.0885 413.257 85.5469ZM400.804 85.5469C400.804 87.6719 400.965 89.4427 401.288 90.8594C401.611 92.276 402.132 93.3385 402.851 94.0469C403.58 94.7448 404.533 95.0938 405.71 95.0938C406.887 95.0938 407.835 94.7448 408.554 94.0469C409.283 93.349 409.809 92.2917 410.132 90.875C410.465 89.4583 410.632 87.6823 410.632 85.5469C410.632 83.4531 410.471 81.7031 410.148 80.2969C409.825 78.8802 409.304 77.8177 408.585 77.1094C407.866 76.3906 406.908 76.0312 405.71 76.0312C404.512 76.0312 403.554 76.3906 402.835 77.1094C402.116 77.8177 401.596 78.8802 401.273 80.2969C400.96 81.7031 400.804 83.4531 400.804 85.5469ZM421.132 73.8281C422.695 73.8281 423.877 74.4531 424.679 75.7031C425.491 76.9427 425.898 78.6979 425.898 80.9688C425.898 83.2396 425.507 85.0104 424.726 86.2812C423.945 87.5417 422.747 88.1719 421.132 88.1719C419.632 88.1719 418.481 87.5417 417.679 86.2812C416.887 85.0104 416.491 83.2396 416.491 80.9688C416.491 78.6979 416.872 76.9427 417.632 75.7031C418.392 74.4531 419.559 73.8281 421.132 73.8281ZM421.132 75.6875C420.288 75.6875 419.669 76.1302 419.273 77.0156C418.877 77.8906 418.679 79.2083 418.679 80.9688C418.679 82.7292 418.877 84.0573 419.273 84.9531C419.669 85.849 420.288 86.2969 421.132 86.2969C422.007 86.2969 422.658 85.849 423.085 84.9531C423.512 84.0573 423.726 82.7292 423.726 80.9688C423.726 79.2188 423.512 77.901 423.085 77.0156C422.669 76.1302 422.017 75.6875 421.132 75.6875ZM435.601 74.1562L422.929 97H420.648L433.32 74.1562H435.601ZM434.991 82.9844C436.544 82.9844 437.726 83.6094 438.538 84.8594C439.351 86.099 439.757 87.8542 439.757 90.125C439.757 92.3854 439.366 94.151 438.585 95.4219C437.804 96.6823 436.606 97.3125 434.991 97.3125C433.481 97.3125 432.33 96.6823 431.538 95.4219C430.747 94.151 430.351 92.3854 430.351 90.125C430.351 87.8542 430.726 86.099 431.476 84.8594C432.236 83.6094 433.408 82.9844 434.991 82.9844ZM434.991 84.8594C434.148 84.8594 433.528 85.2969 433.132 86.1719C432.736 87.0469 432.538 88.3646 432.538 90.125C432.538 91.8854 432.736 93.2135 433.132 94.1094C433.528 94.9948 434.148 95.4375 434.991 95.4375C435.866 95.4375 436.517 95 436.945 94.125C437.372 93.2396 437.585 91.9062 437.585 90.125C437.585 88.375 437.372 87.0625 436.945 86.1875C436.528 85.3021 435.877 84.8594 434.991 84.8594Z" fill="white"/>
<path d="M236.96 193.703H233.538V199H231.007V193.703H219.96V191.516L230.835 176.031H233.538V191.359H236.96V193.703ZM231.007 191.359V183.891C231.007 183.318 231.012 182.802 231.023 182.344C231.033 181.875 231.049 181.443 231.07 181.047C231.09 180.641 231.106 180.255 231.116 179.891C231.137 179.526 231.153 179.167 231.163 178.812H231.038C230.84 179.229 230.611 179.672 230.351 180.141C230.101 180.599 229.846 181.01 229.585 181.375L222.538 191.359H231.007ZM254.257 187.547C254.257 189.401 254.116 191.057 253.835 192.516C253.554 193.974 253.111 195.208 252.507 196.219C251.903 197.229 251.122 198 250.163 198.531C249.205 199.052 248.054 199.312 246.71 199.312C245.012 199.312 243.606 198.849 242.491 197.922C241.387 196.995 240.559 195.656 240.007 193.906C239.465 192.146 239.195 190.026 239.195 187.547C239.195 185.109 239.439 183.016 239.929 181.266C240.429 179.505 241.231 178.156 242.335 177.219C243.439 176.271 244.898 175.797 246.71 175.797C248.429 175.797 249.846 176.266 250.96 177.203C252.075 178.13 252.903 179.474 253.445 181.234C253.986 182.984 254.257 185.089 254.257 187.547ZM241.804 187.547C241.804 189.672 241.965 191.443 242.288 192.859C242.611 194.276 243.132 195.339 243.851 196.047C244.58 196.745 245.533 197.094 246.71 197.094C247.887 197.094 248.835 196.745 249.554 196.047C250.283 195.349 250.809 194.292 251.132 192.875C251.465 191.458 251.632 189.682 251.632 187.547C251.632 185.453 251.471 183.703 251.148 182.297C250.825 180.88 250.304 179.818 249.585 179.109C248.866 178.391 247.908 178.031 246.71 178.031C245.512 178.031 244.554 178.391 243.835 179.109C243.116 179.818 242.596 180.88 242.273 182.297C241.96 183.703 241.804 185.453 241.804 187.547ZM262.132 175.828C263.695 175.828 264.877 176.453 265.679 177.703C266.491 178.943 266.898 180.698 266.898 182.969C266.898 185.24 266.507 187.01 265.726 188.281C264.945 189.542 263.747 190.172 262.132 190.172C260.632 190.172 259.481 189.542 258.679 188.281C257.887 187.01 257.491 185.24 257.491 182.969C257.491 180.698 257.872 178.943 258.632 177.703C259.392 176.453 260.559 175.828 262.132 175.828ZM262.132 177.688C261.288 177.688 260.669 178.13 260.273 179.016C259.877 179.891 259.679 181.208 259.679 182.969C259.679 184.729 259.877 186.057 260.273 186.953C260.669 187.849 261.288 188.297 262.132 188.297C263.007 188.297 263.658 187.849 264.085 186.953C264.512 186.057 264.726 184.729 264.726 182.969C264.726 181.219 264.512 179.901 264.085 179.016C263.669 178.13 263.017 177.688 262.132 177.688ZM276.601 176.156L263.929 199H261.648L274.32 176.156H276.601ZM275.991 184.984C277.544 184.984 278.726 185.609 279.538 186.859C280.351 188.099 280.757 189.854 280.757 192.125C280.757 194.385 280.366 196.151 279.585 197.422C278.804 198.682 277.606 199.312 275.991 199.312C274.481 199.312 273.33 198.682 272.538 197.422C271.747 196.151 271.351 194.385 271.351 192.125C271.351 189.854 271.726 188.099 272.476 186.859C273.236 185.609 274.408 184.984 275.991 184.984ZM275.991 186.859C275.148 186.859 274.528 187.297 274.132 188.172C273.736 189.047 273.538 190.365 273.538 192.125C273.538 193.885 273.736 195.214 274.132 196.109C274.528 196.995 275.148 197.438 275.991 197.438C276.866 197.438 277.517 197 277.945 196.125C278.372 195.24 278.585 193.906 278.585 192.125C278.585 190.375 278.372 189.062 277.945 188.188C277.528 187.302 276.877 186.859 275.991 186.859Z" fill="white"/>
<rect y="504.932" width="21.1364" height="21.1364" rx="3.52273" fill="#FDE3DF"/>
<path d="M36.097 524H34.3136V512.595C34.3136 512.162 34.3136 511.792 34.3136 511.483C34.321 511.168 34.3283 510.882 34.3356 510.625C34.3503 510.36 34.3687 510.093 34.3907 509.821C34.1632 510.056 33.9504 510.258 33.7522 510.426C33.554 510.588 33.3082 510.79 33.0146 511.032L31.1762 512.507L30.2185 511.263L34.5778 507.906H36.097V524ZM47.8431 517.824C47.8431 516.584 47.9605 515.377 48.1954 514.202C48.4376 513.028 48.8045 511.909 49.2962 510.845C49.7879 509.781 50.4081 508.801 51.1567 507.906H52.907C51.8429 509.3 51.0429 510.848 50.5072 512.551C49.9714 514.254 49.7035 516.004 49.7035 517.802C49.7035 518.976 49.821 520.136 50.0558 521.281C50.298 522.418 50.6539 523.516 51.1236 524.572C51.6007 525.629 52.1878 526.627 52.885 527.567H51.1567C50.4081 526.686 49.7879 525.725 49.2962 524.683C48.8045 523.648 48.4376 522.551 48.1954 521.391C47.9605 520.231 47.8431 519.042 47.8431 517.824ZM68.374 524H66.2163L57.4425 510.482H57.3545C57.3765 510.841 57.4022 511.252 57.4315 511.714C57.4609 512.17 57.4829 512.658 57.4976 513.179C57.5196 513.692 57.5306 514.217 57.5306 514.753V524H55.7913V507.906H57.9379L66.6787 521.38H66.7557C66.7411 521.123 66.7227 520.76 66.7007 520.29C66.6787 519.813 66.6567 519.303 66.6347 518.76C66.62 518.21 66.6126 517.699 66.6126 517.23V507.906H68.374V524ZM82.8942 517.945C82.8942 518.936 82.7658 519.82 82.5089 520.598C82.2521 521.376 81.8815 522.033 81.3971 522.569C80.9127 523.105 80.3256 523.516 79.6357 523.802C78.9532 524.081 78.1789 524.22 77.3129 524.22C76.5056 524.22 75.7644 524.081 75.0892 523.802C74.4213 523.516 73.8416 523.105 73.3499 522.569C72.8655 522.033 72.4875 521.376 72.216 520.598C71.9518 519.82 71.8197 518.936 71.8197 517.945C71.8197 516.624 72.0435 515.501 72.4912 514.577C72.9389 513.645 73.5774 512.936 74.4067 512.452C75.2433 511.96 76.2378 511.714 77.39 511.714C78.4908 511.714 79.4522 511.96 80.2742 512.452C81.1035 512.944 81.7457 513.656 82.2007 514.588C82.6631 515.512 82.8942 516.632 82.8942 517.945ZM73.7131 517.945C73.7131 518.914 73.8416 519.754 74.0984 520.466C74.3553 521.178 74.7516 521.729 75.2874 522.118C75.8231 522.507 76.513 522.701 77.357 522.701C78.1936 522.701 78.8798 522.507 79.4155 522.118C79.9586 521.729 80.3586 521.178 80.6155 520.466C80.8723 519.754 81.0008 518.914 81.0008 517.945C81.0008 516.984 80.8723 516.155 80.6155 515.457C80.3586 514.753 79.9623 514.21 79.4266 513.828C78.8908 513.446 78.1973 513.256 77.3459 513.256C76.091 513.256 75.1699 513.67 74.5828 514.5C74.003 515.329 73.7131 516.478 73.7131 517.945ZM89.9507 522.723C90.2516 522.723 90.5598 522.697 90.8754 522.646C91.191 522.595 91.4479 522.532 91.646 522.459V523.879C91.4332 523.974 91.136 524.055 90.7543 524.121C90.38 524.187 90.0131 524.22 89.6535 524.22C89.015 524.22 88.4352 524.11 87.9141 523.89C87.3931 523.662 86.9747 523.281 86.6592 522.745C86.3509 522.209 86.1968 521.468 86.1968 520.521V513.366H84.4795V512.474L86.2078 511.759L86.9344 509.138H88.0352V511.935H91.569V513.366H88.0352V520.466C88.0352 521.222 88.2077 521.787 88.5526 522.162C88.9049 522.536 89.3709 522.723 89.9507 522.723ZM100.222 524V507.906H102.093V524H100.222ZM111.957 511.714C113.388 511.714 114.47 512.067 115.204 512.771C115.938 513.469 116.305 514.591 116.305 516.14V524H114.5V516.261C114.5 515.256 114.269 514.503 113.806 514.004C113.351 513.505 112.65 513.256 111.704 513.256C110.368 513.256 109.428 513.634 108.885 514.39C108.342 515.145 108.071 516.243 108.071 517.681V524H106.243V511.935H107.718L107.994 513.674H108.093C108.35 513.248 108.676 512.892 109.073 512.606C109.469 512.313 109.913 512.092 110.405 511.946C110.896 511.792 111.414 511.714 111.957 511.714ZM123.967 522.723C124.268 522.723 124.576 522.697 124.892 522.646C125.207 522.595 125.464 522.532 125.662 522.459V523.879C125.45 523.974 125.152 524.055 124.771 524.121C124.396 524.187 124.029 524.22 123.67 524.22C123.031 524.22 122.452 524.11 121.93 523.89C121.409 523.662 120.991 523.281 120.675 522.745C120.367 522.209 120.213 521.468 120.213 520.521V513.366H118.496V512.474L120.224 511.759L120.951 509.138H122.052V511.935H125.585V513.366H122.052V520.466C122.052 521.222 122.224 521.787 122.569 522.162C122.921 522.536 123.387 522.723 123.967 522.723ZM132.752 511.714C133.779 511.714 134.66 511.942 135.394 512.397C136.128 512.852 136.689 513.491 137.078 514.313C137.467 515.127 137.662 516.081 137.662 517.175V518.309H129.328C129.35 519.725 129.702 520.804 130.385 521.545C131.068 522.286 132.029 522.657 133.269 522.657C134.032 522.657 134.708 522.587 135.295 522.448C135.882 522.308 136.491 522.103 137.122 521.831V523.439C136.513 523.71 135.908 523.908 135.306 524.033C134.711 524.158 134.007 524.22 133.192 524.22C132.033 524.22 131.02 523.985 130.154 523.516C129.295 523.039 128.627 522.341 128.15 521.424C127.673 520.507 127.435 519.384 127.435 518.055C127.435 516.756 127.651 515.634 128.084 514.687C128.525 513.733 129.141 512.999 129.934 512.485C130.734 511.971 131.673 511.714 132.752 511.714ZM132.73 513.212C131.754 513.212 130.976 513.531 130.396 514.169C129.816 514.808 129.471 515.7 129.361 516.844H135.746C135.739 516.125 135.625 515.494 135.405 514.951C135.192 514.401 134.865 513.975 134.425 513.674C133.985 513.366 133.42 513.212 132.73 513.212ZM146.248 511.714C146.49 511.714 146.744 511.729 147.008 511.759C147.272 511.781 147.507 511.814 147.712 511.858L147.481 513.553C147.283 513.502 147.063 513.461 146.821 513.432C146.579 513.402 146.351 513.388 146.138 513.388C145.654 513.388 145.195 513.487 144.762 513.685C144.336 513.876 143.962 514.155 143.639 514.522C143.316 514.881 143.063 515.318 142.88 515.832C142.696 516.338 142.604 516.903 142.604 517.527V524H140.766V511.935H142.285L142.483 514.158H142.56C142.81 513.711 143.111 513.303 143.463 512.936C143.815 512.562 144.223 512.265 144.685 512.045C145.155 511.825 145.676 511.714 146.248 511.714ZM154.637 511.714C155.664 511.714 156.545 511.942 157.279 512.397C158.013 512.852 158.574 513.491 158.963 514.313C159.352 515.127 159.547 516.081 159.547 517.175V518.309H151.213C151.235 519.725 151.587 520.804 152.27 521.545C152.952 522.286 153.914 522.657 155.154 522.657C155.917 522.657 156.593 522.587 157.18 522.448C157.767 522.308 158.376 522.103 159.007 521.831V523.439C158.398 523.71 157.793 523.908 157.191 524.033C156.596 524.158 155.892 524.22 155.077 524.22C153.918 524.22 152.905 523.985 152.039 523.516C151.18 523.039 150.512 522.341 150.035 521.424C149.558 520.507 149.32 519.384 149.32 518.055C149.32 516.756 149.536 515.634 149.969 514.687C150.41 513.733 151.026 512.999 151.819 512.485C152.619 511.971 153.558 511.714 154.637 511.714ZM154.615 513.212C153.639 513.212 152.861 513.531 152.281 514.169C151.701 514.808 151.356 515.7 151.246 516.844H157.631C157.624 516.125 157.51 515.494 157.29 514.951C157.077 514.401 156.75 513.975 156.31 513.674C155.87 513.366 155.305 513.212 154.615 513.212ZM170.456 520.697C170.456 521.468 170.262 522.118 169.873 522.646C169.491 523.167 168.941 523.56 168.221 523.824C167.509 524.088 166.658 524.22 165.667 524.22C164.823 524.22 164.093 524.154 163.477 524.022C162.86 523.89 162.321 523.703 161.858 523.461V521.776C162.35 522.018 162.937 522.239 163.62 522.437C164.302 522.635 164.999 522.734 165.711 522.734C166.753 522.734 167.509 522.565 167.979 522.228C168.449 521.89 168.684 521.431 168.684 520.852C168.684 520.521 168.588 520.231 168.397 519.982C168.214 519.725 167.902 519.479 167.462 519.244C167.021 519.002 166.412 518.738 165.634 518.452C164.864 518.158 164.196 517.868 163.631 517.582C163.073 517.288 162.64 516.933 162.332 516.514C162.031 516.096 161.88 515.553 161.88 514.885C161.88 513.865 162.291 513.083 163.113 512.54C163.943 511.99 165.029 511.714 166.372 511.714C167.098 511.714 167.777 511.788 168.408 511.935C169.047 512.074 169.641 512.265 170.192 512.507L169.575 513.971C169.076 513.758 168.544 513.579 167.979 513.432C167.414 513.285 166.838 513.212 166.251 513.212C165.407 513.212 164.757 513.351 164.302 513.63C163.855 513.909 163.631 514.29 163.631 514.775C163.631 515.149 163.733 515.457 163.939 515.7C164.152 515.942 164.489 516.169 164.952 516.382C165.414 516.595 166.023 516.844 166.779 517.131C167.535 517.41 168.188 517.699 168.739 518C169.289 518.294 169.711 518.654 170.005 519.079C170.306 519.498 170.456 520.037 170.456 520.697ZM177.292 522.723C177.593 522.723 177.901 522.697 178.217 522.646C178.533 522.595 178.789 522.532 178.988 522.459V523.879C178.775 523.974 178.478 524.055 178.096 524.121C177.722 524.187 177.355 524.22 176.995 524.22C176.357 524.22 175.777 524.11 175.256 523.89C174.735 523.662 174.316 523.281 174.001 522.745C173.693 522.209 173.538 521.468 173.538 520.521V513.366H171.821V512.474L173.549 511.759L174.276 509.138H175.377V511.935H178.911V513.366H175.377V520.466C175.377 521.222 175.549 521.787 175.894 522.162C176.247 522.536 176.713 522.723 177.292 522.723ZM186.077 511.714C187.105 511.714 187.985 511.942 188.719 512.397C189.453 512.852 190.015 513.491 190.403 514.313C190.792 515.127 190.987 516.081 190.987 517.175V518.309H182.653C182.675 519.725 183.028 520.804 183.71 521.545C184.393 522.286 185.354 522.657 186.595 522.657C187.358 522.657 188.033 522.587 188.62 522.448C189.207 522.308 189.816 522.103 190.448 521.831V523.439C189.838 523.71 189.233 523.908 188.631 524.033C188.037 524.158 187.332 524.22 186.517 524.22C185.358 524.22 184.345 523.985 183.479 523.516C182.62 523.039 181.953 522.341 181.476 521.424C180.999 520.507 180.76 519.384 180.76 518.055C180.76 516.756 180.977 515.634 181.41 514.687C181.85 513.733 182.466 512.999 183.259 512.485C184.059 511.971 184.998 511.714 186.077 511.714ZM186.055 513.212C185.079 513.212 184.301 513.531 183.721 514.169C183.142 514.808 182.797 515.7 182.686 516.844H189.071C189.064 516.125 188.95 515.494 188.73 514.951C188.517 514.401 188.191 513.975 187.75 513.674C187.31 513.366 186.745 513.212 186.055 513.212ZM198.385 524.22C196.858 524.22 195.647 523.699 194.752 522.657C193.864 521.615 193.42 520.066 193.42 518.011C193.42 515.934 193.875 514.368 194.785 513.311C195.695 512.247 196.906 511.714 198.418 511.714C199.056 511.714 199.614 511.799 200.091 511.968C200.568 512.136 200.979 512.364 201.324 512.65C201.669 512.929 201.959 513.248 202.194 513.608H202.326C202.296 513.38 202.267 513.069 202.238 512.672C202.208 512.276 202.194 511.953 202.194 511.703V506.871H204.021V524H202.546L202.271 522.283H202.194C201.966 522.642 201.676 522.969 201.324 523.262C200.979 523.556 200.564 523.791 200.08 523.967C199.603 524.136 199.038 524.22 198.385 524.22ZM198.671 522.701C199.963 522.701 200.876 522.334 201.412 521.6C201.948 520.866 202.216 519.776 202.216 518.331V518C202.216 516.467 201.959 515.289 201.445 514.467C200.939 513.645 200.014 513.234 198.671 513.234C197.548 513.234 196.708 513.667 196.15 514.533C195.592 515.391 195.313 516.566 195.313 518.055C195.313 519.538 195.588 520.683 196.139 521.49C196.697 522.297 197.541 522.701 198.671 522.701ZM218.266 511.737C219.704 511.737 220.772 512.059 221.47 512.705C222.167 513.351 222.515 514.382 222.515 515.799V524H221.183L220.831 522.217H220.743C220.405 522.657 220.053 523.028 219.686 523.328C219.319 523.622 218.894 523.846 218.409 524C217.932 524.147 217.345 524.22 216.648 524.22C215.914 524.22 215.261 524.092 214.688 523.835C214.123 523.578 213.675 523.189 213.345 522.668C213.022 522.147 212.861 521.486 212.861 520.686C212.861 519.483 213.338 518.558 214.292 517.912C215.246 517.266 216.699 516.914 218.651 516.855L220.732 516.767V516.03C220.732 514.988 220.508 514.257 220.06 513.839C219.613 513.421 218.982 513.212 218.167 513.212C217.536 513.212 216.934 513.303 216.362 513.487C215.789 513.67 215.246 513.887 214.732 514.136L214.171 512.749C214.714 512.47 215.338 512.232 216.042 512.034C216.747 511.836 217.488 511.737 218.266 511.737ZM220.71 518.055L218.872 518.132C217.367 518.191 216.307 518.437 215.69 518.87C215.074 519.303 214.765 519.916 214.765 520.708C214.765 521.398 214.974 521.908 215.393 522.239C215.811 522.569 216.365 522.734 217.055 522.734C218.127 522.734 219.004 522.437 219.686 521.842C220.369 521.248 220.71 520.356 220.71 519.167V518.055ZM230.177 522.723C230.478 522.723 230.786 522.697 231.102 522.646C231.418 522.595 231.674 522.532 231.873 522.459V523.879C231.66 523.974 231.363 524.055 230.981 524.121C230.607 524.187 230.24 524.22 229.88 524.22C229.242 524.22 228.662 524.11 228.141 523.89C227.62 523.662 227.201 523.281 226.886 522.745C226.577 522.209 226.423 521.468 226.423 520.521V513.366H224.706V512.474L226.434 511.759L227.161 509.138H228.262V511.935H231.796V513.366H228.262V520.466C228.262 521.222 228.434 521.787 228.779 522.162C229.131 522.536 229.597 522.723 230.177 522.723ZM244.686 511.737C246.125 511.737 247.193 512.059 247.89 512.705C248.587 513.351 248.936 514.382 248.936 515.799V524H247.604L247.251 522.217H247.163C246.826 522.657 246.474 523.028 246.107 523.328C245.74 523.622 245.314 523.846 244.83 524C244.353 524.147 243.765 524.22 243.068 524.22C242.334 524.22 241.681 524.092 241.109 523.835C240.544 523.578 240.096 523.189 239.766 522.668C239.443 522.147 239.281 521.486 239.281 520.686C239.281 519.483 239.758 518.558 240.712 517.912C241.666 517.266 243.12 516.914 245.072 516.855L247.152 516.767V516.03C247.152 514.988 246.929 514.257 246.481 513.839C246.033 513.421 245.402 513.212 244.587 513.212C243.956 513.212 243.354 513.303 242.782 513.487C242.21 513.67 241.666 513.887 241.153 514.136L240.591 512.749C241.134 512.47 241.758 512.232 242.463 512.034C243.167 511.836 243.909 511.737 244.686 511.737ZM247.13 518.055L245.292 518.132C243.787 518.191 242.727 518.437 242.11 518.87C241.494 519.303 241.186 519.916 241.186 520.708C241.186 521.398 241.395 521.908 241.813 522.239C242.232 522.569 242.786 522.734 243.476 522.734C244.547 522.734 245.424 522.437 246.107 521.842C246.789 521.248 247.13 520.356 247.13 519.167V518.055ZM254.539 524H252.701V506.871H254.539V524ZM260.242 524H258.403V506.871H260.242V524ZM267.925 517.802C267.925 519.028 267.804 520.224 267.562 521.391C267.327 522.551 266.964 523.651 266.472 524.694C265.988 525.736 265.368 526.693 264.612 527.567H262.884C263.588 526.635 264.175 525.637 264.645 524.572C265.122 523.508 265.478 522.407 265.713 521.27C265.955 520.125 266.076 518.965 266.076 517.791C266.076 516.595 265.955 515.417 265.713 514.257C265.471 513.098 265.111 511.982 264.634 510.911C264.164 509.839 263.573 508.838 262.862 507.906H264.612C265.368 508.808 265.988 509.792 266.472 510.856C266.964 511.913 267.327 513.028 267.562 514.202C267.804 515.369 267.925 516.569 267.925 517.802Z" fill="black"/>
<rect x="289.182" y="504.932" width="21.1364" height="21.1364" rx="3.52273" fill="#F4C3C1"/>
<path d="M329.022 524H318.476V522.47L322.78 518.099C323.58 517.292 324.251 516.573 324.795 515.942C325.345 515.311 325.763 514.69 326.049 514.081C326.336 513.465 326.479 512.79 326.479 512.056C326.479 511.146 326.207 510.452 325.664 509.975C325.128 509.491 324.42 509.249 323.54 509.249C322.769 509.249 322.086 509.381 321.492 509.645C320.898 509.909 320.288 510.283 319.665 510.768L318.685 509.535C319.11 509.175 319.573 508.856 320.072 508.577C320.578 508.298 321.118 508.078 321.69 507.917C322.27 507.755 322.886 507.674 323.54 507.674C324.53 507.674 325.385 507.847 326.105 508.192C326.824 508.537 327.378 509.028 327.767 509.667C328.163 510.305 328.361 511.065 328.361 511.946C328.361 512.797 328.192 513.59 327.855 514.324C327.517 515.05 327.044 515.773 326.435 516.492C325.826 517.204 325.114 517.96 324.299 518.76L320.798 522.25V522.327H329.022V524ZM337.025 517.824C337.025 516.584 337.142 515.377 337.377 514.202C337.619 513.028 337.986 511.909 338.478 510.845C338.97 509.781 339.59 508.801 340.339 507.906H342.089C341.025 509.3 340.225 510.848 339.689 512.551C339.153 514.254 338.885 516.004 338.885 517.802C338.885 518.976 339.003 520.136 339.238 521.281C339.48 522.418 339.836 523.516 340.306 524.572C340.783 525.629 341.37 526.627 342.067 527.567H340.339C339.59 526.686 338.97 525.725 338.478 524.683C337.986 523.648 337.619 522.551 337.377 521.391C337.142 520.231 337.025 519.042 337.025 517.824ZM354.055 519.718C354.055 520.672 353.817 521.486 353.34 522.162C352.87 522.829 352.209 523.339 351.358 523.692C350.507 524.044 349.505 524.22 348.353 524.22C347.744 524.22 347.168 524.191 346.624 524.132C346.081 524.073 345.582 523.989 345.127 523.879C344.672 523.769 344.272 523.633 343.927 523.472V521.677C344.478 521.905 345.149 522.118 345.942 522.316C346.735 522.507 347.564 522.602 348.43 522.602C349.237 522.602 349.92 522.496 350.477 522.283C351.035 522.063 351.457 521.751 351.743 521.347C352.037 520.936 352.184 520.444 352.184 519.872C352.184 519.321 352.063 518.863 351.82 518.496C351.578 518.121 351.175 517.784 350.61 517.483C350.052 517.175 349.288 516.848 348.32 516.503C347.637 516.261 347.035 515.997 346.514 515.711C345.993 515.417 345.557 515.087 345.204 514.72C344.852 514.353 344.584 513.927 344.401 513.443C344.225 512.958 344.136 512.404 344.136 511.781C344.136 510.922 344.353 510.188 344.786 509.579C345.226 508.962 345.832 508.493 346.602 508.17C347.38 507.839 348.272 507.674 349.277 507.674C350.136 507.674 350.929 507.755 351.655 507.917C352.389 508.078 353.061 508.295 353.67 508.566L353.086 510.173C352.507 509.931 351.89 509.729 351.237 509.568C350.591 509.406 349.923 509.326 349.233 509.326C348.544 509.326 347.96 509.428 347.483 509.634C347.013 509.832 346.654 510.115 346.404 510.482C346.155 510.848 346.03 511.285 346.03 511.792C346.03 512.357 346.147 512.826 346.382 513.201C346.624 513.575 347.006 513.909 347.527 514.202C348.056 514.489 348.753 514.79 349.619 515.105C350.565 515.45 351.369 515.817 352.03 516.206C352.69 516.588 353.193 517.057 353.538 517.615C353.883 518.165 354.055 518.866 354.055 519.718ZM358.91 524H357.072V506.871H358.91V524ZM364.601 511.935V524H362.774V511.935H364.601ZM363.71 507.421C364.011 507.421 364.267 507.52 364.48 507.718C364.7 507.909 364.81 508.21 364.81 508.621C364.81 509.025 364.7 509.326 364.48 509.524C364.267 509.722 364.011 509.821 363.71 509.821C363.394 509.821 363.13 509.722 362.917 509.524C362.712 509.326 362.609 509.025 362.609 508.621C362.609 508.21 362.712 507.909 362.917 507.718C363.13 507.52 363.394 507.421 363.71 507.421ZM371.845 529.416C370.26 529.416 369.038 529.119 368.179 528.525C367.32 527.937 366.891 527.112 366.891 526.048C366.891 525.292 367.13 524.646 367.607 524.11C368.091 523.574 368.759 523.218 369.61 523.042C369.295 522.895 369.023 522.675 368.796 522.382C368.575 522.088 368.465 521.751 368.465 521.369C368.465 520.929 368.586 520.543 368.829 520.213C369.078 519.875 369.456 519.553 369.962 519.244C369.331 518.987 368.818 518.554 368.421 517.945C368.032 517.329 367.838 516.613 367.838 515.799C367.838 514.933 368.018 514.195 368.377 513.586C368.737 512.969 369.258 512.5 369.94 512.177C370.623 511.854 371.449 511.692 372.417 511.692C372.63 511.692 372.843 511.703 373.056 511.725C373.276 511.74 373.485 511.766 373.683 511.803C373.882 511.832 374.054 511.869 374.201 511.913H378.34V513.091L376.116 513.366C376.336 513.652 376.52 513.997 376.667 514.401C376.813 514.804 376.887 515.252 376.887 515.744C376.887 516.947 376.48 517.905 375.665 518.617C374.85 519.321 373.731 519.674 372.307 519.674C371.97 519.674 371.625 519.644 371.273 519.586C370.913 519.784 370.638 520.004 370.447 520.246C370.263 520.488 370.172 520.767 370.172 521.083C370.172 521.318 370.241 521.505 370.381 521.644C370.528 521.784 370.737 521.886 371.008 521.952C371.28 522.011 371.606 522.04 371.988 522.04H374.113C375.426 522.04 376.432 522.316 377.129 522.866C377.834 523.417 378.186 524.22 378.186 525.277C378.186 526.613 377.643 527.636 376.557 528.348C375.47 529.06 373.9 529.416 371.845 529.416ZM371.9 527.985C372.898 527.985 373.724 527.882 374.377 527.677C375.037 527.479 375.529 527.189 375.852 526.807C376.182 526.433 376.347 525.985 376.347 525.464C376.347 524.98 376.237 524.613 376.017 524.363C375.797 524.121 375.474 523.96 375.048 523.879C374.623 523.791 374.102 523.747 373.485 523.747H371.394C370.851 523.747 370.377 523.831 369.973 524C369.57 524.169 369.258 524.418 369.038 524.749C368.825 525.079 368.719 525.49 368.719 525.982C368.719 526.635 368.994 527.13 369.544 527.468C370.095 527.813 370.88 527.985 371.9 527.985ZM372.373 518.342C373.247 518.342 373.904 518.121 374.344 517.681C374.784 517.241 375.004 516.599 375.004 515.755C375.004 514.852 374.781 514.177 374.333 513.729C373.885 513.274 373.225 513.047 372.351 513.047C371.515 513.047 370.869 513.281 370.414 513.751C369.966 514.213 369.742 514.892 369.742 515.788C369.742 516.61 369.97 517.241 370.425 517.681C370.88 518.121 371.529 518.342 372.373 518.342ZM382.545 506.871V511.99C382.545 512.283 382.538 512.58 382.523 512.881C382.509 513.175 382.483 513.446 382.446 513.696H382.567C382.817 513.27 383.132 512.914 383.514 512.628C383.903 512.335 384.343 512.114 384.835 511.968C385.327 511.814 385.848 511.737 386.398 511.737C387.367 511.737 388.174 511.891 388.82 512.199C389.473 512.507 389.961 512.984 390.284 513.63C390.614 514.276 390.78 515.112 390.78 516.14V524H388.974V516.261C388.974 515.256 388.743 514.503 388.281 514.004C387.826 513.505 387.125 513.256 386.178 513.256C385.283 513.256 384.567 513.428 384.031 513.773C383.503 514.111 383.121 514.61 382.886 515.27C382.659 515.931 382.545 516.738 382.545 517.692V524H380.718V506.871H382.545ZM398.442 522.723C398.742 522.723 399.051 522.697 399.366 522.646C399.682 522.595 399.939 522.532 400.137 522.459V523.879C399.924 523.974 399.627 524.055 399.245 524.121C398.871 524.187 398.504 524.22 398.144 524.22C397.506 524.22 396.926 524.11 396.405 523.89C395.884 523.662 395.466 523.281 395.15 522.745C394.842 522.209 394.688 521.468 394.688 520.521V513.366H392.97V512.474L394.699 511.759L395.425 509.138H396.526V511.935H400.06V513.366H396.526V520.466C396.526 521.222 396.699 521.787 397.043 522.162C397.396 522.536 397.862 522.723 398.442 522.723ZM404.419 524H402.581V506.871H404.419V524ZM406.379 511.935H408.338L411.002 518.936C411.156 519.347 411.299 519.743 411.432 520.125C411.564 520.499 411.681 520.859 411.784 521.204C411.887 521.549 411.967 521.883 412.026 522.206H412.103C412.206 521.839 412.353 521.358 412.543 520.763C412.734 520.162 412.94 519.549 413.16 518.925L415.681 511.935H417.651L412.4 525.772C412.121 526.514 411.795 527.159 411.421 527.71C411.054 528.26 410.606 528.682 410.078 528.976C409.549 529.277 408.911 529.427 408.162 529.427C407.817 529.427 407.513 529.405 407.248 529.361C406.984 529.324 406.757 529.28 406.566 529.229V527.765C406.727 527.802 406.922 527.835 407.149 527.864C407.384 527.893 407.626 527.908 407.876 527.908C408.331 527.908 408.723 527.82 409.054 527.644C409.391 527.475 409.681 527.225 409.923 526.895C410.166 526.565 410.375 526.172 410.551 525.717L411.211 524.022L406.379 511.935ZM425.71 524V507.906H427.581V524H425.71ZM437.445 511.714C438.876 511.714 439.958 512.067 440.692 512.771C441.426 513.469 441.793 514.591 441.793 516.14V524H439.988V516.261C439.988 515.256 439.757 514.503 439.294 514.004C438.839 513.505 438.138 513.256 437.192 513.256C435.856 513.256 434.916 513.634 434.373 514.39C433.83 515.145 433.559 516.243 433.559 517.681V524H431.731V511.935H433.206L433.482 513.674H433.581C433.838 513.248 434.164 512.892 434.56 512.606C434.957 512.313 435.401 512.092 435.893 511.946C436.384 511.792 436.902 511.714 437.445 511.714ZM449.455 522.723C449.756 522.723 450.064 522.697 450.38 522.646C450.695 522.595 450.952 522.532 451.15 522.459V523.879C450.938 523.974 450.64 524.055 450.259 524.121C449.884 524.187 449.517 524.22 449.158 524.22C448.519 524.22 447.94 524.11 447.418 523.89C446.897 523.662 446.479 523.281 446.163 522.745C445.855 522.209 445.701 521.468 445.701 520.521V513.366H443.984V512.474L445.712 511.759L446.439 509.138H447.54V511.935H451.073V513.366H447.54V520.466C447.54 521.222 447.712 521.787 448.057 522.162C448.409 522.536 448.875 522.723 449.455 522.723ZM458.24 511.714C459.267 511.714 460.148 511.942 460.882 512.397C461.616 512.852 462.177 513.491 462.566 514.313C462.955 515.127 463.15 516.081 463.15 517.175V518.309H454.816C454.838 519.725 455.19 520.804 455.873 521.545C456.556 522.286 457.517 522.657 458.757 522.657C459.52 522.657 460.196 522.587 460.783 522.448C461.37 522.308 461.979 522.103 462.61 521.831V523.439C462.001 523.71 461.396 523.908 460.794 524.033C460.199 524.158 459.495 524.22 458.68 524.22C457.521 524.22 456.508 523.985 455.642 523.516C454.783 523.039 454.115 522.341 453.638 521.424C453.161 520.507 452.923 519.384 452.923 518.055C452.923 516.756 453.139 515.634 453.572 514.687C454.013 513.733 454.629 512.999 455.422 512.485C456.222 511.971 457.161 511.714 458.24 511.714ZM458.218 513.212C457.242 513.212 456.464 513.531 455.884 514.169C455.304 514.808 454.959 515.7 454.849 516.844H461.234C461.227 516.125 461.113 515.494 460.893 514.951C460.68 514.401 460.353 513.975 459.913 513.674C459.473 513.366 458.908 513.212 458.218 513.212ZM471.736 511.714C471.978 511.714 472.232 511.729 472.496 511.759C472.76 511.781 472.995 511.814 473.2 511.858L472.969 513.553C472.771 513.502 472.551 513.461 472.309 513.432C472.067 513.402 471.839 513.388 471.626 513.388C471.142 513.388 470.683 513.487 470.25 513.685C469.824 513.876 469.45 514.155 469.127 514.522C468.804 514.881 468.551 515.318 468.368 515.832C468.184 516.338 468.092 516.903 468.092 517.527V524H466.254V511.935H467.773L467.971 514.158H468.048C468.298 513.711 468.599 513.303 468.951 512.936C469.303 512.562 469.711 512.265 470.173 512.045C470.643 511.825 471.164 511.714 471.736 511.714ZM480.125 511.714C481.152 511.714 482.033 511.942 482.767 512.397C483.501 512.852 484.062 513.491 484.451 514.313C484.84 515.127 485.035 516.081 485.035 517.175V518.309H476.701C476.723 519.725 477.075 520.804 477.758 521.545C478.44 522.286 479.402 522.657 480.642 522.657C481.405 522.657 482.081 522.587 482.668 522.448C483.255 522.308 483.864 522.103 484.495 521.831V523.439C483.886 523.71 483.281 523.908 482.679 524.033C482.084 524.158 481.38 524.22 480.565 524.22C479.406 524.22 478.393 523.985 477.527 523.516C476.668 523.039 476 522.341 475.523 521.424C475.046 520.507 474.808 519.384 474.808 518.055C474.808 516.756 475.024 515.634 475.457 514.687C475.898 513.733 476.514 512.999 477.307 512.485C478.107 511.971 479.046 511.714 480.125 511.714ZM480.103 513.212C479.127 513.212 478.349 513.531 477.769 514.169C477.189 514.808 476.844 515.7 476.734 516.844H483.119C483.112 516.125 482.998 515.494 482.778 514.951C482.565 514.401 482.238 513.975 481.798 513.674C481.358 513.366 480.793 513.212 480.103 513.212ZM495.944 520.697C495.944 521.468 495.75 522.118 495.361 522.646C494.979 523.167 494.429 523.56 493.709 523.824C492.997 524.088 492.146 524.22 491.155 524.22C490.311 524.22 489.581 524.154 488.965 524.022C488.348 523.89 487.809 523.703 487.346 523.461V521.776C487.838 522.018 488.425 522.239 489.108 522.437C489.79 522.635 490.487 522.734 491.199 522.734C492.241 522.734 492.997 522.565 493.467 522.228C493.937 521.89 494.172 521.431 494.172 520.852C494.172 520.521 494.076 520.231 493.885 519.982C493.702 519.725 493.39 519.479 492.95 519.244C492.509 519.002 491.9 518.738 491.122 518.452C490.352 518.158 489.684 517.868 489.119 517.582C488.561 517.288 488.128 516.933 487.82 516.514C487.519 516.096 487.368 515.553 487.368 514.885C487.368 513.865 487.779 513.083 488.601 512.54C489.431 511.99 490.517 511.714 491.86 511.714C492.586 511.714 493.265 511.788 493.896 511.935C494.535 512.074 495.129 512.265 495.68 512.507L495.063 513.971C494.564 513.758 494.032 513.579 493.467 513.432C492.902 513.285 492.326 513.212 491.739 513.212C490.895 513.212 490.245 513.351 489.79 513.63C489.343 513.909 489.119 514.29 489.119 514.775C489.119 515.149 489.221 515.457 489.427 515.7C489.64 515.942 489.977 516.169 490.44 516.382C490.902 516.595 491.511 516.844 492.267 517.131C493.023 517.41 493.676 517.699 494.227 518C494.777 518.294 495.199 518.654 495.493 519.079C495.794 519.498 495.944 520.037 495.944 520.697ZM502.78 522.723C503.081 522.723 503.389 522.697 503.705 522.646C504.021 522.595 504.277 522.532 504.476 522.459V523.879C504.263 523.974 503.966 524.055 503.584 524.121C503.21 524.187 502.843 524.22 502.483 524.22C501.845 524.22 501.265 524.11 500.744 523.89C500.223 523.662 499.804 523.281 499.489 522.745C499.181 522.209 499.026 521.468 499.026 520.521V513.366H497.309V512.474L499.037 511.759L499.764 509.138H500.865V511.935H504.399V513.366H500.865V520.466C500.865 521.222 501.037 521.787 501.382 522.162C501.735 522.536 502.201 522.723 502.78 522.723ZM511.565 511.714C512.593 511.714 513.473 511.942 514.207 512.397C514.941 512.852 515.502 513.491 515.891 514.313C516.28 515.127 516.475 516.081 516.475 517.175V518.309H508.141C508.163 519.725 508.516 520.804 509.198 521.545C509.881 522.286 510.842 522.657 512.083 522.657C512.846 522.657 513.521 522.587 514.108 522.448C514.695 522.308 515.304 522.103 515.935 521.831V523.439C515.326 523.71 514.721 523.908 514.119 524.033C513.525 524.158 512.82 524.22 512.005 524.22C510.846 524.22 509.833 523.985 508.967 523.516C508.108 523.039 507.441 522.341 506.964 521.424C506.487 520.507 506.248 519.384 506.248 518.055C506.248 516.756 506.464 515.634 506.898 514.687C507.338 513.733 507.954 512.999 508.747 512.485C509.547 511.971 510.486 511.714 511.565 511.714ZM511.543 513.212C510.567 513.212 509.789 513.531 509.209 514.169C508.63 514.808 508.285 515.7 508.174 516.844H514.559C514.552 516.125 514.438 515.494 514.218 514.951C514.005 514.401 513.679 513.975 513.238 513.674C512.798 513.366 512.233 513.212 511.543 513.212ZM523.873 524.22C522.346 524.22 521.135 523.699 520.24 522.657C519.352 521.615 518.908 520.066 518.908 518.011C518.908 515.934 519.363 514.368 520.273 513.311C521.183 512.247 522.394 511.714 523.906 511.714C524.544 511.714 525.102 511.799 525.579 511.968C526.056 512.136 526.467 512.364 526.812 512.65C527.157 512.929 527.447 513.248 527.682 513.608H527.814C527.784 513.38 527.755 513.069 527.726 512.672C527.696 512.276 527.682 511.953 527.682 511.703V506.871H529.509V524H528.034L527.759 522.283H527.682C527.454 522.642 527.164 522.969 526.812 523.262C526.467 523.556 526.052 523.791 525.568 523.967C525.091 524.136 524.526 524.22 523.873 524.22ZM524.159 522.701C525.451 522.701 526.364 522.334 526.9 521.6C527.436 520.866 527.704 519.776 527.704 518.331V518C527.704 516.467 527.447 515.289 526.933 514.467C526.427 513.645 525.502 513.234 524.159 513.234C523.036 513.234 522.196 513.667 521.638 514.533C521.08 515.391 520.801 516.566 520.801 518.055C520.801 519.538 521.076 520.683 521.627 521.49C522.185 522.297 523.029 522.701 524.159 522.701ZM537.204 517.802C537.204 519.028 537.083 520.224 536.841 521.391C536.606 522.551 536.243 523.651 535.751 524.694C535.266 525.736 534.646 526.693 533.89 527.567H532.162C532.867 526.635 533.454 525.637 533.923 524.572C534.4 523.508 534.756 522.407 534.991 521.27C535.233 520.125 535.355 518.965 535.355 517.791C535.355 516.595 535.233 515.417 534.991 514.257C534.749 513.098 534.389 511.982 533.912 510.911C533.443 509.839 532.852 508.838 532.14 507.906H533.89C534.646 508.808 535.266 509.792 535.751 510.856C536.243 511.913 536.606 513.028 536.841 514.202C537.083 515.369 537.204 516.569 537.204 517.802Z" fill="black"/>
<rect x="558.364" y="504.932" width="21.1364" height="21.1364" rx="3.52273" fill="#EF9F93"/>
<path d="M597.609 511.659C597.609 512.379 597.47 513.002 597.191 513.531C596.912 514.059 596.523 514.492 596.024 514.83C595.525 515.16 594.938 515.391 594.263 515.523V515.612C595.54 515.773 596.497 516.184 597.136 516.844C597.782 517.505 598.105 518.371 598.105 519.442C598.105 520.375 597.884 521.2 597.444 521.919C597.011 522.639 596.343 523.204 595.441 523.615C594.545 524.018 593.397 524.22 591.995 524.22C591.144 524.22 590.355 524.15 589.628 524.011C588.909 523.879 588.219 523.655 587.558 523.339V521.622C588.226 521.952 588.953 522.213 589.738 522.404C590.523 522.587 591.283 522.679 592.017 522.679C593.485 522.679 594.545 522.389 595.198 521.809C595.852 521.222 596.178 520.422 596.178 519.409C596.178 518.712 595.995 518.151 595.628 517.725C595.268 517.292 594.747 516.977 594.064 516.778C593.389 516.573 592.575 516.47 591.621 516.47H590.013V514.907H591.632C592.505 514.907 593.246 514.779 593.855 514.522C594.464 514.265 594.927 513.905 595.242 513.443C595.565 512.973 595.727 512.419 595.727 511.781C595.727 510.966 595.455 510.338 594.912 509.898C594.369 509.45 593.631 509.227 592.699 509.227C592.127 509.227 591.606 509.285 591.136 509.403C590.667 509.52 590.226 509.682 589.815 509.887C589.404 510.093 588.993 510.331 588.582 510.603L587.658 509.348C588.245 508.893 588.96 508.5 589.804 508.17C590.648 507.839 591.606 507.674 592.677 507.674C594.321 507.674 595.554 508.049 596.376 508.797C597.198 509.546 597.609 510.5 597.609 511.659ZM606.207 517.824C606.207 516.584 606.324 515.377 606.559 514.202C606.801 513.028 607.168 511.909 607.66 510.845C608.152 509.781 608.772 508.801 609.52 507.906H611.271C610.207 509.3 609.407 510.848 608.871 512.551C608.335 514.254 608.067 516.004 608.067 517.802C608.067 518.976 608.185 520.136 608.42 521.281C608.662 522.418 609.018 523.516 609.487 524.572C609.964 525.629 610.552 526.627 611.249 527.567H609.52C608.772 526.686 608.152 525.725 607.66 524.683C607.168 523.648 606.801 522.551 606.559 521.391C606.324 520.231 606.207 519.042 606.207 517.824ZM621.234 524L615.828 509.755H615.74C615.77 510.056 615.795 510.423 615.817 510.856C615.839 511.289 615.858 511.762 615.872 512.276C615.887 512.782 615.894 513.3 615.894 513.828V524H614.155V507.906H616.929L622.026 521.292H622.103L627.277 507.906H630.029V524H628.18V513.696C628.18 513.219 628.187 512.742 628.202 512.265C628.217 511.781 628.235 511.326 628.257 510.9C628.279 510.467 628.301 510.093 628.323 509.777H628.235L622.764 524H621.234ZM644.561 517.945C644.561 518.936 644.432 519.82 644.175 520.598C643.918 521.376 643.548 522.033 643.063 522.569C642.579 523.105 641.992 523.516 641.302 523.802C640.62 524.081 639.845 524.22 638.979 524.22C638.172 524.22 637.431 524.081 636.756 523.802C636.088 523.516 635.508 523.105 635.016 522.569C634.532 522.033 634.154 521.376 633.882 520.598C633.618 519.82 633.486 518.936 633.486 517.945C633.486 516.624 633.71 515.501 634.158 514.577C634.605 513.645 635.244 512.936 636.073 512.452C636.91 511.96 637.904 511.714 639.056 511.714C640.157 511.714 641.119 511.96 641.941 512.452C642.77 512.944 643.412 513.656 643.867 514.588C644.329 515.512 644.561 516.632 644.561 517.945ZM635.379 517.945C635.379 518.914 635.508 519.754 635.765 520.466C636.022 521.178 636.418 521.729 636.954 522.118C637.489 522.507 638.179 522.701 639.023 522.701C639.86 522.701 640.546 522.507 641.082 522.118C641.625 521.729 642.025 521.178 642.282 520.466C642.539 519.754 642.667 518.914 642.667 517.945C642.667 516.984 642.539 516.155 642.282 515.457C642.025 514.753 641.629 514.21 641.093 513.828C640.557 513.446 639.864 513.256 639.012 513.256C637.757 513.256 636.836 513.67 636.249 514.5C635.669 515.329 635.379 516.478 635.379 517.945ZM652.013 524.22C650.487 524.22 649.276 523.699 648.381 522.657C647.493 521.615 647.048 520.066 647.048 518.011C647.048 515.934 647.504 514.368 648.414 513.311C649.324 512.247 650.535 511.714 652.046 511.714C652.685 511.714 653.243 511.799 653.72 511.968C654.197 512.136 654.608 512.364 654.953 512.65C655.298 512.929 655.587 513.248 655.822 513.608H655.954C655.925 513.38 655.896 513.069 655.866 512.672C655.837 512.276 655.822 511.953 655.822 511.703V506.871H657.65V524H656.175L655.899 522.283H655.822C655.595 522.642 655.305 522.969 654.953 523.262C654.608 523.556 654.193 523.791 653.709 523.967C653.232 524.136 652.667 524.22 652.013 524.22ZM652.3 522.701C653.591 522.701 654.505 522.334 655.041 521.6C655.576 520.866 655.844 519.776 655.844 518.331V518C655.844 516.467 655.587 515.289 655.074 514.467C654.567 513.645 653.643 513.234 652.3 513.234C651.177 513.234 650.336 513.667 649.779 514.533C649.221 515.391 648.942 516.566 648.942 518.055C648.942 519.538 649.217 520.683 649.768 521.49C650.325 522.297 651.169 522.701 652.3 522.701ZM666.17 511.714C667.198 511.714 668.078 511.942 668.812 512.397C669.546 512.852 670.108 513.491 670.497 514.313C670.886 515.127 671.08 516.081 671.08 517.175V518.309H662.747C662.769 519.725 663.121 520.804 663.803 521.545C664.486 522.286 665.447 522.657 666.688 522.657C667.451 522.657 668.126 522.587 668.713 522.448C669.3 522.308 669.91 522.103 670.541 521.831V523.439C669.932 523.71 669.326 523.908 668.724 524.033C668.13 524.158 667.425 524.22 666.611 524.22C665.451 524.22 664.438 523.985 663.572 523.516C662.714 523.039 662.046 522.341 661.569 521.424C661.092 520.507 660.853 519.384 660.853 518.055C660.853 516.756 661.07 515.634 661.503 514.687C661.943 513.733 662.56 512.999 663.352 512.485C664.152 511.971 665.091 511.714 666.17 511.714ZM666.148 513.212C665.172 513.212 664.394 513.531 663.814 514.169C663.235 514.808 662.89 515.7 662.78 516.844H669.165C669.157 516.125 669.044 515.494 668.823 514.951C668.611 514.401 668.284 513.975 667.844 513.674C667.403 513.366 666.838 513.212 666.148 513.212ZM676.023 524H674.185V506.871H676.023V524ZM684.4 511.737C685.839 511.737 686.907 512.059 687.604 512.705C688.301 513.351 688.65 514.382 688.65 515.799V524H687.318L686.965 522.217H686.877C686.54 522.657 686.187 523.028 685.821 523.328C685.454 523.622 685.028 523.846 684.544 524C684.066 524.147 683.479 524.22 682.782 524.22C682.048 524.22 681.395 524.092 680.823 523.835C680.258 523.578 679.81 523.189 679.48 522.668C679.157 522.147 678.995 521.486 678.995 520.686C678.995 519.483 679.472 518.558 680.426 517.912C681.38 517.266 682.834 516.914 684.786 516.855L686.866 516.767V516.03C686.866 514.988 686.642 514.257 686.195 513.839C685.747 513.421 685.116 513.212 684.301 513.212C683.67 513.212 683.068 513.303 682.496 513.487C681.923 513.67 681.38 513.887 680.867 514.136L680.305 512.749C680.848 512.47 681.472 512.232 682.177 512.034C682.881 511.836 683.622 511.737 684.4 511.737ZM686.844 518.055L685.006 518.132C683.501 518.191 682.441 518.437 681.824 518.87C681.208 519.303 680.9 519.916 680.9 520.708C680.9 521.398 681.109 521.908 681.527 522.239C681.946 522.569 682.5 522.734 683.189 522.734C684.261 522.734 685.138 522.437 685.821 521.842C686.503 521.248 686.844 520.356 686.844 519.167V518.055ZM696.312 522.723C696.613 522.723 696.921 522.697 697.236 522.646C697.552 522.595 697.809 522.532 698.007 522.459V523.879C697.794 523.974 697.497 524.055 697.115 524.121C696.741 524.187 696.374 524.22 696.014 524.22C695.376 524.22 694.796 524.11 694.275 523.89C693.754 523.662 693.336 523.281 693.02 522.745C692.712 522.209 692.558 521.468 692.558 520.521V513.366H690.84V512.474L692.569 511.759L693.295 509.138H694.396V511.935H697.93V513.366H694.396V520.466C694.396 521.222 694.569 521.787 694.914 522.162C695.266 522.536 695.732 522.723 696.312 522.723ZM705.096 511.714C706.124 511.714 707.005 511.942 707.738 512.397C708.472 512.852 709.034 513.491 709.423 514.313C709.812 515.127 710.006 516.081 710.006 517.175V518.309H701.673C701.695 519.725 702.047 520.804 702.73 521.545C703.412 522.286 704.374 522.657 705.614 522.657C706.377 522.657 707.052 522.587 707.639 522.448C708.227 522.308 708.836 522.103 709.467 521.831V523.439C708.858 523.71 708.252 523.908 707.65 524.033C707.056 524.158 706.351 524.22 705.537 524.22C704.377 524.22 703.364 523.985 702.498 523.516C701.64 523.039 700.972 522.341 700.495 521.424C700.018 520.507 699.779 519.384 699.779 518.055C699.779 516.756 699.996 515.634 700.429 514.687C700.869 513.733 701.486 512.999 702.278 512.485C703.078 511.971 704.018 511.714 705.096 511.714ZM705.074 513.212C704.098 513.212 703.32 513.531 702.741 514.169C702.161 514.808 701.816 515.7 701.706 516.844H708.091C708.083 516.125 707.97 515.494 707.749 514.951C707.537 514.401 707.21 513.975 706.77 513.674C706.329 513.366 705.764 513.212 705.074 513.212ZM714.949 524H713.111V506.871H714.949V524ZM716.909 511.935H718.868L721.532 518.936C721.686 519.347 721.829 519.743 721.961 520.125C722.094 520.499 722.211 520.859 722.314 521.204C722.417 521.549 722.497 521.883 722.556 522.206H722.633C722.736 521.839 722.883 521.358 723.073 520.763C723.264 520.162 723.47 519.549 723.69 518.925L726.211 511.935H728.181L722.93 525.772C722.651 526.514 722.325 527.159 721.95 527.71C721.584 528.26 721.136 528.682 720.607 528.976C720.079 529.277 719.441 529.427 718.692 529.427C718.347 529.427 718.042 529.405 717.778 529.361C717.514 529.324 717.287 529.28 717.096 529.229V527.765C717.257 527.802 717.452 527.835 717.679 527.864C717.914 527.893 718.156 527.908 718.406 527.908C718.861 527.908 719.253 527.82 719.584 527.644C719.921 527.475 720.211 527.225 720.453 526.895C720.696 526.565 720.905 526.172 721.081 525.717L721.741 524.022L716.909 511.935ZM733.928 517.802C733.928 519.028 733.807 520.224 733.564 521.391C733.33 522.551 732.966 523.651 732.475 524.694C731.99 525.736 731.37 526.693 730.614 527.567H728.886C729.59 526.635 730.178 525.637 730.647 524.572C731.124 523.508 731.48 522.407 731.715 521.27C731.957 520.125 732.078 518.965 732.078 517.791C732.078 516.595 731.957 515.417 731.715 514.257C731.473 513.098 731.113 511.982 730.636 510.911C730.167 509.839 729.576 508.838 728.864 507.906H730.614C731.37 508.808 731.99 509.792 732.475 510.856C732.966 511.913 733.33 513.028 733.564 514.202C733.807 515.369 733.928 516.569 733.928 517.802Z" fill="black"/>
<rect x="107.591" y="555.932" width="21.1364" height="21.1364" rx="3.52273" fill="#E8706D"/>
<path d="M148.234 571.268H145.823V575H144.04V571.268H136.257V569.727L143.919 558.817H145.823V569.617H148.234V571.268ZM144.04 569.617V564.355C144.04 563.951 144.044 563.588 144.051 563.265C144.058 562.935 144.069 562.63 144.084 562.351C144.099 562.065 144.11 561.793 144.117 561.537C144.132 561.28 144.143 561.027 144.15 560.777H144.062C143.923 561.071 143.761 561.382 143.578 561.713C143.402 562.036 143.222 562.326 143.038 562.582L138.073 569.617H144.04ZM155.434 568.824C155.434 567.584 155.551 566.377 155.786 565.202C156.028 564.028 156.395 562.909 156.887 561.845C157.379 560.781 157.999 559.801 158.747 558.906H160.498C159.434 560.3 158.634 561.848 158.098 563.551C157.562 565.254 157.294 567.004 157.294 568.802C157.294 569.976 157.412 571.136 157.647 572.281C157.889 573.418 158.245 574.516 158.714 575.572C159.192 576.629 159.779 577.627 160.476 578.567H158.747C157.999 577.686 157.379 576.725 156.887 575.683C156.395 574.648 156.028 573.551 155.786 572.391C155.551 571.231 155.434 570.042 155.434 568.824ZM174.622 558.906L168.842 575H166.96L161.18 558.906H163.14L166.905 569.507C167.059 569.932 167.195 570.34 167.312 570.729C167.437 571.118 167.547 571.492 167.642 571.852C167.738 572.211 167.822 572.56 167.896 572.897C167.969 572.56 168.053 572.211 168.149 571.852C168.244 571.485 168.354 571.107 168.479 570.718C168.604 570.321 168.743 569.907 168.897 569.474L172.64 558.906H174.622ZM181.205 562.714C182.232 562.714 183.113 562.942 183.847 563.397C184.581 563.852 185.142 564.491 185.531 565.313C185.92 566.127 186.115 567.081 186.115 568.175V569.309H177.781C177.803 570.725 178.156 571.804 178.838 572.545C179.521 573.286 180.482 573.657 181.722 573.657C182.486 573.657 183.161 573.587 183.748 573.448C184.335 573.308 184.944 573.103 185.575 572.831V574.439C184.966 574.71 184.361 574.908 183.759 575.033C183.164 575.158 182.46 575.22 181.645 575.22C180.486 575.22 179.473 574.985 178.607 574.516C177.748 574.039 177.08 573.341 176.603 572.424C176.126 571.507 175.888 570.384 175.888 569.055C175.888 567.756 176.104 566.634 176.537 565.687C176.978 564.733 177.594 563.999 178.387 563.485C179.187 562.971 180.126 562.714 181.205 562.714ZM181.183 564.212C180.207 564.212 179.429 564.531 178.849 565.169C178.269 565.808 177.924 566.7 177.814 567.844H184.199C184.192 567.125 184.078 566.494 183.858 565.951C183.645 565.401 183.319 564.975 182.878 564.674C182.438 564.366 181.873 564.212 181.183 564.212ZM194.701 562.714C194.944 562.714 195.197 562.729 195.461 562.759C195.725 562.781 195.96 562.814 196.165 562.858L195.934 564.553C195.736 564.502 195.516 564.461 195.274 564.432C195.032 564.402 194.804 564.388 194.591 564.388C194.107 564.388 193.648 564.487 193.215 564.685C192.79 564.876 192.415 565.155 192.092 565.522C191.769 565.881 191.516 566.318 191.333 566.832C191.149 567.338 191.058 567.903 191.058 568.527V575H189.219V562.935H190.738L190.936 565.158H191.013C191.263 564.711 191.564 564.303 191.916 563.936C192.268 563.562 192.676 563.265 193.138 563.045C193.608 562.825 194.129 562.714 194.701 562.714ZM196.54 562.935H198.499L201.163 569.936C201.317 570.347 201.461 570.743 201.593 571.125C201.725 571.499 201.842 571.859 201.945 572.204C202.048 572.549 202.128 572.883 202.187 573.206H202.264C202.367 572.839 202.514 572.358 202.705 571.763C202.895 571.162 203.101 570.549 203.321 569.925L205.842 562.935H207.812L202.561 576.772C202.283 577.514 201.956 578.159 201.582 578.71C201.215 579.26 200.767 579.682 200.239 579.976C199.71 580.277 199.072 580.427 198.323 580.427C197.978 580.427 197.674 580.405 197.409 580.361C197.145 580.324 196.918 580.28 196.727 580.229V578.765C196.888 578.802 197.083 578.835 197.31 578.864C197.545 578.893 197.787 578.908 198.037 578.908C198.492 578.908 198.885 578.82 199.215 578.644C199.552 578.475 199.842 578.225 200.084 577.895C200.327 577.565 200.536 577.172 200.712 576.717L201.372 575.022L196.54 562.935ZM215.871 575V558.906H217.742V575H215.871ZM227.606 562.714C229.037 562.714 230.119 563.067 230.853 563.771C231.587 564.469 231.954 565.591 231.954 567.14V575H230.149V567.261C230.149 566.256 229.918 565.503 229.455 565.004C229 564.505 228.299 564.256 227.353 564.256C226.017 564.256 225.078 564.634 224.534 565.39C223.991 566.145 223.72 567.243 223.72 568.681V575H221.892V562.935H223.368L223.643 564.674H223.742C223.999 564.248 224.325 563.892 224.722 563.606C225.118 563.313 225.562 563.092 226.054 562.946C226.545 562.792 227.063 562.714 227.606 562.714ZM239.616 573.723C239.917 573.723 240.225 573.697 240.541 573.646C240.856 573.595 241.113 573.532 241.311 573.459V574.879C241.099 574.974 240.801 575.055 240.42 575.121C240.045 575.187 239.678 575.22 239.319 575.22C238.68 575.22 238.101 575.11 237.58 574.89C237.058 574.662 236.64 574.281 236.325 573.745C236.016 573.209 235.862 572.468 235.862 571.521V564.366H234.145V563.474L235.873 562.759L236.6 560.138H237.701V562.935H241.234V564.366H237.701V571.466C237.701 572.222 237.873 572.787 238.218 573.162C238.57 573.536 239.036 573.723 239.616 573.723ZM248.401 562.714C249.428 562.714 250.309 562.942 251.043 563.397C251.777 563.852 252.338 564.491 252.727 565.313C253.116 566.127 253.311 567.081 253.311 568.175V569.309H244.977C244.999 570.725 245.352 571.804 246.034 572.545C246.717 573.286 247.678 573.657 248.918 573.657C249.682 573.657 250.357 573.587 250.944 573.448C251.531 573.308 252.14 573.103 252.771 572.831V574.439C252.162 574.71 251.557 574.908 250.955 575.033C250.36 575.158 249.656 575.22 248.841 575.22C247.682 575.22 246.669 574.985 245.803 574.516C244.944 574.039 244.276 573.341 243.799 572.424C243.322 571.507 243.084 570.384 243.084 569.055C243.084 567.756 243.3 566.634 243.733 565.687C244.174 564.733 244.79 563.999 245.583 563.485C246.383 562.971 247.322 562.714 248.401 562.714ZM248.379 564.212C247.403 564.212 246.625 564.531 246.045 565.169C245.465 565.808 245.12 566.7 245.01 567.844H251.395C251.388 567.125 251.274 566.494 251.054 565.951C250.841 565.401 250.515 564.975 250.074 564.674C249.634 564.366 249.069 564.212 248.379 564.212ZM261.897 562.714C262.14 562.714 262.393 562.729 262.657 562.759C262.921 562.781 263.156 562.814 263.361 562.858L263.13 564.553C262.932 564.502 262.712 564.461 262.47 564.432C262.228 564.402 262 564.388 261.787 564.388C261.303 564.388 260.844 564.487 260.411 564.685C259.986 564.876 259.611 565.155 259.288 565.522C258.965 565.881 258.712 566.318 258.529 566.832C258.345 567.338 258.254 567.903 258.254 568.527V575H256.415V562.935H257.934L258.132 565.158H258.209C258.459 564.711 258.76 564.303 259.112 563.936C259.464 563.562 259.872 563.265 260.334 563.045C260.804 562.825 261.325 562.714 261.897 562.714ZM270.286 562.714C271.313 562.714 272.194 562.942 272.928 563.397C273.662 563.852 274.223 564.491 274.612 565.313C275.001 566.127 275.196 567.081 275.196 568.175V569.309H266.862C266.884 570.725 267.236 571.804 267.919 572.545C268.602 573.286 269.563 573.657 270.803 573.657C271.566 573.657 272.242 573.587 272.829 573.448C273.416 573.308 274.025 573.103 274.656 572.831V574.439C274.047 574.71 273.442 574.908 272.84 575.033C272.245 575.158 271.541 575.22 270.726 575.22C269.567 575.22 268.554 574.985 267.688 574.516C266.829 574.039 266.161 573.341 265.684 572.424C265.207 571.507 264.969 570.384 264.969 569.055C264.969 567.756 265.185 566.634 265.618 565.687C266.059 564.733 266.675 563.999 267.468 563.485C268.268 562.971 269.207 562.714 270.286 562.714ZM270.264 564.212C269.288 564.212 268.51 564.531 267.93 565.169C267.35 565.808 267.005 566.7 266.895 567.844H273.28C273.273 567.125 273.159 566.494 272.939 565.951C272.726 565.401 272.399 564.975 271.959 564.674C271.519 564.366 270.954 564.212 270.264 564.212ZM286.105 571.697C286.105 572.468 285.911 573.118 285.522 573.646C285.14 574.167 284.59 574.56 283.87 574.824C283.158 575.088 282.307 575.22 281.316 575.22C280.472 575.22 279.742 575.154 279.126 575.022C278.509 574.89 277.97 574.703 277.507 574.461V572.776C277.999 573.018 278.586 573.239 279.269 573.437C279.951 573.635 280.649 573.734 281.36 573.734C282.403 573.734 283.158 573.565 283.628 573.228C284.098 572.89 284.333 572.431 284.333 571.852C284.333 571.521 284.237 571.231 284.046 570.982C283.863 570.725 283.551 570.479 283.111 570.244C282.67 570.002 282.061 569.738 281.283 569.452C280.513 569.158 279.845 568.868 279.28 568.582C278.722 568.288 278.289 567.933 277.981 567.514C277.68 567.096 277.529 566.553 277.529 565.885C277.529 564.865 277.94 564.083 278.762 563.54C279.592 562.99 280.678 562.714 282.021 562.714C282.747 562.714 283.426 562.788 284.057 562.935C284.696 563.074 285.29 563.265 285.841 563.507L285.224 564.971C284.725 564.758 284.193 564.579 283.628 564.432C283.063 564.285 282.487 564.212 281.9 564.212C281.056 564.212 280.406 564.351 279.951 564.63C279.504 564.909 279.28 565.29 279.28 565.775C279.28 566.149 279.383 566.457 279.588 566.7C279.801 566.942 280.138 567.169 280.601 567.382C281.063 567.595 281.672 567.844 282.428 568.131C283.184 568.41 283.837 568.699 284.388 569C284.938 569.294 285.36 569.654 285.654 570.079C285.955 570.498 286.105 571.037 286.105 571.697ZM293.69 562.714C294.717 562.714 295.598 562.942 296.332 563.397C297.066 563.852 297.627 564.491 298.016 565.313C298.405 566.127 298.6 567.081 298.6 568.175V569.309H290.266C290.288 570.725 290.641 571.804 291.323 572.545C292.006 573.286 292.967 573.657 294.207 573.657C294.971 573.657 295.646 573.587 296.233 573.448C296.82 573.308 297.429 573.103 298.06 572.831V574.439C297.451 574.71 296.846 574.908 296.244 575.033C295.649 575.158 294.945 575.22 294.13 575.22C292.971 575.22 291.958 574.985 291.092 574.516C290.233 574.039 289.565 573.341 289.088 572.424C288.611 571.507 288.373 570.384 288.373 569.055C288.373 567.756 288.589 566.634 289.022 565.687C289.463 564.733 290.079 563.999 290.872 563.485C291.672 562.971 292.611 562.714 293.69 562.714ZM293.668 564.212C292.692 564.212 291.914 564.531 291.334 565.169C290.754 565.808 290.409 566.7 290.299 567.844H296.684C296.677 567.125 296.563 566.494 296.343 565.951C296.13 565.401 295.804 564.975 295.363 564.674C294.923 564.366 294.358 564.212 293.668 564.212ZM305.601 573.723C305.902 573.723 306.21 573.697 306.526 573.646C306.841 573.595 307.098 573.532 307.296 573.459V574.879C307.084 574.974 306.786 575.055 306.405 575.121C306.031 575.187 305.664 575.22 305.304 575.22C304.665 575.22 304.086 575.11 303.565 574.89C303.044 574.662 302.625 574.281 302.31 573.745C302.001 573.209 301.847 572.468 301.847 571.521V564.366H300.13V563.474L301.858 562.759L302.585 560.138H303.686V562.935H307.219V564.366H303.686V571.466C303.686 572.222 303.858 572.787 304.203 573.162C304.555 573.536 305.021 573.723 305.601 573.723ZM314.034 575.22C312.507 575.22 311.296 574.699 310.401 573.657C309.513 572.615 309.069 571.066 309.069 569.011C309.069 566.934 309.524 565.368 310.434 564.311C311.344 563.247 312.555 562.714 314.067 562.714C314.705 562.714 315.263 562.799 315.74 562.968C316.217 563.136 316.628 563.364 316.973 563.65C317.318 563.929 317.608 564.248 317.843 564.608H317.975C317.945 564.38 317.916 564.069 317.887 563.672C317.857 563.276 317.843 562.953 317.843 562.703V557.871H319.67V575H318.195L317.92 573.283H317.843C317.615 573.642 317.325 573.969 316.973 574.262C316.628 574.556 316.213 574.791 315.729 574.967C315.252 575.136 314.687 575.22 314.034 575.22ZM314.32 573.701C315.612 573.701 316.525 573.334 317.061 572.6C317.597 571.866 317.865 570.776 317.865 569.331V569C317.865 567.467 317.608 566.289 317.094 565.467C316.588 564.645 315.663 564.234 314.32 564.234C313.197 564.234 312.357 564.667 311.799 565.533C311.241 566.391 310.962 567.566 310.962 569.055C310.962 570.538 311.238 571.683 311.788 572.49C312.346 573.297 313.19 573.701 314.32 573.701ZM327.365 568.802C327.365 570.028 327.244 571.224 327.002 572.391C326.767 573.551 326.404 574.651 325.912 575.694C325.428 576.736 324.807 577.693 324.051 578.567H322.323C323.028 577.635 323.615 576.637 324.084 575.572C324.562 574.508 324.917 573.407 325.152 572.27C325.394 571.125 325.516 569.965 325.516 568.791C325.516 567.595 325.394 566.417 325.152 565.257C324.91 564.098 324.551 562.982 324.073 561.911C323.604 560.839 323.013 559.838 322.301 558.906H324.051C324.807 559.808 325.428 560.792 325.912 561.856C326.404 562.913 326.767 564.028 327.002 565.202C327.244 566.369 327.365 567.569 327.365 568.802Z" fill="black"/>
<rect x="348.773" y="555.932" width="21.1364" height="21.1364" rx="3.52273" fill="#E5434B"/>
<path d="M383.152 565.158C384.246 565.158 385.196 565.346 386.004 565.72C386.811 566.087 387.435 566.623 387.875 567.327C388.323 568.032 388.547 568.887 388.547 569.892C388.547 570.993 388.308 571.943 387.831 572.743C387.354 573.536 386.668 574.149 385.772 574.582C384.877 575.007 383.806 575.22 382.558 575.22C381.721 575.22 380.943 575.147 380.224 575C379.505 574.853 378.899 574.633 378.408 574.339V572.6C378.943 572.923 379.593 573.18 380.356 573.371C381.119 573.562 381.861 573.657 382.58 573.657C383.395 573.657 384.106 573.529 384.716 573.272C385.332 573.007 385.809 572.611 386.147 572.083C386.492 571.547 386.664 570.875 386.664 570.068C386.664 568.997 386.334 568.171 385.673 567.591C385.02 567.004 383.985 566.711 382.569 566.711C382.114 566.711 381.615 566.747 381.072 566.821C380.529 566.894 380.081 566.975 379.729 567.063L378.804 566.457L379.42 558.906H387.424V560.579H380.984L380.576 565.434C380.855 565.375 381.215 565.316 381.655 565.257C382.096 565.191 382.595 565.158 383.152 565.158ZM396.616 568.824C396.616 567.584 396.733 566.377 396.968 565.202C397.21 564.028 397.577 562.909 398.069 561.845C398.561 560.781 399.181 559.801 399.929 558.906H401.68C400.616 560.3 399.816 561.848 399.28 563.551C398.744 565.254 398.476 567.004 398.476 568.802C398.476 569.976 398.594 571.136 398.829 572.281C399.071 573.418 399.427 574.516 399.896 575.572C400.373 576.629 400.961 577.627 401.658 578.567H399.929C399.181 577.686 398.561 576.725 398.069 575.683C397.577 574.648 397.21 573.551 396.968 572.391C396.733 571.231 396.616 570.042 396.616 568.824ZM413.525 575H404.564V558.906H413.525V560.557H406.435V565.764H413.118V567.393H406.435V573.349H413.525V575ZM419.69 568.824L415.517 562.935H417.609L420.791 567.58L423.961 562.935H426.031L421.858 568.824L426.262 575H424.17L420.791 570.079L417.389 575H415.319L419.69 568.824ZM432.515 573.723C432.816 573.723 433.124 573.697 433.439 573.646C433.755 573.595 434.012 573.532 434.21 573.459V574.879C433.997 574.974 433.7 575.055 433.318 575.121C432.944 575.187 432.577 575.22 432.217 575.22C431.579 575.22 430.999 575.11 430.478 574.89C429.957 574.662 429.539 574.281 429.223 573.745C428.915 573.209 428.761 572.468 428.761 571.521V564.366H427.043V563.474L428.772 562.759L429.498 560.138H430.599V562.935H434.133V564.366H430.599V571.466C430.599 572.222 430.772 572.787 431.117 573.162C431.469 573.536 431.935 573.723 432.515 573.723ZM442.136 562.714C442.378 562.714 442.631 562.729 442.896 562.759C443.16 562.781 443.395 562.814 443.6 562.858L443.369 564.553C443.171 564.502 442.951 564.461 442.708 564.432C442.466 564.402 442.239 564.388 442.026 564.388C441.542 564.388 441.083 564.487 440.65 564.685C440.224 564.876 439.85 565.155 439.527 565.522C439.204 565.881 438.951 566.318 438.767 566.832C438.584 567.338 438.492 567.903 438.492 568.527V575H436.654V562.935H438.173L438.371 565.158H438.448C438.698 564.711 438.999 564.303 439.351 563.936C439.703 563.562 440.11 563.265 440.573 563.045C441.043 562.825 441.564 562.714 442.136 562.714ZM450.525 562.714C451.552 562.714 452.433 562.942 453.167 563.397C453.9 563.852 454.462 564.491 454.851 565.313C455.24 566.127 455.434 567.081 455.434 568.175V569.309H447.101C447.123 570.725 447.475 571.804 448.158 572.545C448.84 573.286 449.802 573.657 451.042 573.657C451.805 573.657 452.48 573.587 453.068 573.448C453.655 573.308 454.264 573.103 454.895 572.831V574.439C454.286 574.71 453.68 574.908 453.079 575.033C452.484 575.158 451.78 575.22 450.965 575.22C449.805 575.22 448.793 574.985 447.927 574.516C447.068 574.039 446.4 573.341 445.923 572.424C445.446 571.507 445.207 570.384 445.207 569.055C445.207 567.756 445.424 566.634 445.857 565.687C446.297 564.733 446.914 563.999 447.706 563.485C448.506 562.971 449.446 562.714 450.525 562.714ZM450.503 564.212C449.526 564.212 448.748 564.531 448.169 565.169C447.589 565.808 447.244 566.7 447.134 567.844H453.519C453.512 567.125 453.398 566.494 453.178 565.951C452.965 565.401 452.638 564.975 452.198 564.674C451.757 564.366 451.192 564.212 450.503 564.212ZM471.639 562.714C472.967 562.714 473.969 563.063 474.644 563.76C475.319 564.45 475.657 565.562 475.657 567.096V575H473.852V567.184C473.852 566.208 473.639 565.478 473.213 564.993C472.795 564.502 472.171 564.256 471.342 564.256C470.175 564.256 469.327 564.593 468.799 565.268C468.27 565.944 468.006 566.938 468.006 568.252V575H466.19V567.184C466.19 566.531 466.094 565.988 465.903 565.555C465.72 565.122 465.441 564.799 465.067 564.586C464.7 564.366 464.234 564.256 463.669 564.256C462.869 564.256 462.227 564.421 461.742 564.751C461.258 565.081 460.906 565.573 460.685 566.226C460.473 566.872 460.366 567.668 460.366 568.615V575H458.539V562.935H460.014L460.289 564.641H460.388C460.63 564.223 460.935 563.87 461.302 563.584C461.669 563.298 462.08 563.081 462.535 562.935C462.99 562.788 463.474 562.714 463.988 562.714C464.905 562.714 465.672 562.887 466.289 563.232C466.913 563.569 467.364 564.087 467.643 564.784H467.742C468.138 564.087 468.681 563.569 469.371 563.232C470.061 562.887 470.817 562.714 471.639 562.714ZM484.057 562.714C485.084 562.714 485.965 562.942 486.699 563.397C487.432 563.852 487.994 564.491 488.383 565.313C488.772 566.127 488.966 567.081 488.966 568.175V569.309H480.633C480.655 570.725 481.007 571.804 481.69 572.545C482.372 573.286 483.334 573.657 484.574 573.657C485.337 573.657 486.012 573.587 486.599 573.448C487.187 573.308 487.796 573.103 488.427 572.831V574.439C487.818 574.71 487.212 574.908 486.61 575.033C486.016 575.158 485.311 575.22 484.497 575.22C483.337 575.22 482.324 574.985 481.458 574.516C480.6 574.039 479.932 573.341 479.455 572.424C478.978 571.507 478.739 570.384 478.739 569.055C478.739 567.756 478.956 566.634 479.389 565.687C479.829 564.733 480.446 563.999 481.238 563.485C482.038 562.971 482.978 562.714 484.057 562.714ZM484.034 564.212C483.058 564.212 482.28 564.531 481.701 565.169C481.121 565.808 480.776 566.7 480.666 567.844H487.051C487.043 567.125 486.93 566.494 486.71 565.951C486.497 565.401 486.17 564.975 485.73 564.674C485.289 564.366 484.724 564.212 484.034 564.212ZM493.909 575H492.071V557.871H493.909V575ZM495.869 562.935H497.828L500.492 569.936C500.646 570.347 500.789 570.743 500.922 571.125C501.054 571.499 501.171 571.859 501.274 572.204C501.377 572.549 501.457 572.883 501.516 573.206H501.593C501.696 572.839 501.843 572.358 502.033 571.763C502.224 571.162 502.43 570.549 502.65 569.925L505.171 562.935H507.141L501.89 576.772C501.611 577.514 501.285 578.159 500.911 578.71C500.544 579.26 500.096 579.682 499.568 579.976C499.039 580.277 498.401 580.427 497.652 580.427C497.307 580.427 497.003 580.405 496.738 580.361C496.474 580.324 496.247 580.28 496.056 580.229V578.765C496.217 578.802 496.412 578.835 496.639 578.864C496.874 578.893 497.116 578.908 497.366 578.908C497.821 578.908 498.213 578.82 498.544 578.644C498.881 578.475 499.171 578.225 499.413 577.895C499.656 577.565 499.865 577.172 500.041 576.717L500.701 575.022L495.869 562.935ZM515.2 575V558.906H517.071V575H515.2ZM526.935 562.714C528.366 562.714 529.448 563.067 530.182 563.771C530.916 564.469 531.283 565.591 531.283 567.14V575H529.478V567.261C529.478 566.256 529.246 565.503 528.784 565.004C528.329 564.505 527.628 564.256 526.682 564.256C525.346 564.256 524.406 564.634 523.863 565.39C523.32 566.145 523.049 567.243 523.049 568.681V575H521.221V562.935H522.696L522.972 564.674H523.071C523.328 564.248 523.654 563.892 524.05 563.606C524.447 563.313 524.891 563.092 525.382 562.946C525.874 562.792 526.392 562.714 526.935 562.714ZM538.945 573.723C539.246 573.723 539.554 573.697 539.87 573.646C540.185 573.595 540.442 573.532 540.64 573.459V574.879C540.427 574.974 540.13 575.055 539.749 575.121C539.374 575.187 539.007 575.22 538.648 575.22C538.009 575.22 537.429 575.11 536.908 574.89C536.387 574.662 535.969 574.281 535.653 573.745C535.345 573.209 535.191 572.468 535.191 571.521V564.366H533.474V563.474L535.202 562.759L535.929 560.138H537.03V562.935H540.563V564.366H537.03V571.466C537.03 572.222 537.202 572.787 537.547 573.162C537.899 573.536 538.365 573.723 538.945 573.723ZM547.73 562.714C548.757 562.714 549.638 562.942 550.372 563.397C551.106 563.852 551.667 564.491 552.056 565.313C552.445 566.127 552.64 567.081 552.64 568.175V569.309H544.306C544.328 570.725 544.68 571.804 545.363 572.545C546.045 573.286 547.007 573.657 548.247 573.657C549.01 573.657 549.686 573.587 550.273 573.448C550.86 573.308 551.469 573.103 552.1 572.831V574.439C551.491 574.71 550.886 574.908 550.284 575.033C549.689 575.158 548.985 575.22 548.17 575.22C547.011 575.22 545.998 574.985 545.132 574.516C544.273 574.039 543.605 573.341 543.128 572.424C542.651 571.507 542.413 570.384 542.413 569.055C542.413 567.756 542.629 566.634 543.062 565.687C543.503 564.733 544.119 563.999 544.912 563.485C545.712 562.971 546.651 562.714 547.73 562.714ZM547.708 564.212C546.732 564.212 545.954 564.531 545.374 565.169C544.794 565.808 544.449 566.7 544.339 567.844H550.724C550.717 567.125 550.603 566.494 550.383 565.951C550.17 565.401 549.843 564.975 549.403 564.674C548.963 564.366 548.398 564.212 547.708 564.212ZM561.226 562.714C561.468 562.714 561.722 562.729 561.986 562.759C562.25 562.781 562.485 562.814 562.69 562.858L562.459 564.553C562.261 564.502 562.041 564.461 561.799 564.432C561.556 564.402 561.329 564.388 561.116 564.388C560.632 564.388 560.173 564.487 559.74 564.685C559.314 564.876 558.94 565.155 558.617 565.522C558.294 565.881 558.041 566.318 557.858 566.832C557.674 567.338 557.582 567.903 557.582 568.527V575H555.744V562.935H557.263L557.461 565.158H557.538C557.788 564.711 558.089 564.303 558.441 563.936C558.793 563.562 559.201 563.265 559.663 563.045C560.133 562.825 560.654 562.714 561.226 562.714ZM572.774 571.697C572.774 572.468 572.58 573.118 572.191 573.646C571.809 574.167 571.259 574.56 570.539 574.824C569.828 575.088 568.976 575.22 567.985 575.22C567.141 575.22 566.411 575.154 565.795 575.022C565.178 574.89 564.639 574.703 564.177 574.461V572.776C564.668 573.018 565.255 573.239 565.938 573.437C566.62 573.635 567.318 573.734 568.03 573.734C569.072 573.734 569.828 573.565 570.297 573.228C570.767 572.89 571.002 572.431 571.002 571.852C571.002 571.521 570.906 571.231 570.716 570.982C570.532 570.725 570.22 570.479 569.78 570.244C569.34 570.002 568.73 569.738 567.952 569.452C567.182 569.158 566.514 568.868 565.949 568.582C565.391 568.288 564.958 567.933 564.65 567.514C564.349 567.096 564.199 566.553 564.199 565.885C564.199 564.865 564.61 564.083 565.431 563.54C566.261 562.99 567.347 562.714 568.69 562.714C569.417 562.714 570.095 562.788 570.727 562.935C571.365 563.074 571.96 563.265 572.51 563.507L571.894 564.971C571.394 564.758 570.862 564.579 570.297 564.432C569.732 564.285 569.156 564.212 568.569 564.212C567.725 564.212 567.075 564.351 566.62 564.63C566.173 564.909 565.949 565.29 565.949 565.775C565.949 566.149 566.052 566.457 566.257 566.7C566.47 566.942 566.808 567.169 567.27 567.382C567.732 567.595 568.341 567.844 569.097 568.131C569.853 568.41 570.506 568.699 571.057 569C571.607 569.294 572.029 569.654 572.323 570.079C572.624 570.498 572.774 571.037 572.774 571.697ZM580.359 562.714C581.387 562.714 582.267 562.942 583.001 563.397C583.735 563.852 584.296 564.491 584.685 565.313C585.074 566.127 585.269 567.081 585.269 568.175V569.309H576.935C576.957 570.725 577.31 571.804 577.992 572.545C578.675 573.286 579.636 573.657 580.876 573.657C581.64 573.657 582.315 573.587 582.902 573.448C583.489 573.308 584.098 573.103 584.729 572.831V574.439C584.12 574.71 583.515 574.908 582.913 575.033C582.319 575.158 581.614 575.22 580.799 575.22C579.64 575.22 578.627 574.985 577.761 574.516C576.902 574.039 576.235 573.341 575.757 572.424C575.28 571.507 575.042 570.384 575.042 569.055C575.042 567.756 575.258 566.634 575.691 565.687C576.132 564.733 576.748 563.999 577.541 563.485C578.341 562.971 579.28 562.714 580.359 562.714ZM580.337 564.212C579.361 564.212 578.583 564.531 578.003 565.169C577.423 565.808 577.079 566.7 576.968 567.844H583.353C583.346 567.125 583.232 566.494 583.012 565.951C582.799 565.401 582.473 564.975 582.032 564.674C581.592 564.366 581.027 564.212 580.337 564.212ZM592.27 573.723C592.571 573.723 592.879 573.697 593.195 573.646C593.511 573.595 593.767 573.532 593.966 573.459V574.879C593.753 574.974 593.456 575.055 593.074 575.121C592.7 575.187 592.333 575.22 591.973 575.22C591.335 575.22 590.755 575.11 590.234 574.89C589.713 574.662 589.294 574.281 588.979 573.745C588.67 573.209 588.516 572.468 588.516 571.521V564.366H586.799V563.474L588.527 562.759L589.254 560.138H590.355V562.935H593.889V564.366H590.355V571.466C590.355 572.222 590.527 572.787 590.872 573.162C591.224 573.536 591.691 573.723 592.27 573.723ZM601.055 562.714C602.083 562.714 602.963 562.942 603.697 563.397C604.431 563.852 604.992 564.491 605.381 565.313C605.77 566.127 605.965 567.081 605.965 568.175V569.309H597.631C597.653 570.725 598.006 571.804 598.688 572.545C599.371 573.286 600.332 573.657 601.572 573.657C602.336 573.657 603.011 573.587 603.598 573.448C604.185 573.308 604.794 573.103 605.425 572.831V574.439C604.816 574.71 604.211 574.908 603.609 575.033C603.015 575.158 602.31 575.22 601.495 575.22C600.336 575.22 599.323 574.985 598.457 574.516C597.598 574.039 596.931 573.341 596.454 572.424C595.976 571.507 595.738 570.384 595.738 569.055C595.738 567.756 595.954 566.634 596.387 565.687C596.828 564.733 597.444 563.999 598.237 563.485C599.037 562.971 599.976 562.714 601.055 562.714ZM601.033 564.212C600.057 564.212 599.279 564.531 598.699 565.169C598.119 565.808 597.775 566.7 597.664 567.844H604.049C604.042 567.125 603.928 566.494 603.708 565.951C603.495 565.401 603.169 564.975 602.728 564.674C602.288 564.366 601.723 564.212 601.033 564.212ZM613.363 575.22C611.836 575.22 610.625 574.699 609.73 573.657C608.842 572.615 608.398 571.066 608.398 569.011C608.398 566.934 608.853 565.368 609.763 564.311C610.673 563.247 611.884 562.714 613.396 562.714C614.034 562.714 614.592 562.799 615.069 562.968C615.546 563.136 615.957 563.364 616.302 563.65C616.647 563.929 616.937 564.248 617.172 564.608H617.304C617.274 564.38 617.245 564.069 617.216 563.672C617.186 563.276 617.172 562.953 617.172 562.703V557.871H618.999V575H617.524L617.249 573.283H617.172C616.944 573.642 616.654 573.969 616.302 574.262C615.957 574.556 615.542 574.791 615.058 574.967C614.581 575.136 614.016 575.22 613.363 575.22ZM613.649 573.701C614.94 573.701 615.854 573.334 616.39 572.6C616.926 571.866 617.194 570.776 617.194 569.331V569C617.194 567.467 616.937 566.289 616.423 565.467C615.917 564.645 614.992 564.234 613.649 564.234C612.526 564.234 611.686 564.667 611.128 565.533C610.57 566.391 610.291 567.566 610.291 569.055C610.291 570.538 610.566 571.683 611.117 572.49C611.675 573.297 612.519 573.701 613.649 573.701ZM626.694 568.802C626.694 570.028 626.573 571.224 626.331 572.391C626.096 573.551 625.733 574.651 625.241 575.694C624.756 576.736 624.136 577.693 623.38 578.567H621.652C622.357 577.635 622.944 576.637 623.413 575.572C623.89 574.508 624.246 573.407 624.481 572.27C624.723 571.125 624.844 569.965 624.844 568.791C624.844 567.595 624.723 566.417 624.481 565.257C624.239 564.098 623.879 562.982 623.402 561.911C622.933 560.839 622.342 559.838 621.63 558.906H623.38C624.136 559.808 624.756 560.792 625.241 561.856C625.733 562.913 626.096 564.028 626.331 565.202C626.573 566.369 626.694 567.569 626.694 568.802Z" fill="black"/>
</g>
<defs>
<clipPath id="clip0_7243_29000">
<rect width="735.545" height="582" fill="white"/>
</clipPath>
</defs>
</svg>
