<svg width="1836" height="2088" viewBox="0 0 1836 2088" fill="none" xmlns="http://www.w3.org/2000/svg">
<g clip-path="url(#clip0_11_1108)">
<rect x="543" y="386" width="750" height="1354" fill="white"/>
<g clip-path="url(#clip1_11_1108)">
<rect x="657" y="666" width="520" height="607" rx="18" fill="#F3FDEE"/>
<line y1="-0.5" x2="799.28" y2="-0.5" transform="matrix(0.650585 0.759433 -0.650585 0.759433 657 666)" stroke="#49B25C"/>
<line y1="-0.5" x2="799.28" y2="-0.5" transform="matrix(-0.650585 0.759433 -0.650585 -0.759433 1177 666)" stroke="#49B25C"/>
<path d="M909.8 982H924.2C925.473 982 926.694 981.494 927.594 980.594C928.494 979.694 929 978.473 929 977.2V962.8C929 961.527 928.494 960.306 927.594 959.406C926.694 958.506 925.473 958 924.2 958H909.8C908.527 958 907.306 958.506 906.406 959.406C905.506 960.306 905 961.527 905 962.8V977.2C905 978.473 905.506 979.694 906.406 980.594C907.306 981.494 908.527 982 909.8 982ZM909.8 982L920.031 970.745C920.256 970.498 920.529 970.301 920.834 970.166C921.139 970.03 921.468 969.96 921.802 969.96C922.135 969.959 922.466 970.028 922.771 970.162C923.076 970.296 923.351 970.492 923.576 970.738L928.412 976.012C928.79 976.426 929 976.965 929 977.524C929 978.711 928.528 979.849 927.689 980.689C926.85 981.528 925.711 982 924.524 982L909.8 982ZM915.8 965.8C915.8 967.457 914.457 968.8 912.8 968.8C911.143 968.8 909.8 967.457 909.8 965.8C909.8 964.143 911.143 962.8 912.8 962.8C914.457 962.8 915.8 964.143 915.8 965.8Z" stroke="#49B25C" stroke-width="3" stroke-linecap="round" stroke-linejoin="round"/>
</g>
<rect x="658.5" y="667.5" width="517" height="604" rx="16.5" stroke="#49B25C" stroke-width="3"/>
<rect x="593" y="386" width="64" height="1354" fill="#DFF1D1" fill-opacity="0.3"/>
<rect x="677" y="386" width="64" height="1354" fill="#DFF1D1" fill-opacity="0.3"/>
<rect x="761" y="386" width="64" height="1354" fill="#DFF1D1" fill-opacity="0.3"/>
<rect x="845" y="386" width="64" height="1354" fill="#DFF1D1" fill-opacity="0.3"/>
<rect x="929" y="386" width="64" height="1354" fill="#DFF1D1" fill-opacity="0.3"/>
<rect x="1013" y="386" width="64" height="1354" fill="#DFF1D1" fill-opacity="0.3"/>
<rect x="1097" y="386" width="64" height="1354" fill="#DFF1D1" fill-opacity="0.3"/>
<rect x="1181" y="386" width="64" height="1354" fill="#DFF1D1" fill-opacity="0.3"/>
<rect x="589" y="569" width="658" height="1122" rx="42" stroke="#49B25C" stroke-width="2"/>
<rect x="589" y="442" width="658" height="88" rx="44" stroke="#49B25C" stroke-width="2"/>
<circle cx="641.5" cy="484.5" r="24.5" stroke="#49B25C" stroke-width="2"/>
<circle cx="1202.5" cy="485.5" r="24.5" stroke="#49B25C" stroke-width="2"/>
<rect x="677" y="1372" width="484" height="38" rx="19" fill="#49B25C"/>
<rect x="712" y="467" width="423" height="38" rx="19" fill="#49B25C"/>
<rect x="976" y="1073" width="218" height="38" rx="19" fill="#49B25C"/>
<rect x="976" y="1128" width="218" height="38" rx="19" fill="#49B25C"/>
<rect x="676" y="1427" width="484" height="38" rx="19" fill="#49B25C"/>
<rect x="657" y="1509" width="524" height="17" rx="8.5" fill="#49B25C"/>
<rect x="657" y="1546" width="524" height="17" rx="8.5" fill="#49B25C"/>
<rect x="981" y="1184" width="208" height="112" rx="32" fill="white" stroke="#49B25C" stroke-width="2"/>
<rect x="543" y="388" width="50" height="1354" fill="#BBD8A4" fill-opacity="0.6"/>
<rect x="1243" y="388" width="50" height="1354" fill="#BBD8A4" fill-opacity="0.6"/>
<rect x="543" y="1692" width="750" height="50" fill="#BBD8A4" fill-opacity="0.6"/>
<rect x="543" y="388" width="750" height="50" fill="#BBD8A4" fill-opacity="0.6"/>
</g>
<rect x="544" y="387" width="748" height="1352" stroke="#49B25C" stroke-width="2"/>
<rect x="806" y="185" width="224" height="107" rx="5" fill="#49B25C"/>
<path d="M821.625 243.469C821.625 240.719 821.812 238.031 822.188 235.406C822.583 232.781 823.24 230.344 824.156 228.094C825.073 225.823 826.323 223.833 827.906 222.125C829.49 220.417 831.458 219.083 833.812 218.125C836.188 217.146 839.031 216.656 842.344 216.656C843.281 216.656 844.292 216.708 845.375 216.812C846.458 216.896 847.354 217.042 848.062 217.25V221.719C847.292 221.448 846.406 221.25 845.406 221.125C844.427 221 843.438 220.938 842.438 220.938C838.562 220.938 835.51 221.781 833.281 223.469C831.073 225.156 829.479 227.448 828.5 230.344C827.521 233.219 826.958 236.458 826.812 240.062H827.156C827.802 239.021 828.625 238.083 829.625 237.25C830.625 236.396 831.833 235.719 833.25 235.219C834.688 234.719 836.354 234.469 838.25 234.469C840.917 234.469 843.24 235.01 845.219 236.094C847.219 237.177 848.76 238.75 849.844 240.812C850.948 242.875 851.5 245.375 851.5 248.312C851.5 251.458 850.917 254.177 849.75 256.469C848.583 258.76 846.917 260.531 844.75 261.781C842.604 263.01 840.042 263.625 837.062 263.625C834.833 263.625 832.781 263.198 830.906 262.344C829.031 261.49 827.396 260.219 826 258.531C824.625 256.844 823.552 254.75 822.781 252.25C822.01 249.729 821.625 246.802 821.625 243.469ZM837 259.25C839.833 259.25 842.104 258.344 843.812 256.531C845.521 254.719 846.375 251.979 846.375 248.312C846.375 245.312 845.615 242.938 844.094 241.188C842.573 239.438 840.281 238.562 837.219 238.562C835.135 238.562 833.323 239 831.781 239.875C830.24 240.729 829.042 241.812 828.188 243.125C827.333 244.438 826.906 245.771 826.906 247.125C826.906 248.5 827.104 249.896 827.5 251.312C827.917 252.729 828.542 254.042 829.375 255.25C830.208 256.458 831.26 257.427 832.531 258.156C833.802 258.885 835.292 259.25 837 259.25ZM858.25 243.469C858.25 240.719 858.438 238.031 858.812 235.406C859.208 232.781 859.865 230.344 860.781 228.094C861.698 225.823 862.948 223.833 864.531 222.125C866.115 220.417 868.083 219.083 870.438 218.125C872.812 217.146 875.656 216.656 878.969 216.656C879.906 216.656 880.917 216.708 882 216.812C883.083 216.896 883.979 217.042 884.688 217.25V221.719C883.917 221.448 883.031 221.25 882.031 221.125C881.052 221 880.062 220.938 879.062 220.938C875.188 220.938 872.135 221.781 869.906 223.469C867.698 225.156 866.104 227.448 865.125 230.344C864.146 233.219 863.583 236.458 863.438 240.062H863.781C864.427 239.021 865.25 238.083 866.25 237.25C867.25 236.396 868.458 235.719 869.875 235.219C871.312 234.719 872.979 234.469 874.875 234.469C877.542 234.469 879.865 235.01 881.844 236.094C883.844 237.177 885.385 238.75 886.469 240.812C887.573 242.875 888.125 245.375 888.125 248.312C888.125 251.458 887.542 254.177 886.375 256.469C885.208 258.76 883.542 260.531 881.375 261.781C879.229 263.01 876.667 263.625 873.688 263.625C871.458 263.625 869.406 263.198 867.531 262.344C865.656 261.49 864.021 260.219 862.625 258.531C861.25 256.844 860.177 254.75 859.406 252.25C858.635 249.729 858.25 246.802 858.25 243.469ZM873.625 259.25C876.458 259.25 878.729 258.344 880.438 256.531C882.146 254.719 883 251.979 883 248.312C883 245.312 882.24 242.938 880.719 241.188C879.198 239.438 876.906 238.562 873.844 238.562C871.76 238.562 869.948 239 868.406 239.875C866.865 240.729 865.667 241.812 864.812 243.125C863.958 244.438 863.531 245.771 863.531 247.125C863.531 248.5 863.729 249.896 864.125 251.312C864.542 252.729 865.167 254.042 866 255.25C866.833 256.458 867.885 257.427 869.156 258.156C870.427 258.885 871.917 259.25 873.625 259.25ZM924.594 240.094C924.594 243.802 924.312 247.115 923.75 250.031C923.188 252.948 922.302 255.417 921.094 257.438C919.885 259.458 918.323 261 916.406 262.062C914.49 263.104 912.188 263.625 909.5 263.625C906.104 263.625 903.292 262.698 901.062 260.844C898.854 258.99 897.198 256.312 896.094 252.812C895.01 249.292 894.469 245.052 894.469 240.094C894.469 235.219 894.958 231.031 895.938 227.531C896.938 224.01 898.542 221.312 900.75 219.438C902.958 217.542 905.875 216.594 909.5 216.594C912.938 216.594 915.771 217.531 918 219.406C920.229 221.26 921.885 223.948 922.969 227.469C924.052 230.969 924.594 235.177 924.594 240.094ZM899.688 240.094C899.688 244.344 900.01 247.885 900.656 250.719C901.302 253.552 902.344 255.677 903.781 257.094C905.24 258.49 907.146 259.188 909.5 259.188C911.854 259.188 913.75 258.49 915.188 257.094C916.646 255.698 917.698 253.583 918.344 250.75C919.01 247.917 919.344 244.365 919.344 240.094C919.344 235.906 919.021 232.406 918.375 229.594C917.729 226.76 916.688 224.635 915.25 223.219C913.812 221.781 911.896 221.062 909.5 221.062C907.104 221.062 905.188 221.781 903.75 223.219C902.312 224.635 901.271 226.76 900.625 229.594C900 232.406 899.688 235.906 899.688 240.094ZM966.062 228.125C970.333 228.125 973.74 229.594 976.281 232.531C978.823 235.469 980.094 239.885 980.094 245.781C980.094 249.677 979.51 252.948 978.344 255.594C977.177 258.24 975.531 260.24 973.406 261.594C971.302 262.948 968.812 263.625 965.938 263.625C964.125 263.625 962.531 263.385 961.156 262.906C959.781 262.427 958.604 261.781 957.625 260.969C956.646 260.156 955.833 259.271 955.188 258.312H954.812C954.875 259.125 954.948 260.104 955.031 261.25C955.135 262.396 955.188 263.396 955.188 264.25V278.312H949.969V228.75H954.25L954.938 233.812H955.188C955.854 232.771 956.667 231.823 957.625 230.969C958.583 230.094 959.75 229.406 961.125 228.906C962.521 228.385 964.167 228.125 966.062 228.125ZM965.156 232.5C962.781 232.5 960.865 232.958 959.406 233.875C957.969 234.792 956.917 236.167 956.25 238C955.583 239.812 955.229 242.094 955.188 244.844V245.844C955.188 248.74 955.5 251.188 956.125 253.188C956.771 255.188 957.823 256.708 959.281 257.75C960.76 258.792 962.74 259.312 965.219 259.312C967.344 259.312 969.115 258.74 970.531 257.594C971.948 256.448 973 254.854 973.688 252.812C974.396 250.75 974.75 248.385 974.75 245.719C974.75 241.677 973.958 238.469 972.375 236.094C970.812 233.698 968.406 232.5 965.156 232.5ZM997.312 245.469L985.469 228.75H991.406L1000.44 241.938L1009.44 228.75H1015.31L1003.47 245.469L1015.97 263H1010.03L1000.44 249.031L990.781 263H984.906L997.312 245.469Z" fill="white"/>
<mask id="path-34-inside-1_11_1108" fill="white">
<path d="M588 302H1248V332H588V302Z"/>
</mask>
<path d="M1248 332V333H1250V332H1248ZM588 332H586V333H588V332ZM1246 302V332H1250V302H1246ZM1248 331H588V333H1248V331ZM590 332V302H586V332H590Z" fill="#49B25C" mask="url(#path-34-inside-1_11_1108)"/>
<mask id="path-36-inside-2_11_1108" fill="white">
<path d="M588 332H1248V362H588V332Z"/>
</mask>
<path d="M588 332V331H586V332H588ZM1248 332H1250V331H1248V332ZM588 333H1248V331H588V333ZM1246 332V362H1250V332H1246ZM590 362V332H586V362H590Z" fill="#49B25C" mask="url(#path-36-inside-2_11_1108)"/>
<g clip-path="url(#clip2_11_1108)">
<rect x="543" y="386" width="750" height="1354" fill="white"/>
<g clip-path="url(#clip3_11_1108)">
<rect x="657" y="666" width="520" height="607" rx="18" fill="#F3FDEE"/>
<line y1="-0.5" x2="799.28" y2="-0.5" transform="matrix(0.650585 0.759433 -0.650585 0.759433 657 666)" stroke="#49B25C"/>
<line y1="-0.5" x2="799.28" y2="-0.5" transform="matrix(-0.650585 0.759433 -0.650585 -0.759433 1177 666)" stroke="#49B25C"/>
<path d="M909.8 982H924.2C925.473 982 926.694 981.494 927.594 980.594C928.494 979.694 929 978.473 929 977.2V962.8C929 961.527 928.494 960.306 927.594 959.406C926.694 958.506 925.473 958 924.2 958H909.8C908.527 958 907.306 958.506 906.406 959.406C905.506 960.306 905 961.527 905 962.8V977.2C905 978.473 905.506 979.694 906.406 980.594C907.306 981.494 908.527 982 909.8 982ZM909.8 982L920.031 970.745C920.256 970.498 920.529 970.301 920.834 970.166C921.139 970.03 921.468 969.96 921.802 969.96C922.135 969.959 922.466 970.028 922.771 970.162C923.076 970.296 923.351 970.492 923.576 970.738L928.412 976.012C928.79 976.426 929 976.965 929 977.524C929 978.711 928.528 979.849 927.689 980.689C926.85 981.528 925.711 982 924.524 982L909.8 982ZM915.8 965.8C915.8 967.457 914.457 968.8 912.8 968.8C911.143 968.8 909.8 967.457 909.8 965.8C909.8 964.143 911.143 962.8 912.8 962.8C914.457 962.8 915.8 964.143 915.8 965.8Z" stroke="#49B25C" stroke-width="3" stroke-linecap="round" stroke-linejoin="round"/>
</g>
<rect x="658.5" y="667.5" width="517" height="604" rx="16.5" stroke="#49B25C" stroke-width="3"/>
<rect x="593" y="386" width="64" height="1354" fill="#DFF1D1" fill-opacity="0.3"/>
<rect x="677" y="386" width="64" height="1354" fill="#DFF1D1" fill-opacity="0.3"/>
<rect x="761" y="386" width="64" height="1354" fill="#DFF1D1" fill-opacity="0.3"/>
<rect x="845" y="386" width="64" height="1354" fill="#DFF1D1" fill-opacity="0.3"/>
<rect x="929" y="386" width="64" height="1354" fill="#DFF1D1" fill-opacity="0.3"/>
<rect x="1013" y="386" width="64" height="1354" fill="#DFF1D1" fill-opacity="0.3"/>
<rect x="1097" y="386" width="64" height="1354" fill="#DFF1D1" fill-opacity="0.3"/>
<rect x="1181" y="386" width="64" height="1354" fill="#DFF1D1" fill-opacity="0.3"/>
<rect x="589" y="569" width="658" height="1122" rx="42" stroke="#49B25C" stroke-width="2"/>
<rect x="589" y="442" width="658" height="88" rx="44" stroke="#49B25C" stroke-width="2"/>
<circle cx="641.5" cy="484.5" r="24.5" stroke="#49B25C" stroke-width="2"/>
<circle cx="1202.5" cy="485.5" r="24.5" stroke="#49B25C" stroke-width="2"/>
<rect x="677" y="1372" width="484" height="38" rx="19" fill="#49B25C"/>
<rect x="712" y="467" width="423" height="38" rx="19" fill="#49B25C"/>
<rect x="976" y="1073" width="218" height="38" rx="19" fill="#49B25C"/>
<rect x="976" y="1128" width="218" height="38" rx="19" fill="#49B25C"/>
<rect x="676" y="1427" width="484" height="38" rx="19" fill="#49B25C"/>
<rect x="657" y="1509" width="524" height="17" rx="8.5" fill="#49B25C"/>
<rect x="657" y="1546" width="524" height="17" rx="8.5" fill="#49B25C"/>
<rect x="981" y="1184" width="208" height="112" rx="32" fill="white" stroke="#49B25C" stroke-width="2"/>
<rect x="543" y="388" width="50" height="1354" fill="#BBD8A4" fill-opacity="0.6"/>
<rect x="1243" y="388" width="50" height="1354" fill="#BBD8A4" fill-opacity="0.6"/>
<rect x="543" y="1692" width="750" height="50" fill="#BBD8A4" fill-opacity="0.6"/>
<rect x="543" y="388" width="750" height="50" fill="#BBD8A4" fill-opacity="0.6"/>
</g>
<rect x="544" y="387" width="748" height="1352" stroke="#49B25C" stroke-width="2"/>
<rect x="806" y="185" width="224" height="107" rx="5" fill="#49B25C"/>
<path d="M851.156 236.781C851.156 239.552 850.958 242.25 850.562 244.875C850.188 247.5 849.531 249.948 848.594 252.219C847.677 254.49 846.427 256.479 844.844 258.188C843.26 259.896 841.271 261.24 838.875 262.219C836.5 263.177 833.656 263.656 830.344 263.656C829.448 263.656 828.427 263.594 827.281 263.469C826.135 263.365 825.198 263.208 824.469 263V258.5C825.24 258.771 826.146 258.99 827.188 259.156C828.229 259.302 829.25 259.375 830.25 259.375C834.146 259.375 837.208 258.542 839.438 256.875C841.667 255.188 843.271 252.906 844.25 250.031C845.229 247.135 845.781 243.885 845.906 240.281H845.531C844.906 241.281 844.083 242.208 843.062 243.062C842.062 243.896 840.844 244.573 839.406 245.094C837.969 245.594 836.292 245.844 834.375 245.844C831.729 245.844 829.417 245.302 827.438 244.219C825.479 243.135 823.948 241.562 822.844 239.5C821.76 237.438 821.219 234.948 821.219 232.031C821.219 228.885 821.812 226.167 823 223.875C824.208 221.562 825.896 219.781 828.062 218.531C830.229 217.281 832.781 216.656 835.719 216.656C837.969 216.656 840.031 217.083 841.906 217.938C843.781 218.792 845.406 220.073 846.781 221.781C848.177 223.469 849.25 225.562 850 228.062C850.771 230.562 851.156 233.469 851.156 236.781ZM835.719 221.062C832.948 221.062 830.698 221.969 828.969 223.781C827.26 225.594 826.406 228.323 826.406 231.969C826.406 234.99 827.146 237.375 828.625 239.125C830.104 240.875 832.385 241.75 835.469 241.75C837.594 241.75 839.427 241.323 840.969 240.469C842.531 239.615 843.729 238.531 844.562 237.219C845.417 235.906 845.844 234.562 845.844 233.188C845.844 231.812 845.635 230.417 845.219 229C844.823 227.583 844.208 226.281 843.375 225.094C842.542 223.885 841.49 222.917 840.219 222.188C838.948 221.438 837.448 221.062 835.719 221.062ZM872.875 216.656C875.521 216.656 877.865 217.073 879.906 217.906C881.948 218.74 883.542 219.969 884.688 221.594C885.854 223.198 886.438 225.177 886.438 227.531C886.438 229.385 886.031 231.01 885.219 232.406C884.427 233.781 883.354 234.99 882 236.031C880.646 237.052 879.146 237.969 877.5 238.781C879.458 239.677 881.219 240.688 882.781 241.812C884.365 242.938 885.615 244.26 886.531 245.781C887.448 247.302 887.906 249.104 887.906 251.188C887.906 253.75 887.281 255.969 886.031 257.844C884.802 259.698 883.073 261.125 880.844 262.125C878.615 263.125 876 263.625 873 263.625C869.771 263.625 867.021 263.146 864.75 262.188C862.5 261.208 860.781 259.812 859.594 258C858.427 256.167 857.844 253.969 857.844 251.406C857.844 249.302 858.292 247.479 859.188 245.938C860.083 244.375 861.271 243.031 862.75 241.906C864.229 240.781 865.844 239.833 867.594 239.062C866.073 238.229 864.677 237.281 863.406 236.219C862.156 235.156 861.156 233.917 860.406 232.5C859.677 231.062 859.312 229.396 859.312 227.5C859.312 225.188 859.896 223.229 861.062 221.625C862.25 220 863.865 218.771 865.906 217.938C867.969 217.083 870.292 216.656 872.875 216.656ZM862.938 251.438C862.938 253.771 863.76 255.698 865.406 257.219C867.052 258.719 869.542 259.469 872.875 259.469C876.042 259.469 878.49 258.719 880.219 257.219C881.948 255.698 882.812 253.708 882.812 251.25C882.812 249.729 882.417 248.396 881.625 247.25C880.833 246.083 879.708 245.042 878.25 244.125C876.792 243.208 875.073 242.375 873.094 241.625L871.969 241.219C870.052 242.01 868.417 242.896 867.062 243.875C865.729 244.833 864.708 245.927 864 247.156C863.292 248.385 862.938 249.812 862.938 251.438ZM872.812 220.906C870.354 220.906 868.344 221.5 866.781 222.688C865.219 223.854 864.438 225.542 864.438 227.75C864.438 229.333 864.812 230.677 865.562 231.781C866.333 232.865 867.375 233.802 868.688 234.594C870 235.365 871.469 236.083 873.094 236.75C874.677 236.083 876.083 235.354 877.312 234.562C878.542 233.75 879.51 232.792 880.219 231.688C880.927 230.583 881.281 229.26 881.281 227.719C881.281 225.51 880.5 223.823 878.938 222.656C877.396 221.49 875.354 220.906 872.812 220.906ZM924.594 240.094C924.594 243.802 924.312 247.115 923.75 250.031C923.188 252.948 922.302 255.417 921.094 257.438C919.885 259.458 918.323 261 916.406 262.062C914.49 263.104 912.188 263.625 909.5 263.625C906.104 263.625 903.292 262.698 901.062 260.844C898.854 258.99 897.198 256.312 896.094 252.812C895.01 249.292 894.469 245.052 894.469 240.094C894.469 235.219 894.958 231.031 895.938 227.531C896.938 224.01 898.542 221.312 900.75 219.438C902.958 217.542 905.875 216.594 909.5 216.594C912.938 216.594 915.771 217.531 918 219.406C920.229 221.26 921.885 223.948 922.969 227.469C924.052 230.969 924.594 235.177 924.594 240.094ZM899.688 240.094C899.688 244.344 900.01 247.885 900.656 250.719C901.302 253.552 902.344 255.677 903.781 257.094C905.24 258.49 907.146 259.188 909.5 259.188C911.854 259.188 913.75 258.49 915.188 257.094C916.646 255.698 917.698 253.583 918.344 250.75C919.01 247.917 919.344 244.365 919.344 240.094C919.344 235.906 919.021 232.406 918.375 229.594C917.729 226.76 916.688 224.635 915.25 223.219C913.812 221.781 911.896 221.062 909.5 221.062C907.104 221.062 905.188 221.781 903.75 223.219C902.312 224.635 901.271 226.76 900.625 229.594C900 232.406 899.688 235.906 899.688 240.094ZM966.062 228.125C970.333 228.125 973.74 229.594 976.281 232.531C978.823 235.469 980.094 239.885 980.094 245.781C980.094 249.677 979.51 252.948 978.344 255.594C977.177 258.24 975.531 260.24 973.406 261.594C971.302 262.948 968.812 263.625 965.938 263.625C964.125 263.625 962.531 263.385 961.156 262.906C959.781 262.427 958.604 261.781 957.625 260.969C956.646 260.156 955.833 259.271 955.188 258.312H954.812C954.875 259.125 954.948 260.104 955.031 261.25C955.135 262.396 955.188 263.396 955.188 264.25V278.312H949.969V228.75H954.25L954.938 233.812H955.188C955.854 232.771 956.667 231.823 957.625 230.969C958.583 230.094 959.75 229.406 961.125 228.906C962.521 228.385 964.167 228.125 966.062 228.125ZM965.156 232.5C962.781 232.5 960.865 232.958 959.406 233.875C957.969 234.792 956.917 236.167 956.25 238C955.583 239.812 955.229 242.094 955.188 244.844V245.844C955.188 248.74 955.5 251.188 956.125 253.188C956.771 255.188 957.823 256.708 959.281 257.75C960.76 258.792 962.74 259.312 965.219 259.312C967.344 259.312 969.115 258.74 970.531 257.594C971.948 256.448 973 254.854 973.688 252.812C974.396 250.75 974.75 248.385 974.75 245.719C974.75 241.677 973.958 238.469 972.375 236.094C970.812 233.698 968.406 232.5 965.156 232.5ZM997.312 245.469L985.469 228.75H991.406L1000.44 241.938L1009.44 228.75H1015.31L1003.47 245.469L1015.97 263H1010.03L1000.44 249.031L990.781 263H984.906L997.312 245.469Z" fill="white"/>
<mask id="path-71-inside-3_11_1108" fill="white">
<path d="M588 302H1248V332H588V302Z"/>
</mask>
<path d="M1248 332V333H1250V332H1248ZM588 332H586V333H588V332ZM1246 302V332H1250V302H1246ZM1248 331H588V333H1248V331ZM590 332V302H586V332H590Z" fill="#49B25C" mask="url(#path-71-inside-3_11_1108)"/>
<mask id="path-73-inside-4_11_1108" fill="white">
<path d="M588 332H1248V362H588V332Z"/>
</mask>
<path d="M588 332V331H586V332H588ZM1248 332H1250V331H1248V332ZM588 333H1248V331H588V333ZM1246 332V362H1250V332H1246ZM590 362V332H586V362H590Z" fill="#49B25C" mask="url(#path-73-inside-4_11_1108)"/>
<defs>
<clipPath id="clip0_11_1108">
<rect x="543" y="386" width="750" height="1354" fill="white"/>
</clipPath>
<clipPath id="clip1_11_1108">
<rect x="657" y="666" width="520" height="607" rx="18" fill="white"/>
</clipPath>
<clipPath id="clip2_11_1108">
<rect x="543" y="386" width="750" height="1354" fill="white"/>
</clipPath>
<clipPath id="clip3_11_1108">
<rect x="657" y="666" width="520" height="607" rx="18" fill="white"/>
</clipPath>
</defs>
</svg>
