<svg width="1836" height="2088" viewBox="0 0 1836 2088" fill="none" xmlns="http://www.w3.org/2000/svg">
<g clip-path="url(#clip0_11_1388)">
<rect x="543" y="385" width="750" height="1354" fill="white"/>
<rect x="589" y="735" width="658" height="622" rx="42" stroke="#49B25C" stroke-width="2"/>
<circle cx="755.5" cy="528.5" r="72.5" stroke="#49B25C" stroke-width="2"/>
<circle cx="860.5" cy="528.5" r="72.5" stroke="#49B25C" stroke-width="2"/>
<circle cx="1070.5" cy="528.5" r="72.5" stroke="#49B25C" stroke-width="2"/>
<circle cx="965.5" cy="528.5" r="72.5" stroke="#49B25C" stroke-width="2"/>
<rect x="667" y="1371" width="510" height="38" rx="19" fill="#49B25C"/>
<g clip-path="url(#clip1_11_1388)">
<rect x="662" y="1282" width="524" height="407" rx="18" fill="#F3FDEE"/>
<line y1="-0.5" x2="663.495" y2="-0.5" transform="matrix(0.789758 0.613419 -0.789758 0.613419 662 1282)" stroke="#49B25C"/>
<line y1="-0.5" x2="663.495" y2="-0.5" transform="matrix(-0.789758 0.613419 -0.789758 -0.613419 1186 1282)" stroke="#49B25C"/>
<path d="M916.8 1498H931.2C932.473 1498 933.694 1497.49 934.594 1496.59C935.494 1495.69 936 1494.47 936 1493.2V1478.8C936 1477.53 935.494 1476.31 934.594 1475.41C933.694 1474.51 932.473 1474 931.2 1474H916.8C915.527 1474 914.306 1474.51 913.406 1475.41C912.506 1476.31 912 1477.53 912 1478.8V1493.2C912 1494.47 912.506 1495.69 913.406 1496.59C914.306 1497.49 915.527 1498 916.8 1498ZM916.8 1498L927.031 1486.74C927.256 1486.5 927.529 1486.3 927.834 1486.17C928.139 1486.03 928.468 1485.96 928.802 1485.96C929.135 1485.96 929.466 1486.03 929.771 1486.16C930.076 1486.3 930.351 1486.49 930.576 1486.74L935.412 1492.01C935.79 1492.43 936 1492.96 936 1493.52C936 1494.71 935.528 1495.85 934.689 1496.69C933.85 1497.53 932.711 1498 931.524 1498L916.8 1498ZM922.8 1481.8C922.8 1483.46 921.457 1484.8 919.8 1484.8C918.143 1484.8 916.8 1483.46 916.8 1481.8C916.8 1480.14 918.143 1478.8 919.8 1478.8C921.457 1478.8 922.8 1480.14 922.8 1481.8Z" stroke="#49B25C" stroke-width="3" stroke-linecap="round" stroke-linejoin="round"/>
</g>
<rect x="663.5" y="1283.5" width="521" height="404" rx="16.5" stroke="#49B25C" stroke-width="3"/>
<rect x="598" y="382" width="64" height="1354" fill="#DFF1D1" fill-opacity="0.3"/>
<rect x="682" y="382" width="64" height="1354" fill="#DFF1D1" fill-opacity="0.3"/>
<rect x="766" y="382" width="64" height="1354" fill="#DFF1D1" fill-opacity="0.3"/>
<rect x="850" y="382" width="64" height="1354" fill="#DFF1D1" fill-opacity="0.3"/>
<rect x="934" y="382" width="64" height="1354" fill="#DFF1D1" fill-opacity="0.3"/>
<rect x="1018" y="382" width="64" height="1354" fill="#DFF1D1" fill-opacity="0.3"/>
<rect x="1102" y="382" width="64" height="1354" fill="#DFF1D1" fill-opacity="0.3"/>
<rect x="1186" y="382" width="64" height="1354" fill="#DFF1D1" fill-opacity="0.3"/>
<rect x="662" y="634" width="524" height="38" rx="19" fill="#49B25C"/>
<rect x="662" y="908" width="524" height="38" rx="19" fill="#49B25C"/>
<rect x="662" y="996" width="524" height="38" rx="19" fill="#49B25C"/>
<rect x="662" y="1084" width="524" height="38" rx="19" fill="#49B25C"/>
<rect x="543" y="385" width="50" height="1354" fill="#BBD8A4" fill-opacity="0.6"/>
<rect x="1243" y="385" width="50" height="1354" fill="#BBD8A4" fill-opacity="0.6"/>
<rect x="543" y="1689" width="750" height="50" fill="#BBD8A4" fill-opacity="0.6"/>
<rect x="543" y="385" width="750" height="50" fill="#BBD8A4" fill-opacity="0.6"/>
</g>
<rect x="544" y="386" width="748" height="1352" stroke="#49B25C" stroke-width="2"/>
<rect x="806" y="185" width="224" height="107" rx="5" fill="#49B25C"/>
<path d="M851.156 236.781C851.156 239.552 850.958 242.25 850.562 244.875C850.188 247.5 849.531 249.948 848.594 252.219C847.677 254.49 846.427 256.479 844.844 258.188C843.26 259.896 841.271 261.24 838.875 262.219C836.5 263.177 833.656 263.656 830.344 263.656C829.448 263.656 828.427 263.594 827.281 263.469C826.135 263.365 825.198 263.208 824.469 263V258.5C825.24 258.771 826.146 258.99 827.188 259.156C828.229 259.302 829.25 259.375 830.25 259.375C834.146 259.375 837.208 258.542 839.438 256.875C841.667 255.188 843.271 252.906 844.25 250.031C845.229 247.135 845.781 243.885 845.906 240.281H845.531C844.906 241.281 844.083 242.208 843.062 243.062C842.062 243.896 840.844 244.573 839.406 245.094C837.969 245.594 836.292 245.844 834.375 245.844C831.729 245.844 829.417 245.302 827.438 244.219C825.479 243.135 823.948 241.562 822.844 239.5C821.76 237.438 821.219 234.948 821.219 232.031C821.219 228.885 821.812 226.167 823 223.875C824.208 221.562 825.896 219.781 828.062 218.531C830.229 217.281 832.781 216.656 835.719 216.656C837.969 216.656 840.031 217.083 841.906 217.938C843.781 218.792 845.406 220.073 846.781 221.781C848.177 223.469 849.25 225.562 850 228.062C850.771 230.562 851.156 233.469 851.156 236.781ZM835.719 221.062C832.948 221.062 830.698 221.969 828.969 223.781C827.26 225.594 826.406 228.323 826.406 231.969C826.406 234.99 827.146 237.375 828.625 239.125C830.104 240.875 832.385 241.75 835.469 241.75C837.594 241.75 839.427 241.323 840.969 240.469C842.531 239.615 843.729 238.531 844.562 237.219C845.417 235.906 845.844 234.562 845.844 233.188C845.844 231.812 845.635 230.417 845.219 229C844.823 227.583 844.208 226.281 843.375 225.094C842.542 223.885 841.49 222.917 840.219 222.188C838.948 221.438 837.448 221.062 835.719 221.062ZM872.875 216.656C875.521 216.656 877.865 217.073 879.906 217.906C881.948 218.74 883.542 219.969 884.688 221.594C885.854 223.198 886.438 225.177 886.438 227.531C886.438 229.385 886.031 231.01 885.219 232.406C884.427 233.781 883.354 234.99 882 236.031C880.646 237.052 879.146 237.969 877.5 238.781C879.458 239.677 881.219 240.688 882.781 241.812C884.365 242.938 885.615 244.26 886.531 245.781C887.448 247.302 887.906 249.104 887.906 251.188C887.906 253.75 887.281 255.969 886.031 257.844C884.802 259.698 883.073 261.125 880.844 262.125C878.615 263.125 876 263.625 873 263.625C869.771 263.625 867.021 263.146 864.75 262.188C862.5 261.208 860.781 259.812 859.594 258C858.427 256.167 857.844 253.969 857.844 251.406C857.844 249.302 858.292 247.479 859.188 245.938C860.083 244.375 861.271 243.031 862.75 241.906C864.229 240.781 865.844 239.833 867.594 239.062C866.073 238.229 864.677 237.281 863.406 236.219C862.156 235.156 861.156 233.917 860.406 232.5C859.677 231.062 859.312 229.396 859.312 227.5C859.312 225.188 859.896 223.229 861.062 221.625C862.25 220 863.865 218.771 865.906 217.938C867.969 217.083 870.292 216.656 872.875 216.656ZM862.938 251.438C862.938 253.771 863.76 255.698 865.406 257.219C867.052 258.719 869.542 259.469 872.875 259.469C876.042 259.469 878.49 258.719 880.219 257.219C881.948 255.698 882.812 253.708 882.812 251.25C882.812 249.729 882.417 248.396 881.625 247.25C880.833 246.083 879.708 245.042 878.25 244.125C876.792 243.208 875.073 242.375 873.094 241.625L871.969 241.219C870.052 242.01 868.417 242.896 867.062 243.875C865.729 244.833 864.708 245.927 864 247.156C863.292 248.385 862.938 249.812 862.938 251.438ZM872.812 220.906C870.354 220.906 868.344 221.5 866.781 222.688C865.219 223.854 864.438 225.542 864.438 227.75C864.438 229.333 864.812 230.677 865.562 231.781C866.333 232.865 867.375 233.802 868.688 234.594C870 235.365 871.469 236.083 873.094 236.75C874.677 236.083 876.083 235.354 877.312 234.562C878.542 233.75 879.51 232.792 880.219 231.688C880.927 230.583 881.281 229.26 881.281 227.719C881.281 225.51 880.5 223.823 878.938 222.656C877.396 221.49 875.354 220.906 872.812 220.906ZM924.594 240.094C924.594 243.802 924.312 247.115 923.75 250.031C923.188 252.948 922.302 255.417 921.094 257.438C919.885 259.458 918.323 261 916.406 262.062C914.49 263.104 912.188 263.625 909.5 263.625C906.104 263.625 903.292 262.698 901.062 260.844C898.854 258.99 897.198 256.312 896.094 252.812C895.01 249.292 894.469 245.052 894.469 240.094C894.469 235.219 894.958 231.031 895.938 227.531C896.938 224.01 898.542 221.312 900.75 219.438C902.958 217.542 905.875 216.594 909.5 216.594C912.938 216.594 915.771 217.531 918 219.406C920.229 221.26 921.885 223.948 922.969 227.469C924.052 230.969 924.594 235.177 924.594 240.094ZM899.688 240.094C899.688 244.344 900.01 247.885 900.656 250.719C901.302 253.552 902.344 255.677 903.781 257.094C905.24 258.49 907.146 259.188 909.5 259.188C911.854 259.188 913.75 258.49 915.188 257.094C916.646 255.698 917.698 253.583 918.344 250.75C919.01 247.917 919.344 244.365 919.344 240.094C919.344 235.906 919.021 232.406 918.375 229.594C917.729 226.76 916.688 224.635 915.25 223.219C913.812 221.781 911.896 221.062 909.5 221.062C907.104 221.062 905.188 221.781 903.75 223.219C902.312 224.635 901.271 226.76 900.625 229.594C900 232.406 899.688 235.906 899.688 240.094ZM966.062 228.125C970.333 228.125 973.74 229.594 976.281 232.531C978.823 235.469 980.094 239.885 980.094 245.781C980.094 249.677 979.51 252.948 978.344 255.594C977.177 258.24 975.531 260.24 973.406 261.594C971.302 262.948 968.812 263.625 965.938 263.625C964.125 263.625 962.531 263.385 961.156 262.906C959.781 262.427 958.604 261.781 957.625 260.969C956.646 260.156 955.833 259.271 955.188 258.312H954.812C954.875 259.125 954.948 260.104 955.031 261.25C955.135 262.396 955.188 263.396 955.188 264.25V278.312H949.969V228.75H954.25L954.938 233.812H955.188C955.854 232.771 956.667 231.823 957.625 230.969C958.583 230.094 959.75 229.406 961.125 228.906C962.521 228.385 964.167 228.125 966.062 228.125ZM965.156 232.5C962.781 232.5 960.865 232.958 959.406 233.875C957.969 234.792 956.917 236.167 956.25 238C955.583 239.812 955.229 242.094 955.188 244.844V245.844C955.188 248.74 955.5 251.188 956.125 253.188C956.771 255.188 957.823 256.708 959.281 257.75C960.76 258.792 962.74 259.312 965.219 259.312C967.344 259.312 969.115 258.74 970.531 257.594C971.948 256.448 973 254.854 973.688 252.812C974.396 250.75 974.75 248.385 974.75 245.719C974.75 241.677 973.958 238.469 972.375 236.094C970.812 233.698 968.406 232.5 965.156 232.5ZM997.312 245.469L985.469 228.75H991.406L1000.44 241.938L1009.44 228.75H1015.31L1003.47 245.469L1015.97 263H1010.03L1000.44 249.031L990.781 263H984.906L997.312 245.469Z" fill="white"/>
<mask id="path-32-inside-1_11_1388" fill="white">
<path d="M588 302H1248V332H588V302Z"/>
</mask>
<path d="M1248 332V333H1250V332H1248ZM588 332H586V333H588V332ZM1246 302V332H1250V302H1246ZM1248 331H588V333H1248V331ZM590 332V302H586V332H590Z" fill="#49B25C" mask="url(#path-32-inside-1_11_1388)"/>
<mask id="path-34-inside-2_11_1388" fill="white">
<path d="M588 332H1248V362H588V332Z"/>
</mask>
<path d="M588 332V331H586V332H588ZM1248 332H1250V331H1248V332ZM588 333H1248V331H588V333ZM1246 332V362H1250V332H1246ZM590 362V332H586V362H590Z" fill="#49B25C" mask="url(#path-34-inside-2_11_1388)"/>
<defs>
<clipPath id="clip0_11_1388">
<rect x="543" y="385" width="750" height="1354" fill="white"/>
</clipPath>
<clipPath id="clip1_11_1388">
<rect x="662" y="1282" width="524" height="407" rx="18" fill="white"/>
</clipPath>
</defs>
</svg>
